# Dn-FamiTracker text export 0.5.0.1
# Module version 0450

# INFO block
TITLE           "in another world"
AUTHOR          "persune"
COPYRIGHT       "2023"

# COMMENTS block
COMMENT "27/02/2023"
COMMENT "in another world"
COMMENT "r**** invites me to help with her day"
COMMENT "i carried all her stuff"
COMMENT "she was hanging out with n******"
COMMENT "sometimes she gives me a kiss on the cheek"
COMMENT "when it was time to go, i spoke to her, i forgot what i said, but it was in a tone of apology, and i was teary-eyed"
COMMENT "she seems to nod in agreement, and she patted my shoulder"
COMMENT "that night i walked alone in the mall, sobbing"
COMMENT ""
COMMENT "i woke up sobbing too"

# PARAMS block
MACHINE         0
FRAMERATE       0
EXPANSION       1
VIBRATO         1
SPLIT           32
PLAYBACKRATE    0 16639

# SEQUENCES block
MACRO       0   0  -1   0   0 : 15 11 9 8 6 5 3 2 1 0
MACRO       0   1  -1  -1   0 : 15 15 10 7 6 6 5 4 3 3 3 2 2 1 1 0
MACRO       0   2  -1  -1   0 : 10 6 5 3 2 1 0
MACRO       1   0   2  -1   1 : 4 0 0
MACRO       1   1   3  -1   1 : 4 8 6 7
MACRO       1   2   1  -1   1 : 12 13
MACRO       1   3  -1  -1   0 : -1 0
MACRO       1   4   0  -1   1 : 0
MACRO       2   0   0  -1   0 : 66 -31
MACRO       2   1  -1  -1   0 : 127
MACRO       3   0   0  -1   0 : 127
MACRO       4   0  -1  -1   0 : 1 1 0
MACRO       4   1  -1  -1   0 : 1 0
MACROVRC6   0   0  -1  -1   0 : 15 15 15 15 8 6 4 3 2 1 0 0
MACROVRC6   0   1  -1  -1   0 : 15 15 15 14 12 7 5 1 0
MACROVRC6   0   2  -1   0   0 : 15 11 9 8 6 5 3 2 1 0
MACROVRC6   1   0   7  -1   1 : 30 27 25 22 20 18 17 16
MACROVRC6   1   1   4  -1   1 : 38 34 31 31 30
MACROVRC6   1   2   0  -1   1 : 0
MACROVRC6   2   0   0  -1   0 : 3
MACROVRC6   3   0   0  -1   0 : 26
MACROVRC6   4   0  -1  -1   0 : 7
MACRON163   0   0  -1   0   0 : 15 12 10 8 7 5 4 2 1 0
MACRON163   4   0  -1  -1   0 : 0
MACRON163   4   1  -1  -1   0 : 1
MACRON163   4   2  -1  -1   0 : 4
MACRON163   4   3  -1  -1   0 : 3
MACRON163   4   4  -1  -1   0 : 4

# DPCM SAMPLES block
DPCMDEF   0   369 "bd01"
DPCM : 15 F0 7F F9 FF FF FF FF 83 FB 05 02 08 04 00 00 00 00 00 00 00 00 00 00 FC FF FF FF FF FF FF FF
DPCM : FF 01 00 00 00 00 00 00 00 00 F0 FF FE FF FF FF FF FF FF FF FF FF 01 00 00 00 00 00 00 00 00 00
DPCM : 00 E0 FD F7 EF FF FF FF FF FF FF FF FF FF FF 00 04 20 00 00 00 00 00 00 00 00 00 00 00 00 FB BF
DPCM : EF F7 FD F7 FF FF FF FF FF FF FF FF FF FF 23 00 04 82 10 A2 10 00 00 00 00 00 00 00 00 00 00 00
DPCM : C0 FD F7 7B EF DE ED B6 DD FB FF FF FF FF FF FF FF FF FF FF FF 1F 40 00 41 10 21 45 22 89 24 92
DPCM : 04 00 00 00 00 00 00 00 00 00 00 00 00 FC FE 7D DF BD BB 5D DB B6 6D 5B DB B6 DB FF FF FF FF FF
DPCM : FF FF FF FF FF FF FF 3F 20 00 41 08 11 49 92 24 49 4A 4A 4A 4A 92 24 04 00 00 00 00 00 00 00 00
DPCM : 00 00 00 00 7C FF 7D DF BB BB 6D ED D6 B6 B6 D6 5A AD D5 6A AD B5 B6 DD FF FF FF FF FF FF FF FF
DPCM : FF FF FF FF FF 01 01 08 84 10 51 44 92 24 29 A9 94 4A A5 52 A9 54 52 12 02 00 00 00 00 00 00 00
DPCM : 00 00 00 00 00 D0 FF FE DE 77 77 B7 75 5B DB DA 5A AB B5 6A D5 AA 6A 55 D5 AA 5A B5 DA F6 FE FF
DPCM : FF FF FF FF FF FF FF FF FF FF FF 7F 01 81 20 08 11 11 25 49 92 A4 94 54 4A A5 52 A5 4A 55 2A 95
DPCM : 52 22 08 00 00 00 00 00 00 00 00 00 00 00 00 00 55
DPCMDEF   1   785 "sd08"
DPCM : 61 37 83 27 0C 72 FE FF FF FF FF 00 00 00 00 00 80 FF FF FF FF FF 07 00 00 00 00 00 00 00 00 F8
DPCM : FF FF FF FF FF FF FF 3F 00 00 00 00 00 00 00 FF FF FF FF FF FF FF 07 00 00 00 00 00 00 00 00 FC
DPCM : F7 F7 FD 7F E7 FF FF FF FF FF FF FF FF FF 00 00 00 00 00 00 00 00 E0 FF FF FF FF FF FF FF FF 01
DPCM : 00 00 00 00 00 00 00 00 00 EE FF FF FF FF FF FF FF FF 3F 1F 0C 00 02 40 00 00 00 00 00 00 00 00
DPCM : 00 FC FF FF FF FF FF FF FF 7F 00 00 00 00 00 00 00 00 00 00 C1 FF FF FF FF FF FF FF 7B 83 20 0C
DPCM : 64 84 38 00 00 00 00 00 00 00 00 00 FC FF FF FF FF FF FF FF FF 3F 00 00 00 00 00 00 00 00 00 C8
DPCM : B7 FF FF FF FF FF FF FF 39 06 20 20 00 E0 C0 00 00 00 00 00 00 00 91 FF 77 FF FF FF FF FF FF FF
DPCM : FF 76 00 00 00 00 00 00 00 00 10 FB FB FF FF FF FF FF FF CF 0C 02 00 00 00 20 02 C7 00 22 30 C3
DPCM : 3B 73 FF FB BF FF FF FF FF FF FF FF 8F 99 01 00 00 00 00 00 00 00 E0 3C FF FF FF FF FF 7F 7F 7F
DPCM : 61 00 00 00 00 C0 00 18 81 CC 71 0E FA F7 FE F5 7F FF C7 CE 98 CB C7 EC 21 03 04 00 08 00 00 10
DPCM : 83 E2 F2 FD FF FF FF FF DF FD 39 4F 00 04 00 00 00 18 C0 88 E1 17 3E FF 31 7F 9F 9F FF B9 E3 07
DPCM : 20 36 60 CE 19 06 88 99 61 00 00 B3 31 E6 1B FF FC BF FF BF FF 41 8E 0F 00 03 01 C0 40 40 61 F0
DPCM : F8 38 CF 3F 77 CE 1F 9B FF F0 2C 19 86 E1 18 84 1F C6 30 1C 83 40 72 7C 32 F8 D3 F9 F9 8F D7 3F
DPCM : F7 87 4C 38 08 03 44 86 98 84 64 C4 19 67 7E FC E3 CF 7F E6 E0 3E 33 03 61 88 33 93 78 CE 11 33
DPCM : 90 E6 18 CE 70 3C CE F9 FC 9E 67 7F C6 A8 03 B8 C0 C8 C0 8C 98 1C 1C 1E B0 73 E6 7F EA C3 3B 3E
DPCM : 3E 33 83 23 30 1C 18 3B 7E C0 CE C3 70 C6 8C 17 1E F6 83 A7 13 C7 E7 1D 99 5F 78 18 16 30 37 60
DPCM : DC 80 31 23 8E 33 76 33 FE FE 9C 47 38 73 66 0E 83 13 0F 18 9B B1 33 5C 07 8E F8 C4 2C F7 98 E5
DPCM : 8D 0D 3D 39 66 EC C1 89 4F 22 CE 8C 71 92 C9 0C AE 8E F3 B4 71 CF 39 C3 8D 91 89 1D 12 37 1C 26
DPCM : 59 D9 63 86 D9 C1 F1 DC 38 AB 79 1C 67 8E 19 63 1A 2B 6E B1 19 9C 71 14 67 1C 4E 0E CD 59 26 EF
DPCM : EC F8 1C 87 31 CD 8C B8 A1 A6 B2 4C 66 CC 8C E3 71 8C 15 37 3C 67 1E E3 52 CE 4C 69 CC 2C AD AA
DPCM : AC AA A2 52 4D 39 C6 38 95 33 AB B9 AA D6 39 E3 34 8E 42 95 99 AA 2A 8B 99 AA A9 1C AB 6A 36 CD
DPCM : B4 5A 55 35 33 55 95 AA AA AA AA AA AA AA AA AA 54 55 95 66 69 55 55 B3 AA 5A B3 9C AA AA 54 A6
DPCM : AA AA A2 2A 55 55 A5 AA AA 55 55 AD AA AA 5A 55 55 55 95 A9 AA AA AA AA AA AA AA AA AA AA 52 55
DPCM : 55 B3 A2 AA AA AA AA A5 55 55 55 A9 AA AA AA AA AA AA 54 55 55 55 55 B5 AA AA 55 55 55 55 AA AA
DPCM : AA AA A2 AA AA AA AA AA AA AA AA AA AA AA AA AA 55

# DETUNETABLES block

# GROOVES block
GROOVE   0   4 : 4 4 2 2
GROOVE   1   1 : 4

# Tracks using default groove:
USEGROOVE : 1 2

# INSTRUMENTS block
INST2A03   0    -1  -1  -1  -1  -1 ""
KEYDPCM   0   0   0     0  15   0     0   0
KEYDPCM   0   0   1     1  15   0     0   0
INST2A03   1     0  -1  -1  -1  -1 "pluck"
INST2A03   2     1   0  -1  -1   0 "kick"
INST2A03   3     1   1  -1  -1   0 "snare"
INST2A03   4     2   2  -1  -1  -1 "hat"
INSTN163   5     0  -1  -1  -1  -1  32   0   5 "zsquare bass Z00"
N163WAVE   5   0 :  0  1  2  3  4  5  6  7  8  9 10 11 12 13 14 15  0  1  2  3  4  5  6  7  8  9 10 11 12 13 14 15
N163WAVE   5   1 :  0  1  2  3  4  5  6  7  8  9 10 11 12 13 14 15  0  1  2  3  4  5  6  7  8  9 10 11 12 13 14 15
N163WAVE   5   2 :  0  0  0  0  0  0  0  0  0  0  0  0  0  0  0  0 15 15 15 15 15 15 15 15 15 15 15 15 15 15 15 15
N163WAVE   5   3 :  0  0  0  0  0  0  0  0  0  0  0  0  0  0  0  0 15 15 15 15 15 15 15 15 15 15 15 15 15 15 15 15
N163WAVE   5   4 :  0  1  2  3  4  5  6  7  8  9 10 11 12 13 14 15 15 14 13 12 11 10  9  8  7  6  5  4  3  2  1  0
INSTVRC6   6     0   0  -1  -1   0 "kick pulse"
INSTVRC6   7     1   1  -1  -1   0 "snare pulse"
INSTVRC6   8     2   2   0   0  -1 "pluck A#-1"

# track HEADER block
TRACK 128   0 150 "in another world (head in the clouds)"
COLUMNS : 2 2 1 2 1 2 1 1

# track FRAMES block
ORDER 00 : 00 00 00 00 00 00 00 00
ORDER 01 : 00 01 00 00 00 01 00 00
ORDER 02 : 01 00 01 00 00 02 00 01
ORDER 03 : 02 01 02 0F 0C 01 01 02
ORDER 04 : 0C 00 01 0D 01 02 02 03
ORDER 05 : 0D 01 02 0D 01 01 03 04
ORDER 06 : 0C 03 03 01 01 03 02 03
ORDER 07 : 0D 04 04 01 01 04 03 04
ORDER 08 : 0C 03 03 01 01 05 02 03
ORDER 09 : 0D 04 04 01 01 04 03 04
ORDER 0A : 00 03 00 02 02 05 04 05
ORDER 0B : 00 06 00 03 03 06 00 06
ORDER 0C : 03 05 09 04 03 07 00 07
ORDER 0D : 04 06 0A 0E 0A 06 00 0A
ORDER 0E : 0E 07 05 05 04 08 05 08
ORDER 0F : 0F 08 06 06 05 09 06 09
ORDER 10 : 10 07 05 05 04 0A 05 08
ORDER 11 : 11 08 06 06 05 09 06 09
ORDER 12 : 0E 09 07 0B 04 0B 05 08
ORDER 13 : 0F 0A 08 0C 05 06 06 09
ORDER 14 : 0E 09 07 0B 04 07 05 08
ORDER 15 : 0F 0A 08 0C 05 06 06 09
ORDER 16 : 00 09 00 07 0B 07 07 0B
ORDER 17 : 00 04 00 08 02 04 00 0C
ORDER 18 : 05 03 09 09 02 05 00 01
ORDER 19 : 06 04 0A 0A 06 04 00 02
ORDER 1A : 0C 00 01 0D 01 0C 02 03
ORDER 1B : 0D 01 02 0D 07 01 03 04

# track PATTERNS block
PATTERN 00
ROW 00 : --- .. . ... ... : D-3 01 8 V02 411 : --- .. . 400 : 0-# 04 F O00 F96 : ... .. . ... : --- .. 4 V07 P7F : --- .. . ... : --- .. . ...
ROW 01 : ... .. . ... ... : ... .. . ... ... : ... .. . ... : ... .. . ... ... : ... .. . ... : ... .. . ... 411 : ... .. . ... : ... .. . ...
ROW 02 : ... .. . ... ... : F-3 01 . ... ... : ... .. . ... : ... .. . ... ... : ... .. . ... : ... .. . ... ... : ... .. . ... : ... .. . ...
ROW 03 : ... .. . ... ... : ... .. . ... ... : ... .. . ... : ... .. . ... ... : ... .. . ... : ... .. . ... ... : ... .. . ... : ... .. . ...
ROW 04 : ... .. . ... ... : ... .. . ... ... : ... .. . ... : ... .. . ... ... : ... .. . ... : ... .. . ... ... : ... .. . ... : ... .. . ...
ROW 05 : ... .. . ... ... : D-4 01 . ... ... : ... .. . ... : ... .. . ... ... : ... .. . ... : D-3 01 . ... ... : ... .. . ... : ... .. . ...
ROW 06 : ... .. . ... ... : ... .. . ... ... : ... .. . ... : ... .. . ... ... : ... .. . ... : ... .. . ... ... : ... .. . ... : ... .. . ...
ROW 07 : ... .. . ... ... : ... .. . ... ... : ... .. . ... : ... .. . ... ... : ... .. . ... : ... .. . ... ... : ... .. . ... : ... .. . ...
ROW 08 : ... .. . ... ... : A-4 01 . ... ... : ... .. . ... : 0-# 04 . ... F96 : ... .. . ... : F-3 01 . ... ... : ... .. . ... : ... .. . ...
ROW 09 : ... .. . ... ... : ... .. . ... ... : ... .. . ... : ... .. . ... ... : ... .. . ... : ... .. . ... ... : ... .. . ... : ... .. . ...
ROW 0A : ... .. . ... ... : C-5 01 . ... ... : ... .. . ... : ... .. . ... ... : ... .. . ... : D-4 01 . ... ... : ... .. . ... : ... .. . ...
ROW 0B : ... .. . ... ... : ... .. . ... ... : ... .. . ... : ... .. . ... ... : ... .. . ... : ... .. . ... ... : ... .. . ... : ... .. . ...
ROW 0C : ... .. . ... ... : ... .. . ... ... : ... .. . ... : ... .. . ... ... : ... .. . ... : ... .. . ... ... : ... .. . ... : ... .. . ...
ROW 0D : ... .. . ... ... : D-5 01 . ... ... : ... .. . ... : ... .. . ... ... : ... .. . ... : A-4 01 . ... ... : ... .. . ... : ... .. . ...
ROW 0E : ... .. . ... ... : ... .. . ... ... : ... .. . ... : ... .. . ... ... : ... .. . ... : ... .. . ... ... : ... .. . ... : ... .. . ...
ROW 0F : ... .. . ... ... : ... .. . ... ... : ... .. . ... : ... .. . ... ... : ... .. . ... : ... .. . ... ... : ... .. . ... : ... .. . ...
ROW 10 : ... .. . ... ... : D-3 01 . ... ... : ... .. . ... : 0-# 04 . ... F96 : ... .. . ... : C-5 01 . ... ... : ... .. . ... : ... .. . ...
ROW 11 : ... .. . ... ... : ... .. . ... ... : ... .. . ... : ... .. . ... ... : ... .. . ... : ... .. . ... ... : ... .. . ... : ... .. . ...
ROW 12 : ... .. . ... ... : F-3 01 . ... ... : ... .. . ... : ... .. . ... ... : ... .. . ... : D-5 01 . ... ... : ... .. . ... : ... .. . ...
ROW 13 : ... .. . ... ... : ... .. . ... ... : ... .. . ... : ... .. . ... ... : ... .. . ... : ... .. . ... ... : ... .. . ... : ... .. . ...
ROW 14 : ... .. . ... ... : ... .. . ... ... : ... .. . ... : ... .. . ... ... : ... .. . ... : ... .. . ... ... : ... .. . ... : ... .. . ...
ROW 15 : ... .. . ... ... : D-4 01 . ... ... : ... .. . ... : ... .. . ... ... : ... .. . ... : D-3 01 . ... ... : ... .. . ... : ... .. . ...
ROW 16 : ... .. . ... ... : ... .. . ... ... : ... .. . ... : ... .. . ... ... : ... .. . ... : ... .. . ... ... : ... .. . ... : ... .. . ...
ROW 17 : ... .. . ... ... : ... .. . ... ... : ... .. . ... : ... .. . ... ... : ... .. . ... : ... .. . ... ... : ... .. . ... : ... .. . ...
ROW 18 : ... .. . ... ... : A-4 01 . ... ... : ... .. . ... : 0-# 04 . ... F96 : ... .. . ... : F-3 01 . ... ... : ... .. . ... : ... .. . ...
ROW 19 : ... .. . ... ... : ... .. . ... ... : ... .. . ... : ... .. . ... ... : ... .. . ... : ... .. . ... ... : ... .. . ... : ... .. . ...
ROW 1A : ... .. . ... ... : C-5 01 . ... ... : ... .. . ... : ... .. . ... ... : ... .. . ... : D-4 01 . ... ... : ... .. . ... : ... .. . ...
ROW 1B : ... .. . ... ... : ... .. . ... ... : ... .. . ... : ... .. . ... ... : ... .. . ... : ... .. . ... ... : ... .. . ... : ... .. . ...
ROW 1C : ... .. . ... ... : ... .. . ... ... : ... .. . ... : ... .. . ... ... : ... .. . ... : ... .. . ... ... : ... .. . ... : ... .. . ...
ROW 1D : ... .. . ... ... : D-5 01 . ... ... : ... .. . ... : ... .. . ... ... : ... .. . ... : A-4 01 . ... ... : ... .. . ... : ... .. . ...
ROW 1E : ... .. . ... ... : ... .. . ... ... : ... .. . ... : ... .. . ... ... : ... .. . ... : ... .. . ... ... : ... .. . ... : ... .. . ...
ROW 1F : ... .. . ... ... : ... .. . ... ... : ... .. . ... : ... .. . ... ... : ... .. . ... : ... .. . ... ... : ... .. . ... : ... .. . ...
ROW 20 : ... .. . ... ... : D-3 01 . ... ... : ... .. . ... : 0-# 04 . ... F96 : ... .. . ... : C-5 01 . ... ... : ... .. . ... : ... .. . ...
ROW 21 : ... .. . ... ... : ... .. . ... ... : ... .. . ... : ... .. . ... ... : ... .. . ... : ... .. . ... ... : ... .. . ... : ... .. . ...
ROW 22 : ... .. . ... ... : F-3 01 . ... ... : ... .. . ... : ... .. . ... ... : ... .. . ... : D-5 01 . ... ... : ... .. . ... : ... .. . ...
ROW 23 : ... .. . ... ... : ... .. . ... ... : ... .. . ... : ... .. . ... ... : ... .. . ... : ... .. . ... ... : ... .. . ... : ... .. . ...
ROW 24 : ... .. . ... ... : ... .. . ... ... : ... .. . ... : ... .. . ... ... : ... .. . ... : ... .. . ... ... : ... .. . ... : ... .. . ...
ROW 25 : ... .. . ... ... : D-4 01 . ... ... : ... .. . ... : ... .. . ... ... : ... .. . ... : D-3 01 . ... ... : ... .. . ... : ... .. . ...
ROW 26 : ... .. . ... ... : ... .. . ... ... : ... .. . ... : ... .. . ... ... : ... .. . ... : ... .. . ... ... : ... .. . ... : ... .. . ...
ROW 27 : ... .. . ... ... : ... .. . ... ... : ... .. . ... : ... .. . ... ... : ... .. . ... : ... .. . ... ... : ... .. . ... : ... .. . ...
ROW 28 : ... .. . ... ... : A-4 01 . ... ... : ... .. . ... : 0-# 04 . ... F96 : ... .. . ... : F-3 01 . ... ... : ... .. . ... : ... .. . ...
ROW 29 : ... .. . ... ... : ... .. . ... ... : ... .. . ... : ... .. . ... ... : ... .. . ... : ... .. . ... ... : ... .. . ... : ... .. . ...
ROW 2A : ... .. . ... ... : C-5 01 . ... ... : ... .. . ... : ... .. . ... ... : ... .. . ... : D-4 01 . ... ... : ... .. . ... : ... .. . ...
ROW 2B : ... .. . ... ... : ... .. . ... ... : ... .. . ... : ... .. . ... ... : ... .. . ... : ... .. . ... ... : ... .. . ... : ... .. . ...
ROW 2C : ... .. . ... ... : ... .. . ... ... : ... .. . ... : ... .. . ... ... : ... .. . ... : ... .. . ... ... : ... .. . ... : ... .. . ...
ROW 2D : ... .. . ... ... : D-5 01 . ... ... : ... .. . ... : ... .. . ... ... : ... .. . ... : A-4 01 . ... ... : ... .. . ... : ... .. . ...
ROW 2E : ... .. . ... ... : ... .. . ... ... : ... .. . ... : ... .. . ... ... : ... .. . ... : ... .. . ... ... : ... .. . ... : ... .. . ...
ROW 2F : ... .. . ... ... : ... .. . ... ... : ... .. . ... : ... .. . ... ... : ... .. . ... : ... .. . ... ... : ... .. . ... : ... .. . ...
ROW 30 : ... .. . ... ... : D-3 01 . ... ... : ... .. . ... : 0-# 04 . ... F96 : ... .. . ... : C-5 01 . ... ... : ... .. . ... : ... .. . ...
ROW 31 : ... .. . ... ... : ... .. . ... ... : ... .. . ... : ... .. . ... ... : ... .. . ... : ... .. . ... ... : ... .. . ... : ... .. . ...
ROW 32 : ... .. . ... ... : F-3 01 . ... ... : ... .. . ... : ... .. . ... ... : ... .. . ... : D-5 01 . ... ... : ... .. . ... : ... .. . ...
ROW 33 : ... .. . ... ... : ... .. . ... ... : ... .. . ... : ... .. . ... ... : ... .. . ... : ... .. . ... ... : ... .. . ... : ... .. . ...
ROW 34 : ... .. . ... ... : ... .. . ... ... : ... .. . ... : ... .. . ... ... : ... .. . ... : ... .. . ... ... : ... .. . ... : ... .. . ...
ROW 35 : ... .. . ... ... : D-4 01 . ... ... : ... .. . ... : ... .. . ... ... : ... .. . ... : D-3 01 . ... ... : ... .. . ... : ... .. . ...
ROW 36 : ... .. . ... ... : ... .. . ... ... : ... .. . ... : ... .. . ... ... : ... .. . ... : ... .. . ... ... : ... .. . ... : ... .. . ...
ROW 37 : ... .. . ... ... : ... .. . ... ... : ... .. . ... : ... .. . ... ... : ... .. . ... : ... .. . ... ... : ... .. . ... : ... .. . ...
ROW 38 : ... .. . ... ... : A-4 01 . ... ... : ... .. . ... : 0-# 04 . ... F96 : ... .. . ... : F-3 01 . ... ... : ... .. . ... : ... .. . ...
ROW 39 : ... .. . ... ... : ... .. . ... ... : ... .. . ... : ... .. . ... ... : ... .. . ... : ... .. . ... ... : ... .. . ... : ... .. . ...
ROW 3A : ... .. . ... ... : C-5 01 . ... ... : ... .. . ... : ... .. . ... ... : ... .. . ... : D-4 01 . ... ... : ... .. . ... : ... .. . ...
ROW 3B : ... .. . ... ... : ... .. . ... ... : ... .. . ... : ... .. . ... ... : ... .. . ... : ... .. . ... ... : ... .. . ... : ... .. . ...
ROW 3C : ... .. . ... ... : ... .. . ... ... : ... .. . ... : ... .. . ... ... : ... .. . ... : ... .. . ... ... : ... .. . ... : ... .. . ...
ROW 3D : ... .. . ... ... : D-5 01 . ... ... : ... .. . ... : 0-# 04 . ... ... : ... .. . ... : A-4 01 . ... ... : ... .. . ... : ... .. . ...
ROW 3E : ... .. . ... ... : ... .. . ... ... : ... .. . ... : ... .. . ... ... : ... .. . ... : ... .. . ... ... : ... .. . ... : ... .. . ...
ROW 3F : ... .. . ... ... : ... .. . ... ... : ... .. . ... : ... .. . ... ... : ... .. . ... : ... .. . ... ... : ... .. . ... : ... .. . ...
ROW 40 : ... .. . ... ... : D-3 01 . ... ... : ... .. . ... : 4-# 04 . ... F96 : ... .. . ... : C-5 01 . ... ... : ... .. . ... : ... .. . ...
ROW 41 : ... .. . ... ... : ... .. . ... ... : ... .. . ... : ... .. . ... ... : ... .. . ... : ... .. . ... ... : ... .. . ... : ... .. . ...
ROW 42 : ... .. . ... ... : F-3 01 . ... ... : ... .. . ... : ... .. . ... ... : ... .. . ... : D-5 01 . ... ... : ... .. . ... : ... .. . ...
ROW 43 : ... .. . ... ... : ... .. . ... ... : ... .. . ... : ... .. . ... ... : ... .. . ... : ... .. . ... ... : ... .. . ... : ... .. . ...
ROW 44 : ... .. . ... ... : ... .. . ... ... : ... .. . ... : ... .. . ... ... : ... .. . ... : ... .. . ... ... : ... .. . ... : ... .. . ...
ROW 45 : ... .. . ... ... : D-4 01 . ... ... : ... .. . ... : ... .. . ... ... : ... .. . ... : D-3 01 . ... ... : ... .. . ... : ... .. . ...
ROW 46 : ... .. . ... ... : ... .. . ... ... : ... .. . ... : ... .. . ... ... : ... .. . ... : ... .. . ... ... : ... .. . ... : ... .. . ...
ROW 47 : ... .. . ... ... : ... .. . ... ... : ... .. . ... : ... .. . ... ... : ... .. . ... : ... .. . ... ... : ... .. . ... : ... .. . ...
ROW 48 : ... .. . ... ... : A-4 01 . ... ... : ... .. . ... : 0-# 04 . ... F96 : ... .. . ... : F-3 01 . ... ... : ... .. . ... : ... .. . ...
ROW 49 : ... .. . ... ... : ... .. . ... ... : ... .. . ... : ... .. . ... ... : ... .. . ... : ... .. . ... ... : ... .. . ... : ... .. . ...
ROW 4A : ... .. . ... ... : C-5 01 . ... ... : ... .. . ... : ... .. . ... ... : ... .. . ... : D-4 01 . ... ... : ... .. . ... : ... .. . ...
ROW 4B : ... .. . ... ... : ... .. . ... ... : ... .. . ... : ... .. . ... ... : ... .. . ... : ... .. . ... ... : ... .. . ... : ... .. . ...
ROW 4C : ... .. . ... ... : ... .. . ... ... : ... .. . ... : ... .. . ... ... : ... .. . ... : ... .. . ... ... : ... .. . ... : ... .. . ...
ROW 4D : ... .. . ... ... : D-5 01 . ... ... : ... .. . ... : ... .. . ... ... : ... .. . ... : A-4 01 . ... ... : ... .. . ... : ... .. . ...
ROW 4E : ... .. . ... ... : ... .. . ... ... : ... .. . ... : ... .. . ... ... : ... .. . ... : ... .. . ... ... : ... .. . ... : ... .. . ...
ROW 4F : ... .. . ... ... : ... .. . ... ... : ... .. . ... : ... .. . ... ... : ... .. . ... : ... .. . ... ... : ... .. . ... : ... .. . ...
ROW 50 : ... .. . ... ... : D-3 01 . ... ... : ... .. . ... : 0-# 04 . ... F96 : ... .. . ... : C-5 01 . ... ... : ... .. . ... : ... .. . ...
ROW 51 : ... .. . ... ... : ... .. . ... ... : ... .. . ... : ... .. . ... ... : ... .. . ... : ... .. . ... ... : ... .. . ... : ... .. . ...
ROW 52 : ... .. . ... ... : F-3 01 . ... ... : ... .. . ... : ... .. . ... ... : ... .. . ... : D-5 01 . ... ... : ... .. . ... : ... .. . ...
ROW 53 : ... .. . ... ... : ... .. . ... ... : ... .. . ... : ... .. . ... ... : ... .. . ... : ... .. . ... ... : ... .. . ... : ... .. . ...
ROW 54 : ... .. . ... ... : ... .. . ... ... : ... .. . ... : ... .. . ... ... : ... .. . ... : ... .. . ... ... : ... .. . ... : ... .. . ...
ROW 55 : ... .. . ... ... : D-4 01 . ... ... : ... .. . ... : ... .. . ... ... : ... .. . ... : D-3 01 . ... ... : ... .. . ... : ... .. . ...
ROW 56 : ... .. . ... ... : ... .. . ... ... : ... .. . ... : ... .. . ... ... : ... .. . ... : ... .. . ... ... : ... .. . ... : ... .. . ...
ROW 57 : ... .. . ... ... : ... .. . ... ... : ... .. . ... : ... .. . ... ... : ... .. . ... : ... .. . ... ... : ... .. . ... : ... .. . ...
ROW 58 : ... .. . ... ... : A-4 01 . ... ... : ... .. . ... : 0-# 04 . ... F96 : ... .. . ... : F-3 01 . ... ... : ... .. . ... : ... .. . ...
ROW 59 : ... .. . ... ... : ... .. . ... ... : ... .. . ... : ... .. . ... ... : ... .. . ... : ... .. . ... ... : ... .. . ... : ... .. . ...
ROW 5A : ... .. . ... ... : C-5 01 . ... ... : ... .. . ... : ... .. . ... ... : ... .. . ... : D-4 01 . ... ... : ... .. . ... : ... .. . ...
ROW 5B : ... .. . ... ... : ... .. . ... ... : ... .. . ... : ... .. . ... ... : ... .. . ... : ... .. . ... ... : ... .. . ... : ... .. . ...
ROW 5C : ... .. . ... ... : ... .. . ... ... : ... .. . ... : ... .. . ... ... : ... .. . ... : ... .. . ... ... : ... .. . ... : ... .. . ...
ROW 5D : ... .. . ... ... : D-5 01 . ... ... : ... .. . ... : ... .. . ... ... : ... .. . ... : A-4 01 . ... ... : ... .. . ... : ... .. . ...
ROW 5E : ... .. . ... ... : ... .. . ... ... : ... .. . ... : ... .. . ... ... : ... .. . ... : ... .. . ... ... : ... .. . ... : ... .. . ...
ROW 5F : ... .. . ... ... : ... .. . ... ... : ... .. . ... : ... .. . ... ... : ... .. . ... : ... .. . ... ... : ... .. . ... : ... .. . ...
ROW 60 : ... .. . ... ... : D-3 01 . ... ... : ... .. . ... : 0-# 04 . ... F96 : ... .. . ... : C-5 01 . ... ... : ... .. . ... : ... .. . ...
ROW 61 : ... .. . ... ... : ... .. . ... ... : ... .. . ... : ... .. . ... ... : ... .. . ... : ... .. . ... ... : ... .. . ... : ... .. . ...
ROW 62 : ... .. . ... ... : F-3 01 . ... ... : ... .. . ... : ... .. . ... ... : ... .. . ... : D-5 01 . ... ... : ... .. . ... : ... .. . ...
ROW 63 : ... .. . ... ... : ... .. . ... ... : ... .. . ... : ... .. . ... ... : ... .. . ... : ... .. . ... ... : ... .. . ... : ... .. . ...
ROW 64 : ... .. . ... ... : ... .. . ... ... : ... .. . ... : ... .. . ... ... : ... .. . ... : ... .. . ... ... : ... .. . ... : ... .. . ...
ROW 65 : ... .. . ... ... : D-4 01 . ... ... : ... .. . ... : ... .. . ... ... : ... .. . ... : D-3 01 . ... ... : ... .. . ... : ... .. . ...
ROW 66 : ... .. . ... ... : ... .. . ... ... : ... .. . ... : ... .. . ... ... : ... .. . ... : ... .. . ... ... : ... .. . ... : ... .. . ...
ROW 67 : ... .. . ... ... : ... .. . ... ... : ... .. . ... : ... .. . ... ... : ... .. . ... : ... .. . ... ... : ... .. . ... : ... .. . ...
ROW 68 : ... .. . ... ... : A-4 01 . ... ... : ... .. . ... : 0-# 04 . ... F96 : ... .. . ... : F-3 01 . ... ... : ... .. . ... : ... .. . ...
ROW 69 : ... .. . ... ... : ... .. . ... ... : ... .. . ... : ... .. . ... ... : ... .. . ... : ... .. . ... ... : ... .. . ... : ... .. . ...
ROW 6A : ... .. . ... ... : C-5 01 . ... ... : ... .. . ... : ... .. . ... ... : ... .. . ... : D-4 01 . ... ... : ... .. . ... : ... .. . ...
ROW 6B : ... .. . ... ... : ... .. . ... ... : ... .. . ... : ... .. . ... ... : ... .. . ... : ... .. . ... ... : ... .. . ... : ... .. . ...
ROW 6C : ... .. . ... ... : ... .. . ... ... : ... .. . ... : ... .. . ... ... : ... .. . ... : ... .. . ... ... : ... .. . ... : ... .. . ...
ROW 6D : ... .. . ... ... : D-5 01 . ... ... : ... .. . ... : ... .. . ... ... : ... .. . ... : A-4 01 . ... ... : ... .. . ... : ... .. . ...
ROW 6E : ... .. . ... ... : ... .. . ... ... : ... .. . ... : ... .. . ... ... : ... .. . ... : ... .. . ... ... : ... .. . ... : ... .. . ...
ROW 6F : ... .. . ... ... : ... .. . ... ... : ... .. . ... : ... .. . ... ... : ... .. . ... : ... .. . ... ... : ... .. . ... : ... .. . ...
ROW 70 : ... .. . ... ... : D-3 01 . ... ... : ... .. . ... : 0-# 04 . ... F96 : ... .. . ... : C-5 01 . ... ... : ... .. . ... : ... .. . ...
ROW 71 : ... .. . ... ... : ... .. . ... ... : ... .. . ... : ... .. . ... ... : ... .. . ... : ... .. . ... ... : ... .. . ... : ... .. . ...
ROW 72 : ... .. . ... ... : F-3 01 . ... ... : ... .. . ... : ... .. . ... ... : ... .. . ... : D-5 01 . ... ... : ... .. . ... : ... .. . ...
ROW 73 : ... .. . ... ... : ... .. . ... ... : ... .. . ... : ... .. . ... ... : ... .. . ... : ... .. . ... ... : ... .. . ... : ... .. . ...
ROW 74 : ... .. . ... ... : ... .. . ... ... : ... .. . ... : ... .. . ... ... : ... .. . ... : ... .. . ... ... : ... .. . ... : ... .. . ...
ROW 75 : ... .. . ... ... : D-4 01 . ... ... : ... .. . ... : ... .. . ... ... : ... .. . ... : D-3 01 . ... ... : ... .. . ... : ... .. . ...
ROW 76 : ... .. . ... ... : ... .. . ... ... : ... .. . ... : ... .. . ... ... : ... .. . ... : ... .. . ... ... : ... .. . ... : ... .. . ...
ROW 77 : ... .. . ... ... : ... .. . ... ... : ... .. . ... : ... .. . ... ... : ... .. . ... : ... .. . ... ... : ... .. . ... : ... .. . ...
ROW 78 : ... .. . ... ... : A-4 01 . ... ... : ... .. . ... : 0-# 04 . ... F96 : ... .. . ... : F-3 01 . ... ... : ... .. . ... : ... .. . ...
ROW 79 : ... .. . ... ... : ... .. . ... ... : ... .. . ... : ... .. . ... ... : ... .. . ... : ... .. . ... ... : ... .. . ... : ... .. . ...
ROW 7A : ... .. . ... ... : C-5 01 . ... ... : ... .. . ... : ... .. . ... ... : ... .. . ... : D-4 01 . ... ... : ... .. . ... : ... .. . ...
ROW 7B : ... .. . ... ... : ... .. . ... ... : ... .. . ... : ... .. . ... ... : ... .. . ... : ... .. . ... ... : ... .. . ... : ... .. . ...
ROW 7C : ... .. . ... ... : ... .. . ... ... : ... .. . ... : ... .. . ... ... : ... .. . ... : ... .. . ... ... : ... .. . ... : ... .. . ...
ROW 7D : ... .. . ... ... : D-5 01 . ... ... : ... .. . ... : 0-# 04 . ... ... : ... .. . ... : A-4 01 . ... ... : ... .. . ... : ... .. . ...
ROW 7E : ... .. . ... ... : ... .. . ... ... : ... .. . ... : ... .. . ... ... : ... .. . ... : ... .. . ... ... : ... .. . ... : ... .. . ...
ROW 7F : ... .. . ... ... : ... .. . ... ... : ... .. . ... : ... .. . ... ... : ... .. . ... : ... .. . ... ... : ... .. . ... : ... .. . ...
PATTERN 01
ROW 00 : ... .. . ... P7F : A#3 01 . ... ... : C-6 00 . 400 : 0-# 02 F ... F96 : C-0 00 . ... : C-5 01 4 V07 P7F : --- .. . ... : D-1 01 F ...
ROW 01 : ... .. . ... ... : ... .. . ... ... : D-6 00 . ... : ... .. . ... ... : ... .. . ... : ... .. . ... ... : ... .. . ... : ... .. . ...
ROW 02 : --- .. . ... ... : D-4 01 . ... ... : ... .. . ... : ... .. . ... ... : --- .. . ... : D-5 01 . ... ... : ... .. . ... : ... .. . ...
ROW 03 : ... .. . ... ... : ... .. . ... ... : ... .. . ... : ... .. . ... ... : ... .. . ... : ... .. . ... ... : ... .. . ... : ... .. . ...
ROW 04 : ... .. . ... ... : ... .. . ... ... : ... .. . ... : ... .. . ... ... : ... .. . ... : ... .. . ... ... : ... .. . ... : ... .. . ...
ROW 05 : C-5 00 2 400 V02 : A-4 01 . ... ... : ... .. . ... : 0-# 04 . ... ... : ... .. . ... : A#3 01 . ... ... : ... .. . ... : === .. . ...
ROW 06 : D-5 00 . ... ... : ... .. . ... ... : ... .. . ... : ... .. . ... ... : ... .. . ... : ... .. . ... ... : ... .. . ... : ... .. . ...
ROW 07 : ... .. . ... ... : ... .. . ... ... : ... .. . ... : ... .. . ... ... : ... .. . ... : ... .. . ... ... : ... .. . ... : ... .. . ...
ROW 08 : ... .. . ... ... : A#4 01 . ... ... : ... .. . 482 : 0-# 04 . ... F96 : ... .. . ... : D-4 01 . ... ... : ... .. . ... : D-1 01 . ...
ROW 09 : ... .. . ... ... : ... .. . ... ... : ... .. . ... : ... .. . ... ... : ... .. . ... : ... .. . ... ... : ... .. . ... : ... .. . ...
ROW 0A : ... .. . ... ... : A-4 01 . ... ... : ... .. . ... : ... .. . ... ... : ... .. . ... : A-4 01 . ... ... : ... .. . ... : ... .. . ...
ROW 0B : ... .. . ... ... : ... .. . ... ... : ... .. . ... : ... .. . ... ... : ... .. . ... : ... .. . ... ... : ... .. . ... : ... .. . ...
ROW 0C : ... .. . ... ... : ... .. . ... ... : ... .. . ... : ... .. . ... ... : ... .. . ... : ... .. . ... ... : ... .. . ... : ... .. . ...
ROW 0D : ... .. . 482 ... : F-4 01 . ... ... : ... .. . ... : 0-# 04 . ... ... : ... .. . ... : A#4 01 . ... ... : ... .. . ... : === .. . ...
ROW 0E : ... .. . ... ... : ... .. . ... ... : ... .. . ... : ... .. . ... ... : ... .. . ... : ... .. . ... ... : ... .. . ... : ... .. . ...
ROW 0F : ... .. . ... ... : ... .. . ... ... : ... .. . ... : ... .. . ... ... : ... .. . ... : ... .. . ... ... : ... .. . ... : ... .. . ...
ROW 10 : ... .. . ... ... : A#3 01 . ... ... : G#5 00 . 400 : 0-# 03 . ... F96 : C#0 00 . ... : A-4 01 . ... ... : ... .. . ... : F-1 01 . ...
ROW 11 : ... .. . ... ... : ... .. . ... ... : ... .. . ... : ... .. . ... ... : ... .. . ... : ... .. . ... ... : ... .. . ... : ... .. . ...
ROW 12 : ... .. . ... ... : D-4 01 . ... ... : ... .. . ... : ... .. . ... ... : --- .. . ... : F-4 01 . ... ... : ... .. . ... : ... .. . ...
ROW 13 : ... .. . ... ... : ... .. . ... ... : ... .. . ... : ... .. . ... ... : ... .. . ... : ... .. . ... ... : ... .. . ... : ... .. . ...
ROW 14 : ... .. . ... ... : ... .. . ... ... : ... .. . ... : ... .. . ... ... : ... .. . ... : ... .. . ... ... : ... .. . ... : ... .. . ...
ROW 15 : G#4 00 . 400 ... : A-4 01 . ... ... : A-5 00 . ... : 0-# 04 . ... ... : ... .. . ... : A#3 01 . ... ... : ... .. . ... : ... .. . ...
ROW 16 : ... .. . ... ... : ... .. . ... ... : ... .. . ... : ... .. . ... ... : ... .. . ... : ... .. . ... ... : ... .. . ... : ... .. . ...
ROW 17 : ... .. . ... ... : ... .. . ... ... : ... .. . ... : ... .. . ... ... : ... .. . ... : ... .. . ... ... : ... .. . ... : ... .. . ...
ROW 18 : ... .. . ... ... : A#4 01 . ... ... : ... .. . ... : 0-# 04 . ... F96 : ... .. . ... : D-4 01 . ... ... : ... .. . ... : G-1 01 . ...
ROW 19 : ... .. . ... ... : ... .. . ... ... : ... .. . ... : ... .. . ... ... : ... .. . ... : ... .. . ... ... : ... .. . ... : ... .. . ...
ROW 1A : A-4 00 . ... ... : A-4 01 . ... ... : F-6 00 . ... : ... .. . ... ... : ... .. . ... : A-4 01 . ... ... : ... .. . ... : ... .. . ...
ROW 1B : ... .. . ... ... : ... .. . ... ... : ... .. . ... : ... .. . ... ... : ... .. . ... : ... .. . ... ... : ... .. . ... : ... .. . ...
ROW 1C : ... .. . ... ... : ... .. . ... ... : ... .. . ... : ... .. . ... ... : ... .. . ... : ... .. . ... ... : ... .. . ... : ... .. . ...
ROW 1D : ... .. . ... ... : F-4 01 . ... ... : ... .. . ... : 0-# 04 . ... ... : ... .. . ... : A#4 01 . ... ... : ... .. . ... : ... .. . ...
ROW 1E : ... .. . ... ... : ... .. . ... ... : ... .. . ... : ... .. . ... ... : ... .. . ... : ... .. . ... ... : ... .. . ... : ... .. . ...
ROW 1F : ... .. . ... ... : ... .. . ... ... : ... .. . ... : ... .. . ... ... : ... .. . ... : ... .. . ... ... : ... .. . ... : ... .. . ...
ROW 20 : F-5 00 . ... ... : A#3 01 . ... ... : D-6 00 . ... : 0-# 02 . ... F96 : C-0 00 . ... : A-4 01 . ... ... : ... .. . ... : A-1 01 . ...
ROW 21 : ... .. . ... ... : ... .. . ... ... : ... .. . ... : ... .. . ... ... : ... .. . ... : ... .. . ... ... : ... .. . ... : ... .. . ...
ROW 22 : ... .. . ... ... : D-4 01 . ... ... : ... .. . ... : ... .. . ... ... : --- .. . ... : F-4 01 . ... ... : ... .. . ... : ... .. . ...
ROW 23 : ... .. . ... ... : ... .. . ... ... : ... .. . ... : ... .. . ... ... : ... .. . ... : ... .. . ... ... : ... .. . ... : ... .. . ...
ROW 24 : ... .. . ... ... : ... .. . ... ... : ... .. . ... : ... .. . ... ... : ... .. . ... : ... .. . ... ... : ... .. . ... : ... .. . ...
ROW 25 : D-5 00 . ... ... : A-4 01 . ... ... : ... .. . ... : 0-# 04 . ... ... : ... .. . ... : A#3 01 . ... ... : ... .. . ... : ... .. . ...
ROW 26 : ... .. . ... ... : ... .. . ... ... : ... .. . ... : ... .. . ... ... : ... .. . ... : ... .. . ... ... : ... .. . ... : ... .. . ...
ROW 27 : ... .. . ... ... : ... .. . ... ... : ... .. . ... : ... .. . ... ... : ... .. . ... : ... .. . ... ... : ... .. . ... : ... .. . ...
ROW 28 : ... .. . ... ... : A#4 01 . ... ... : ... .. . 482 : 0-# 04 . ... F96 : ... .. . ... : D-4 01 . ... ... : ... .. . ... : G-1 01 . ...
ROW 29 : ... .. . ... ... : ... .. . ... ... : ... .. . ... : ... .. . ... ... : ... .. . ... : ... .. . ... ... : ... .. . ... : ... .. . ...
ROW 2A : ... .. . ... ... : A-4 01 . ... ... : ... .. . ... : ... .. . ... ... : ... .. . ... : A-4 01 . ... ... : ... .. . ... : ... .. . ...
ROW 2B : ... .. . ... ... : ... .. . ... ... : ... .. . ... : ... .. . ... ... : ... .. . ... : ... .. . ... ... : ... .. . ... : ... .. . ...
ROW 2C : ... .. . ... ... : ... .. . ... ... : ... .. . ... : ... .. . ... ... : ... .. . ... : ... .. . ... ... : ... .. . ... : ... .. . ...
ROW 2D : ... .. . 482 ... : F-4 01 . ... ... : ... .. . ... : 0-# 04 . ... ... : ... .. . ... : A#4 01 . ... ... : ... .. . ... : === .. . ...
ROW 2E : ... .. . ... ... : ... .. . ... ... : ... .. . ... : ... .. . ... ... : ... .. . ... : ... .. . ... ... : ... .. . ... : ... .. . ...
ROW 2F : ... .. . ... ... : ... .. . ... ... : ... .. . ... : ... .. . ... ... : ... .. . ... : ... .. . ... ... : ... .. . ... : ... .. . ...
ROW 30 : ... .. . ... ... : A#3 01 . ... ... : G#5 00 . 400 : 0-# 03 . ... F96 : C#0 00 . ... : A-4 01 . ... ... : ... .. . ... : F-1 01 . ...
ROW 31 : ... .. . ... ... : ... .. . ... ... : ... .. . ... : ... .. . ... ... : ... .. . ... : ... .. . ... ... : ... .. . ... : ... .. . ...
ROW 32 : ... .. . ... ... : D-4 01 . ... ... : ... .. . ... : 0-# 04 . ... ... : --- .. . ... : F-4 01 . ... ... : ... .. . ... : ... .. . ...
ROW 33 : ... .. . ... ... : ... .. . ... ... : ... .. . ... : ... .. . ... ... : ... .. . ... : ... .. . ... ... : ... .. . ... : ... .. . ...
ROW 34 : ... .. . ... ... : ... .. . ... ... : ... .. . ... : ... .. . ... ... : ... .. . ... : ... .. . ... ... : ... .. . ... : ... .. . ...
ROW 35 : G#4 00 . 400 ... : A-4 01 . ... ... : A-5 00 . ... : 0-# 04 . ... ... : ... .. . ... : A#3 01 . ... ... : ... .. . ... : === .. . ...
ROW 36 : ... .. . ... ... : ... .. . ... ... : ... .. . ... : ... .. . ... ... : ... .. . ... : ... .. . ... ... : ... .. . ... : ... .. . ...
ROW 37 : ... .. . ... ... : ... .. . ... ... : ... .. . ... : ... .. . ... ... : ... .. . ... : ... .. . ... ... : ... .. . ... : ... .. . ...
ROW 38 : ... .. . ... ... : A#4 01 . ... ... : ... .. . ... : 0-# 04 . ... F96 : ... .. . ... : D-4 01 . ... ... : ... .. . ... : E-1 01 . ...
ROW 39 : ... .. . ... ... : ... .. . ... ... : ... .. . ... : ... .. . ... ... : ... .. . ... : ... .. . ... ... : ... .. . ... : ... .. . ...
ROW 3A : A-4 00 . ... ... : A-4 01 . ... ... : ... .. . ... : ... .. . ... ... : ... .. . ... : A-4 01 . ... ... : ... .. . ... : ... .. . ...
ROW 3B : ... .. . ... ... : ... .. . ... ... : ... .. . ... : ... .. . ... ... : ... .. . ... : ... .. . ... ... : ... .. . ... : ... .. . ...
ROW 3C : ... .. . ... ... : ... .. . ... ... : ... .. . ... : ... .. . ... ... : ... .. . ... : ... .. . ... ... : ... .. . ... : ... .. . ...
ROW 3D : ... .. . ... ... : F-4 01 . ... ... : --- .. . ... : 0-# 03 . ... ... : C#0 00 . ... : A#4 01 . ... ... : ... .. . ... : === .. . ...
ROW 3E : ... .. . ... ... : ... .. . ... ... : ... .. . ... : ... .. . ... ... : ... .. . ... : ... .. . ... ... : ... .. . ... : ... .. . ...
ROW 3F : ... .. . ... ... : ... .. . ... ... : ... .. . ... : ... .. . ... ... : ... .. . ... : ... .. . ... ... : ... .. . ... : ... .. . ...
ROW 40 : ... .. . ... ... : A#3 01 . ... ... : ... .. . ... : 0-# 02 . ... F96 : C-0 00 . ... : A-4 01 . ... ... : ... .. . ... : D-1 01 F ...
ROW 41 : ... .. . ... ... : ... .. . ... ... : ... .. . ... : ... .. . ... ... : ... .. . ... : ... .. . ... ... : ... .. . ... : ... .. . ...
ROW 42 : --- .. . ... ... : D-4 01 . ... ... : ... .. . ... : ... .. . ... ... : --- .. . ... : F-4 01 . ... ... : ... .. . ... : ... .. . ...
ROW 43 : ... .. . ... ... : ... .. . ... ... : ... .. . ... : ... .. . ... ... : ... .. . ... : ... .. . ... ... : ... .. . ... : ... .. . ...
ROW 44 : ... .. . ... ... : ... .. . ... ... : ... .. . ... : ... .. . ... ... : ... .. . ... : ... .. . ... ... : ... .. . ... : ... .. . ...
ROW 45 : ... .. . ... ... : A-4 01 . ... ... : C-6 00 . ... : 0-# 04 . ... ... : ... .. . ... : A#3 01 . ... ... : ... .. . ... : === .. . ...
ROW 46 : ... .. . ... ... : ... .. . ... ... : D-6 00 . ... : ... .. . ... ... : ... .. . ... : ... .. . ... ... : ... .. . ... : ... .. . ...
ROW 47 : ... .. . ... ... : ... .. . ... ... : ... .. . ... : ... .. . ... ... : ... .. . ... : ... .. . ... ... : ... .. . ... : ... .. . ...
ROW 48 : ... .. . ... ... : A#4 01 . ... ... : ... .. . 482 : 0-# 04 . ... F96 : ... .. . ... : D-4 01 . ... ... : ... .. . ... : D-1 01 . ...
ROW 49 : ... .. . ... ... : ... .. . ... ... : ... .. . ... : ... .. . ... ... : ... .. . ... : ... .. . ... ... : ... .. . ... : ... .. . ...
ROW 4A : C-5 00 . ... ... : A-4 01 . ... ... : ... .. . ... : ... .. . ... ... : ... .. . ... : A-4 01 . ... ... : ... .. . ... : ... .. . ...
ROW 4B : D-5 00 . ... ... : ... .. . ... ... : ... .. . ... : ... .. . ... ... : ... .. . ... : ... .. . ... ... : ... .. . ... : ... .. . ...
ROW 4C : ... .. . ... ... : ... .. . ... ... : ... .. . ... : ... .. . ... ... : ... .. . ... : ... .. . ... ... : ... .. . ... : ... .. . ...
ROW 4D : ... .. . 482 ... : F-4 01 . ... ... : ... .. . ... : 0-# 04 . ... ... : ... .. . ... : A#4 01 . ... ... : ... .. . ... : === .. . ...
ROW 4E : ... .. . ... ... : ... .. . ... ... : ... .. . ... : ... .. . ... ... : ... .. . ... : ... .. . ... ... : ... .. . ... : ... .. . ...
ROW 4F : ... .. . ... ... : ... .. . ... ... : ... .. . ... : ... .. . ... ... : ... .. . ... : ... .. . ... ... : ... .. . ... : ... .. . ...
ROW 50 : ... .. . ... ... : A#3 01 . ... ... : G#5 00 . 400 : 0-# 03 . ... F96 : C#0 00 . ... : A-4 01 . ... ... : ... .. . ... : F-1 01 . ...
ROW 51 : ... .. . ... ... : ... .. . ... ... : ... .. . ... : ... .. . ... ... : ... .. . ... : ... .. . ... ... : ... .. . ... : ... .. . ...
ROW 52 : ... .. . ... ... : D-4 01 . ... ... : ... .. . ... : ... .. . ... ... : --- .. . ... : F-4 01 . ... ... : ... .. . ... : ... .. . ...
ROW 53 : ... .. . ... ... : ... .. . ... ... : ... .. . ... : ... .. . ... ... : ... .. . ... : ... .. . ... ... : ... .. . ... : ... .. . ...
ROW 54 : ... .. . ... ... : ... .. . ... ... : ... .. . ... : ... .. . ... ... : ... .. . ... : ... .. . ... ... : ... .. . ... : ... .. . ...
ROW 55 : G#4 00 . 400 ... : A-4 01 . ... ... : A-5 00 . ... : 0-# 04 . ... ... : ... .. . ... : A#3 01 . ... ... : ... .. . ... : ... .. . ...
ROW 56 : ... .. . ... ... : ... .. . ... ... : ... .. . ... : ... .. . ... ... : ... .. . ... : ... .. . ... ... : ... .. . ... : ... .. . ...
ROW 57 : ... .. . ... ... : ... .. . ... ... : ... .. . ... : ... .. . ... ... : ... .. . ... : ... .. . ... ... : ... .. . ... : ... .. . ...
ROW 58 : ... .. . ... ... : A#4 01 . ... ... : ... .. . ... : 0-# 04 . ... F96 : ... .. . ... : D-4 01 . ... ... : ... .. . ... : G-1 01 . ...
ROW 59 : ... .. . ... ... : ... .. . ... ... : ... .. . ... : ... .. . ... ... : ... .. . ... : ... .. . ... ... : ... .. . ... : ... .. . ...
ROW 5A : A-4 00 . ... ... : A-4 01 . ... ... : F-6 00 . ... : ... .. . ... ... : ... .. . ... : A-4 01 . ... ... : ... .. . ... : ... .. . ...
ROW 5B : ... .. . ... ... : ... .. . ... ... : ... .. . ... : ... .. . ... ... : ... .. . ... : ... .. . ... ... : ... .. . ... : ... .. . ...
ROW 5C : ... .. . ... ... : ... .. . ... ... : ... .. . ... : ... .. . ... ... : ... .. . ... : ... .. . ... ... : ... .. . ... : ... .. . ...
ROW 5D : ... .. . ... ... : F-4 01 . ... ... : ... .. . ... : 0-# 02 . ... ... : C-0 00 . ... : A#4 01 . ... ... : ... .. . ... : ... .. . ...
ROW 5E : ... .. . ... ... : ... .. . ... ... : ... .. . ... : ... .. . ... ... : ... .. . ... : ... .. . ... ... : ... .. . ... : ... .. . ...
ROW 5F : ... .. . ... ... : ... .. . ... ... : ... .. . ... : ... .. . ... ... : ... .. . ... : ... .. . ... ... : ... .. . ... : ... .. . ...
ROW 60 : F-5 00 . ... ... : A#3 01 . ... ... : D-6 00 . ... : 0-# 02 . ... F96 : C-0 00 . ... : A-4 01 . ... ... : ... .. . ... : A-1 01 . ...
ROW 61 : ... .. . ... ... : ... .. . ... ... : ... .. . ... : ... .. . ... ... : ... .. . ... : ... .. . ... ... : ... .. . ... : ... .. . ...
ROW 62 : ... .. . ... ... : D-4 01 . ... ... : ... .. . ... : 0-# 04 . ... ... : --- .. . ... : F-4 01 . ... ... : ... .. . ... : ... .. . ...
ROW 63 : ... .. . ... ... : ... .. . ... ... : ... .. . ... : ... .. . ... ... : ... .. . ... : ... .. . ... ... : ... .. . ... : ... .. . ...
ROW 64 : ... .. . ... ... : ... .. . ... ... : ... .. . ... : ... .. . ... ... : ... .. . ... : ... .. . ... ... : ... .. . ... : ... .. . ...
ROW 65 : D-5 00 . ... ... : A-4 01 . ... ... : ... .. . ... : 0-# 04 . ... ... : ... .. . ... : A#3 01 . ... ... : ... .. . ... : ... .. . ...
ROW 66 : ... .. . ... ... : ... .. . ... ... : ... .. . ... : ... .. . ... ... : ... .. . ... : ... .. . ... ... : ... .. . ... : ... .. . ...
ROW 67 : ... .. . ... ... : ... .. . ... ... : ... .. . ... : ... .. . ... ... : ... .. . ... : ... .. . ... ... : ... .. . ... : ... .. . ...
ROW 68 : ... .. . ... ... : A#4 01 . ... ... : ... .. . 482 : 0-# 04 . ... F96 : ... .. . ... : D-4 01 . ... ... : ... .. . ... : G-1 01 . ...
ROW 69 : ... .. . ... ... : ... .. . ... ... : ... .. . ... : ... .. . ... ... : ... .. . ... : ... .. . ... ... : ... .. . ... : ... .. . ...
ROW 6A : ... .. . ... ... : A-4 01 . ... ... : ... .. . ... : ... .. . ... ... : ... .. . ... : A-4 01 . ... ... : ... .. . ... : ... .. . ...
ROW 6B : ... .. . ... ... : ... .. . ... ... : ... .. . ... : ... .. . ... ... : ... .. . ... : ... .. . ... ... : ... .. . ... : ... .. . ...
ROW 6C : ... .. . ... ... : ... .. . ... ... : ... .. . ... : ... .. . ... ... : ... .. . ... : ... .. . ... ... : ... .. . ... : ... .. . ...
ROW 6D : ... .. . 482 ... : F-4 01 . ... ... : ... .. . ... : 0-# 04 . ... ... : ... .. . ... : A#4 01 . ... ... : ... .. . ... : === .. . ...
ROW 6E : ... .. . ... ... : ... .. . ... ... : ... .. . ... : ... .. . ... ... : ... .. . ... : ... .. . ... ... : ... .. . ... : ... .. . ...
ROW 6F : ... .. . ... ... : ... .. . ... ... : ... .. . ... : ... .. . ... ... : ... .. . ... : ... .. . ... ... : ... .. . ... : ... .. . ...
ROW 70 : ... .. . ... ... : A#3 01 . ... ... : G#5 00 . 400 : 0-# 03 . ... F96 : C#0 00 . ... : A-4 01 . ... ... : ... .. . ... : F-1 01 . ...
ROW 71 : ... .. . ... ... : ... .. . ... ... : ... .. . ... : ... .. . ... ... : ... .. . ... : ... .. . ... ... : ... .. . ... : ... .. . ...
ROW 72 : ... .. . ... ... : D-4 01 . ... ... : ... .. . ... : 0-# 04 . ... ... : --- .. . ... : F-4 01 . ... ... : ... .. . ... : ... .. . ...
ROW 73 : ... .. . ... ... : ... .. . ... ... : ... .. . ... : ... .. . ... ... : ... .. . ... : ... .. . ... ... : ... .. . ... : ... .. . ...
ROW 74 : ... .. . ... ... : ... .. . ... ... : ... .. . ... : ... .. . ... ... : ... .. . ... : ... .. . ... ... : ... .. . ... : ... .. . ...
ROW 75 : G#4 00 . 400 ... : A-4 01 . ... ... : A-5 00 . ... : 0-# 04 . ... ... : ... .. . ... : A#3 01 . ... ... : ... .. . ... : === .. . ...
ROW 76 : ... .. . ... ... : ... .. . ... ... : ... .. . ... : ... .. . ... ... : ... .. . ... : ... .. . ... ... : ... .. . ... : ... .. . ...
ROW 77 : ... .. . ... ... : ... .. . ... ... : ... .. . ... : ... .. . ... ... : ... .. . ... : ... .. . ... ... : ... .. . ... : ... .. . ...
ROW 78 : ... .. . ... ... : A#4 01 . ... ... : ... .. . ... : 0-# 03 . ... F96 : C#0 00 . ... : D-4 01 . ... ... : ... .. . ... : E-1 01 . ...
ROW 79 : ... .. . ... ... : ... .. . ... ... : ... .. . ... : ... .. . ... ... : ... .. . ... : ... .. . ... ... : ... .. . ... : ... .. . ...
ROW 7A : A-4 00 . ... ... : A-4 01 . ... ... : ... .. . ... : ... .. . ... ... : --- .. . ... : A-4 01 . ... ... : ... .. . ... : ... .. . ...
ROW 7B : ... .. . ... ... : ... .. . ... ... : ... .. . ... : ... .. . ... ... : ... .. . ... : ... .. . ... ... : ... .. . ... : ... .. . ...
ROW 7C : ... .. . ... ... : ... .. . ... ... : ... .. . ... : ... .. . ... ... : ... .. . ... : ... .. . ... ... : ... .. . ... : ... .. . ...
ROW 7D : ... .. . ... ... : F-4 01 . ... ... : --- .. . ... : 0-# 03 . ... ... : C#0 00 . ... : A#4 01 . ... ... : ... .. . ... : === .. . ...
ROW 7E : ... .. . ... ... : ... .. . ... ... : ... .. . ... : ... .. . ... ... : ... .. . ... : ... .. . ... ... : ... .. . ... : ... .. . ...
ROW 7F : ... .. . ... ... : ... .. . ... ... : ... .. . ... : ... .. . ... ... : ... .. . ... : ... .. . ... ... : ... .. . ... : ... .. . ...
PATTERN 02
ROW 00 : ... .. . ... ... : ... .. . ... ... : A-5 00 . ... : 0-# 02 F O00 F96 : C-0 00 . ... : A-4 01 4 V07 P7F : D-0 01 F V07 : A#0 01 F ...
ROW 01 : ... .. . ... ... : ... .. . ... ... : A#5 00 . ... : ... .. . ... ... : ... .. . ... : ... .. . ... ... : ... .. . ... : ... .. . ...
ROW 02 : --- .. . ... ... : ... .. . ... ... : ... .. . ... : ... .. . ... ... : --- .. . ... : F-4 01 . ... ... : ... .. . ... : ... .. . ...
ROW 03 : ... .. . ... ... : ... .. . ... ... : ... .. . ... : ... .. . ... ... : ... .. . ... : ... .. . ... ... : ... .. . ... : ... .. . ...
ROW 04 : ... .. . ... ... : ... .. . ... ... : ... .. . ... : ... .. . ... ... : ... .. . ... : ... .. . ... ... : ... .. . ... : ... .. . ...
ROW 05 : A-4 00 . ... ... : ... .. . ... ... : ... .. . ... : ... .. . ... ... : ... .. . ... : D-3 01 . ... ... : === .. . ... : === .. . ...
ROW 06 : A#4 00 . ... ... : ... .. . ... ... : ... .. . ... : ... .. . ... ... : ... .. . ... : ... .. . ... ... : ... .. . ... : ... .. . ...
ROW 07 : ... .. . ... ... : ... .. . ... ... : ... .. . ... : ... .. . ... ... : ... .. . ... : ... .. . ... ... : ... .. . ... : ... .. . ...
ROW 08 : ... .. . ... ... : ... .. . ... ... : ... .. . 482 : 0-# 04 E ... F96 : ... .. . ... : F-3 01 . ... ... : D-0 01 . ... : D-1 01 . ...
ROW 09 : ... .. . ... ... : ... .. . ... ... : ... .. . ... : ... .. . ... ... : ... .. . ... : ... .. . ... ... : ... .. . ... : ... .. . ...
ROW 0A : ... .. . ... ... : ... .. . ... ... : ... .. . ... : 0-# 04 0 ... ... : ... .. . ... : D-4 01 . ... ... : ... .. . ... : ... .. . ...
ROW 0B : ... .. . ... ... : ... .. . ... ... : ... .. . ... : ... .. . ... ... : ... .. . ... : ... .. . ... ... : ... .. . ... : ... .. . ...
ROW 0C : ... .. . ... ... : ... .. . ... ... : ... .. . ... : ... .. . ... ... : ... .. . ... : ... .. . ... ... : ... .. . ... : ... .. . ...
ROW 0D : ... .. . 482 ... : ... .. . ... ... : ... .. . ... : ... .. . ... ... : ... .. . ... : A-4 01 . ... ... : === .. . ... : === .. . ...
ROW 0E : ... .. . ... ... : ... .. . ... ... : ... .. . ... : ... .. . ... ... : ... .. . ... : ... .. . ... ... : ... .. . ... : ... .. . ...
ROW 0F : ... .. . ... ... : ... .. . ... ... : ... .. . ... : ... .. . ... ... : ... .. . ... : ... .. . ... ... : ... .. . ... : ... .. . ...
ROW 10 : ... .. . ... ... : ... .. . ... ... : C-6 00 . 400 : 0-# 04 E ... F96 : ... .. . ... : C-5 01 . ... ... : F-0 01 . ... : F-1 01 . ...
ROW 11 : ... .. . ... ... : ... .. . ... ... : ... .. . ... : ... .. . ... ... : ... .. . ... : ... .. . ... ... : ... .. . ... : ... .. . ...
ROW 12 : ... .. . ... ... : ... .. . ... ... : ... .. . ... : ... .. . ... ... : ... .. . ... : D-5 01 . ... ... : ... .. . ... : ... .. . ...
ROW 13 : ... .. . ... ... : ... .. . ... ... : ... .. . ... : ... .. . ... ... : ... .. . ... : ... .. . ... ... : ... .. . ... : ... .. . ...
ROW 14 : ... .. . ... ... : ... .. . ... ... : ... .. . ... : ... .. . ... ... : ... .. . ... : ... .. . ... ... : ... .. . ... : ... .. . ...
ROW 15 : C-5 00 . 400 ... : ... .. . ... ... : A#5 00 . ... : 0-# 04 1 ... ... : ... .. . ... : D-3 01 . ... ... : ... .. . ... : ... .. . ...
ROW 16 : ... .. . ... ... : ... .. . ... ... : ... .. . ... : ... .. . ... ... : ... .. . ... : ... .. . ... ... : ... .. . ... : ... .. . ...
ROW 17 : ... .. . ... ... : ... .. . ... ... : ... .. . ... : ... .. . ... ... : ... .. . ... : ... .. . ... ... : ... .. . ... : ... .. . ...
ROW 18 : ... .. . ... ... : ... .. . ... ... : ... .. . ... : 0-# 04 D ... F96 : ... .. . ... : F-3 01 . ... ... : G-0 01 . ... : A-1 01 . ...
ROW 19 : ... .. . ... ... : ... .. . ... ... : ... .. . ... : ... .. . ... ... : ... .. . ... : ... .. . ... ... : ... .. . ... : ... .. . ...
ROW 1A : A#4 00 . ... ... : ... .. . ... ... : C-6 00 . ... : ... .. . ... ... : ... .. . ... : D-4 01 . ... ... : ... .. . ... : ... .. . ...
ROW 1B : ... .. . ... ... : ... .. . ... ... : ... .. . ... : ... .. . ... ... : ... .. . ... : ... .. . ... ... : ... .. . ... : ... .. . ...
ROW 1C : ... .. . ... ... : ... .. . ... ... : ... .. . ... : ... .. . ... ... : ... .. . ... : ... .. . ... ... : ... .. . ... : ... .. . ...
ROW 1D : ... .. . ... ... : ... .. . ... ... : ... .. . ... : ... .. . ... ... : ... .. . ... : A-4 01 . ... ... : ... .. . ... : ... .. . ...
ROW 1E : ... .. . ... ... : ... .. . ... ... : ... .. . ... : ... .. . ... ... : ... .. . ... : ... .. . ... ... : ... .. . ... : ... .. . ...
ROW 1F : ... .. . ... ... : ... .. . ... ... : ... .. . ... : ... .. . ... ... : ... .. . ... : ... .. . ... ... : ... .. . ... : ... .. . ...
ROW 20 : C-5 00 . ... ... : ... .. . ... ... : D-6 00 . ... : 0-# 04 D ... F96 : ... .. . ... : C-5 01 . ... ... : A-0 01 . ... : A#1 01 . ...
ROW 21 : ... .. . ... ... : ... .. . ... ... : ... .. . ... : ... .. . ... ... : ... .. . ... : ... .. . ... ... : ... .. . ... : ... .. . ...
ROW 22 : ... .. . ... ... : ... .. . ... ... : ... .. . ... : ... .. . ... ... : ... .. . ... : D-5 01 . ... ... : ... .. . ... : ... .. . ...
ROW 23 : ... .. . ... ... : ... .. . ... ... : ... .. . ... : ... .. . ... ... : ... .. . ... : ... .. . ... ... : ... .. . ... : ... .. . ...
ROW 24 : ... .. . ... ... : ... .. . ... ... : ... .. . ... : ... .. . ... ... : ... .. . ... : ... .. . ... ... : ... .. . ... : ... .. . ...
ROW 25 : D-5 00 . ... ... : ... .. . ... ... : ... .. . ... : 0-# 04 2 ... ... : ... .. . ... : D-3 01 . ... ... : ... .. . ... : ... .. . ...
ROW 26 : ... .. . ... ... : ... .. . ... ... : ... .. . ... : ... .. . ... ... : ... .. . ... : ... .. . ... ... : ... .. . ... : ... .. . ...
ROW 27 : ... .. . ... ... : ... .. . ... ... : ... .. . ... : ... .. . ... ... : ... .. . ... : ... .. . ... ... : ... .. . ... : ... .. . ...
ROW 28 : ... .. . ... ... : ... .. . ... ... : ... .. . 482 : 0-# 04 D ... F96 : ... .. . ... : F-3 01 . ... ... : G-0 01 . ... : A-1 01 . ...
ROW 29 : ... .. . ... ... : ... .. . ... ... : ... .. . ... : ... .. . ... ... : ... .. . ... : ... .. . ... ... : ... .. . ... : ... .. . ...
ROW 2A : ... .. . ... ... : ... .. . ... ... : ... .. . ... : 0-# 04 2 ... ... : ... .. . ... : D-4 01 . ... ... : ... .. . ... : ... .. . ...
ROW 2B : ... .. . ... ... : ... .. . ... ... : ... .. . ... : ... .. . ... ... : ... .. . ... : ... .. . ... ... : ... .. . ... : ... .. . ...
ROW 2C : ... .. . ... ... : ... .. . ... ... : ... .. . ... : ... .. . ... ... : ... .. . ... : ... .. . ... ... : ... .. . ... : ... .. . ...
ROW 2D : ... .. . 482 ... : ... .. . ... ... : ... .. . ... : ... .. . ... ... : ... .. . ... : A-4 01 . ... ... : === .. . ... : === .. . ...
ROW 2E : ... .. . ... ... : ... .. . ... ... : ... .. . ... : ... .. . ... ... : ... .. . ... : ... .. . ... ... : ... .. . ... : ... .. . ...
ROW 2F : ... .. . ... ... : ... .. . ... ... : ... .. . ... : ... .. . ... ... : ... .. . ... : ... .. . ... ... : ... .. . ... : ... .. . ...
ROW 30 : ... .. . ... ... : ... .. . ... ... : C-6 00 . 400 : 0-# 04 C ... F96 : ... .. . ... : C-5 01 . ... ... : F-0 01 . ... : F-1 01 . ...
ROW 31 : ... .. . ... ... : ... .. . ... ... : ... .. . ... : ... .. . ... ... : ... .. . ... : ... .. . ... ... : ... .. . ... : ... .. . ...
ROW 32 : ... .. . ... ... : ... .. . ... ... : ... .. . ... : ... .. . ... ... : ... .. . ... : D-5 01 . ... ... : ... .. . ... : ... .. . ...
ROW 33 : ... .. . ... ... : ... .. . ... ... : ... .. . ... : ... .. . ... ... : ... .. . ... : ... .. . ... ... : ... .. . ... : ... .. . ...
ROW 34 : ... .. . ... ... : ... .. . ... ... : ... .. . ... : ... .. . ... ... : ... .. . ... : ... .. . ... ... : ... .. . ... : ... .. . ...
ROW 35 : C-5 00 . 400 ... : ... .. . ... ... : A#5 00 . ... : 0-# 04 3 ... ... : ... .. . ... : D-3 01 . ... ... : === .. . ... : === .. . ...
ROW 36 : ... .. . ... ... : ... .. . ... ... : ... .. . ... : ... .. . ... ... : ... .. . ... : ... .. . ... ... : ... .. . ... : ... .. . ...
ROW 37 : ... .. . ... ... : ... .. . ... ... : ... .. . ... : ... .. . ... ... : ... .. . ... : ... .. . ... ... : ... .. . ... : ... .. . ...
ROW 38 : ... .. . ... ... : ... .. . ... ... : ... .. . ... : 0-# 04 B ... F96 : ... .. . ... : F-3 01 . ... ... : E-0 01 . ... : D-1 01 . ...
ROW 39 : ... .. . ... ... : ... .. . ... ... : ... .. . ... : ... .. . ... ... : ... .. . ... : ... .. . ... ... : ... .. . ... : ... .. . ...
ROW 3A : A#4 00 . ... ... : ... .. . ... ... : ... .. . ... : ... .. . ... ... : ... .. . ... : D-4 01 . ... ... : ... .. . ... : ... .. . ...
ROW 3B : ... .. . ... ... : ... .. . ... ... : ... .. . ... : ... .. . ... ... : ... .. . ... : ... .. . ... ... : ... .. . ... : ... .. . ...
ROW 3C : ... .. . ... ... : ... .. . ... ... : ... .. . ... : ... .. . ... ... : ... .. . ... : ... .. . ... ... : ... .. . ... : ... .. . ...
ROW 3D : ... .. . ... ... : ... .. . ... ... : --- .. . ... : 0-# 04 B ... ... : ... .. . ... : A-4 01 . ... ... : === .. . ... : === .. . ...
ROW 3E : ... .. . ... ... : ... .. . ... ... : ... .. . ... : ... .. . ... ... : ... .. . ... : ... .. . ... ... : ... .. . ... : ... .. . ...
ROW 3F : ... .. . ... ... : ... .. . ... ... : ... .. . ... : ... .. . ... ... : ... .. . ... : ... .. . ... ... : ... .. . ... : ... .. . ...
ROW 40 : ... .. . ... ... : ... .. . ... ... : E-6 00 . ... : 0-# 04 B ... F96 : ... .. . ... : C-5 01 . ... ... : D-0 01 . ... : A#0 01 F ...
ROW 41 : ... .. . ... ... : ... .. . ... ... : F-6 00 . ... : ... .. . ... ... : ... .. . ... : ... .. . ... ... : ... .. . ... : ... .. . ...
ROW 42 : --- .. . ... ... : ... .. . ... ... : ... .. . ... : ... .. . ... ... : ... .. . ... : D-5 01 . ... ... : ... .. . ... : ... .. . ...
ROW 43 : ... .. . ... ... : ... .. . ... ... : ... .. . ... : ... .. . ... ... : ... .. . ... : ... .. . ... ... : ... .. . ... : ... .. . ...
ROW 44 : ... .. . ... ... : ... .. . ... ... : ... .. . ... : ... .. . ... ... : ... .. . ... : ... .. . ... ... : ... .. . ... : ... .. . ...
ROW 45 : E-5 00 . ... ... : ... .. . ... ... : ... .. . ... : ... .. . ... ... : ... .. . ... : D-3 01 . ... ... : === .. . ... : === .. . ...
ROW 46 : F-5 00 . ... ... : ... .. . ... ... : ... .. . ... : ... .. . ... ... : ... .. . ... : ... .. . ... ... : ... .. . ... : ... .. . ...
ROW 47 : ... .. . ... ... : ... .. . ... ... : ... .. . ... : ... .. . ... ... : ... .. . ... : ... .. . ... ... : ... .. . ... : ... .. . ...
ROW 48 : ... .. . ... ... : ... .. . ... ... : ... .. . 482 : 0-# 04 B ... F96 : ... .. . ... : F-3 01 . ... ... : D-0 01 . ... : D-1 01 . ...
ROW 49 : ... .. . ... ... : ... .. . ... ... : ... .. . ... : ... .. . ... ... : ... .. . ... : ... .. . ... ... : ... .. . ... : ... .. . ...
ROW 4A : ... .. . ... ... : ... .. . ... ... : ... .. . ... : 0-# 04 4 ... ... : ... .. . ... : D-4 01 . ... ... : ... .. . ... : ... .. . ...
ROW 4B : ... .. . ... ... : ... .. . ... ... : ... .. . ... : ... .. . ... ... : ... .. . ... : ... .. . ... ... : ... .. . ... : ... .. . ...
ROW 4C : ... .. . ... ... : ... .. . ... ... : ... .. . ... : ... .. . ... ... : ... .. . ... : ... .. . ... ... : ... .. . ... : ... .. . ...
ROW 4D : ... .. . 482 ... : ... .. . ... ... : ... .. . ... : ... .. . ... ... : ... .. . ... : A-4 01 . ... ... : === .. . ... : === .. . ...
ROW 4E : ... .. . ... ... : ... .. . ... ... : ... .. . ... : ... .. . ... ... : ... .. . ... : ... .. . ... ... : ... .. . ... : ... .. . ...
ROW 4F : ... .. . ... ... : ... .. . ... ... : ... .. . ... : ... .. . ... ... : ... .. . ... : ... .. . ... ... : ... .. . ... : ... .. . ...
ROW 50 : ... .. . ... ... : ... .. . ... ... : G-6 00 . 400 : 0-# 04 A ... F96 : ... .. . ... : C-5 01 . ... ... : F-0 01 . ... : F-1 01 . ...
ROW 51 : ... .. . ... ... : ... .. . ... ... : ... .. . ... : ... .. . ... ... : ... .. . ... : ... .. . ... ... : ... .. . ... : ... .. . ...
ROW 52 : ... .. . ... ... : ... .. . ... ... : ... .. . ... : 0-# 04 5 ... ... : ... .. . ... : D-5 01 . ... ... : ... .. . ... : ... .. . ...
ROW 53 : ... .. . ... ... : ... .. . ... ... : ... .. . ... : ... .. . ... ... : ... .. . ... : ... .. . ... ... : ... .. . ... : ... .. . ...
ROW 54 : ... .. . ... ... : ... .. . ... ... : ... .. . ... : ... .. . ... ... : ... .. . ... : ... .. . ... ... : ... .. . ... : ... .. . ...
ROW 55 : G-5 00 . 400 ... : ... .. . ... ... : F-6 00 . ... : 0-# 04 5 ... ... : ... .. . ... : D-3 01 . ... ... : ... .. . ... : ... .. . ...
ROW 56 : ... .. . ... ... : ... .. . ... ... : ... .. . ... : ... .. . ... ... : ... .. . ... : ... .. . ... ... : ... .. . ... : ... .. . ...
ROW 57 : ... .. . ... ... : ... .. . ... ... : ... .. . ... : ... .. . ... ... : ... .. . ... : ... .. . ... ... : ... .. . ... : ... .. . ...
ROW 58 : ... .. . ... ... : ... .. . ... ... : ... .. . ... : 0-# 04 A ... F96 : ... .. . ... : F-3 01 . ... ... : G-0 01 . ... : A-1 01 . ...
ROW 59 : ... .. . ... ... : ... .. . ... ... : ... .. . ... : ... .. . ... ... : ... .. . ... : ... .. . ... ... : ... .. . ... : ... .. . ...
ROW 5A : F-5 00 . ... ... : ... .. . ... ... : C-7 00 . ... : ... .. . ... ... : ... .. . ... : D-4 01 . ... ... : ... .. . ... : ... .. . ...
ROW 5B : ... .. . ... ... : ... .. . ... ... : ... .. . ... : ... .. . ... ... : ... .. . ... : ... .. . ... ... : ... .. . ... : ... .. . ...
ROW 5C : ... .. . ... ... : ... .. . ... ... : ... .. . ... : ... .. . ... ... : ... .. . ... : ... .. . ... ... : ... .. . ... : ... .. . ...
ROW 5D : ... .. . ... ... : ... .. . ... ... : ... .. . ... : ... .. . ... ... : ... .. . ... : A-4 01 . ... ... : ... .. . ... : ... .. . ...
ROW 5E : ... .. . ... ... : ... .. . ... ... : ... .. . ... : ... .. . ... ... : ... .. . ... : ... .. . ... ... : ... .. . ... : ... .. . ...
ROW 5F : ... .. . ... ... : ... .. . ... ... : ... .. . ... : ... .. . ... ... : ... .. . ... : ... .. . ... ... : ... .. . ... : ... .. . ...
ROW 60 : C-6 00 . ... ... : ... .. . ... ... : A-6 00 . ... : 0-# 04 9 ... F96 : ... .. . ... : C-5 01 . ... ... : A-0 01 . ... : A#1 01 . ...
ROW 61 : ... .. . ... ... : ... .. . ... ... : ... .. . ... : ... .. . ... ... : ... .. . ... : ... .. . ... ... : ... .. . ... : ... .. . ...
ROW 62 : ... .. . ... ... : ... .. . ... ... : ... .. . ... : ... .. . ... ... : ... .. . ... : D-5 01 . ... ... : ... .. . ... : ... .. . ...
ROW 63 : ... .. . ... ... : ... .. . ... ... : ... .. . ... : ... .. . ... ... : ... .. . ... : ... .. . ... ... : ... .. . ... : ... .. . ...
ROW 64 : ... .. . ... ... : ... .. . ... ... : ... .. . ... : ... .. . ... ... : ... .. . ... : ... .. . ... ... : ... .. . ... : ... .. . ...
ROW 65 : A-5 00 . ... ... : ... .. . ... ... : ... .. . ... : ... .. . ... ... : ... .. . ... : D-3 01 . ... ... : ... .. . ... : ... .. . ...
ROW 66 : ... .. . ... ... : ... .. . ... ... : ... .. . ... : ... .. . ... ... : ... .. . ... : ... .. . ... ... : ... .. . ... : ... .. . ...
ROW 67 : ... .. . ... ... : ... .. . ... ... : ... .. . ... : ... .. . ... ... : ... .. . ... : ... .. . ... ... : ... .. . ... : ... .. . ...
ROW 68 : ... .. . ... ... : ... .. . ... ... : ... .. . 482 : 0-# 04 9 ... F96 : ... .. . ... : F-3 01 . ... ... : G-0 01 . ... : C-2 01 . ...
ROW 69 : ... .. . ... ... : ... .. . ... ... : ... .. . ... : ... .. . ... ... : ... .. . ... : ... .. . ... ... : ... .. . ... : ... .. . ...
ROW 6A : ... .. . ... ... : ... .. . ... ... : ... .. . ... : 0-# 04 6 ... ... : ... .. . ... : D-4 01 . ... ... : ... .. . ... : ... .. . ...
ROW 6B : ... .. . ... ... : ... .. . ... ... : ... .. . ... : ... .. . ... ... : ... .. . ... : ... .. . ... ... : ... .. . ... : ... .. . ...
ROW 6C : ... .. . ... ... : ... .. . ... ... : ... .. . ... : ... .. . ... ... : ... .. . ... : ... .. . ... ... : ... .. . ... : ... .. . ...
ROW 6D : ... .. . 482 ... : ... .. . ... ... : ... .. . ... : ... .. . ... ... : ... .. . ... : A-4 01 . ... ... : === .. . ... : === .. . ...
ROW 6E : ... .. . ... ... : ... .. . ... ... : ... .. . ... : ... .. . ... ... : ... .. . ... : ... .. . ... ... : ... .. . ... : ... .. . ...
ROW 6F : ... .. . ... ... : ... .. . ... ... : ... .. . ... : ... .. . ... ... : ... .. . ... : ... .. . ... ... : ... .. . ... : ... .. . ...
ROW 70 : ... .. . ... ... : ... .. . ... ... : G-6 00 . 400 : 0-# 04 8 ... F96 : ... .. . ... : C-5 01 . ... ... : F-0 01 . ... : D-2 01 . ...
ROW 71 : ... .. . ... ... : ... .. . ... ... : ... .. . ... : ... .. . ... ... : ... .. . ... : ... .. . ... ... : ... .. . ... : ... .. . ...
ROW 72 : ... .. . ... ... : ... .. . ... ... : ... .. . ... : ... .. . ... ... : ... .. . ... : D-5 01 . ... ... : ... .. . ... : ... .. . ...
ROW 73 : ... .. . ... ... : ... .. . ... ... : ... .. . ... : ... .. . ... ... : ... .. . ... : ... .. . ... ... : ... .. . ... : ... .. . ...
ROW 74 : ... .. . ... ... : ... .. . ... ... : ... .. . ... : ... .. . ... ... : ... .. . ... : ... .. . ... ... : ... .. . ... : ... .. . ...
ROW 75 : G-5 00 . 400 ... : ... .. . ... ... : F-6 00 . ... : 0-# 04 7 ... ... : ... .. . ... : D-3 01 . ... ... : === .. . ... : === .. . ...
ROW 76 : ... .. . ... ... : ... .. . ... ... : ... .. . ... : ... .. . ... ... : ... .. . ... : ... .. . ... ... : ... .. . ... : ... .. . ...
ROW 77 : ... .. . ... ... : ... .. . ... ... : ... .. . ... : ... .. . ... ... : ... .. . ... : ... .. . ... ... : ... .. . ... : ... .. . ...
ROW 78 : ... .. . ... ... : ... .. . ... ... : ... .. . ... : 0-# 03 F ... F96 : C#0 00 . ... : F-3 01 . ... ... : E-0 01 . ... : A-1 01 . ...
ROW 79 : ... .. . ... ... : ... .. . ... ... : ... .. . ... : ... .. . ... ... : ... .. . ... : ... .. . ... ... : ... .. . ... : ... .. . ...
ROW 7A : F-5 00 . ... ... : ... .. . ... ... : ... .. . ... : 0-# 04 7 ... ... : ... .. . ... : D-4 01 . ... ... : ... .. . ... : ... .. . ...
ROW 7B : ... .. . ... ... : ... .. . ... ... : ... .. . ... : ... .. . ... ... : ... .. . ... : ... .. . ... ... : ... .. . ... : ... .. . ...
ROW 7C : ... .. . ... ... : ... .. . ... ... : ... .. . ... : ... .. . ... ... : ... .. . ... : ... .. . ... ... : ... .. . ... : ... .. . ...
ROW 7D : ... .. . ... ... : ... .. . ... ... : --- .. . ... : 0-# 03 F ... ... : C#0 00 . ... : A-4 01 . ... ... : === .. . ... : === .. . ...
ROW 7E : ... .. . ... ... : ... .. . ... ... : ... .. . ... : ... .. . ... ... : ... .. . ... : ... .. . ... ... : ... .. . ... : ... .. . ...
ROW 7F : ... .. . ... ... : ... .. . ... ... : ... .. . ... : ... .. . ... ... : ... .. . ... : ... .. . ... ... : ... .. . ... : ... .. . ...
PATTERN 03
ROW 00 : ... .. . ... P7F : D-2 01 8 V02 ... : --- .. . 483 : 0-# 02 F O01 F96 : C-0 00 . ... : A-4 01 4 V07 P7F : A#0 08 F V07 : D-1 01 6 ...
ROW 01 : ... .. . ... ... : ... .. . ... ... : ... .. . ... : ... .. . ... ... : ... .. . ... : ... .. . ... ... : ... .. . ... : ... .. . ...
ROW 02 : ... .. . ... ... : F-2 01 . ... ... : D-4 00 . ... : ... .. . ... ... : --- .. . ... : F-4 01 . ... ... : ... .. . ... : ... .. . ...
ROW 03 : ... .. . ... ... : ... .. . ... ... : ... .. . ... : ... .. . ... ... : ... .. . ... : ... .. . ... ... : ... .. . ... : ... .. . ...
ROW 04 : C-3 00 2 400 V02 : ... .. . ... ... : ... .. . ... : ... .. . ... ... : ... .. . ... : ... .. . ... ... : ... .. . ... : ... .. . ...
ROW 05 : D-3 00 . ... ... : D-3 01 . ... ... : --- .. . ... : ... .. . ... ... : ... .. . ... : D-2 01 . ... ... : === .. . ... : === .. . ...
ROW 06 : ... .. . ... ... : ... .. . ... ... : ... .. . ... : 0-# 04 7 ... ... : ... .. . ... : ... .. . ... ... : ... .. . ... : ... .. . ...
ROW 07 : ... .. . ... ... : ... .. . ... ... : ... .. . ... : ... .. . ... ... : ... .. . ... : ... .. . ... ... : ... .. . ... : ... .. . ...
ROW 08 : ... .. . ... ... : A-3 01 . ... ... : D-4 00 . ... : 0-# 04 8 ... F96 : ... .. . ... : F-2 01 . ... ... : D-0 01 . ... : D-1 01 . ...
ROW 09 : ... .. . ... ... : ... .. . ... ... : ... .. . ... : ... .. . ... ... : ... .. . ... : ... .. . ... ... : ... .. . ... : ... .. . ...
ROW 0A : ... .. . ... ... : C-4 01 . ... ... : --- .. . ... : ... .. . ... ... : ... .. . ... : D-3 01 . ... ... : ... .. . ... : ... .. . ...
ROW 0B : ... .. . ... ... : ... .. . ... ... : ... .. . ... : ... .. . ... ... : ... .. . ... : ... .. . ... ... : ... .. . ... : ... .. . ...
ROW 0C : ... .. . 483 ... : ... .. . ... ... : ... .. . ... : 0-# 04 7 ... ... : ... .. . ... : ... .. . ... ... : ... .. . ... : ... .. . ...
ROW 0D : ... .. . ... ... : D-4 01 . ... ... : D-4 00 . ... : ... .. . ... ... : ... .. . ... : A-3 01 . ... ... : === .. . ... : === .. . ...
ROW 0E : ... .. . ... ... : ... .. . ... ... : ... .. . ... : ... .. . ... ... : ... .. . ... : ... .. . ... ... : ... .. . ... : ... .. . ...
ROW 0F : ... .. . ... ... : ... .. . ... ... : ... .. . ... : ... .. . ... ... : ... .. . ... : ... .. . ... ... : ... .. . ... : ... .. . ...
ROW 10 : ... .. . ... ... : D-2 01 . ... ... : A-4 00 . ... : 0-# 04 9 ... F96 : ... .. . ... : C-4 01 . ... ... : F-0 01 . ... : F-1 01 . ...
ROW 11 : ... .. . ... ... : ... .. . ... ... : ... .. . ... : ... .. . ... ... : ... .. . ... : ... .. . ... ... : ... .. . ... : ... .. . ...
ROW 12 : ... .. . ... ... : F-2 01 . ... ... : A#4 00 . ... : 0-# 04 6 ... ... : ... .. . ... : D-4 01 . ... ... : ... .. . ... : ... .. . ...
ROW 13 : ... .. . ... ... : ... .. . ... ... : ... .. . ... : ... .. . ... ... : ... .. . ... : ... .. . ... ... : ... .. . ... : ... .. . ...
ROW 14 : ... .. . ... ... : ... .. . ... ... : ... .. . ... : ... .. . ... ... : ... .. . ... : ... .. . ... ... : ... .. . ... : ... .. . ...
ROW 15 : ... .. . ... ... : D-3 01 . ... ... : A-4 00 . ... : ... .. . ... ... : ... .. . ... : D-2 01 . ... ... : ... .. . ... : ... .. . ...
ROW 16 : ... .. . ... ... : ... .. . ... ... : ... .. . ... : ... .. . ... ... : ... .. . ... : ... .. . ... ... : ... .. . ... : ... .. . ...
ROW 17 : ... .. . ... ... : ... .. . ... ... : ... .. . ... : ... .. . ... ... : ... .. . ... : ... .. . ... ... : ... .. . ... : ... .. . ...
ROW 18 : ... .. . ... ... : A-3 01 . ... ... : F-4 00 . ... : 0-# 04 9 ... F96 : ... .. . ... : F-2 01 . ... ... : A-0 01 . ... : G-1 01 . ...
ROW 19 : ... .. . ... ... : ... .. . ... ... : ... .. . ... : ... .. . ... ... : ... .. . ... : ... .. . ... ... : ... .. . ... : ... .. . ...
ROW 1A : ... .. . ... ... : C-4 01 . ... ... : D-4 00 . ... : ... .. . ... ... : ... .. . ... : D-3 01 . ... ... : ... .. . ... : ... .. . ...
ROW 1B : ... .. . ... ... : ... .. . ... ... : ... .. . ... : ... .. . ... ... : ... .. . ... : ... .. . ... ... : ... .. . ... : ... .. . ...
ROW 1C : ... .. . ... ... : ... .. . ... ... : ... .. . ... : 0-# 04 A ... ... : ... .. . ... : ... .. . ... ... : ... .. . ... : ... .. . ...
ROW 1D : ... .. . ... ... : D-4 01 . ... ... : ... .. . ... : ... .. . ... ... : ... .. . ... : A-3 01 . ... ... : ... .. . ... : ... .. . ...
ROW 1E : ... .. . ... ... : ... .. . ... ... : ... .. . ... : 0-# 04 A ... ... : ... .. . ... : ... .. . ... ... : ... .. . ... : ... .. . ...
ROW 1F : ... .. . ... ... : ... .. . ... ... : ... .. . ... : ... .. . ... ... : ... .. . ... : ... .. . ... ... : ... .. . ... : ... .. . ...
ROW 20 : ... .. . ... ... : D-2 01 . ... ... : --- .. . ... : 0-# 04 A ... F96 : ... .. . ... : C-4 01 . ... ... : A#0 01 . ... : A-1 01 . ...
ROW 21 : ... .. . ... ... : ... .. . ... ... : ... .. . ... : ... .. . ... ... : ... .. . ... : ... .. . ... ... : ... .. . ... : ... .. . ...
ROW 22 : ... .. . ... ... : F-2 01 . ... ... : D-4 00 . ... : ... .. . ... ... : ... .. . ... : D-4 01 . ... ... : ... .. . ... : ... .. . ...
ROW 23 : ... .. . ... ... : ... .. . ... ... : ... .. . ... : ... .. . ... ... : ... .. . ... : ... .. . ... ... : ... .. . ... : ... .. . ...
ROW 24 : ... .. . ... ... : ... .. . ... ... : ... .. . ... : 0-# 04 5 ... ... : ... .. . ... : ... .. . ... ... : ... .. . ... : ... .. . ...
ROW 25 : ... .. . ... ... : D-3 01 . ... ... : --- 00 . ... : ... .. . ... ... : ... .. . ... : D-2 01 . ... ... : ... .. . ... : ... .. . ...
ROW 26 : ... .. . ... ... : ... .. . ... ... : ... .. . ... : ... .. . ... ... : ... .. . ... : ... .. . ... ... : ... .. . ... : ... .. . ...
ROW 27 : ... .. . ... ... : ... .. . ... ... : ... .. . ... : ... .. . ... ... : ... .. . ... : ... .. . ... ... : ... .. . ... : ... .. . ...
ROW 28 : ... .. . ... ... : A-3 01 . ... ... : D-4 00 . ... : 0-# 04 B ... F96 : ... .. . ... : F-2 01 . ... ... : A-0 01 . ... : G-1 01 . ...
ROW 29 : ... .. . ... ... : ... .. . ... ... : ... .. . ... : ... .. . ... ... : ... .. . ... : ... .. . ... ... : ... .. . ... : ... .. . ...
ROW 2A : ... .. . ... ... : C-4 01 . ... ... : --- .. . ... : 0-# 04 4 ... ... : ... .. . ... : D-3 01 . ... ... : ... .. . ... : ... .. . ...
ROW 2B : ... .. . ... ... : ... .. . ... ... : ... .. . ... : ... .. . ... ... : ... .. . ... : ... .. . ... ... : ... .. . ... : ... .. . ...
ROW 2C : ... .. . ... ... : ... .. . ... ... : ... .. . ... : ... .. . ... ... : ... .. . ... : ... .. . ... ... : ... .. . ... : ... .. . ...
ROW 2D : ... .. . ... ... : D-4 01 . ... ... : D-4 00 . ... : ... .. . ... ... : ... .. . ... : A-3 01 . ... ... : === .. . ... : === .. . ...
ROW 2E : ... .. . ... ... : ... .. . ... ... : ... .. . ... : 0-# 04 4 ... ... : ... .. . ... : ... .. . ... ... : ... .. . ... : ... .. . ...
ROW 2F : ... .. . ... ... : ... .. . ... ... : ... .. . ... : ... .. . ... ... : ... .. . ... : ... .. . ... ... : ... .. . ... : ... .. . ...
ROW 30 : ... .. . ... ... : D-2 01 . ... ... : C-5 00 . ... : 0-# 04 B ... F96 : ... .. . ... : C-4 01 . ... ... : F-0 01 . ... : F-1 01 . ...
ROW 31 : ... .. . ... ... : ... .. . ... ... : ... .. . ... : ... .. . ... ... : ... .. . ... : ... .. . ... ... : ... .. . ... : ... .. . ...
ROW 32 : ... .. . ... ... : F-2 01 . ... ... : C#5 00 . ... : ... .. . ... ... : ... .. . ... : D-4 01 . ... ... : ... .. . ... : ... .. . ...
ROW 33 : ... .. . ... ... : ... .. . ... ... : ... .. . ... : ... .. . ... ... : ... .. . ... : ... .. . ... ... : ... .. . ... : ... .. . ...
ROW 34 : ... .. . ... ... : ... .. . ... ... : ... .. . ... : ... .. . ... ... : ... .. . ... : ... .. . ... ... : ... .. . ... : ... .. . ...
ROW 35 : ... .. . ... ... : D-3 01 . ... ... : F-5 00 . ... : ... .. . ... ... : ... .. . ... : D-2 01 . ... ... : === .. . ... : === .. . ...
ROW 36 : ... .. . ... ... : ... .. . ... ... : ... .. . ... : 0-# 04 3 ... ... : ... .. . ... : ... .. . ... ... : ... .. . ... : ... .. . ...
ROW 37 : ... .. . ... ... : ... .. . ... ... : ... .. . ... : ... .. . ... ... : ... .. . ... : ... .. . ... ... : ... .. . ... : ... .. . ...
ROW 38 : ... .. . ... ... : A-3 01 . ... ... : C-5 00 . ... : 0-# 04 C ... F96 : ... .. . ... : F-2 01 . ... ... : D-0 01 . ... : E-1 01 . ...
ROW 39 : ... .. . ... ... : ... .. . ... ... : ... .. . ... : ... .. . ... ... : ... .. . ... : ... .. . ... ... : ... .. . ... : ... .. . ...
ROW 3A : ... .. . ... ... : C-4 01 . ... ... : D-5 00 . ... : ... .. . ... ... : ... .. . ... : D-3 01 . ... ... : ... .. . ... : ... .. . ...
ROW 3B : ... .. . ... ... : ... .. . ... ... : ... .. . ... : ... .. . ... ... : ... .. . ... : ... .. . ... ... : ... .. . ... : ... .. . ...
ROW 3C : ... .. . ... ... : ... .. . ... ... : ... .. . ... : 0-# 04 C ... ... : ... .. . ... : ... .. . ... ... : ... .. . ... : ... .. . ...
ROW 3D : ... .. . ... ... : D-4 01 . ... ... : ... .. . ... : ... .. . ... ... : ... .. . ... : A-3 01 . ... ... : === .. . ... : === .. . ...
ROW 3E : ... .. . ... ... : ... .. . ... ... : ... .. . ... : 0-# 04 C ... ... : ... .. . ... : ... .. . ... ... : ... .. . ... : ... .. . ...
ROW 3F : ... .. . ... ... : ... .. . ... ... : ... .. . ... : ... .. . ... ... : ... .. . ... : ... .. . ... ... : ... .. . ... : ... .. . ...
ROW 40 : ... .. . ... ... : D-2 01 . ... ... : --- .. . ... : 0-# 04 C ... F96 : ... .. . ... : C-4 01 . ... ... : A#0 08 . ... : D-1 01 . ...
ROW 41 : ... .. . ... ... : ... .. . ... ... : ... .. . ... : ... .. . ... ... : ... .. . ... : ... .. . ... ... : ... .. . ... : ... .. . ...
ROW 42 : ... .. . ... ... : F-2 01 . ... ... : D-4 00 . ... : 0-# 04 2 ... ... : ... .. . ... : D-4 01 . ... ... : ... .. . ... : ... .. . ...
ROW 43 : ... .. . ... ... : ... .. . ... ... : ... .. . ... : ... .. . ... ... : ... .. . ... : ... .. . ... ... : ... .. . ... : ... .. . ...
ROW 44 : ... .. . ... ... : ... .. . ... ... : ... .. . ... : 0-# 04 . ... ... : ... .. . ... : ... .. . ... ... : ... .. . ... : ... .. . ...
ROW 45 : ... .. . ... ... : D-3 01 . ... ... : --- .. . ... : ... .. . ... ... : ... .. . ... : D-2 01 . ... ... : === .. . ... : === .. . ...
ROW 46 : ... .. . ... ... : ... .. . ... ... : ... .. . ... : ... .. . ... ... : ... .. . ... : ... .. . ... ... : ... .. . ... : ... .. . ...
ROW 47 : ... .. . ... ... : ... .. . ... ... : ... .. . ... : ... .. . ... ... : ... .. . ... : ... .. . ... ... : ... .. . ... : ... .. . ...
ROW 48 : ... .. . ... ... : A-3 01 . ... ... : D-4 00 . ... : 0-# 04 D ... F96 : ... .. . ... : F-2 01 . ... ... : D-0 01 . ... : D-1 01 . ...
ROW 49 : ... .. . ... ... : ... .. . ... ... : ... .. . ... : ... .. . ... ... : ... .. . ... : ... .. . ... ... : ... .. . ... : ... .. . ...
ROW 4A : ... .. . ... ... : C-4 01 . ... ... : --- .. . ... : ... .. . ... ... : ... .. . ... : D-3 01 . ... ... : ... .. . ... : ... .. . ...
ROW 4B : ... .. . ... ... : ... .. . ... ... : ... .. . ... : ... .. . ... ... : ... .. . ... : ... .. . ... ... : ... .. . ... : ... .. . ...
ROW 4C : ... .. . ... ... : ... .. . ... ... : ... .. . ... : ... .. . ... ... : ... .. . ... : ... .. . ... ... : ... .. . ... : ... .. . ...
ROW 4D : ... .. . ... ... : D-4 01 . ... ... : D-4 00 . ... : ... .. . ... ... : ... .. . ... : A-3 01 . ... ... : === .. . ... : === .. . ...
ROW 4E : ... .. . ... ... : ... .. . ... ... : ... .. . ... : 0-# 04 1 ... ... : ... .. . ... : ... .. . ... ... : ... .. . ... : ... .. . ...
ROW 4F : ... .. . ... ... : ... .. . ... ... : ... .. . ... : ... .. . ... ... : ... .. . ... : ... .. . ... ... : ... .. . ... : ... .. . ...
ROW 50 : ... .. . ... ... : D-2 01 . ... ... : A-4 00 . ... : 0-# 04 D ... F96 : ... .. . ... : C-4 01 . ... ... : F-0 01 . ... : F-1 01 . ...
ROW 51 : ... .. . ... ... : ... .. . ... ... : ... .. . ... : ... .. . ... ... : ... .. . ... : ... .. . ... ... : ... .. . ... : ... .. . ...
ROW 52 : ... .. . ... ... : F-2 01 . ... ... : A#4 00 . ... : ... .. . ... ... : ... .. . ... : D-4 01 . ... ... : ... .. . ... : ... .. . ...
ROW 53 : ... .. . ... ... : ... .. . ... ... : ... .. . ... : ... .. . ... ... : ... .. . ... : ... .. . ... ... : ... .. . ... : ... .. . ...
ROW 54 : ... .. . ... ... : ... .. . ... ... : ... .. . ... : 0-# 04 1 ... ... : ... .. . ... : ... .. . ... ... : ... .. . ... : ... .. . ...
ROW 55 : ... .. . ... ... : D-3 01 . ... ... : A-4 00 . ... : ... .. . ... ... : ... .. . ... : D-2 01 . ... ... : ... .. . ... : ... .. . ...
ROW 56 : ... .. . ... ... : ... .. . ... ... : ... .. . ... : ... .. . ... ... : ... .. . ... : ... .. . ... ... : ... .. . ... : ... .. . ...
ROW 57 : ... .. . ... ... : ... .. . ... ... : ... .. . ... : ... .. . ... ... : ... .. . ... : ... .. . ... ... : ... .. . ... : ... .. . ...
ROW 58 : ... .. . ... ... : A-3 01 . ... ... : F-4 00 . ... : 0-# 02 F ... F96 : C-0 00 . ... : F-2 01 . ... ... : A-0 01 . ... : G-1 01 . ...
ROW 59 : ... .. . ... ... : ... .. . ... ... : ... .. . ... : ... .. . ... ... : ... .. . ... : ... .. . ... ... : ... .. . ... : ... .. . ...
ROW 5A : ... .. . ... ... : C-4 01 . ... ... : D-4 00 . ... : ... .. . ... ... : --- .. . ... : D-3 01 . ... ... : ... .. . ... : ... .. . ...
ROW 5B : ... .. . ... ... : ... .. . ... ... : ... .. . ... : ... .. . ... ... : ... .. . ... : ... .. . ... ... : ... .. . ... : ... .. . ...
ROW 5C : ... .. . ... ... : ... .. . ... ... : ... .. . ... : 0-# 03 F ... ... : C#0 00 . ... : ... .. . ... ... : ... .. . ... : ... .. . ...
ROW 5D : ... .. . ... ... : D-4 01 . ... ... : ... .. . ... : ... .. . ... ... : ... .. . ... : A-3 01 . ... ... : ... .. . ... : ... .. . ...
ROW 5E : ... .. . ... ... : ... .. . ... ... : ... .. . ... : 0-# 03 F ... ... : C#0 00 . ... : ... .. . ... ... : ... .. . ... : ... .. . ...
ROW 5F : ... .. . ... ... : ... .. . ... ... : ... .. . ... : ... .. . ... ... : ... .. . D00 : ... .. . ... ... : ... .. . ... : ... .. . ...
ROW 60 : C-4 01 . ... ... : D-2 01 . ... ... : --- .. . ... : 0-# 04 . D00 ... : ... .. . ... : C-4 01 . ... ... : A#0 01 . ... : A-1 01 . ...
ROW 61 : ... .. . ... ... : ... .. . ... ... : ... .. . ... : ... .. . ... ... : C-0 00 . ... : ... .. . ... ... : ... .. . ... : ... .. . ...
ROW 62 : D-4 01 . ... G02 : F-2 01 . ... ... : D-4 00 . ... : ... .. . ... ... : ... .. . ... : D-4 01 . ... ... : ... .. . ... : ... .. . ...
ROW 63 : ... .. . ... ... : ... .. . ... ... : ... .. . ... : ... .. . ... ... : ... .. . ... : ... .. . ... ... : ... .. . ... : ... .. . ...
ROW 64 : ... .. . ... ... : ... .. . ... ... : ... .. . ... : ... .. . ... ... : ... .. . ... : ... .. . ... ... : ... .. . ... : ... .. . ...
ROW 65 : D-2 01 . ... G01 : D-3 01 . ... ... : --- 00 . ... : ... .. . ... ... : ... .. . ... : D-2 01 . ... ... : ... .. . ... : ... .. . ...
ROW 66 : ... .. . ... ... : ... .. . ... ... : ... .. . ... : ... .. . ... ... : ... .. . ... : ... .. . ... ... : ... .. . ... : ... .. . ...
ROW 67 : ... .. . ... ... : ... .. . ... ... : ... .. . ... : ... .. . ... ... : ... .. . ... : ... .. . ... ... : ... .. . ... : ... .. . ...
ROW 68 : F-2 01 . ... ... : A-3 01 . ... ... : D-4 00 . ... : 0-# 04 1 ... ... : ... .. . ... : F-2 01 . ... ... : C-1 01 . ... : G-1 01 . ...
ROW 69 : ... .. . ... ... : ... .. . ... ... : ... .. . ... : ... .. . ... ... : C#0 00 . ... : ... .. . ... ... : ... .. . ... : ... .. . ...
ROW 6A : D-3 01 . ... G02 : C-4 01 . ... ... : --- .. . ... : 0-# 04 D G02 ... : ... .. . ... : D-3 01 . ... ... : ... .. . ... : ... .. . ...
ROW 6B : ... .. . ... ... : ... .. . ... ... : ... .. . ... : ... .. . ... ... : ... .. . ... : ... .. . ... ... : ... .. . ... : ... .. . ...
ROW 6C : ... .. . ... ... : ... .. . ... ... : ... .. . ... : ... .. . ... ... : ... .. . ... : ... .. . ... ... : ... .. . ... : ... .. . ...
ROW 6D : A-3 01 . ... G01 : D-4 01 . ... ... : D-4 00 . ... : ... .. . ... ... : ... .. . ... : A-3 01 . ... ... : === .. . ... : === .. . ...
ROW 6E : ... .. . ... ... : ... .. . ... ... : ... .. . ... : ... .. . ... ... : ... .. . ... : ... .. . ... ... : ... .. . ... : ... .. . ...
ROW 6F : ... .. . ... ... : ... .. . ... ... : ... .. . ... : ... .. . ... ... : ... .. . ... : ... .. . ... ... : ... .. . ... : ... .. . ...
ROW 70 : C-4 01 . ... ... : D-2 01 . ... ... : C-5 00 . ... : 0-# 04 1 ... ... : ... .. . ... : C-4 01 . ... ... : D-1 01 . ... : F-1 01 . ...
ROW 71 : ... .. . ... ... : ... .. . ... ... : ... .. . ... : ... .. . ... ... : C-0 00 . ... : ... .. . ... ... : ... .. . ... : ... .. . ...
ROW 72 : D-4 01 . ... G02 : F-2 01 . ... ... : C#5 00 . ... : ... .. . ... ... : ... .. . ... : D-4 01 . ... ... : ... .. . ... : ... .. . ...
ROW 73 : ... .. . ... ... : ... .. . ... ... : ... .. . ... : ... .. . ... ... : ... .. . ... : ... .. . ... ... : ... .. . ... : ... .. . ...
ROW 74 : ... .. . ... ... : ... .. . ... ... : ... .. . ... : ... .. . ... ... : ... .. . ... : ... .. . ... ... : ... .. . ... : ... .. . ...
ROW 75 : D-2 01 . ... G01 : D-3 01 . ... ... : F-5 00 . ... : 0-# 02 F G01 ... : ... .. . ... : D-2 01 . ... ... : === .. . ... : === .. . ...
ROW 76 : ... .. . ... ... : ... .. . ... ... : ... .. . ... : ... .. . ... ... : ... .. . ... : ... .. . ... ... : ... .. . ... : ... .. . ...
ROW 77 : ... .. . ... ... : ... .. . ... ... : ... .. . ... : ... .. . ... ... : ... .. . ... : ... .. . ... ... : ... .. . ... : ... .. . ...
ROW 78 : F-2 01 . ... ... : A-3 01 . ... ... : C-5 00 . ... : 0-# 04 2 ... ... : ... .. . ... : F-2 01 . ... ... : A-0 01 . ... : E-1 01 . ...
ROW 79 : ... .. . ... ... : ... .. . ... ... : ... .. . ... : ... .. . ... ... : C#0 00 . ... : ... .. . ... ... : ... .. . ... : ... .. . ...
ROW 7A : D-3 01 . ... G02 : C-4 01 . ... ... : D-5 00 . ... : 0-# 03 F G02 ... : ... .. . ... : D-3 01 . ... ... : ... .. . ... : ... .. . ...
ROW 7B : ... .. . ... ... : ... .. . ... ... : ... .. . ... : ... .. . ... ... : ... .. . ... : ... .. . ... ... : ... .. . ... : ... .. . ...
ROW 7C : ... .. . ... ... : ... .. . ... ... : ... .. . ... : ... .. . ... ... : ... .. . ... : ... .. . ... ... : ... .. . ... : ... .. . ...
ROW 7D : A-3 01 . ... G01 : D-4 01 . ... ... : ... .. . ... : 0-# 03 F G01 ... : ... .. . ... : A-3 01 . ... ... : === .. . ... : === .. . ...
ROW 7E : ... .. . ... ... : ... .. . ... ... : ... .. . ... : ... .. . ... ... : C#0 00 . ... : ... .. . ... ... : ... .. . ... : ... .. . ...
ROW 7F : ... .. . ... ... : ... .. . ... ... : ... .. . ... : ... .. . ... ... : ... .. . ... : ... .. . ... ... : ... .. . ... : ... .. . ...
PATTERN 04
ROW 00 : ... .. . ... P7F : A#2 01 . ... ... : --- .. . ... : 0-# 02 . F04 F96 : C-0 00 . ... : C-4 01 4 V07 P7F : D-0 05 8 ... : A#0 01 . ...
ROW 01 : ... .. . ... ... : ... .. . ... ... : ... .. . ... : ... .. . ... ... : ... .. . ... : ... .. . ... ... : ... .. . ... : ... .. . ...
ROW 02 : ... .. . ... ... : D-3 01 . ... ... : A#3 00 . ... : ... .. . ... ... : --- .. . ... : D-4 01 . ... ... : ... .. . ... : ... .. . ...
ROW 03 : ... .. . ... ... : ... .. . ... ... : ... .. . ... : ... .. . ... ... : ... .. . ... : ... .. . ... ... : ... .. . ... : ... .. . ...
ROW 04 : A-2 00 2 400 ... : ... .. . ... ... : ... .. . ... : ... .. . ... ... : ... .. . ... : ... .. . ... ... : ... .. . ... : ... .. . ...
ROW 05 : A#2 00 . ... ... : A-3 01 . ... ... : --- .. . ... : ... .. . ... ... : ... .. . ... : A#2 01 . ... ... : === .. . ... : === .. . ...
ROW 06 : ... .. . ... ... : ... .. . ... ... : ... .. . ... : ... .. . ... ... : ... .. . ... : ... .. . ... ... : ... .. . ... : ... .. . ...
ROW 07 : ... .. . ... ... : ... .. . ... ... : ... .. . ... : ... .. . ... ... : ... .. . ... : ... .. . ... ... : ... .. . ... : ... .. . ...
ROW 08 : ... .. . ... ... : A#3 01 . ... ... : A#3 00 . ... : 0-# 04 . ... F96 : C#0 00 . ... : D-3 01 . ... ... : ... .. . ... : D-1 01 . ...
ROW 09 : ... .. . ... ... : ... .. . ... ... : ... .. . ... : ... .. . ... ... : ... .. . ... : ... .. . ... ... : ... .. . ... : ... .. . ...
ROW 0A : ... .. . ... ... : A-3 01 . ... ... : --- .. . ... : ... .. . ... ... : --- .. . ... : A-3 01 . ... ... : ... .. . ... : ... .. . ...
ROW 0B : ... .. . ... ... : ... .. . ... ... : ... .. . ... : ... .. . ... ... : ... .. . ... : ... .. . ... ... : ... .. . ... : ... .. . ...
ROW 0C : ... .. . 483 ... : ... .. . ... ... : ... .. . ... : ... .. . ... ... : ... .. . ... : ... .. . ... ... : ... .. . ... : ... .. . ...
ROW 0D : ... .. . ... ... : F-3 01 . ... ... : A#3 00 . ... : ... .. . ... ... : ... .. . ... : A#3 01 . ... ... : ... .. . ... : === .. . ...
ROW 0E : ... .. . ... ... : ... .. . ... ... : ... .. . ... : ... .. . ... ... : ... .. . ... : ... .. . ... ... : ... .. . ... : ... .. . ...
ROW 0F : ... .. . ... ... : ... .. . ... ... : ... .. . ... : ... .. . ... ... : ... .. . ... : ... .. . ... ... : ... .. . ... : ... .. . ...
ROW 10 : ... .. . ... ... : A#2 01 . ... ... : E-4 00 . ... : 0-# 04 . ... F96 : C-0 00 . ... : A-3 01 . ... ... : ... .. . ... : F-1 01 . ...
ROW 11 : ... .. . ... ... : ... .. . ... ... : ... .. . ... : ... .. . ... ... : ... .. . ... : ... .. . ... ... : ... .. . ... : ... .. . ...
ROW 12 : ... .. . ... ... : D-3 01 . ... ... : F-4 00 . ... : ... .. . ... ... : --- .. . ... : F-3 01 . ... ... : ... .. . ... : ... .. . ...
ROW 13 : ... .. . ... ... : ... .. . ... ... : ... .. . ... : ... .. . ... ... : ... .. . ... : ... .. . ... ... : ... .. . ... : ... .. . ...
ROW 14 : ... .. . ... ... : ... .. . ... ... : ... .. . ... : ... .. . ... ... : ... .. . ... : ... .. . ... ... : ... .. . ... : ... .. . ...
ROW 15 : ... .. . ... ... : A-3 01 . ... ... : E-4 00 . ... : ... .. . ... ... : ... .. . ... : A#2 01 . ... ... : ... .. . ... : ... .. . ...
ROW 16 : ... .. . ... ... : ... .. . ... ... : ... .. . ... : ... .. . ... ... : ... .. . ... : ... .. . ... ... : ... .. . ... : ... .. . ...
ROW 17 : ... .. . ... ... : ... .. . ... ... : ... .. . ... : ... .. . ... ... : ... .. . ... : ... .. . ... ... : ... .. . ... : ... .. . ...
ROW 18 : ... .. . ... ... : A#3 01 . ... ... : D-4 00 . ... : 0-# 04 . ... F96 : C#0 00 . ... : D-3 01 . ... ... : ... .. . ... : A-1 01 . ...
ROW 19 : ... .. . ... ... : ... .. . ... ... : ... .. . ... : ... .. . ... ... : ... .. . ... : ... .. . ... ... : ... .. . ... : ... .. . ...
ROW 1A : ... .. . ... ... : A-3 01 . ... ... : A#3 00 . ... : ... .. . ... ... : --- .. . ... : A-3 01 . ... ... : ... .. . ... : ... .. . ...
ROW 1B : ... .. . ... ... : ... .. . ... ... : ... .. . ... : ... .. . ... ... : ... .. . ... : ... .. . ... ... : ... .. . ... : ... .. . ...
ROW 1C : ... .. . ... ... : ... .. . ... ... : ... .. . ... : 0-# 04 . ... ... : ... .. . ... : ... .. . ... ... : ... .. . ... : ... .. . ...
ROW 1D : ... .. . ... ... : F-3 01 . ... ... : ... .. . ... : ... .. . ... ... : ... .. . ... : A#3 01 . ... ... : ... .. . ... : ... .. . ...
ROW 1E : ... .. . ... ... : ... .. . ... ... : ... .. . ... : 0-# 04 . ... ... : C#0 00 . ... : ... .. . ... ... : ... .. . ... : ... .. . ...
ROW 1F : ... .. . ... ... : ... .. . ... ... : ... .. . ... : ... .. . ... ... : ... .. . ... : ... .. . ... ... : ... .. . ... : ... .. . ...
ROW 20 : ... .. . ... ... : A#2 01 . ... ... : --- .. . ... : 0-# 04 . ... F96 : C-0 00 . ... : A-3 01 . ... ... : ... .. . ... : A#1 01 . ...
ROW 21 : ... .. . ... ... : ... .. . ... ... : ... .. . ... : ... .. . ... ... : ... .. . ... : ... .. . ... ... : ... .. . ... : ... .. . ...
ROW 22 : ... .. . ... ... : D-3 01 . ... ... : A#3 00 . ... : ... .. . ... ... : --- .. . ... : F-3 01 . ... ... : ... .. . ... : ... .. . ...
ROW 23 : ... .. . ... ... : ... .. . ... ... : ... .. . ... : ... .. . ... ... : ... .. . ... : ... .. . ... ... : ... .. . ... : ... .. . ...
ROW 24 : ... .. . ... ... : ... .. . ... ... : ... .. . ... : ... .. . ... ... : ... .. . ... : ... .. . ... ... : ... .. . ... : ... .. . ...
ROW 25 : ... .. . ... ... : A-3 01 . ... ... : --- 00 . ... : ... .. . ... ... : ... .. . ... : A#2 01 . ... ... : ... .. . ... : ... .. . ...
ROW 26 : ... .. . ... ... : ... .. . ... ... : ... .. . ... : ... .. . ... ... : ... .. . ... : ... .. . ... ... : ... .. . ... : ... .. . ...
ROW 27 : ... .. . ... ... : ... .. . ... ... : ... .. . ... : ... .. . ... ... : ... .. . ... : ... .. . ... ... : ... .. . ... : ... .. . ...
ROW 28 : ... .. . ... ... : A#3 01 . ... ... : A#3 00 . ... : 0-# 04 . ... F96 : C#0 00 . ... : D-3 01 . ... ... : ... .. . ... : A-1 01 . ...
ROW 29 : ... .. . ... ... : ... .. . ... ... : ... .. . ... : ... .. . ... ... : ... .. . ... : ... .. . ... ... : ... .. . ... : ... .. . ...
ROW 2A : ... .. . ... ... : A-3 01 . ... ... : --- .. . ... : ... .. . ... ... : --- .. . ... : A-3 01 . ... ... : ... .. . ... : ... .. . ...
ROW 2B : ... .. . ... ... : ... .. . ... ... : ... .. . ... : ... .. . ... ... : ... .. . ... : ... .. . ... ... : ... .. . ... : ... .. . ...
ROW 2C : ... .. . ... ... : ... .. . ... ... : ... .. . ... : ... .. . ... ... : ... .. . ... : ... .. . ... ... : ... .. . ... : ... .. . ...
ROW 2D : ... .. . ... ... : F-3 01 . ... ... : A#3 00 . ... : ... .. . ... ... : ... .. . ... : A#3 01 . ... ... : ... .. . ... : === .. . ...
ROW 2E : ... .. . ... ... : ... .. . ... ... : ... .. . ... : ... .. . ... ... : ... .. . ... : ... .. . ... ... : ... .. . ... : ... .. . ...
ROW 2F : ... .. . ... ... : ... .. . ... ... : ... .. . ... : ... .. . ... ... : ... .. . ... : ... .. . ... ... : ... .. . ... : ... .. . ...
ROW 30 : ... .. . ... ... : A#2 01 . ... ... : A-4 00 . ... : 0-# 04 . ... F96 : C-0 00 . ... : A-3 01 . ... ... : ... .. . ... : F-1 01 . ...
ROW 31 : ... .. . ... ... : ... .. . ... ... : ... .. . ... : ... .. . ... ... : ... .. . ... : ... .. . ... ... : ... .. . ... : ... .. . ...
ROW 32 : ... .. . ... ... : D-3 01 . ... ... : A#4 00 . ... : ... .. . ... ... : --- .. . ... : F-3 01 . ... ... : ... .. . ... : ... .. . ...
ROW 33 : ... .. . ... ... : ... .. . ... ... : ... .. . ... : ... .. . ... ... : ... .. . ... : ... .. . ... ... : ... .. . ... : ... .. . ...
ROW 34 : ... .. . ... ... : ... .. . ... ... : ... .. . ... : ... .. . ... ... : ... .. . ... : ... .. . ... ... : ... .. . ... : ... .. . ...
ROW 35 : ... .. . ... ... : A-3 01 . ... ... : A-4 00 . ... : ... .. . ... ... : ... .. . ... : A#2 01 . ... ... : ... .. . ... : === .. . ...
ROW 36 : ... .. . ... ... : ... .. . ... ... : ... .. . ... : ... .. . ... ... : ... .. . ... : ... .. . ... ... : ... .. . ... : ... .. . ...
ROW 37 : ... .. . ... ... : ... .. . ... ... : ... .. . ... : ... .. . ... ... : ... .. . ... : ... .. . ... ... : ... .. . ... : ... .. . ...
ROW 38 : ... .. . ... ... : A#3 01 . ... ... : A#4 00 . ... : 0-# 04 . ... F96 : C#0 00 . ... : D-3 01 . ... ... : ... .. . ... : D-1 01 . ...
ROW 39 : ... .. . ... ... : ... .. . ... ... : ... .. . ... : ... .. . ... ... : ... .. . ... : ... .. . ... ... : ... .. . ... : ... .. . ...
ROW 3A : ... .. . ... ... : A-3 01 . ... ... : A-4 00 . ... : ... .. . ... ... : --- .. . ... : A-3 01 . ... ... : ... .. . ... : ... .. . ...
ROW 3B : ... .. . ... ... : ... .. . ... ... : ... .. . ... : ... .. . ... ... : ... .. . ... : ... .. . ... ... : ... .. . ... : ... .. . ...
ROW 3C : ... .. . ... ... : ... .. . ... ... : ... .. . ... : 0-# 04 . ... ... : ... .. . ... : ... .. . ... ... : ... .. . ... : ... .. . ...
ROW 3D : ... .. . ... ... : F-3 01 . ... ... : ... .. . ... : ... .. . ... ... : ... .. . ... : A#3 01 . ... ... : ... .. . ... : === .. . ...
ROW 3E : ... .. . ... ... : ... .. . ... ... : ... .. . ... : 0-# 04 . ... ... : ... .. . ... : ... .. . ... ... : ... .. . ... : ... .. . ...
ROW 3F : ... .. . ... ... : ... .. . ... ... : ... .. . ... : ... .. . ... ... : ... .. . ... : ... .. . ... ... : ... .. . ... : ... .. . ...
ROW 40 : ... .. . ... ... : A#2 01 . ... ... : --- .. . ... : 0-# 04 . ... F96 : C-0 00 . ... : A-3 01 . ... ... : ... .. . ... : A#0 01 . ...
ROW 41 : ... .. . ... ... : ... .. . ... ... : ... .. . ... : ... .. . ... ... : ... .. . ... : ... .. . ... ... : ... .. . ... : ... .. . ...
ROW 42 : ... .. . ... ... : D-3 01 . ... ... : A#3 00 . ... : ... .. . ... ... : --- .. . ... : F-3 01 . ... ... : ... .. . ... : ... .. . ...
ROW 43 : ... .. . ... ... : ... .. . ... ... : ... .. . ... : ... .. . ... ... : ... .. . ... : ... .. . ... ... : ... .. . ... : ... .. . ...
ROW 44 : ... .. . ... ... : ... .. . ... ... : ... .. . ... : ... .. . ... ... : ... .. . ... : ... .. . ... ... : ... .. . ... : ... .. . ...
ROW 45 : ... .. . ... ... : A-3 01 . ... ... : --- .. . ... : ... .. . ... ... : ... .. . ... : A#2 01 . ... ... : ... .. . ... : === .. . ...
ROW 46 : ... .. . ... ... : ... .. . ... ... : ... .. . ... : ... .. . ... ... : ... .. . ... : ... .. . ... ... : ... .. . ... : ... .. . ...
ROW 47 : ... .. . ... ... : ... .. . ... ... : ... .. . ... : ... .. . ... ... : ... .. . ... : ... .. . ... ... : ... .. . ... : ... .. . ...
ROW 48 : ... .. . ... ... : A#3 01 . ... ... : A#3 00 . ... : 0-# 04 . ... F96 : C#0 00 . ... : D-3 01 . ... ... : ... .. . ... : D-1 01 . ...
ROW 49 : ... .. . ... ... : ... .. . ... ... : ... .. . ... : ... .. . ... ... : ... .. . ... : ... .. . ... ... : ... .. . ... : ... .. . ...
ROW 4A : ... .. . ... ... : A-3 01 . ... ... : --- .. . ... : ... .. . ... ... : --- .. . ... : A-3 01 . ... ... : ... .. . ... : ... .. . ...
ROW 4B : ... .. . ... ... : ... .. . ... ... : ... .. . ... : ... .. . ... ... : ... .. . ... : ... .. . ... ... : ... .. . ... : ... .. . ...
ROW 4C : ... .. . ... ... : ... .. . ... ... : ... .. . ... : ... .. . ... ... : ... .. . ... : ... .. . ... ... : ... .. . ... : ... .. . ...
ROW 4D : ... .. . ... ... : F-3 01 . ... ... : A#3 00 . ... : ... .. . ... ... : ... .. . ... : A#3 01 . ... ... : ... .. . ... : === .. . ...
ROW 4E : ... .. . ... ... : ... .. . ... ... : ... .. . ... : ... .. . ... ... : ... .. . ... : ... .. . ... ... : ... .. . ... : ... .. . ...
ROW 4F : ... .. . ... ... : ... .. . ... ... : ... .. . ... : ... .. . ... ... : ... .. . ... : ... .. . ... ... : ... .. . ... : ... .. . ...
ROW 50 : ... .. . ... ... : A#2 01 . ... ... : E-4 00 . ... : 0-# 04 . ... F96 : C-0 00 . ... : A-3 01 . ... ... : ... .. . ... : F-1 01 . ...
ROW 51 : ... .. . ... ... : ... .. . ... ... : ... .. . ... : ... .. . ... ... : ... .. . ... : ... .. . ... ... : ... .. . ... : ... .. . ...
ROW 52 : ... .. . ... ... : D-3 01 . ... ... : F-4 00 . ... : ... .. . ... ... : --- .. . ... : F-3 01 . ... ... : ... .. . ... : ... .. . ...
ROW 53 : ... .. . ... ... : ... .. . ... ... : ... .. . ... : ... .. . ... ... : ... .. . ... : ... .. . ... ... : ... .. . ... : ... .. . ...
ROW 54 : ... .. . ... ... : ... .. . ... ... : ... .. . ... : ... .. . ... ... : ... .. . ... : ... .. . ... ... : ... .. . ... : ... .. . ...
ROW 55 : ... .. . ... ... : A-3 01 . ... ... : E-4 00 . ... : ... .. . ... ... : ... .. . ... : A#2 01 . ... ... : ... .. . ... : ... .. . ...
ROW 56 : ... .. . ... ... : ... .. . ... ... : ... .. . ... : ... .. . ... ... : ... .. . ... : ... .. . ... ... : ... .. . ... : ... .. . ...
ROW 57 : ... .. . ... ... : ... .. . ... ... : ... .. . ... : ... .. . ... ... : ... .. . ... : ... .. . ... ... : ... .. . ... : ... .. . ...
ROW 58 : ... .. . ... ... : A#3 01 . ... ... : D-4 00 . ... : 0-# 02 . ... F96 : C#0 00 . ... : D-3 01 . ... ... : ... .. . ... : A-1 01 . ...
ROW 59 : ... .. . ... ... : ... .. . ... ... : ... .. . ... : ... .. . ... ... : ... .. . ... : ... .. . ... ... : ... .. . ... : ... .. . ...
ROW 5A : ... .. . ... ... : A-3 01 . ... ... : A#3 00 . ... : ... .. . ... ... : --- .. . ... : A-3 01 . ... ... : ... .. . ... : ... .. . ...
ROW 5B : ... .. . ... ... : ... .. . ... ... : ... .. . ... : ... .. . ... ... : ... .. . ... : ... .. . ... ... : ... .. . ... : ... .. . ...
ROW 5C : ... .. . ... ... : ... .. . ... ... : ... .. . ... : 0-# 03 . ... ... : C#0 00 . ... : ... .. . ... ... : ... .. . ... : ... .. . ...
ROW 5D : ... .. . ... ... : F-3 01 . ... ... : ... .. . ... : ... .. . ... ... : ... .. . ... : A#3 01 . ... ... : ... .. . ... : ... .. . ...
ROW 5E : ... .. . ... ... : ... .. . ... ... : ... .. . ... : 0-# 03 . ... ... : C#0 00 . ... : ... .. . ... ... : ... .. . ... : ... .. . ...
ROW 5F : ... .. . 400 ... : ... .. . ... ... : ... .. . ... : ... .. . ... ... : ... .. . D00 : ... .. . ... ... : ... .. . ... : ... .. . ...
ROW 60 : A-3 01 . ... ... : A#2 01 . ... ... : --- .. . ... : ... .. . ... ... : C#0 00 . ... : A-3 01 . ... ... : ... .. . ... : A#1 01 . ...
ROW 61 : ... .. . ... ... : ... .. . ... ... : ... .. . ... : ... .. . ... ... : ... .. . ... : ... .. . ... ... : ... .. . ... : ... .. . ...
ROW 62 : F-3 01 . ... ... : D-3 01 . ... ... : A#3 00 . ... : ... .. . ... ... : ... .. . ... : F-3 01 . ... ... : ... .. . ... : ... .. . ...
ROW 63 : ... .. . ... ... : ... .. . ... ... : ... .. . ... : ... .. . ... ... : ... .. . ... : ... .. . ... ... : ... .. . ... : ... .. . ...
ROW 64 : ... .. . ... ... : ... .. . ... ... : ... .. . ... : ... .. . ... ... : ... .. . ... : ... .. . ... ... : ... .. . ... : ... .. . ...
ROW 65 : A#2 01 . ... ... : A-3 01 . ... ... : --- 00 . ... : ... .. . ... ... : ... .. . ... : A#2 01 . ... ... : ... .. . ... : ... .. . ...
ROW 66 : ... .. . ... ... : ... .. . ... ... : ... .. . ... : ... .. . ... ... : ... .. . ... : ... .. . ... ... : ... .. . ... : ... .. . ...
ROW 67 : ... .. . ... ... : ... .. . ... ... : ... .. . ... : ... .. . ... ... : ... .. . ... : ... .. . ... ... : ... .. . ... : ... .. . ...
ROW 68 : D-3 01 . ... ... : A#3 01 . ... ... : A#3 00 . ... : ... .. . ... ... : ... .. . ... : D-3 01 . ... ... : ... .. . ... : C-2 01 . ...
ROW 69 : ... .. . ... ... : ... .. . ... ... : ... .. . ... : ... .. . ... ... : ... .. . ... : ... .. . ... ... : ... .. . ... : ... .. . ...
ROW 6A : A-3 01 . ... ... : A-3 01 . ... ... : --- .. . ... : ... .. . ... ... : ... .. . ... : A-3 01 . ... ... : ... .. . ... : ... .. . ...
ROW 6B : ... .. . ... ... : ... .. . ... ... : ... .. . ... : ... .. . ... ... : C-0 00 . ... : ... .. . ... ... : ... .. . ... : ... .. . ...
ROW 6C : ... .. . ... ... : ... .. . ... ... : ... .. . ... : ... .. . ... ... : ... .. . ... : ... .. . ... ... : ... .. . ... : ... .. . ...
ROW 6D : A#3 01 . ... ... : F-3 01 . ... ... : A#3 00 . ... : ... .. . ... ... : ... .. . ... : A#3 01 . ... ... : ... .. . ... : === .. . ...
ROW 6E : ... .. . ... ... : ... .. . ... ... : ... .. . ... : ... .. . ... ... : ... .. . ... : ... .. . ... ... : ... .. . ... : ... .. . ...
ROW 6F : ... .. . ... ... : ... .. . ... ... : ... .. . ... : ... .. . ... ... : ... .. . ... : ... .. . ... ... : ... .. . ... : ... .. . ...
ROW 70 : A-3 01 . ... ... : A#2 01 . ... ... : A-4 00 . ... : ... .. . ... ... : ... .. . ... : A-3 01 . ... ... : ... .. . ... : D-2 01 . ...
ROW 71 : ... .. . ... ... : ... .. . ... ... : ... .. . ... : ... .. . ... ... : ... .. . ... : ... .. . ... ... : ... .. . ... : ... .. . ...
ROW 72 : F-3 01 . ... ... : D-3 01 . ... ... : A#4 00 . ... : ... .. . ... ... : ... .. . ... : F-3 01 . ... ... : ... .. . ... : ... .. . ...
ROW 73 : ... .. . ... ... : ... .. . ... ... : ... .. . ... : ... .. . ... ... : ... .. . ... : ... .. . ... ... : ... .. . ... : ... .. . ...
ROW 74 : ... .. . ... ... : ... .. . ... ... : ... .. . ... : ... .. . ... ... : ... .. . ... : ... .. . ... ... : ... .. . ... : ... .. . ...
ROW 75 : A#2 01 . ... ... : A-3 01 . ... ... : A-4 00 . ... : ... .. . ... ... : C#0 00 . G01 : A#2 01 . ... ... : ... .. . ... : === .. . ...
ROW 76 : ... .. . ... ... : ... .. . ... ... : ... .. . ... : ... .. . ... ... : ... .. . ... : ... .. . ... ... : ... .. . ... : ... .. . ...
ROW 77 : ... .. . ... ... : ... .. . ... ... : ... .. . ... : ... .. . ... ... : ... .. . ... : ... .. . ... ... : ... .. . ... : ... .. . ...
ROW 78 : D-3 01 . ... ... : A#3 01 . ... ... : A#4 00 . ... : ... .. . ... ... : ... .. . ... : D-3 01 . ... ... : ... .. . ... : A-1 01 . ...
ROW 79 : ... .. . ... ... : ... .. . ... ... : ... .. . ... : ... .. . ... ... : ... .. . ... : ... .. . ... ... : ... .. . ... : ... .. . ...
ROW 7A : A-3 01 . ... ... : A-3 01 . ... ... : A-4 00 . ... : ... .. . ... ... : ... .. . ... : A-3 01 . ... ... : ... .. . ... : ... .. . ...
ROW 7B : ... .. . ... ... : ... .. . ... ... : ... .. . ... : ... .. . ... ... : C#0 00 . ... : ... .. . ... ... : ... .. . ... : ... .. . ...
ROW 7C : ... .. . ... ... : ... .. . ... ... : ... .. . ... : ... .. . ... ... : ... .. . ... : ... .. . ... ... : ... .. . ... : ... .. . ...
ROW 7D : A#3 01 . ... ... : F-3 01 . ... ... : ... .. . ... : ... .. . ... ... : C#0 00 . G01 : A#3 01 . ... ... : ... .. . ... : === .. . ...
ROW 7E : ... .. . ... ... : ... .. . ... ... : ... .. . ... : ... .. . ... ... : ... .. . ... : ... .. . ... ... : ... .. . ... : ... .. . ...
ROW 7F : ... .. . ... ... : ... .. . ... ... : ... .. . ... : ... .. . ... ... : ... .. . ... : ... .. . ... ... : ... .. . ... : ... .. . ...
PATTERN 05
ROW 00 : ... .. . ... P7F : D-2 01 8 V02 ... : C-6 00 . 400 : 0-# 02 . ... F96 : C-0 00 . ... : A-3 01 4 V07 P7F : D-0 01 F V07 : D-1 05 F ...
ROW 01 : ... .. . ... ... : ... .. . ... ... : D-6 00 . ... : ... .. . ... ... : ... .. . ... : ... .. . ... ... : ... .. . ... : ... .. . ...
ROW 02 : ... .. . ... ... : F-2 01 . ... ... : ... .. . ... : ... .. . ... ... : --- .. . ... : F-3 01 . ... ... : ... .. . ... : ... .. . ...
ROW 03 : ... .. . ... ... : ... .. . ... ... : ... .. . ... : ... .. . ... ... : ... .. . ... : ... .. . ... ... : ... .. . ... : ... .. . ...
ROW 04 : ... .. . ... ... : D-3 01 . ... ... : ... .. . 482 : 0-# 04 . ... ... : ... .. . ... : ... .. . ... ... : ... .. . ... : ... .. . ...
ROW 05 : C-3 00 2 400 V02 : ... .. . ... ... : ... .. . ... : ... .. . ... ... : ... .. . ... : D-2 01 . ... ... : === .. . ... : === .. . ...
ROW 06 : D-3 00 . ... ... : A-3 01 . ... ... : ... .. . ... : ... .. . ... ... : ... .. . ... : ... .. . ... ... : ... .. . ... : ... .. . ...
ROW 07 : ... .. . ... ... : ... .. . ... ... : ... .. . ... : ... .. . ... ... : ... .. . ... : ... .. . ... ... : ... .. . ... : ... .. . ...
ROW 08 : ... .. . ... ... : C-4 01 . ... ... : ... .. . ... : 0-# 03 . ... F96 : C#0 00 . ... : F-2 01 . ... ... : D-0 01 . ... : ... .. . ...
ROW 09 : ... .. . ... ... : ... .. . ... ... : ... .. . ... : ... .. . ... ... : ... .. . ... : ... .. . ... ... : ... .. . ... : ... .. . ...
ROW 0A : ... .. . ... ... : D-4 01 . ... ... : ... .. . ... : ... .. . ... ... : --- .. . ... : D-3 01 . ... ... : ... .. . ... : ... .. . ...
ROW 0B : ... .. . ... ... : ... .. . ... ... : ... .. . ... : ... .. . ... ... : ... .. . ... : ... .. . ... ... : ... .. . ... : ... .. . ...
ROW 0C : ... .. . ... ... : D-2 01 . ... ... : G#5 00 . 400 : 0-# 04 . ... ... : ... .. . ... : ... .. . ... ... : ... .. . ... : ... .. . ...
ROW 0D : ... .. . 483 ... : ... .. . ... ... : ... .. . ... : ... .. . ... ... : ... .. . ... : A-3 01 . ... ... : === .. . ... : ... .. . ...
ROW 0E : ... .. . ... ... : F-2 01 . ... ... : ... .. . ... : ... .. . ... ... : ... .. . ... : ... .. . ... ... : ... .. . ... : ... .. . ...
ROW 0F : ... .. . ... ... : ... .. . ... ... : ... .. . ... : ... .. . ... ... : ... .. . ... : ... .. . ... ... : ... .. . ... : ... .. . ...
ROW 10 : ... .. . ... ... : D-3 01 . ... ... : ... .. . ... : 0-# 02 . ... F96 : C-0 00 . ... : C-4 01 . ... ... : F-0 01 . ... : ... .. . ...
ROW 11 : ... .. . ... ... : ... .. . ... ... : ... .. . ... : ... .. . ... ... : ... .. . ... : ... .. . ... ... : ... .. . ... : ... .. . ...
ROW 12 : ... .. . ... ... : A-3 01 . ... ... : ... .. . ... : ... .. . ... ... : --- .. . ... : D-4 01 . ... ... : ... .. . ... : ... .. . ...
ROW 13 : ... .. . ... ... : ... .. . ... ... : ... .. . ... : ... .. . ... ... : ... .. . ... : ... .. . ... ... : ... .. . ... : ... .. . ...
ROW 14 : ... .. . ... ... : C-4 01 . ... ... : A-5 00 . ... : 0-# 04 . ... ... : ... .. . ... : ... .. . ... ... : ... .. . ... : ... .. . ...
ROW 15 : ... .. . ... ... : ... .. . ... ... : ... .. . ... : ... .. . ... ... : ... .. . ... : D-2 01 . ... ... : ... .. . ... : ... .. . ...
ROW 16 : ... .. . ... ... : D-4 01 . ... ... : ... .. . ... : ... .. . ... ... : ... .. . ... : ... .. . ... ... : ... .. . ... : ... .. . ...
ROW 17 : ... .. . ... ... : ... .. . ... ... : ... .. . ... : ... .. . ... ... : ... .. . ... : ... .. . ... ... : ... .. . ... : ... .. . ...
ROW 18 : ... .. . ... ... : D-2 01 . ... ... : ... .. . 482 : 0-# 03 . ... F96 : C#0 00 . ... : F-2 01 . ... ... : G-0 01 . ... : ... .. . ...
ROW 19 : ... .. . ... ... : ... .. . ... ... : ... .. . ... : ... .. . ... ... : ... .. . ... : ... .. . ... ... : ... .. . ... : ... .. . ...
ROW 1A : ... .. . ... ... : F-2 01 . ... ... : ... .. . ... : ... .. . ... ... : --- .. . ... : D-3 01 . ... ... : ... .. . ... : ... .. . ...
ROW 1B : ... .. . ... ... : ... .. . ... ... : ... .. . ... : ... .. . ... ... : ... .. . ... : ... .. . ... ... : ... .. . ... : ... .. . ...
ROW 1C : ... .. . ... ... : D-3 01 . ... ... : F-6 00 . 400 : 0-# 04 . ... ... : ... .. . ... : ... .. . ... ... : ... .. . ... : ... .. . ...
ROW 1D : ... .. . ... ... : ... .. . ... ... : ... .. . ... : ... .. . ... ... : ... .. . ... : A-3 01 . ... ... : ... .. . ... : ... .. . ...
ROW 1E : ... .. . ... ... : A-3 01 . ... ... : ... .. . ... : 0-# 03 . ... ... : C#0 00 . ... : ... .. . ... ... : ... .. . ... : ... .. . ...
ROW 1F : ... .. . ... ... : ... .. . ... ... : ... .. . ... : ... .. . ... ... : ... .. . ... : ... .. . ... ... : ... .. . ... : ... .. . ...
ROW 20 : ... .. . ... ... : C-4 01 . ... ... : D-6 00 . ... : 0-# 02 . ... F96 : C-0 00 . ... : C-4 01 . ... ... : A-0 01 . ... : ... .. . ...
ROW 21 : ... .. . ... ... : ... .. . ... ... : ... .. . ... : ... .. . ... ... : ... .. . ... : ... .. . ... ... : ... .. . ... : ... .. . ...
ROW 22 : ... .. . ... ... : D-4 01 . ... ... : ... .. . ... : ... .. . ... ... : --- .. . ... : D-4 01 . ... ... : ... .. . ... : ... .. . ...
ROW 23 : ... .. . ... ... : ... .. . ... ... : ... .. . ... : ... .. . ... ... : ... .. . ... : ... .. . ... ... : ... .. . ... : ... .. . ...
ROW 24 : ... .. . ... ... : D-2 01 . ... ... : ... .. . 482 : 0-# 04 . ... ... : ... .. . ... : ... .. . ... ... : ... .. . ... : ... .. . ...
ROW 25 : ... .. . ... ... : ... .. . ... ... : ... .. . ... : ... .. . ... ... : ... .. . ... : D-2 01 . ... ... : ... .. . ... : ... .. . ...
ROW 26 : ... .. . ... ... : F-2 01 . ... ... : ... .. . ... : ... .. . ... ... : ... .. . ... : ... .. . ... ... : ... .. . ... : ... .. . ...
ROW 27 : ... .. . ... ... : ... .. . ... ... : ... .. . ... : ... .. . ... ... : ... .. . ... : ... .. . ... ... : ... .. . ... : ... .. . ...
ROW 28 : ... .. . ... ... : D-3 01 . ... ... : ... .. . ... : 0-# 03 . ... F96 : C#0 00 . ... : F-2 01 . ... ... : G-0 01 . ... : ... .. . ...
ROW 29 : ... .. . ... ... : ... .. . ... ... : ... .. . ... : ... .. . ... ... : ... .. . ... : ... .. . ... ... : ... .. . ... : ... .. . ...
ROW 2A : ... .. . ... ... : A-3 01 . ... ... : ... .. . ... : ... .. . ... ... : --- .. . ... : D-3 01 . ... ... : ... .. . ... : ... .. . ...
ROW 2B : ... .. . ... ... : ... .. . ... ... : ... .. . ... : ... .. . ... ... : ... .. . ... : ... .. . ... ... : ... .. . ... : ... .. . ...
ROW 2C : ... .. . ... ... : C-4 01 . ... ... : G#5 00 . 400 : 0-# 04 . ... ... : ... .. . ... : ... .. . ... ... : ... .. . ... : ... .. . ...
ROW 2D : ... .. . ... ... : ... .. . ... ... : ... .. . ... : ... .. . ... ... : ... .. . ... : A-3 01 . ... ... : === .. . ... : ... .. . ...
ROW 2E : ... .. . ... ... : D-4 01 . ... ... : ... .. . ... : ... .. . ... ... : ... .. . ... : ... .. . ... ... : ... .. . ... : ... .. . ...
ROW 2F : ... .. . ... ... : ... .. . ... ... : ... .. . ... : ... .. . ... ... : ... .. . ... : ... .. . ... ... : ... .. . ... : ... .. . ...
ROW 30 : ... .. . ... ... : D-2 01 . ... ... : ... .. . ... : 0-# 02 . ... F96 : C-0 00 . ... : C-4 01 . ... ... : F-0 01 . ... : ... .. . ...
ROW 31 : ... .. . ... ... : ... .. . ... ... : ... .. . ... : ... .. . ... ... : ... .. . ... : ... .. . ... ... : ... .. . ... : ... .. . ...
ROW 32 : ... .. . ... ... : F-2 01 . ... ... : ... .. . ... : ... .. . ... ... : --- .. . ... : D-4 01 . ... ... : ... .. . ... : ... .. . ...
ROW 33 : ... .. . ... ... : ... .. . ... ... : ... .. . ... : ... .. . ... ... : ... .. . ... : ... .. . ... ... : ... .. . ... : ... .. . ...
ROW 34 : ... .. . ... ... : D-3 01 . ... ... : A-5 00 . ... : 0-# 04 . ... ... : ... .. . ... : ... .. . ... ... : ... .. . ... : ... .. . ...
ROW 35 : ... .. . ... ... : ... .. . ... ... : ... .. . ... : ... .. . ... ... : ... .. . ... : D-2 01 . ... ... : === .. . ... : ... .. . ...
ROW 36 : ... .. . ... ... : A-3 01 . ... ... : ... .. . ... : ... .. . ... ... : ... .. . ... : ... .. . ... ... : ... .. . ... : ... .. . ...
ROW 37 : ... .. . ... ... : ... .. . ... ... : ... .. . ... : ... .. . ... ... : ... .. . ... : ... .. . ... ... : ... .. . ... : ... .. . ...
ROW 38 : ... .. . ... ... : C-4 01 . ... ... : ... .. . 482 : 0-# 03 . ... F96 : C#0 00 . ... : F-2 01 . ... ... : E-0 01 . ... : ... .. . ...
ROW 39 : ... .. . ... ... : ... .. . ... ... : ... .. . ... : ... .. . ... ... : ... .. . ... : ... .. . ... ... : ... .. . ... : ... .. . ...
ROW 3A : ... .. . ... ... : D-4 01 . ... ... : ... .. . ... : ... .. . ... ... : --- .. . ... : D-3 01 . ... ... : ... .. . ... : ... .. . ...
ROW 3B : ... .. . ... ... : ... .. . ... ... : ... .. . ... : ... .. . ... ... : ... .. . ... : ... .. . ... ... : ... .. . ... : ... .. . ...
ROW 3C : ... .. . ... ... : D-2 01 . ... ... : --- .. . ... : 0-# 04 . ... ... : ... .. . ... : ... .. . ... ... : ... .. . ... : ... .. . ...
ROW 3D : ... .. . ... ... : ... .. . ... ... : ... .. . ... : ... .. . ... ... : ... .. . ... : A-3 01 . ... ... : === .. . ... : ... .. . ...
ROW 3E : ... .. . ... ... : F-2 01 . ... ... : ... .. . ... : ... .. . ... ... : ... .. . ... : ... .. . ... ... : ... .. . ... : ... .. . ...
ROW 3F : ... .. . ... ... : ... .. . ... ... : ... .. . ... : ... .. . ... ... : ... .. . ... : ... .. . ... ... : ... .. . ... : ... .. . ...
ROW 40 : ... .. . ... ... : D-3 01 . ... ... : ... .. . ... : 0-# 02 . ... F96 : C-0 00 . ... : C-4 01 . ... ... : D-1 01 . ... : ... .. . ...
ROW 41 : ... .. . ... ... : ... .. . ... ... : ... .. . ... : ... .. . ... ... : ... .. . ... : ... .. . ... ... : ... .. . ... : ... .. . ...
ROW 42 : ... .. . ... ... : A-3 01 . ... ... : ... .. . ... : ... .. . ... ... : --- .. . ... : D-4 01 . ... ... : ... .. . ... : ... .. . ...
ROW 43 : ... .. . ... ... : ... .. . ... ... : ... .. . ... : ... .. . ... ... : ... .. . ... : ... .. . ... ... : ... .. . ... : ... .. . ...
ROW 44 : ... .. . ... ... : C-4 01 . ... ... : C-6 00 . 400 : 0-# 04 . ... ... : ... .. . ... : ... .. . ... ... : ... .. . ... : ... .. . ...
ROW 45 : ... .. . ... ... : ... .. . ... ... : D-6 00 . ... : ... .. . ... ... : ... .. . ... : D-2 01 . ... ... : === .. . ... : ... .. . ...
ROW 46 : ... .. . ... ... : D-4 01 . ... ... : ... .. . ... : ... .. . ... ... : ... .. . ... : ... .. . ... ... : ... .. . ... : ... .. . ...
ROW 47 : ... .. . ... ... : ... .. . ... ... : ... .. . ... : ... .. . ... ... : ... .. . ... : ... .. . ... ... : ... .. . ... : ... .. . ...
ROW 48 : ... .. . ... ... : D-2 01 . ... ... : ... .. . 482 : 0-# 03 . ... F96 : C#0 00 . ... : F-2 01 . ... ... : G#0 01 . ... : ... .. . ...
ROW 49 : ... .. . ... ... : ... .. . ... ... : ... .. . ... : ... .. . ... ... : ... .. . ... : ... .. . ... ... : ... .. . ... : ... .. . ...
ROW 4A : ... .. . ... ... : F-2 01 . ... ... : ... .. . ... : ... .. . ... ... : --- .. . ... : D-3 01 . ... ... : ... .. . ... : ... .. . ...
ROW 4B : ... .. . ... ... : ... .. . ... ... : ... .. . ... : ... .. . ... ... : ... .. . ... : ... .. . ... ... : ... .. . ... : ... .. . ...
ROW 4C : ... .. . ... ... : D-3 01 . ... ... : G#5 00 . 400 : 0-# 04 . ... ... : ... .. . ... : ... .. . ... ... : ... .. . ... : ... .. . ...
ROW 4D : ... .. . ... ... : ... .. . ... ... : ... .. . ... : ... .. . ... ... : ... .. . ... : A-3 01 . ... ... : === .. . ... : ... .. . ...
ROW 4E : ... .. . ... ... : A-3 01 . ... ... : ... .. . ... : ... .. . ... ... : ... .. . ... : ... .. . ... ... : ... .. . ... : ... .. . ...
ROW 4F : ... .. . ... ... : ... .. . ... ... : ... .. . ... : ... .. . ... ... : ... .. . ... : ... .. . ... ... : ... .. . ... : ... .. . ...
ROW 50 : ... .. . ... ... : C-4 01 . ... ... : ... .. . ... : 0-# 02 . ... F96 : C-0 00 . ... : C-4 01 . ... ... : A-0 01 . ... : ... .. . ...
ROW 51 : ... .. . ... ... : ... .. . ... ... : ... .. . ... : ... .. . ... ... : ... .. . ... : ... .. . ... ... : ... .. . ... : ... .. . ...
ROW 52 : ... .. . ... ... : D-4 01 . ... ... : ... .. . ... : ... .. . ... ... : --- .. . ... : D-4 01 . ... ... : ... .. . ... : ... .. . ...
ROW 53 : ... .. . ... ... : ... .. . ... ... : ... .. . ... : ... .. . ... ... : ... .. . ... : ... .. . ... ... : ... .. . ... : ... .. . ...
ROW 54 : ... .. . ... ... : D-2 01 . ... ... : A-5 00 . ... : 0-# 04 . ... ... : ... .. . ... : ... .. . ... ... : ... .. . ... : ... .. . ...
ROW 55 : ... .. . ... ... : ... .. . ... ... : ... .. . ... : ... .. . ... ... : ... .. . ... : D-2 01 . ... ... : ... .. . ... : ... .. . ...
ROW 56 : ... .. . ... ... : F-2 01 . ... ... : ... .. . ... : ... .. . ... ... : ... .. . ... : ... .. . ... ... : ... .. . ... : ... .. . ...
ROW 57 : ... .. . ... ... : ... .. . ... ... : ... .. . ... : ... .. . ... ... : ... .. . ... : ... .. . ... ... : ... .. . ... : ... .. . ...
ROW 58 : ... .. . ... ... : D-3 01 . ... ... : ... .. . 482 : 0-# 03 . ... F96 : C#0 00 . ... : F-2 01 . ... ... : F-1 01 . ... : ... .. . ...
ROW 59 : ... .. . ... ... : ... .. . ... ... : ... .. . ... : ... .. . ... ... : ... .. . ... : ... .. . ... ... : ... .. . ... : ... .. . ...
ROW 5A : ... .. . ... ... : A-3 01 . ... ... : ... .. . ... : ... .. . ... ... : C#0 00 . ... : D-3 01 . ... ... : ... .. . ... : ... .. . ...
ROW 5B : ... .. . ... ... : ... .. . ... ... : ... .. . ... : ... .. . ... ... : ... .. . ... : ... .. . ... ... : ... .. . ... : ... .. . ...
ROW 5C : ... .. . ... ... : C-4 01 . ... ... : F-6 00 . 400 : 0-# 03 . ... ... : C#0 00 . ... : ... .. . ... ... : ... .. . ... : ... .. . ...
ROW 5D : ... .. . ... ... : ... .. . ... ... : ... .. . ... : ... .. . ... ... : ... .. . ... : A-3 01 . ... ... : ... .. . ... : ... .. . ...
ROW 5E : ... .. . ... ... : D-4 01 . ... ... : ... .. . ... : 0-# 03 . ... ... : C#0 00 . ... : ... .. . ... ... : ... .. . ... : ... .. . ...
ROW 5F : ... .. . ... ... : ... .. . ... ... : ... .. . ... : ... .. . ... ... : ... .. . D00 : ... .. . ... ... : ... .. . ... : ... .. . ...
ROW 60 : ... .. . ... ... : ... .. . ... ... : ... .. . ... : ... .. . ... ... : ... .. . ... : C-4 01 . ... ... : ... .. . ... : ... .. . ...
ROW 61 : ... .. . ... ... : ... .. . ... ... : ... .. . ... : ... .. . ... ... : ... .. . ... : ... .. . ... ... : ... .. . ... : ... .. . ...
ROW 62 : ... .. . ... ... : ... .. . ... ... : ... .. . ... : ... .. . ... ... : ... .. . ... : D-4 01 . ... ... : ... .. . ... : ... .. . ...
ROW 63 : ... .. . ... ... : ... .. . ... ... : ... .. . ... : ... .. . ... ... : ... .. . ... : ... .. . ... ... : ... .. . ... : ... .. . ...
ROW 64 : ... .. . ... ... : ... .. . ... ... : ... .. . ... : ... .. . ... ... : ... .. . ... : ... .. . ... ... : ... .. . ... : ... .. . ...
ROW 65 : ... .. . ... ... : ... .. . ... ... : G#5 00 . 400 : ... .. . ... ... : ... .. . ... : D-2 01 . ... ... : ... .. . ... : ... .. . ...
ROW 66 : ... .. . ... ... : ... .. . ... ... : ... .. . ... : ... .. . ... ... : ... .. . ... : ... .. . ... ... : ... .. . ... : ... .. . ...
ROW 67 : ... .. . ... ... : ... .. . ... ... : ... .. . ... : ... .. . ... ... : ... .. . ... : ... .. . ... ... : ... .. . ... : ... .. . ...
ROW 68 : ... .. . ... ... : ... .. . ... ... : ... .. . ... : ... .. . ... ... : ... .. . ... : F-2 01 . ... ... : ... .. . ... : ... .. . ...
ROW 69 : ... .. . ... ... : ... .. . ... ... : ... .. . ... : ... .. . ... ... : ... .. . ... : ... .. . ... ... : ... .. . ... : ... .. . ...
ROW 6A : ... .. . ... ... : ... .. . ... ... : ... .. . ... : ... .. . ... ... : ... .. . ... : D-3 01 . ... ... : ... .. . ... : ... .. . ...
ROW 6B : ... .. . ... ... : ... .. . ... ... : ... .. . ... : ... .. . ... ... : ... .. . ... : ... .. . ... ... : ... .. . ... : ... .. . ...
ROW 6C : ... .. . ... ... : ... .. . ... ... : ... .. . ... : ... .. . ... ... : ... .. . ... : ... .. . ... ... : ... .. . ... : ... .. . ...
ROW 6D : ... .. . ... ... : ... .. . ... ... : ... .. . ... : ... .. . ... ... : ... .. . ... : A-3 01 . ... ... : ... .. . ... : ... .. . ...
ROW 6E : ... .. . ... ... : ... .. . ... ... : ... .. . ... : ... .. . ... ... : ... .. . ... : ... .. . ... ... : ... .. . ... : ... .. . ...
ROW 6F : ... .. . ... ... : ... .. . ... ... : ... .. . ... : ... .. . ... ... : ... .. . ... : ... .. . ... ... : ... .. . ... : ... .. . ...
ROW 70 : ... .. . ... ... : ... .. . ... ... : A-5 00 . ... : ... .. . ... ... : ... .. . ... : C-4 01 . ... ... : ... .. . ... : ... .. . ...
ROW 71 : ... .. . ... ... : ... .. . ... ... : ... .. . ... : ... .. . ... ... : ... .. . ... : ... .. . ... ... : ... .. . ... : ... .. . ...
ROW 72 : ... .. . ... ... : ... .. . ... ... : ... .. . ... : ... .. . ... ... : ... .. . ... : D-4 01 . ... ... : ... .. . ... : ... .. . ...
ROW 73 : ... .. . ... ... : ... .. . ... ... : ... .. . ... : ... .. . ... ... : ... .. . ... : ... .. . ... ... : ... .. . ... : ... .. . ...
ROW 74 : ... .. . ... ... : ... .. . ... ... : ... .. . ... : ... .. . ... ... : ... .. . ... : ... .. . ... ... : ... .. . ... : ... .. . ...
ROW 75 : ... .. . ... ... : ... .. . ... ... : ... .. . ... : ... .. . ... ... : ... .. . ... : D-2 01 . ... ... : ... .. . ... : ... .. . ...
ROW 76 : ... .. . ... ... : ... .. . ... ... : ... .. . ... : ... .. . ... ... : ... .. . ... : ... .. . ... ... : ... .. . ... : ... .. . ...
ROW 77 : ... .. . ... ... : ... .. . ... ... : ... .. . ... : ... .. . ... ... : ... .. . ... : ... .. . ... ... : ... .. . ... : ... .. . ...
ROW 78 : ... .. . ... ... : ... .. . ... ... : ... .. . ... : ... .. . ... ... : ... .. . ... : F-2 01 . ... ... : ... .. . ... : ... .. . ...
ROW 79 : ... .. . ... ... : ... .. . ... ... : ... .. . ... : ... .. . ... ... : ... .. . ... : ... .. . ... ... : ... .. . ... : ... .. . ...
ROW 7A : ... .. . ... ... : ... .. . ... ... : F-6 00 . ... : ... .. . ... ... : ... .. . ... : D-3 01 . ... ... : ... .. . ... : ... .. . ...
ROW 7B : ... .. . ... ... : ... .. . ... ... : ... .. . ... : ... .. . ... ... : ... .. . ... : ... .. . ... ... : ... .. . ... : ... .. . ...
ROW 7C : ... .. . ... ... : ... .. . ... ... : ... .. . ... : ... .. . ... ... : ... .. . ... : ... .. . ... ... : ... .. . ... : ... .. . ...
ROW 7D : ... .. . ... ... : ... .. . ... ... : ... .. . ... : ... .. . ... ... : ... .. . ... : A-3 01 . ... ... : ... .. . ... : ... .. . ...
ROW 7E : ... .. . ... ... : ... .. . ... ... : ... .. . ... : ... .. . ... ... : ... .. . ... : ... .. . ... ... : ... .. . ... : ... .. . ...
ROW 7F : ... .. . ... ... : ... .. . ... ... : ... .. . ... : ... .. . ... ... : ... .. . ... : ... .. . ... ... : ... .. . ... : ... .. . ...
PATTERN 06
ROW 00 : ... .. . ... P7F : A#2 01 . ... ... : A-5 00 . ... : 0-# 02 . ... F96 : C-0 00 . ... : C-4 01 . ... ... : A#0 08 F ... : A#0 05 F ...
ROW 01 : ... .. . ... ... : ... .. . ... ... : A#5 00 . ... : ... .. . ... ... : ... .. . ... : ... .. . ... ... : ... .. . ... : ... .. . ...
ROW 02 : ... .. . ... ... : D-3 01 . ... ... : ... .. . ... : ... .. . ... ... : --- .. . ... : D-4 01 . ... ... : ... .. . ... : ... .. . ...
ROW 03 : ... .. . ... ... : ... .. . ... ... : ... .. . ... : ... .. . ... ... : ... .. . ... : ... .. . ... ... : ... .. . ... : ... .. . ...
ROW 04 : ... .. . ... ... : A-3 01 . ... ... : ... .. . 482 : 0-# 04 . ... ... : ... .. . ... : A#2 01 . ... ... : ... .. . ... : === .. . ...
ROW 05 : A-2 00 2 400 ... : ... .. . ... ... : ... .. . ... : ... .. . ... ... : ... .. . ... : ... .. . ... ... : === .. . ... : ... .. . ...
ROW 06 : A#2 00 . ... ... : A#3 01 . ... ... : ... .. . ... : ... .. . ... ... : ... .. . ... : D-3 01 . ... ... : ... .. . ... : ... .. . ...
ROW 07 : ... .. . ... ... : ... .. . ... ... : ... .. . ... : ... .. . ... ... : ... .. . ... : ... .. . ... ... : ... .. . ... : ... .. . ...
ROW 08 : ... .. . ... ... : A-3 01 . ... ... : ... .. . ... : 0-# 03 . ... F96 : ... .. . ... : A-3 01 . ... ... : D-0 05 . ... : ... .. . ...
ROW 09 : ... .. . ... ... : ... .. . ... ... : ... .. . ... : ... .. . ... ... : ... .. . ... : ... .. . ... ... : ... .. . ... : ... .. . ...
ROW 0A : ... .. . ... ... : F-3 01 . ... ... : ... .. . ... : ... .. . ... ... : ... .. . ... : A#3 01 . ... ... : ... .. . ... : ... .. . ...
ROW 0B : ... .. . ... ... : ... .. . ... ... : ... .. . ... : ... .. . ... ... : ... .. . ... : ... .. . ... ... : ... .. . ... : ... .. . ...
ROW 0C : ... .. . ... ... : A#2 01 . ... ... : C-6 00 . 400 : 0-# 04 . ... ... : ... .. . ... : A-3 01 . ... ... : ... .. . ... : ... .. . ...
ROW 0D : ... .. . 483 ... : ... .. . ... ... : ... .. . ... : ... .. . ... ... : ... .. . ... : ... .. . ... ... : === .. . ... : ... .. . ...
ROW 0E : ... .. . ... ... : D-3 01 . ... ... : ... .. . ... : ... .. . ... ... : ... .. . ... : F-3 01 . ... ... : ... .. . ... : ... .. . ...
ROW 0F : ... .. . ... ... : ... .. . ... ... : ... .. . ... : ... .. . ... ... : ... .. . ... : ... .. . ... ... : ... .. . ... : ... .. . ...
ROW 10 : ... .. . ... ... : A-3 01 . ... ... : ... .. . ... : 0-# 02 . ... F96 : ... .. . ... : A#2 01 . ... ... : F-0 05 . ... : ... .. . ...
ROW 11 : ... .. . ... ... : ... .. . ... ... : ... .. . ... : ... .. . ... ... : ... .. . ... : ... .. . ... ... : ... .. . ... : ... .. . ...
ROW 12 : ... .. . ... ... : A#3 01 . ... ... : ... .. . ... : ... .. . ... ... : ... .. . ... : D-3 01 . ... ... : ... .. . ... : ... .. . ...
ROW 13 : ... .. . ... ... : ... .. . ... ... : ... .. . ... : ... .. . ... ... : ... .. . ... : ... .. . ... ... : ... .. . ... : ... .. . ...
ROW 14 : ... .. . ... ... : A-3 01 . ... ... : A#5 00 . ... : 0-# 04 . ... ... : ... .. . ... : A-3 01 . ... ... : ... .. . ... : ... .. . ...
ROW 15 : ... .. . ... ... : ... .. . ... ... : ... .. . ... : ... .. . ... ... : ... .. . ... : ... .. . ... ... : ... .. . ... : ... .. . ...
ROW 16 : ... .. . ... ... : F-3 01 . ... ... : ... .. . ... : ... .. . ... ... : ... .. . ... : A#3 01 . ... ... : ... .. . ... : ... .. . ...
ROW 17 : ... .. . ... ... : ... .. . ... ... : ... .. . ... : ... .. . ... ... : ... .. . ... : ... .. . ... ... : ... .. . ... : ... .. . ...
ROW 18 : ... .. . ... ... : A#2 01 . ... ... : ... .. . 482 : 0-# 03 . ... F96 : ... .. . ... : A-3 01 . ... ... : A-0 05 . ... : ... .. . ...
ROW 19 : ... .. . ... ... : ... .. . ... ... : ... .. . ... : ... .. . ... ... : ... .. . ... : ... .. . ... ... : ... .. . ... : ... .. . ...
ROW 1A : ... .. . ... ... : D-3 01 . ... ... : ... .. . ... : ... .. . ... ... : ... .. . ... : F-3 01 . ... ... : ... .. . ... : ... .. . ...
ROW 1B : ... .. . ... ... : ... .. . ... ... : ... .. . ... : ... .. . ... ... : ... .. . ... : ... .. . ... ... : ... .. . ... : ... .. . ...
ROW 1C : ... .. . ... ... : A-3 01 . ... ... : C-6 00 . 400 : 0-# 04 . ... ... : ... .. . ... : A#2 01 . ... ... : ... .. . ... : ... .. . ...
ROW 1D : ... .. . ... ... : ... .. . ... ... : ... .. . ... : ... .. . ... ... : ... .. . ... : ... .. . ... ... : ... .. . ... : ... .. . ...
ROW 1E : ... .. . ... ... : A#3 01 . ... ... : ... .. . ... : 0-# 03 . ... ... : ... .. . ... : D-3 01 . ... ... : ... .. . ... : ... .. . ...
ROW 1F : ... .. . ... ... : ... .. . ... ... : ... .. . ... : ... .. . ... ... : ... .. . ... : ... .. . ... ... : ... .. . ... : ... .. . ...
ROW 20 : ... .. . ... ... : A-3 01 . ... ... : D-6 00 . ... : 0-# 02 . ... F96 : ... .. . ... : A-3 01 . ... ... : A#0 05 . ... : ... .. . ...
ROW 21 : ... .. . ... ... : ... .. . ... ... : ... .. . ... : ... .. . ... ... : ... .. . ... : ... .. . ... ... : ... .. . ... : ... .. . ...
ROW 22 : ... .. . ... ... : F-3 01 . ... ... : ... .. . ... : ... .. . ... ... : ... .. . ... : A#3 01 . ... ... : ... .. . ... : ... .. . ...
ROW 23 : ... .. . ... ... : ... .. . ... ... : ... .. . ... : ... .. . ... ... : ... .. . ... : ... .. . ... ... : ... .. . ... : ... .. . ...
ROW 24 : ... .. . ... ... : A#2 01 . ... ... : ... .. . 482 : 0-# 04 . ... ... : ... .. . ... : A-3 01 . ... ... : ... .. . ... : ... .. . ...
ROW 25 : ... .. . ... ... : ... .. . ... ... : ... .. . ... : ... .. . ... ... : ... .. . ... : ... .. . ... ... : ... .. . ... : ... .. . ...
ROW 26 : ... .. . ... ... : D-3 01 . ... ... : ... .. . ... : ... .. . ... ... : ... .. . ... : F-3 01 . ... ... : ... .. . ... : ... .. . ...
ROW 27 : ... .. . ... ... : ... .. . ... ... : ... .. . ... : ... .. . ... ... : ... .. . ... : ... .. . ... ... : ... .. . ... : ... .. . ...
ROW 28 : ... .. . ... ... : A-3 01 . ... ... : ... .. . ... : 0-# 03 . ... F96 : ... .. . ... : A#2 01 . ... ... : A-0 05 . ... : ... .. . ...
ROW 29 : ... .. . ... ... : ... .. . ... ... : ... .. . ... : ... .. . ... ... : ... .. . ... : ... .. . ... ... : ... .. . ... : ... .. . ...
ROW 2A : ... .. . ... ... : A#3 01 . ... ... : ... .. . ... : ... .. . ... ... : ... .. . ... : D-3 01 . ... ... : ... .. . ... : ... .. . ...
ROW 2B : ... .. . ... ... : ... .. . ... ... : ... .. . ... : ... .. . ... ... : ... .. . ... : ... .. . ... ... : ... .. . ... : ... .. . ...
ROW 2C : ... .. . ... ... : A-3 01 . ... ... : C-6 00 . 400 : 0-# 04 . ... ... : ... .. . ... : A-3 01 . ... ... : ... .. . ... : ... .. . ...
ROW 2D : ... .. . ... ... : ... .. . ... ... : ... .. . ... : ... .. . ... ... : ... .. . ... : ... .. . ... ... : === .. . ... : ... .. . ...
ROW 2E : ... .. . ... ... : F-3 01 . ... ... : ... .. . ... : ... .. . ... ... : ... .. . ... : A#3 01 . ... ... : ... .. . ... : ... .. . ...
ROW 2F : ... .. . ... ... : ... .. . ... ... : ... .. . ... : ... .. . ... ... : ... .. . ... : ... .. . ... ... : ... .. . ... : ... .. . ...
ROW 30 : ... .. . ... ... : A#2 01 . ... ... : ... .. . ... : 0-# 02 . ... F96 : ... .. . ... : A-3 01 . ... ... : F-0 05 . ... : ... .. . ...
ROW 31 : ... .. . ... ... : ... .. . ... ... : ... .. . ... : ... .. . ... ... : ... .. . ... : ... .. . ... ... : ... .. . ... : ... .. . ...
ROW 32 : ... .. . ... ... : D-3 01 . ... ... : ... .. . ... : ... .. . ... ... : ... .. . ... : F-3 01 . ... ... : ... .. . ... : ... .. . ...
ROW 33 : ... .. . ... ... : ... .. . ... ... : ... .. . ... : ... .. . ... ... : ... .. . ... : ... .. . ... ... : ... .. . ... : ... .. . ...
ROW 34 : ... .. . ... ... : A-3 01 . ... ... : A#5 00 . ... : 0-# 04 . ... ... : ... .. . ... : A#2 01 . ... ... : ... .. . ... : ... .. . ...
ROW 35 : ... .. . ... ... : ... .. . ... ... : ... .. . ... : ... .. . ... ... : ... .. . ... : ... .. . ... ... : === .. . ... : ... .. . ...
ROW 36 : ... .. . ... ... : A#3 01 . ... ... : ... .. . ... : ... .. . ... ... : ... .. . ... : D-3 01 . ... ... : ... .. . ... : ... .. . ...
ROW 37 : ... .. . ... ... : ... .. . ... ... : ... .. . ... : ... .. . ... ... : ... .. . ... : ... .. . ... ... : ... .. . ... : ... .. . ...
ROW 38 : ... .. . ... ... : A-3 01 . ... ... : ... .. . 482 : 0-# 03 . ... F96 : ... .. . ... : A-3 01 . ... ... : D-0 05 . ... : ... .. . ...
ROW 39 : ... .. . ... ... : ... .. . ... ... : ... .. . ... : ... .. . ... ... : ... .. . ... : ... .. . ... ... : ... .. . ... : ... .. . ...
ROW 3A : ... .. . ... ... : F-3 01 . ... ... : ... .. . ... : ... .. . ... ... : ... .. . ... : A#3 01 . ... ... : ... .. . ... : ... .. . ...
ROW 3B : ... .. . ... ... : ... .. . ... ... : ... .. . ... : ... .. . ... ... : ... .. . ... : ... .. . ... ... : ... .. . ... : ... .. . ...
ROW 3C : ... .. . ... ... : A#2 01 . ... ... : --- .. . ... : 0-# 04 . ... ... : ... .. . ... : A-3 01 . ... ... : ... .. . ... : ... .. . ...
ROW 3D : ... .. . ... ... : ... .. . ... ... : ... .. . ... : ... .. . ... ... : ... .. . ... : ... .. . ... ... : === .. . ... : ... .. . ...
ROW 3E : ... .. . ... ... : D-3 01 . ... ... : ... .. . ... : ... .. . ... ... : ... .. . ... : F-3 01 . ... ... : ... .. . ... : ... .. . ...
ROW 3F : ... .. . ... ... : ... .. . ... ... : ... .. . ... : ... .. . ... ... : ... .. . ... : ... .. . ... ... : ... .. . ... : ... .. . ...
ROW 40 : ... .. . ... ... : A-3 01 . ... ... : E-6 00 . 400 : 0-# 02 . ... F96 : ... .. . ... : A#2 01 . ... ... : A#0 08 . ... : ... .. . ...
ROW 41 : ... .. . ... ... : ... .. . ... ... : F-6 00 . ... : ... .. . ... ... : ... .. . ... : ... .. . ... ... : ... .. . ... : ... .. . ...
ROW 42 : ... .. . ... ... : A#3 01 . ... ... : ... .. . ... : ... .. . ... ... : ... .. . ... : D-3 01 . ... ... : ... .. . ... : ... .. . ...
ROW 43 : ... .. . ... ... : ... .. . ... ... : ... .. . ... : ... .. . ... ... : ... .. . ... : ... .. . ... ... : ... .. . ... : ... .. . ...
ROW 44 : ... .. . ... ... : A-3 01 . ... ... : ... .. . 482 : 0-# 04 . ... ... : ... .. . ... : A-3 01 . ... ... : ... .. . ... : ... .. . ...
ROW 45 : ... .. . ... ... : ... .. . ... ... : ... .. . ... : ... .. . ... ... : ... .. . ... : ... .. . ... ... : === .. . ... : ... .. . ...
ROW 46 : ... .. . ... ... : F-3 01 . ... ... : ... .. . ... : ... .. . ... ... : ... .. . ... : A#3 01 . ... ... : ... .. . ... : ... .. . ...
ROW 47 : ... .. . ... ... : ... .. . ... ... : ... .. . ... : ... .. . ... ... : ... .. . ... : ... .. . ... ... : ... .. . ... : ... .. . ...
ROW 48 : ... .. . ... ... : A#2 01 . ... ... : ... .. . ... : 0-# 03 . ... F96 : ... .. . ... : A-3 01 . ... ... : A#0 05 . ... : ... .. . ...
ROW 49 : ... .. . ... ... : ... .. . ... ... : ... .. . ... : ... .. . ... ... : ... .. . ... : ... .. . ... ... : ... .. . ... : ... .. . ...
ROW 4A : ... .. . ... ... : D-3 01 . ... ... : ... .. . ... : ... .. . ... ... : ... .. . ... : F-3 01 . ... ... : ... .. . ... : ... .. . ...
ROW 4B : ... .. . ... ... : ... .. . ... ... : ... .. . ... : ... .. . ... ... : ... .. . ... : ... .. . ... ... : ... .. . ... : ... .. . ...
ROW 4C : ... .. . ... ... : A-3 01 . ... ... : G-6 00 . 400 : 0-# 04 . ... ... : ... .. . ... : A#2 01 . ... ... : ... .. . ... : ... .. . ...
ROW 4D : ... .. . ... ... : ... .. . ... ... : ... .. . ... : ... .. . ... ... : ... .. . ... : ... .. . ... ... : === .. . ... : ... .. . ...
ROW 4E : ... .. . ... ... : A#3 01 . ... ... : ... .. . ... : ... .. . ... ... : ... .. . ... : D-3 01 . ... ... : ... .. . ... : ... .. . ...
ROW 4F : ... .. . ... ... : ... .. . ... ... : ... .. . ... : ... .. . ... ... : ... .. . ... : ... .. . ... ... : ... .. . ... : ... .. . ...
ROW 50 : ... .. . ... ... : A-3 01 . ... ... : F-6 00 . ... : 0-# 02 . ... F96 : ... .. . ... : A-3 01 . ... ... : A-0 05 . ... : ... .. . ...
ROW 51 : ... .. . ... ... : ... .. . ... ... : ... .. . ... : ... .. . ... ... : ... .. . ... : ... .. . ... ... : ... .. . ... : ... .. . ...
ROW 52 : ... .. . ... ... : F-3 01 . ... ... : ... .. . ... : ... .. . ... ... : ... .. . ... : A#3 01 . ... ... : ... .. . ... : ... .. . ...
ROW 53 : ... .. . ... ... : ... .. . ... ... : ... .. . ... : ... .. . ... ... : ... .. . ... : ... .. . ... ... : ... .. . ... : ... .. . ...
ROW 54 : ... .. . ... ... : A#2 01 . ... ... : C-7 00 . ... : 0-# 04 . ... ... : ... .. . ... : A-3 01 . ... ... : ... .. . ... : ... .. . ...
ROW 55 : ... .. . ... ... : ... .. . ... ... : ... .. . ... : ... .. . ... ... : ... .. . ... : ... .. . ... ... : ... .. . ... : ... .. . ...
ROW 56 : ... .. . ... ... : D-3 01 . ... ... : ... .. . ... : ... .. . ... ... : ... .. . ... : F-3 01 . ... ... : ... .. . ... : ... .. . ...
ROW 57 : ... .. . ... ... : ... .. . ... ... : ... .. . ... : ... .. . ... ... : ... .. . ... : ... .. . ... ... : ... .. . ... : ... .. . ...
ROW 58 : ... .. . ... ... : A-3 01 . ... ... : A-6 00 . ... : 0-# 03 . ... F96 : ... .. . ... : A#2 01 . ... ... : C#1 05 . ... : ... .. . ...
ROW 59 : ... .. . ... ... : ... .. . ... ... : ... .. . ... : ... .. . ... ... : ... .. . ... : ... .. . ... ... : ... .. . ... : ... .. . ...
ROW 5A : ... .. . ... ... : A#3 01 . ... ... : ... .. . ... : 0-# 03 . ... ... : ... .. . ... : D-3 01 . ... ... : ... .. . ... : ... .. . ...
ROW 5B : ... .. . ... ... : ... .. . ... ... : ... .. . ... : ... .. . ... ... : ... .. . ... : ... .. . ... ... : ... .. . ... : ... .. . ...
ROW 5C : ... .. . ... ... : A-3 01 . ... ... : ... .. . 482 : 0-# 03 . ... ... : ... .. . ... : A-3 01 . ... ... : ... .. . ... : ... .. . ...
ROW 5D : ... .. . ... ... : ... .. . ... ... : ... .. . ... : ... .. . ... ... : ... .. . ... : ... .. . ... ... : ... .. . ... : ... .. . ...
ROW 5E : ... .. . ... ... : F-3 01 . ... ... : ... .. . ... : 0-# 03 . ... ... : ... .. . ... : A#3 01 . ... ... : ... .. . ... : ... .. . ...
ROW 5F : ... .. . ... ... : ... .. . ... ... : ... .. . ... : ... .. . ... ... : ... .. . ... : ... .. . ... ... : ... .. . ... : ... .. . ...
ROW 60 : ... .. . ... ... : ... .. . ... ... : ... .. . ... : ... .. . ... ... : ... .. . ... : ... .. . ... ... : ... .. . ... : ... .. . ...
ROW 61 : ... .. . ... ... : ... .. . ... ... : ... .. . ... : ... .. . ... ... : ... .. . ... : ... .. . ... ... : ... .. . ... : ... .. . ...
ROW 62 : ... .. . ... ... : ... .. . ... ... : ... .. . ... : ... .. . ... ... : ... .. . ... : ... .. . ... ... : ... .. . ... : ... .. . ...
ROW 63 : ... .. . ... ... : ... .. . ... ... : ... .. . ... : ... .. . ... ... : ... .. . ... : ... .. . ... ... : ... .. . ... : ... .. . ...
ROW 64 : ... .. . ... ... : ... .. . ... ... : ... .. . ... : ... .. . ... ... : ... .. . ... : ... .. . ... ... : ... .. . ... : ... .. . ...
ROW 65 : ... .. . ... ... : ... .. . ... ... : ... .. . ... : ... .. . ... ... : ... .. . ... : ... .. . ... ... : ... .. . ... : ... .. . ...
ROW 66 : ... .. . ... ... : ... .. . ... ... : ... .. . ... : ... .. . ... ... : ... .. . ... : ... .. . ... ... : ... .. . ... : ... .. . ...
ROW 67 : ... .. . ... ... : ... .. . ... ... : ... .. . ... : ... .. . ... ... : ... .. . ... : ... .. . ... ... : ... .. . ... : ... .. . ...
ROW 68 : ... .. . ... ... : ... .. . ... ... : ... .. . ... : ... .. . ... ... : ... .. . ... : ... .. . ... ... : ... .. . ... : ... .. . ...
ROW 69 : ... .. . ... ... : ... .. . ... ... : ... .. . ... : ... .. . ... ... : ... .. . ... : ... .. . ... ... : ... .. . ... : ... .. . ...
ROW 6A : ... .. . ... ... : ... .. . ... ... : ... .. . ... : ... .. . ... ... : ... .. . ... : ... .. . ... ... : ... .. . ... : ... .. . ...
ROW 6B : ... .. . ... ... : ... .. . ... ... : ... .. . ... : ... .. . ... ... : ... .. . ... : ... .. . ... ... : ... .. . ... : ... .. . ...
ROW 6C : ... .. . ... ... : ... .. . ... ... : ... .. . ... : ... .. . ... ... : ... .. . ... : ... .. . ... ... : ... .. . ... : ... .. . ...
ROW 6D : ... .. . ... ... : ... .. . ... ... : ... .. . ... : ... .. . ... ... : ... .. . ... : ... .. . ... ... : ... .. . ... : ... .. . ...
ROW 6E : ... .. . ... ... : ... .. . ... ... : ... .. . ... : ... .. . ... ... : ... .. . ... : ... .. . ... ... : ... .. . ... : ... .. . ...
ROW 6F : ... .. . ... ... : ... .. . ... ... : ... .. . ... : ... .. . ... ... : ... .. . ... : ... .. . ... ... : ... .. . ... : ... .. . ...
ROW 70 : ... .. . ... ... : ... .. . ... ... : ... .. . ... : ... .. . ... ... : ... .. . ... : ... .. . ... ... : ... .. . ... : ... .. . ...
ROW 71 : ... .. . ... ... : ... .. . ... ... : ... .. . ... : ... .. . ... ... : ... .. . ... : ... .. . ... ... : ... .. . ... : ... .. . ...
ROW 72 : ... .. . ... ... : ... .. . ... ... : ... .. . ... : ... .. . ... ... : ... .. . ... : ... .. . ... ... : ... .. . ... : ... .. . ...
ROW 73 : ... .. . ... ... : ... .. . ... ... : ... .. . ... : ... .. . ... ... : ... .. . ... : ... .. . ... ... : ... .. . ... : ... .. . ...
ROW 74 : ... .. . ... ... : ... .. . ... ... : ... .. . ... : ... .. . ... ... : ... .. . ... : ... .. . ... ... : ... .. . ... : ... .. . ...
ROW 75 : ... .. . ... ... : ... .. . ... ... : ... .. . ... : ... .. . ... ... : ... .. . ... : ... .. . ... ... : ... .. . ... : ... .. . ...
ROW 76 : ... .. . ... ... : ... .. . ... ... : ... .. . ... : ... .. . ... ... : ... .. . ... : ... .. . ... ... : ... .. . ... : ... .. . ...
ROW 77 : ... .. . ... ... : ... .. . ... ... : ... .. . ... : ... .. . ... ... : ... .. . ... : ... .. . ... ... : ... .. . ... : ... .. . ...
ROW 78 : ... .. . ... ... : ... .. . ... ... : ... .. . ... : ... .. . ... ... : C#0 00 . ... : ... .. . ... ... : ... .. . ... : ... .. . ...
ROW 79 : ... .. . ... ... : ... .. . ... ... : ... .. . ... : ... .. . ... ... : ... .. . ... : ... .. . ... ... : ... .. . ... : ... .. . ...
ROW 7A : ... .. . ... ... : ... .. . ... ... : ... .. . ... : ... .. . ... ... : ... .. . ... : ... .. . ... ... : ... .. . ... : ... .. . ...
ROW 7B : ... .. . ... ... : ... .. . ... ... : ... .. . ... : ... .. . ... ... : --- .. . ... : ... .. . ... ... : ... .. . ... : ... .. . ...
ROW 7C : ... .. . ... ... : ... .. . ... ... : ... .. . ... : ... .. . ... ... : ... .. . ... : ... .. . ... ... : ... .. . ... : ... .. . ...
ROW 7D : ... .. . ... ... : ... .. . ... ... : ... .. . ... : ... .. . ... ... : C#0 00 . ... : ... .. . ... ... : ... .. . ... : ... .. . ...
ROW 7E : ... .. . ... ... : ... .. . ... ... : ... .. . ... : ... .. . ... ... : ... .. . ... : ... .. . ... ... : ... .. . ... : ... .. . ...
ROW 7F : ... .. . 400 ... : ... .. . ... ... : ... .. . ... : ... .. . ... ... : ... .. . ... : ... .. . ... ... : ... .. . ... : ... .. . ...
PATTERN 07
ROW 00 : A-3 01 4 V02 F04 : D-3 01 8 V02 ... : --- .. . 483 : 0-# 02 F O01 F96 : C-0 00 . ... : A-3 01 4 V07 P7F : D-0 05 8 ... : D-1 05 F ...
ROW 01 : ... .. . ... ... : ... .. . ... ... : ... .. . ... : ... .. . ... ... : ... .. . ... : ... .. . ... ... : ... .. . ... : ... .. . ...
ROW 02 : F-3 01 . ... ... : F-3 01 . ... ... : D-4 00 . ... : ... .. . ... ... : --- .. . ... : F-3 01 . ... ... : ... .. . ... : ... .. . ...
ROW 03 : ... .. . ... ... : ... .. . ... ... : ... .. . ... : ... .. . ... ... : ... .. . ... : ... .. . ... ... : ... .. . ... : ... .. . ...
ROW 04 : D-3 01 . ... ... : D-4 01 . ... ... : --- .. . ... : ... .. . ... ... : ... .. . ... : D-2 01 . ... ... : ... .. . ... : ... .. . ...
ROW 05 : ... .. . ... ... : ... .. . ... ... : ... .. . ... : ... .. . ... ... : ... .. . ... : ... .. . ... ... : === .. . ... : === .. . ...
ROW 06 : F-3 01 . ... ... : A-4 01 . ... ... : D-4 00 . ... : 0-# 04 0 ... ... : ... .. . ... : F-2 01 . ... ... : ... .. . ... : ... .. . ...
ROW 07 : ... .. . ... ... : ... .. . ... ... : ... .. . ... : ... .. . ... ... : ... .. . ... : ... .. . ... ... : ... .. . ... : ... .. . ...
ROW 08 : D-4 01 . ... ... : C-5 01 . ... ... : --- .. . ... : 0-# 04 E ... F96 : ... .. . ... : D-3 01 . ... ... : ... .. . ... : D-1 05 . ...
ROW 09 : ... .. . ... ... : ... .. . ... ... : ... .. . ... : ... .. . ... ... : ... .. . ... : ... .. . ... ... : ... .. . ... : ... .. . ...
ROW 0A : A-4 01 . ... ... : D-5 01 . ... ... : D-4 00 . ... : ... .. . ... ... : ... .. . ... : A-3 01 . ... ... : ... .. . ... : ... .. . ...
ROW 0B : ... .. . ... ... : ... .. . ... ... : ... .. . ... : ... .. . ... ... : ... .. . ... : ... .. . ... ... : ... .. . ... : ... .. . ...
ROW 0C : C-5 01 . ... ... : D-3 01 . ... ... : --- .. . ... : 0-# 04 1 ... ... : ... .. . ... : C-4 01 . ... ... : ... .. . ... : ... .. . ...
ROW 0D : ... .. . ... ... : ... .. . ... ... : ... .. . ... : ... .. . ... ... : ... .. . ... : ... .. . ... ... : ... .. . ... : === .. . ...
ROW 0E : D-5 01 . ... ... : F-3 01 . ... ... : D-4 00 . ... : ... .. . ... ... : ... .. . ... : D-4 01 . ... ... : ... .. . ... : ... .. . ...
ROW 0F : ... .. . ... ... : ... .. . ... ... : ... .. . ... : ... .. . ... ... : ... .. . ... : ... .. . ... ... : ... .. . ... : ... .. . ...
ROW 10 : D-3 01 . ... ... : D-4 01 . ... ... : A-4 00 . ... : 0-# 04 D ... F96 : C#0 00 . ... : D-2 01 . ... ... : ... .. . ... : F-1 05 . ...
ROW 11 : ... .. . ... ... : ... .. . ... ... : ... .. . ... : ... .. . ... ... : ... .. . ... : ... .. . ... ... : ... .. . ... : ... .. . ...
ROW 12 : F-3 01 . ... ... : A-4 01 . ... ... : A#4 00 . ... : 0-# 04 1 ... ... : ... .. . ... : F-2 01 . ... ... : ... .. . ... : ... .. . ...
ROW 13 : ... .. . ... ... : ... .. . ... ... : ... .. . ... : ... .. . ... ... : --- .. . ... : ... .. . ... ... : ... .. . ... : ... .. . ...
ROW 14 : D-4 01 . ... ... : C-5 01 . ... ... : A-4 00 . ... : ... .. . ... ... : ... .. . ... : D-3 01 . ... ... : ... .. . ... : ... .. . ...
ROW 15 : ... .. . ... ... : ... .. . ... ... : ... .. . ... : ... .. . ... ... : ... .. . ... : ... .. . ... ... : ... .. . ... : ... .. . ...
ROW 16 : A-4 01 . ... ... : D-5 01 . ... ... : F-4 00 . ... : ... .. . ... ... : ... .. . ... : A-3 01 . ... ... : ... .. . ... : ... .. . ...
ROW 17 : ... .. . ... ... : ... .. . ... ... : ... .. . ... : ... .. . ... ... : ... .. . ... : ... .. . ... ... : ... .. . ... : ... .. . ...
ROW 18 : C-5 01 . ... ... : D-3 01 . ... ... : D-4 00 . ... : 0-# 04 D ... F96 : ... .. . ... : C-4 01 . ... ... : ... .. . ... : G-1 05 . ...
ROW 19 : ... .. . ... ... : ... .. . ... ... : ... .. . ... : ... .. . ... ... : ... .. . ... : ... .. . ... ... : ... .. . ... : ... .. . ...
ROW 1A : D-5 01 . ... ... : F-3 01 . ... ... : ... .. . ... : ... .. . ... ... : ... .. . ... : D-4 01 . ... ... : ... .. . ... : ... .. . ...
ROW 1B : ... .. . ... ... : ... .. . ... ... : ... .. . ... : ... .. . ... ... : ... .. . ... : ... .. . ... ... : ... .. . ... : ... .. . ...
ROW 1C : D-3 01 . ... ... : D-4 01 . ... ... : --- 00 . ... : 0-# 04 C ... ... : ... .. . ... : D-2 01 . ... ... : ... .. . ... : ... .. . ...
ROW 1D : ... .. . ... ... : ... .. . ... ... : ... .. . ... : ... .. . ... ... : ... .. . ... : ... .. . ... ... : ... .. . ... : ... .. . ...
ROW 1E : F-3 01 . ... ... : A-4 01 . ... ... : D-4 00 . ... : 0-# 04 C ... ... : ... .. . ... : F-2 01 . ... ... : ... .. . ... : ... .. . ...
ROW 1F : ... .. . ... ... : ... .. . ... ... : ... .. . ... : ... .. . ... ... : ... .. . ... : ... .. . ... ... : ... .. . ... : ... .. . ...
ROW 20 : D-4 01 . ... ... : C-5 01 . ... ... : --- .. . ... : 0-# 04 C ... F96 : C-0 00 . ... : D-3 01 . ... ... : ... .. . ... : A-1 05 . ...
ROW 21 : ... .. . ... ... : ... .. . ... ... : ... .. . ... : ... .. . ... ... : ... .. . ... : ... .. . ... ... : ... .. . ... : ... .. . ...
ROW 22 : A-4 01 . ... ... : D-5 01 . ... ... : D-4 00 . ... : ... .. . ... ... : --- .. . ... : A-3 01 . ... ... : ... .. . ... : ... .. . ...
ROW 23 : ... .. . ... ... : ... .. . ... ... : ... .. . ... : ... .. . ... ... : ... .. . ... : ... .. . ... ... : ... .. . ... : ... .. . ...
ROW 24 : C-5 01 . ... ... : D-3 01 . ... ... : --- .. . ... : 0-# 04 3 ... ... : ... .. . ... : C-4 01 . ... ... : ... .. . ... : ... .. . ...
ROW 25 : ... .. . ... ... : ... .. . ... ... : ... .. . ... : ... .. . ... ... : ... .. . ... : ... .. . ... ... : ... .. . ... : ... .. . ...
ROW 26 : D-5 01 . ... ... : F-3 01 . ... ... : D-4 00 . ... : ... .. . ... ... : ... .. . ... : D-4 01 . ... ... : ... .. . ... : ... .. . ...
ROW 27 : ... .. . ... ... : ... .. . ... ... : ... .. . ... : ... .. . ... ... : ... .. . ... : ... .. . ... ... : ... .. . ... : ... .. . ...
ROW 28 : D-3 01 . ... ... : D-4 01 . ... ... : --- .. . ... : 0-# 04 C ... F96 : ... .. . ... : D-2 01 . ... ... : ... .. . ... : G-1 05 . ...
ROW 29 : ... .. . ... ... : ... .. . ... ... : ... .. . ... : ... .. . ... ... : ... .. . ... : ... .. . ... ... : ... .. . ... : ... .. . ...
ROW 2A : F-3 01 . ... ... : A-4 01 . ... ... : D-4 00 . ... : 0-# 04 3 ... ... : ... .. . ... : F-2 01 . ... ... : ... .. . ... : ... .. . ...
ROW 2B : ... .. . ... ... : ... .. . ... ... : ... .. . ... : ... .. . ... ... : ... .. . ... : ... .. . ... ... : ... .. . ... : ... .. . ...
ROW 2C : D-4 01 . ... ... : C-5 01 . ... ... : --- .. . ... : ... .. . ... ... : ... .. . ... : D-3 01 . ... ... : ... .. . ... : ... .. . ...
ROW 2D : ... .. . ... ... : ... .. . ... ... : ... .. . ... : ... .. . ... ... : ... .. . ... : ... .. . ... ... : ... .. . ... : === .. . ...
ROW 2E : A-4 01 . ... ... : D-5 01 . ... ... : D-4 00 . ... : 0-# 04 3 ... ... : ... .. . ... : A-3 01 . ... ... : ... .. . ... : ... .. . ...
ROW 2F : ... .. . ... ... : ... .. . ... ... : ... .. . ... : ... .. . ... ... : ... .. . ... : ... .. . ... ... : ... .. . ... : ... .. . ...
ROW 30 : C-5 01 . ... ... : D-3 01 . ... ... : C-5 00 . ... : 0-# 04 B ... F96 : C#0 00 . ... : C-4 01 . ... ... : ... .. . ... : F-1 05 . ...
ROW 31 : ... .. . ... ... : ... .. . ... ... : ... .. . ... : ... .. . ... ... : ... .. . ... : ... .. . ... ... : ... .. . ... : ... .. . ...
ROW 32 : D-5 01 . ... ... : F-3 01 . ... ... : C#5 00 . ... : ... .. . ... ... : ... .. . ... : D-4 01 . ... ... : ... .. . ... : ... .. . ...
ROW 33 : ... .. . ... ... : ... .. . ... ... : ... .. . ... : ... .. . ... ... : --- .. . ... : ... .. . ... ... : ... .. . ... : ... .. . ...
ROW 34 : D-3 01 . ... ... : D-4 01 . ... ... : F-5 00 . ... : ... .. . ... ... : ... .. . ... : D-2 01 . ... ... : ... .. . ... : ... .. . ...
ROW 35 : ... .. . ... ... : ... .. . ... ... : ... .. . ... : ... .. . ... ... : ... .. . ... : ... .. . ... ... : ... .. . ... : === .. . ...
ROW 36 : F-3 01 . ... ... : A-4 01 . ... ... : C-5 00 . ... : 0-# 04 4 ... ... : ... .. . ... : F-2 01 . ... ... : ... .. . ... : ... .. . ...
ROW 37 : ... .. . ... ... : ... .. . ... ... : ... .. . ... : ... .. . ... ... : ... .. . ... : ... .. . ... ... : ... .. . ... : ... .. . ...
ROW 38 : D-4 01 . ... ... : C-5 01 . ... ... : D-5 00 . ... : 0-# 04 A ... F96 : ... .. . ... : D-3 01 . ... ... : ... .. . ... : E-1 05 . ...
ROW 39 : ... .. . ... ... : ... .. . ... ... : ... .. . ... : ... .. . ... ... : ... .. . ... : ... .. . ... ... : ... .. . ... : ... .. . ...
ROW 3A : A-4 01 . ... ... : D-5 01 . ... ... : ... .. . ... : ... .. . ... ... : ... .. . ... : A-3 01 . ... ... : ... .. . ... : ... .. . ...
ROW 3B : ... .. . ... ... : ... .. . ... ... : ... .. . ... : ... .. . ... ... : ... .. . ... : ... .. . ... ... : ... .. . ... : ... .. . ...
ROW 3C : C-5 01 . ... ... : D-3 01 . ... ... : --- 00 . ... : 0-# 04 A ... ... : ... .. . ... : C-4 01 . ... ... : ... .. . ... : ... .. . ...
ROW 3D : ... .. . ... ... : ... .. . ... ... : ... .. . ... : ... .. . ... ... : C#0 00 . ... : ... .. . ... ... : ... .. . ... : === .. . ...
ROW 3E : D-5 01 . ... ... : F-3 01 . ... ... : D-5 00 . ... : 0-# 04 A ... ... : ... .. . ... : D-4 01 . ... ... : ... .. . ... : ... .. . ...
ROW 3F : ... .. . ... ... : ... .. . ... ... : ... .. . ... : ... .. . ... ... : ... .. . ... : ... .. . ... ... : ... .. . ... : ... .. . ...
ROW 40 : D-3 01 . ... ... : D-4 01 . ... ... : --- .. . ... : 0-# 04 9 ... F96 : C-0 00 . ... : D-2 01 . ... ... : ... .. . ... : D-1 05 . ...
ROW 41 : ... .. . ... ... : ... .. . ... ... : ... .. . ... : ... .. . ... ... : ... .. . ... : ... .. . ... ... : ... .. . ... : ... .. . ...
ROW 42 : F-3 01 . ... ... : A-4 01 . ... ... : D-4 00 . ... : 0-# 04 5 ... ... : --- .. . ... : F-2 01 . ... ... : ... .. . ... : ... .. . ...
ROW 43 : ... .. . ... ... : ... .. . ... ... : ... .. . ... : ... .. . ... ... : ... .. . ... : ... .. . ... ... : ... .. . ... : ... .. . ...
ROW 44 : D-4 01 . ... ... : C-5 01 . ... ... : --- .. . ... : ... .. . ... ... : ... .. . ... : D-3 01 . ... ... : ... .. . ... : ... .. . ...
ROW 45 : ... .. . ... ... : ... .. . ... ... : ... .. . ... : ... .. . ... ... : ... .. . ... : ... .. . ... ... : ... .. . ... : === .. . ...
ROW 46 : A-4 01 . ... ... : D-5 01 . ... ... : D-4 00 . ... : ... .. . ... ... : ... .. . ... : A-3 01 . ... ... : ... .. . ... : ... .. . ...
ROW 47 : ... .. . ... ... : ... .. . ... ... : ... .. . ... : ... .. . ... ... : ... .. . ... : ... .. . ... ... : ... .. . ... : ... .. . ...
ROW 48 : C-5 01 . ... ... : D-3 01 . ... ... : --- .. . ... : 0-# 04 9 ... F96 : ... .. . ... : C-4 01 . ... ... : ... .. . ... : D-1 05 . ...
ROW 49 : ... .. . ... ... : ... .. . ... ... : ... .. . ... : ... .. . ... ... : ... .. . ... : ... .. . ... ... : ... .. . ... : ... .. . ...
ROW 4A : D-5 01 . ... ... : F-3 01 . ... ... : D-4 00 . ... : ... .. . ... ... : ... .. . ... : D-4 01 . ... ... : ... .. . ... : ... .. . ...
ROW 4B : ... .. . ... ... : ... .. . ... ... : ... .. . ... : ... .. . ... ... : ... .. . ... : ... .. . ... ... : ... .. . ... : ... .. . ...
ROW 4C : D-3 01 . ... ... : D-4 01 . ... ... : --- .. . ... : ... .. . ... ... : ... .. . ... : D-2 01 . ... ... : ... .. . ... : ... .. . ...
ROW 4D : ... .. . ... ... : ... .. . ... ... : ... .. . ... : ... .. . ... ... : ... .. . ... : ... .. . ... ... : ... .. . ... : === .. . ...
ROW 4E : F-3 01 . ... ... : A-4 01 . ... ... : D-4 00 . ... : 0-# 04 6 ... ... : ... .. . ... : F-2 01 . ... ... : ... .. . ... : ... .. . ...
ROW 4F : ... .. . ... ... : ... .. . ... ... : ... .. . ... : ... .. . ... ... : ... .. . ... : ... .. . ... ... : ... .. . ... : ... .. . ...
ROW 50 : D-4 01 . ... ... : C-5 01 . ... ... : A-4 00 . ... : 0-# 04 9 ... F96 : C#0 00 . ... : D-3 01 . ... ... : ... .. . ... : F-1 05 . ...
ROW 51 : ... .. . ... ... : ... .. . ... ... : ... .. . ... : ... .. . ... ... : ... .. . ... : ... .. . ... ... : ... .. . ... : ... .. . ...
ROW 52 : A-4 01 . ... ... : D-5 01 . ... ... : A#4 00 . ... : ... .. . ... ... : ... .. . ... : A-3 01 . ... ... : ... .. . ... : ... .. . ...
ROW 53 : ... .. . ... ... : ... .. . ... ... : ... .. . ... : ... .. . ... ... : --- .. . ... : ... .. . ... ... : ... .. . ... : ... .. . ...
ROW 54 : C-5 01 . ... ... : D-3 01 . ... ... : A-4 00 . ... : 0-# 04 6 ... ... : ... .. . ... : C-4 01 . ... ... : ... .. . ... : ... .. . ...
ROW 55 : ... .. . ... ... : ... .. . ... ... : ... .. . ... : ... .. . ... ... : ... .. . ... : ... .. . ... ... : ... .. . ... : ... .. . ...
ROW 56 : D-5 01 . ... ... : F-3 01 . ... ... : F-4 00 . ... : ... .. . ... ... : ... .. . ... : D-4 01 . ... ... : ... .. . ... : ... .. . ...
ROW 57 : ... .. . ... ... : ... .. . ... ... : ... .. . ... : ... .. . ... ... : ... .. . ... : ... .. . ... ... : ... .. . ... : ... .. . ...
ROW 58 : D-3 01 . ... ... : D-4 01 . ... ... : D-4 00 . ... : 0-# 02 F ... F96 : ... .. . ... : D-2 01 . ... ... : ... .. . ... : G-1 05 . ...
ROW 59 : ... .. . ... ... : ... .. . ... ... : ... .. . ... : ... .. . ... ... : ... .. . ... : ... .. . ... ... : ... .. . ... : ... .. . ...
ROW 5A : F-3 01 . ... ... : A-4 01 . ... ... : ... .. . ... : 0-# 04 7 ... ... : ... .. . ... : F-2 01 . ... ... : ... .. . ... : ... .. . ...
ROW 5B : ... .. . ... ... : ... .. . ... ... : ... .. . ... : ... .. . ... ... : ... .. . ... : ... .. . ... ... : ... .. . ... : ... .. . ...
ROW 5C : D-4 01 . ... ... : C-5 01 . ... ... : --- 00 . ... : 0-# 03 F ... ... : ... .. . ... : D-3 01 . ... ... : ... .. . ... : ... .. . ...
ROW 5D : ... .. . ... ... : ... .. . ... ... : ... .. . ... : ... .. . ... ... : C-0 00 . ... : ... .. . ... ... : ... .. . ... : ... .. . ...
ROW 5E : A-4 01 . ... ... : D-5 01 . ... ... : D-4 00 . ... : 0-# 03 F ... ... : ... .. . ... : A-3 01 . ... ... : ... .. . ... : ... .. . ...
ROW 5F : ... .. . ... ... : ... .. . ... ... : ... .. . ... : ... .. . ... ... : --- .. . ... : ... .. . ... ... : ... .. . ... : ... .. . ...
ROW 60 : ... .. . ... ... : ... .. . ... ... : ... .. . ... : ... .. . ... ... : C-0 00 . ... : ... .. . ... ... : ... .. . ... : ... .. . ...
ROW 61 : ... .. . ... ... : ... .. . ... ... : ... .. . ... : ... .. . ... ... : ... .. . ... : ... .. . ... ... : ... .. . ... : ... .. . ...
ROW 62 : ... .. . ... ... : ... .. . ... ... : ... .. . ... : ... .. . ... ... : --- .. . ... : ... .. . ... ... : ... .. . ... : ... .. . ...
ROW 63 : ... .. . ... ... : ... .. . ... ... : ... .. . ... : ... .. . ... ... : ... .. . ... : ... .. . ... ... : ... .. . ... : ... .. . ...
ROW 64 : ... .. . ... ... : ... .. . ... ... : ... .. . ... : ... .. . ... ... : ... .. . ... : ... .. . ... ... : ... .. . ... : ... .. . ...
ROW 65 : ... .. . ... ... : ... .. . ... ... : ... .. . ... : ... .. . ... ... : ... .. . ... : ... .. . ... ... : ... .. . ... : ... .. . ...
ROW 66 : ... .. . ... ... : ... .. . ... ... : ... .. . ... : ... .. . ... ... : ... .. . ... : ... .. . ... ... : ... .. . ... : ... .. . ...
ROW 67 : ... .. . ... ... : ... .. . ... ... : ... .. . ... : ... .. . ... ... : ... .. . ... : ... .. . ... ... : ... .. . ... : ... .. . ...
ROW 68 : ... .. . ... ... : ... .. . ... ... : ... .. . ... : ... .. . ... ... : ... .. . ... : ... .. . ... ... : ... .. . ... : ... .. . ...
ROW 69 : ... .. . ... ... : ... .. . ... ... : ... .. . ... : ... .. . ... ... : ... .. . ... : ... .. . ... ... : ... .. . ... : ... .. . ...
ROW 6A : ... .. . ... ... : ... .. . ... ... : ... .. . ... : ... .. . ... ... : ... .. . ... : ... .. . ... ... : ... .. . ... : ... .. . ...
ROW 6B : ... .. . ... ... : ... .. . ... ... : ... .. . ... : ... .. . ... ... : ... .. . ... : ... .. . ... ... : ... .. . ... : ... .. . ...
ROW 6C : ... .. . ... ... : ... .. . ... ... : ... .. . ... : ... .. . ... ... : ... .. . ... : ... .. . ... ... : ... .. . ... : ... .. . ...
ROW 6D : ... .. . ... ... : ... .. . ... ... : ... .. . ... : ... .. . ... ... : ... .. . ... : ... .. . ... ... : ... .. . ... : ... .. . ...
ROW 6E : ... .. . ... ... : ... .. . ... ... : ... .. . ... : ... .. . ... ... : ... .. . ... : ... .. . ... ... : ... .. . ... : ... .. . ...
ROW 6F : ... .. . ... ... : ... .. . ... ... : ... .. . ... : ... .. . ... ... : ... .. . ... : ... .. . ... ... : ... .. . ... : ... .. . ...
ROW 70 : ... .. . ... ... : ... .. . ... ... : ... .. . ... : ... .. . ... ... : C#0 00 . ... : ... .. . ... ... : ... .. . ... : ... .. . ...
ROW 71 : ... .. . ... ... : ... .. . ... ... : ... .. . ... : ... .. . ... ... : ... .. . ... : ... .. . ... ... : ... .. . ... : ... .. . ...
ROW 72 : ... .. . ... ... : ... .. . ... ... : ... .. . ... : ... .. . ... ... : ... .. . ... : ... .. . ... ... : ... .. . ... : ... .. . ...
ROW 73 : ... .. . ... ... : ... .. . ... ... : ... .. . ... : ... .. . ... ... : --- .. . ... : ... .. . ... ... : ... .. . ... : ... .. . ...
ROW 74 : ... .. . ... ... : ... .. . ... ... : ... .. . ... : ... .. . ... ... : ... .. . ... : ... .. . ... ... : ... .. . ... : ... .. . ...
ROW 75 : ... .. . ... ... : ... .. . ... ... : ... .. . ... : ... .. . ... ... : ... .. . ... : ... .. . ... ... : ... .. . ... : ... .. . ...
ROW 76 : ... .. . ... ... : ... .. . ... ... : ... .. . ... : ... .. . ... ... : ... .. . ... : ... .. . ... ... : ... .. . ... : ... .. . ...
ROW 77 : ... .. . ... ... : ... .. . ... ... : ... .. . ... : ... .. . ... ... : ... .. . ... : ... .. . ... ... : ... .. . ... : ... .. . ...
ROW 78 : ... .. . ... ... : ... .. . ... ... : ... .. . ... : ... .. . ... ... : C#0 00 . ... : ... .. . ... ... : ... .. . ... : ... .. . ...
ROW 79 : ... .. . ... ... : ... .. . ... ... : ... .. . ... : ... .. . ... ... : ... .. . ... : ... .. . ... ... : ... .. . ... : ... .. . ...
ROW 7A : ... .. . ... ... : ... .. . ... ... : ... .. . ... : ... .. . ... ... : ... .. . ... : ... .. . ... ... : ... .. . ... : ... .. . ...
ROW 7B : ... .. . ... ... : ... .. . ... ... : ... .. . ... : ... .. . ... ... : --- .. . ... : ... .. . ... ... : ... .. . ... : ... .. . ...
ROW 7C : ... .. . ... ... : ... .. . ... ... : ... .. . ... : ... .. . ... ... : ... .. . ... : ... .. . ... ... : ... .. . ... : ... .. . ...
ROW 7D : ... .. . ... ... : ... .. . ... ... : ... .. . ... : ... .. . ... ... : C#0 00 . ... : ... .. . ... ... : ... .. . ... : ... .. . ...
ROW 7E : ... .. . ... ... : ... .. . ... ... : ... .. . ... : ... .. . ... ... : ... .. . ... : ... .. . ... ... : ... .. . ... : ... .. . ...
ROW 7F : ... .. . ... ... : ... .. . ... ... : ... .. . ... : ... .. . ... ... : ... .. . B04 : ... .. . ... ... : ... .. . ... : ... .. . ...
PATTERN 08
ROW 00 : C-5 01 4 V02 P7F : A#3 01 . ... ... : --- .. . 483 : 0-# 02 F O00 F96 : C-0 00 . ... : A-3 01 4 V07 P7F : ... .. . ... : D-1 05 6 ...
ROW 01 : ... .. . ... ... : ... .. . ... ... : ... .. . ... : ... .. . ... ... : ... .. . ... : ... .. . ... ... : ... .. . ... : ... .. . ...
ROW 02 : D-5 01 . ... ... : D-4 01 . ... ... : A#3 00 . ... : ... .. . ... ... : --- .. . ... : F-3 01 . ... ... : ... .. . ... : ... .. . ...
ROW 03 : ... .. . ... ... : ... .. . ... ... : ... .. . ... : ... .. . ... ... : ... .. . ... : ... .. . ... ... : ... .. . ... : ... .. . ...
ROW 04 : A#3 01 . ... ... : A-4 01 . ... ... : --- .. . ... : ... .. . ... ... : ... .. . ... : D-3 01 . ... ... : ... .. . ... : ... .. . ...
ROW 05 : ... .. . ... ... : ... .. . ... ... : ... .. . ... : ... .. . ... ... : ... .. . ... : ... .. . ... ... : ... .. . ... : === .. . ...
ROW 06 : D-4 01 . ... ... : A#4 01 . ... ... : A#3 00 . ... : ... .. . ... ... : ... .. . ... : F-3 01 . ... ... : ... .. . ... : ... .. . ...
ROW 07 : ... .. . ... ... : ... .. . ... ... : ... .. . ... : ... .. . ... ... : ... .. . ... : ... .. . ... ... : ... .. . ... : ... .. . ...
ROW 08 : A-4 01 . ... ... : A-4 01 . ... ... : --- .. . ... : 0-# 04 8 ... F96 : ... .. . ... : D-4 01 . ... ... : ... .. . ... : D-1 05 . ...
ROW 09 : ... .. . ... ... : ... .. . ... ... : ... .. . ... : ... .. . ... ... : ... .. . ... : ... .. . ... ... : ... .. . ... : ... .. . ...
ROW 0A : A#4 01 . ... ... : F-4 01 . ... ... : A#3 00 . ... : 0-# 04 7 ... ... : ... .. . ... : A-4 01 . ... ... : ... .. . ... : ... .. . ...
ROW 0B : ... .. . ... ... : ... .. . ... ... : ... .. . ... : ... .. . ... ... : ... .. . ... : ... .. . ... ... : ... .. . ... : ... .. . ...
ROW 0C : A-4 01 . ... ... : A#3 01 . ... ... : --- .. . ... : ... .. . ... ... : ... .. . ... : C-5 01 . ... ... : ... .. . ... : ... .. . ...
ROW 0D : ... .. . ... ... : ... .. . ... ... : ... .. . ... : ... .. . ... ... : ... .. . ... : ... .. . ... ... : ... .. . ... : === .. . ...
ROW 0E : F-4 01 . ... ... : D-4 01 . ... ... : A#3 00 . ... : ... .. . ... ... : ... .. . ... : D-5 01 . ... ... : ... .. . ... : ... .. . ...
ROW 0F : ... .. . ... ... : ... .. . ... ... : ... .. . ... : ... .. . ... ... : ... .. . ... : ... .. . ... ... : ... .. . ... : ... .. . ...
ROW 10 : A#3 01 . ... ... : A-4 01 . ... ... : E-4 00 . ... : 0-# 04 8 ... F96 : ... .. . ... : D-3 01 . ... ... : ... .. . ... : F-1 05 . ...
ROW 11 : ... .. . ... ... : ... .. . ... ... : ... .. . ... : ... .. . ... ... : ... .. . ... : ... .. . ... ... : ... .. . ... : ... .. . ...
ROW 12 : D-4 01 . ... ... : A#4 01 . ... ... : F-4 00 . ... : ... .. . ... ... : ... .. . ... : F-3 01 . ... ... : ... .. . ... : ... .. . ...
ROW 13 : ... .. . ... ... : ... .. . ... ... : ... .. . ... : ... .. . ... ... : ... .. . ... : ... .. . ... ... : ... .. . ... : ... .. . ...
ROW 14 : A-4 01 . ... ... : A-4 01 . ... ... : E-4 00 . ... : ... .. . ... ... : ... .. . ... : D-4 01 . ... ... : ... .. . ... : ... .. . ...
ROW 15 : ... .. . ... ... : ... .. . ... ... : ... .. . ... : 0-# 04 6 ... ... : ... .. . ... : ... .. . ... ... : ... .. . ... : ... .. . ...
ROW 16 : A#4 01 . ... ... : F-4 01 . ... ... : D-4 00 . ... : ... .. . ... ... : ... .. . ... : A-4 01 . ... ... : ... .. . ... : ... .. . ...
ROW 17 : ... .. . ... ... : ... .. . ... ... : ... .. . ... : ... .. . ... ... : ... .. . ... : ... .. . ... ... : ... .. . ... : ... .. . ...
ROW 18 : A-4 01 . ... ... : A#3 01 . ... ... : A#3 00 . ... : 0-# 04 9 ... F96 : ... .. . ... : C-5 01 . ... ... : ... .. . ... : G-1 05 . ...
ROW 19 : ... .. . ... ... : ... .. . ... ... : ... .. . ... : ... .. . ... ... : ... .. . ... : ... .. . ... ... : ... .. . ... : ... .. . ...
ROW 1A : F-4 01 . ... ... : D-4 01 . ... ... : ... .. . ... : ... .. . ... ... : ... .. . ... : D-5 01 . ... ... : ... .. . ... : ... .. . ...
ROW 1B : ... .. . ... ... : ... .. . ... ... : ... .. . ... : ... .. . ... ... : ... .. . ... : ... .. . ... ... : ... .. . ... : ... .. . ...
ROW 1C : A#3 01 . ... ... : A-4 01 . ... ... : --- 00 . ... : ... .. . ... ... : ... .. . ... : D-3 01 . ... ... : ... .. . ... : ... .. . ...
ROW 1D : ... .. . ... ... : ... .. . ... ... : ... .. . ... : ... .. . ... ... : ... .. . ... : ... .. . ... ... : ... .. . ... : ... .. . ...
ROW 1E : D-4 01 . ... ... : A#4 01 . ... ... : A#3 00 . ... : ... .. . ... ... : ... .. . ... : F-3 01 . ... ... : ... .. . ... : ... .. . ...
ROW 1F : ... .. . ... ... : ... .. . ... ... : ... .. . ... : ... .. . ... ... : ... .. . ... : ... .. . ... ... : ... .. . ... : ... .. . ...
ROW 20 : A-4 01 . ... ... : A-4 01 . ... ... : --- .. . ... : 0-# 04 9 ... F96 : ... .. . ... : D-4 01 . ... ... : ... .. . ... : A-1 05 . ...
ROW 21 : ... .. . ... ... : ... .. . ... ... : ... .. . ... : ... .. . ... ... : ... .. . ... : ... .. . ... ... : ... .. . ... : ... .. . ...
ROW 22 : A#4 01 . ... ... : F-4 01 . ... ... : A#3 00 . ... : ... .. . ... ... : ... .. . ... : A-4 01 . ... ... : ... .. . ... : ... .. . ...
ROW 23 : ... .. . ... ... : ... .. . ... ... : ... .. . ... : ... .. . ... ... : ... .. . ... : ... .. . ... ... : ... .. . ... : ... .. . ...
ROW 24 : A-4 01 . ... ... : A#3 01 . ... ... : --- .. . ... : ... .. . ... ... : ... .. . ... : C-5 01 . ... ... : ... .. . ... : ... .. . ...
ROW 25 : ... .. . ... ... : ... .. . ... ... : ... .. . ... : 0-# 04 6 ... ... : ... .. . ... : ... .. . ... ... : ... .. . ... : ... .. . ...
ROW 26 : F-4 01 . ... ... : D-4 01 . ... ... : A#3 00 . ... : ... .. . ... ... : ... .. . ... : D-5 01 . ... ... : ... .. . ... : ... .. . ...
ROW 27 : ... .. . ... ... : ... .. . ... ... : ... .. . ... : ... .. . ... ... : ... .. . ... : ... .. . ... ... : ... .. . ... : ... .. . ...
ROW 28 : A#3 01 . ... ... : A-4 01 . ... ... : --- .. . ... : 0-# 04 A ... F96 : ... .. . ... : D-3 01 . ... ... : ... .. . ... : G-1 05 . ...
ROW 29 : ... .. . ... ... : ... .. . ... ... : ... .. . ... : ... .. . ... ... : ... .. . ... : ... .. . ... ... : ... .. . ... : ... .. . ...
ROW 2A : D-4 01 . ... ... : A#4 01 . ... ... : A#3 00 . ... : 0-# 04 5 ... ... : ... .. . ... : F-3 01 . ... ... : ... .. . ... : ... .. . ...
ROW 2B : ... .. . ... ... : ... .. . ... ... : ... .. . ... : ... .. . ... ... : ... .. . ... : ... .. . ... ... : ... .. . ... : ... .. . ...
ROW 2C : A-4 01 . ... ... : A-4 01 . ... ... : --- .. . ... : ... .. . ... ... : ... .. . ... : D-4 01 . ... ... : ... .. . ... : ... .. . ...
ROW 2D : ... .. . ... ... : ... .. . ... ... : ... .. . ... : ... .. . ... ... : ... .. . ... : ... .. . ... ... : ... .. . ... : === .. . ...
ROW 2E : A#4 01 . ... ... : F-4 01 . ... ... : A#3 00 . ... : ... .. . ... ... : ... .. . ... : A-4 01 . ... ... : ... .. . ... : ... .. . ...
ROW 2F : ... .. . ... ... : ... .. . ... ... : ... .. . ... : ... .. . ... ... : ... .. . ... : ... .. . ... ... : ... .. . ... : ... .. . ...
ROW 30 : A-4 01 . ... ... : A#3 01 . ... ... : A-4 00 . ... : 0-# 04 A ... F96 : ... .. . ... : C-5 01 . ... ... : ... .. . ... : F-1 05 . ...
ROW 31 : ... .. . ... ... : ... .. . ... ... : ... .. . ... : ... .. . ... ... : ... .. . ... : ... .. . ... ... : ... .. . ... : ... .. . ...
ROW 32 : F-4 01 . ... ... : D-4 01 . ... ... : A#4 00 . ... : ... .. . ... ... : ... .. . ... : D-5 01 . ... ... : ... .. . ... : ... .. . ...
ROW 33 : ... .. . ... ... : ... .. . ... ... : ... .. . ... : ... .. . ... ... : ... .. . ... : ... .. . ... ... : ... .. . ... : ... .. . ...
ROW 34 : A#3 01 . ... ... : A-4 01 . ... ... : A-4 00 . ... : ... .. . ... ... : ... .. . ... : D-3 01 . ... ... : ... .. . ... : ... .. . ...
ROW 35 : ... .. . ... ... : ... .. . ... ... : ... .. . ... : 0-# 04 4 ... ... : ... .. . ... : ... .. . ... ... : ... .. . ... : === .. . ...
ROW 36 : D-4 01 . ... ... : A#4 01 . ... ... : A#4 00 . ... : ... .. . ... ... : ... .. . ... : F-3 01 . ... ... : ... .. . ... : ... .. . ...
ROW 37 : ... .. . ... ... : ... .. . ... ... : ... .. . ... : ... .. . ... ... : ... .. . ... : ... .. . ... ... : ... .. . ... : ... .. . ...
ROW 38 : A-4 01 . ... ... : A-4 01 . ... ... : A-4 00 . ... : 0-# 04 B ... F96 : ... .. . ... : D-4 01 . ... ... : ... .. . ... : E-1 05 . ...
ROW 39 : ... .. . ... ... : ... .. . ... ... : ... .. . ... : ... .. . ... ... : ... .. . ... : ... .. . ... ... : ... .. . ... : ... .. . ...
ROW 3A : A#4 01 . ... ... : F-4 01 . ... ... : ... .. . ... : ... .. . ... ... : ... .. . ... : A-4 01 . ... ... : ... .. . ... : ... .. . ...
ROW 3B : ... .. . ... ... : ... .. . ... ... : ... .. . ... : ... .. . ... ... : ... .. . ... : ... .. . ... ... : ... .. . ... : ... .. . ...
ROW 3C : A-4 01 . ... ... : A#3 01 . ... ... : --- 00 . ... : ... .. . ... ... : ... .. . ... : C-5 01 . ... ... : ... .. . ... : ... .. . ...
ROW 3D : ... .. . ... ... : ... .. . ... ... : ... .. . ... : 0-# 04 B ... ... : ... .. . ... : ... .. . ... ... : ... .. . ... : === .. . ...
ROW 3E : F-4 01 . ... ... : D-4 01 . ... ... : A-4 00 . ... : ... .. . ... ... : ... .. . ... : D-5 01 . ... ... : ... .. . ... : ... .. . ...
ROW 3F : ... .. . ... ... : ... .. . ... ... : ... .. . ... : ... .. . ... ... : ... .. . ... : ... .. . ... ... : ... .. . ... : ... .. . ...
ROW 40 : A#3 01 . ... ... : A-4 01 . ... ... : --- .. . ... : 0-# 04 B ... F96 : ... .. . ... : D-3 01 . ... ... : ... .. . ... : D-2 05 . ...
ROW 41 : ... .. . ... ... : ... .. . ... ... : ... .. . ... : ... .. . ... ... : ... .. . ... : ... .. . ... ... : ... .. . ... : ... .. . ...
ROW 42 : D-4 01 . ... ... : A#4 01 . ... ... : A#3 00 . ... : ... .. . ... ... : ... .. . ... : F-3 01 . ... ... : ... .. . ... : ... .. . ...
ROW 43 : ... .. . ... ... : ... .. . ... ... : ... .. . ... : ... .. . ... ... : ... .. . ... : ... .. . ... ... : ... .. . ... : ... .. . ...
ROW 44 : A-4 01 . ... ... : A-4 01 . ... ... : --- .. . ... : ... .. . ... ... : ... .. . ... : D-4 01 . ... ... : ... .. . ... : ... .. . ...
ROW 45 : ... .. . ... ... : ... .. . ... ... : ... .. . ... : ... .. . ... ... : ... .. . ... : ... .. . ... ... : ... .. . ... : === .. . ...
ROW 46 : A#4 01 . ... ... : F-4 01 . ... ... : A#3 00 . ... : ... .. . ... ... : ... .. . ... : A-4 01 . ... ... : ... .. . ... : ... .. . ...
ROW 47 : ... .. . ... ... : ... .. . ... ... : ... .. . ... : ... .. . ... ... : ... .. . ... : ... .. . ... ... : ... .. . ... : ... .. . ...
ROW 48 : A-4 01 . ... ... : A#3 01 . ... ... : --- .. . ... : 0-# 04 B ... F96 : ... .. . ... : C-5 01 . ... ... : ... .. . ... : G#1 05 . ...
ROW 49 : ... .. . ... ... : ... .. . ... ... : ... .. . ... : ... .. . ... ... : ... .. . ... : ... .. . ... ... : ... .. . ... : ... .. . ...
ROW 4A : F-4 01 . ... ... : D-4 01 . ... ... : A#3 00 . ... : 0-# 04 3 ... ... : ... .. . ... : D-5 01 . ... ... : ... .. . ... : ... .. . ...
ROW 4B : ... .. . ... ... : ... .. . ... ... : ... .. . ... : ... .. . ... ... : ... .. . ... : ... .. . ... ... : ... .. . ... : ... .. . ...
ROW 4C : A#3 01 . ... ... : A-4 01 . ... ... : --- .. . ... : ... .. . ... ... : ... .. . ... : D-3 01 . ... ... : ... .. . ... : ... .. . ...
ROW 4D : ... .. . ... ... : ... .. . ... ... : ... .. . ... : ... .. . ... ... : ... .. . ... : ... .. . ... ... : ... .. . ... : === .. . ...
ROW 4E : D-4 01 . ... ... : A#4 01 . ... ... : A#3 00 . ... : ... .. . ... ... : ... .. . ... : F-3 01 . ... ... : ... .. . ... : ... .. . ...
ROW 4F : ... .. . ... ... : ... .. . ... ... : ... .. . ... : ... .. . ... ... : ... .. . ... : ... .. . ... ... : ... .. . ... : ... .. . ...
ROW 50 : A-4 01 . ... ... : A-4 01 . ... ... : E-4 00 . ... : 0-# 04 C ... F96 : ... .. . ... : D-4 01 . ... ... : ... .. . ... : A-1 05 . ...
ROW 51 : ... .. . ... ... : ... .. . ... ... : ... .. . ... : ... .. . ... ... : ... .. . ... : ... .. . ... ... : ... .. . ... : ... .. . ...
ROW 52 : A#4 01 . ... ... : F-4 01 . ... ... : F-4 00 . ... : 0-# 04 2 ... ... : ... .. . ... : A-4 01 . ... ... : ... .. . ... : ... .. . ...
ROW 53 : ... .. . ... ... : ... .. . ... ... : ... .. . ... : ... .. . ... ... : ... .. . ... : ... .. . ... ... : ... .. . ... : ... .. . ...
ROW 54 : A-4 01 . ... ... : A#3 01 . ... ... : E-4 00 . ... : ... .. . ... ... : ... .. . ... : C-5 01 . ... ... : ... .. . ... : ... .. . ...
ROW 55 : ... .. . ... ... : ... .. . ... ... : ... .. . ... : 0-# 04 2 ... ... : ... .. . ... : ... .. . ... ... : ... .. . ... : ... .. . ...
ROW 56 : F-4 01 . ... ... : D-4 01 . ... ... : D-4 00 . ... : ... .. . ... ... : ... .. . ... : D-5 01 . ... ... : ... .. . ... : ... .. . ...
ROW 57 : ... .. . ... ... : ... .. . ... ... : ... .. . ... : ... .. . ... ... : ... .. . ... : ... .. . ... ... : ... .. . ... : ... .. . ...
ROW 58 : A#3 01 . ... ... : A-4 01 . ... ... : A#3 00 . ... : 0-# 04 C ... F96 : ... .. . ... : D-3 01 . ... ... : ... .. . ... : F-2 05 . ...
ROW 59 : ... .. . ... ... : ... .. . ... ... : ... .. . ... : ... .. . ... ... : ... .. . ... : ... .. . ... ... : ... .. . ... : ... .. . ...
ROW 5A : D-4 01 . ... ... : A#4 01 . ... ... : ... .. . ... : ... .. . ... ... : ... .. . ... : F-3 01 . ... ... : ... .. . ... : ... .. . ...
ROW 5B : ... .. . ... ... : ... .. . ... ... : ... .. . ... : ... .. . ... ... : ... .. . ... : ... .. . ... ... : ... .. . ... : ... .. . ...
ROW 5C : A-4 01 . ... ... : A-4 01 . ... ... : --- 00 . ... : ... .. . ... ... : ... .. . ... : D-4 01 . ... ... : ... .. . ... : ... .. . ...
ROW 5D : ... .. . ... ... : ... .. . ... ... : ... .. . ... : ... .. . ... ... : ... .. . ... : ... .. . ... ... : ... .. . ... : ... .. . ...
ROW 5E : A#4 01 . ... ... : F-4 01 . ... ... : A#3 00 . ... : ... .. . ... ... : ... .. . ... : A-4 01 . ... ... : ... .. . ... : ... .. . ...
ROW 5F : ... .. . ... ... : ... .. . ... ... : ... .. . ... : ... .. . ... ... : ... .. . ... : ... .. . ... ... : ... .. . ... : ... .. . ...
ROW 60 : ... .. . ... ... : ... .. . ... ... : ... .. . ... : 0-# 04 D ... F96 : ... .. . ... : ... .. . ... ... : ... .. . ... : ... .. . ...
ROW 61 : ... .. . ... ... : ... .. . ... ... : ... .. . ... : ... .. . ... ... : ... .. . ... : ... .. . ... ... : ... .. . ... : ... .. . ...
ROW 62 : ... .. . ... ... : ... .. . ... ... : ... .. . ... : ... .. . ... ... : ... .. . ... : ... .. . ... ... : ... .. . ... : ... .. . ...
ROW 63 : ... .. . ... ... : ... .. . ... ... : ... .. . ... : ... .. . ... ... : ... .. . ... : ... .. . ... ... : ... .. . ... : ... .. . ...
ROW 64 : ... .. . ... ... : ... .. . ... ... : ... .. . ... : ... .. . ... ... : ... .. . ... : ... .. . ... ... : ... .. . ... : ... .. . ...
ROW 65 : ... .. . ... ... : ... .. . ... ... : ... .. . ... : ... .. . ... ... : ... .. . ... : ... .. . ... ... : ... .. . ... : ... .. . ...
ROW 66 : ... .. . ... ... : ... .. . ... ... : ... .. . ... : ... .. . ... ... : ... .. . ... : ... .. . ... ... : ... .. . ... : ... .. . ...
ROW 67 : ... .. . ... ... : ... .. . ... ... : ... .. . ... : ... .. . ... ... : ... .. . ... : ... .. . ... ... : ... .. . ... : ... .. . ...
ROW 68 : ... .. . ... ... : ... .. . ... ... : ... .. . ... : 0-# 04 D ... F96 : ... .. . ... : ... .. . ... ... : ... .. . ... : ... .. . ...
ROW 69 : ... .. . ... ... : ... .. . ... ... : ... .. . ... : ... .. . ... ... : ... .. . ... : ... .. . ... ... : ... .. . ... : ... .. . ...
ROW 6A : ... .. . ... ... : ... .. . ... ... : ... .. . ... : 0-# 04 1 ... ... : ... .. . ... : ... .. . ... ... : ... .. . ... : ... .. . ...
ROW 6B : ... .. . ... ... : ... .. . ... ... : ... .. . ... : ... .. . ... ... : ... .. . ... : ... .. . ... ... : ... .. . ... : ... .. . ...
ROW 6C : ... .. . ... ... : ... .. . ... ... : ... .. . ... : ... .. . ... ... : ... .. . ... : ... .. . ... ... : ... .. . ... : ... .. . ...
ROW 6D : ... .. . ... ... : ... .. . ... ... : ... .. . ... : ... .. . ... ... : ... .. . ... : ... .. . ... ... : ... .. . ... : ... .. . ...
ROW 6E : ... .. . ... ... : ... .. . ... ... : ... .. . ... : ... .. . ... ... : ... .. . ... : ... .. . ... ... : ... .. . ... : ... .. . ...
ROW 6F : ... .. . ... ... : ... .. . ... ... : ... .. . ... : ... .. . ... ... : ... .. . ... : ... .. . ... ... : ... .. . ... : ... .. . ...
ROW 70 : ... .. . ... ... : ... .. . ... ... : ... .. . ... : 0-# 04 E ... F96 : ... .. . ... : ... .. . ... ... : ... .. . ... : ... .. . ...
ROW 71 : ... .. . ... ... : ... .. . ... ... : ... .. . ... : ... .. . ... ... : ... .. . ... : ... .. . ... ... : ... .. . ... : ... .. . ...
ROW 72 : ... .. . ... ... : ... .. . ... ... : ... .. . ... : ... .. . ... ... : ... .. . ... : ... .. . ... ... : ... .. . ... : ... .. . ...
ROW 73 : ... .. . ... ... : ... .. . ... ... : ... .. . ... : ... .. . ... ... : ... .. . ... : ... .. . ... ... : ... .. . ... : ... .. . ...
ROW 74 : ... .. . ... ... : ... .. . ... ... : ... .. . ... : ... .. . ... ... : ... .. . ... : ... .. . ... ... : ... .. . ... : ... .. . ...
ROW 75 : ... .. . ... ... : ... .. . ... ... : ... .. . ... : 0-# 04 0 ... ... : C-0 00 . G01 : ... .. . ... ... : ... .. . ... : ... .. . ...
ROW 76 : ... .. . ... ... : ... .. . ... ... : ... .. . ... : ... .. . ... ... : ... .. . ... : ... .. . ... ... : ... .. . ... : ... .. . ...
ROW 77 : ... .. . ... ... : ... .. . ... ... : ... .. . ... : ... .. . ... ... : --- .. . ... : ... .. . ... ... : ... .. . ... : ... .. . ...
ROW 78 : ... .. . ... ... : ... .. . ... ... : ... .. . ... : 0-# 03 F ... F96 : ... .. . ... : ... .. . ... ... : ... .. . ... : ... .. . ...
ROW 79 : ... .. . ... ... : ... .. . ... ... : ... .. . ... : ... .. . ... ... : ... .. . ... : ... .. . ... ... : ... .. . ... : ... .. . ...
ROW 7A : ... .. . ... ... : ... .. . ... ... : ... .. . ... : ... .. . ... ... : C#0 00 . G02 : ... .. . ... ... : ... .. . ... : ... .. . ...
ROW 7B : ... .. . ... ... : ... .. . ... ... : ... .. . ... : ... .. . ... ... : ... .. . ... : ... .. . ... ... : ... .. . ... : ... .. . ...
ROW 7C : ... .. . ... ... : ... .. . ... ... : ... .. . ... : ... .. . ... ... : ... .. . ... : ... .. . ... ... : ... .. . ... : ... .. . ...
ROW 7D : ... .. . ... ... : ... .. . ... ... : ... .. . ... : 0-# 03 F ... ... : C#0 00 . G01 : ... .. . ... ... : ... .. . ... : ... .. . ...
ROW 7E : ... .. . ... ... : ... .. . ... ... : ... .. . ... : ... .. . ... ... : ... .. . ... : ... .. . ... ... : ... .. . ... : ... .. . ...
ROW 7F : ... .. . ... ... : ... .. . ... ... : ... .. . ... : ... .. . ... ... : ... .. . ... : ... .. . ... ... : ... .. . ... : ... .. . ...
PATTERN 09
ROW 00 : A-3 01 4 V02 P7F : D-2 01 8 ... ... : C-4 00 . 400 : 0-# 02 F ... F96 : C-0 00 . ... : C-5 01 . ... ... : ... .. . ... : A#0 05 . ...
ROW 01 : ... .. . ... ... : ... .. . ... ... : D-4 00 . ... : ... .. . ... ... : ... .. . ... : ... .. . ... ... : ... .. . ... : ... .. . ...
ROW 02 : F-3 01 . ... ... : F-2 01 . ... ... : ... .. . ... : ... .. . ... ... : --- .. . ... : D-5 01 . ... ... : ... .. . ... : ... .. . ...
ROW 03 : ... .. . ... ... : ... .. . ... ... : ... .. . ... : ... .. . ... ... : ... .. . ... : ... .. . ... ... : ... .. . ... : ... .. . ...
ROW 04 : D-2 01 . ... ... : D-3 01 . ... ... : ... .. . ... : ... .. . ... ... : ... .. . ... : A#3 01 . ... ... : ... .. . ... : ... .. . ...
ROW 05 : ... .. . ... ... : ... .. . ... ... : ... .. . ... : ... .. . ... ... : ... .. . ... : ... .. . ... ... : ... .. . ... : === .. . ...
ROW 06 : F-2 01 . ... ... : A-3 01 . ... ... : ... .. . ... : ... .. . ... ... : ... .. . ... : D-4 01 . ... ... : ... .. . ... : ... .. . ...
ROW 07 : ... .. . ... ... : ... .. . ... ... : ... .. . ... : ... .. . ... ... : ... .. . ... : ... .. . ... ... : ... .. . ... : ... .. . ...
ROW 08 : D-3 01 . ... ... : C-4 01 . ... ... : ... .. . 483 : 0-# 04 . ... F96 : ... .. . ... : A-4 01 . ... ... : ... .. . ... : D-1 05 . ...
ROW 09 : ... .. . ... ... : ... .. . ... ... : ... .. . ... : ... .. . ... ... : ... .. . ... : ... .. . ... ... : ... .. . ... : ... .. . ...
ROW 0A : A-3 01 . ... ... : D-4 01 . ... ... : ... .. . ... : ... .. . ... ... : ... .. . ... : A#4 01 . ... ... : ... .. . ... : ... .. . ...
ROW 0B : ... .. . ... ... : ... .. . ... ... : ... .. . ... : ... .. . ... ... : ... .. . ... : ... .. . ... ... : ... .. . ... : ... .. . ...
ROW 0C : C-4 01 . ... ... : D-2 01 . ... ... : ... .. . ... : ... .. . ... ... : ... .. . ... : A-4 01 . ... ... : ... .. . ... : ... .. . ...
ROW 0D : ... .. . ... ... : ... .. . ... ... : ... .. . ... : ... .. . ... ... : ... .. . ... : ... .. . ... ... : ... .. . ... : === .. . ...
ROW 0E : D-4 01 . ... ... : F-2 01 . ... ... : ... .. . ... : ... .. . ... ... : ... .. . ... : F-4 01 . ... ... : ... .. . ... : ... .. . ...
ROW 0F : ... .. . ... ... : ... .. . ... ... : ... .. . ... : ... .. . ... ... : ... .. . ... : ... .. . ... ... : ... .. . ... : ... .. . ...
ROW 10 : D-2 01 . ... ... : D-3 01 . ... ... : ... .. . ... : 0-# 04 . ... F96 : ... .. . ... : A#3 01 . ... ... : ... .. . ... : F-1 05 . ...
ROW 11 : ... .. . ... ... : ... .. . ... ... : ... .. . ... : ... .. . ... ... : ... .. . ... : ... .. . ... ... : ... .. . ... : ... .. . ...
ROW 12 : F-2 01 . ... ... : A-3 01 . ... ... : ... .. . ... : ... .. . ... ... : ... .. . ... : D-4 01 . ... ... : ... .. . ... : ... .. . ...
ROW 13 : ... .. . ... ... : ... .. . ... ... : ... .. . ... : ... .. . ... ... : ... .. . ... : ... .. . ... ... : ... .. . ... : ... .. . ...
ROW 14 : D-3 01 . ... ... : C-4 01 . ... ... : ... .. . ... : ... .. . ... ... : ... .. . ... : A-4 01 . ... ... : ... .. . ... : ... .. . ...
ROW 15 : ... .. . ... ... : ... .. . ... ... : ... .. . ... : ... .. . ... ... : ... .. . ... : ... .. . ... ... : ... .. . ... : ... .. . ...
ROW 16 : A-3 01 . ... ... : D-4 01 . ... ... : ... .. . ... : ... .. . ... ... : ... .. . ... : A#4 01 . ... ... : ... .. . ... : ... .. . ...
ROW 17 : ... .. . ... ... : ... .. . ... ... : ... .. . ... : ... .. . ... ... : ... .. . ... : ... .. . ... ... : ... .. . ... : ... .. . ...
ROW 18 : C-4 01 . ... ... : D-2 01 . ... ... : ... .. . ... : 0-# 04 . ... F96 : ... .. . ... : A-4 01 . ... ... : ... .. . ... : A-1 05 . ...
ROW 19 : ... .. . ... ... : ... .. . ... ... : ... .. . ... : ... .. . ... ... : ... .. . ... : ... .. . ... ... : ... .. . ... : ... .. . ...
ROW 1A : D-4 01 . ... ... : F-2 01 . ... ... : ... .. . ... : ... .. . ... ... : ... .. . ... : F-4 01 . ... ... : ... .. . ... : ... .. . ...
ROW 1B : ... .. . ... ... : ... .. . ... ... : ... .. . ... : ... .. . ... ... : ... .. . ... : ... .. . ... ... : ... .. . ... : ... .. . ...
ROW 1C : D-2 01 . ... ... : D-3 01 . ... ... : ... .. . ... : ... .. . ... ... : ... .. . ... : A#3 01 . ... ... : ... .. . ... : ... .. . ...
ROW 1D : ... .. . ... ... : ... .. . ... ... : ... .. . ... : ... .. . ... ... : ... .. . ... : ... .. . ... ... : ... .. . ... : ... .. . ...
ROW 1E : F-2 01 . ... ... : A-3 01 . ... ... : ... .. . ... : ... .. . ... ... : ... .. . ... : D-4 01 . ... ... : ... .. . ... : ... .. . ...
ROW 1F : ... .. . ... ... : ... .. . ... ... : ... .. . ... : ... .. . ... ... : ... .. . ... : ... .. . ... ... : ... .. . ... : ... .. . ...
ROW 20 : D-3 01 . ... ... : C-4 01 . ... ... : ... .. . ... : 0-# 04 . ... F96 : ... .. . ... : A-4 01 . ... ... : ... .. . ... : A#1 05 . ...
ROW 21 : ... .. . ... ... : ... .. . ... ... : ... .. . ... : ... .. . ... ... : ... .. . ... : ... .. . ... ... : ... .. . ... : ... .. . ...
ROW 22 : A-3 01 . ... ... : D-4 01 . ... ... : ... .. . ... : ... .. . ... ... : ... .. . ... : A#4 01 . ... ... : ... .. . ... : ... .. . ...
ROW 23 : ... .. . ... ... : ... .. . ... ... : ... .. . ... : ... .. . ... ... : ... .. . ... : ... .. . ... ... : ... .. . ... : ... .. . ...
ROW 24 : C-4 01 . ... ... : D-2 01 . ... ... : ... .. . ... : ... .. . ... ... : ... .. . ... : A-4 01 . ... ... : ... .. . ... : ... .. . ...
ROW 25 : ... .. . ... ... : ... .. . ... ... : ... .. . ... : ... .. . ... ... : ... .. . ... : ... .. . ... ... : ... .. . ... : ... .. . ...
ROW 26 : D-4 01 . ... ... : F-2 01 . ... ... : ... .. . ... : ... .. . ... ... : ... .. . ... : F-4 01 . ... ... : ... .. . ... : ... .. . ...
ROW 27 : ... .. . ... ... : ... .. . ... ... : ... .. . ... : ... .. . ... ... : ... .. . ... : ... .. . ... ... : ... .. . ... : ... .. . ...
ROW 28 : D-2 01 . ... ... : D-3 01 . ... ... : ... .. . ... : 0-# 04 . ... F96 : ... .. . ... : A#3 01 . ... ... : ... .. . ... : A-1 05 . ...
ROW 29 : ... .. . ... ... : ... .. . ... ... : ... .. . ... : ... .. . ... ... : ... .. . ... : ... .. . ... ... : ... .. . ... : ... .. . ...
ROW 2A : F-2 01 . ... ... : A-3 01 . ... ... : ... .. . ... : ... .. . ... ... : ... .. . ... : D-4 01 . ... ... : ... .. . ... : ... .. . ...
ROW 2B : ... .. . ... ... : ... .. . ... ... : ... .. . ... : ... .. . ... ... : ... .. . ... : ... .. . ... ... : ... .. . ... : ... .. . ...
ROW 2C : D-3 01 . ... ... : C-4 01 . ... ... : ... .. . ... : ... .. . ... ... : ... .. . ... : A-4 01 . ... ... : ... .. . ... : ... .. . ...
ROW 2D : ... .. . ... ... : ... .. . ... ... : ... .. . ... : ... .. . ... ... : ... .. . ... : ... .. . ... ... : ... .. . ... : === .. . ...
ROW 2E : A-3 01 . ... ... : D-4 01 . ... ... : ... .. . ... : ... .. . ... ... : ... .. . ... : A#4 01 . ... ... : ... .. . ... : ... .. . ...
ROW 2F : ... .. . ... ... : ... .. . ... ... : ... .. . ... : ... .. . ... ... : ... .. . ... : ... .. . ... ... : ... .. . ... : ... .. . ...
ROW 30 : C-4 01 . ... ... : D-2 01 . ... ... : ... .. . ... : 0-# 04 . ... F96 : ... .. . ... : A-4 01 . ... ... : ... .. . ... : F-1 05 . ...
ROW 31 : ... .. . ... ... : ... .. . ... ... : ... .. . ... : ... .. . ... ... : ... .. . ... : ... .. . ... ... : ... .. . ... : ... .. . ...
ROW 32 : D-4 01 . ... ... : F-2 01 . ... ... : ... .. . ... : ... .. . ... ... : ... .. . ... : F-4 01 . ... ... : ... .. . ... : ... .. . ...
ROW 33 : ... .. . ... ... : ... .. . ... ... : ... .. . ... : ... .. . ... ... : ... .. . ... : ... .. . ... ... : ... .. . ... : ... .. . ...
ROW 34 : D-2 01 . ... ... : D-3 01 . ... ... : ... .. . ... : ... .. . ... ... : ... .. . ... : A#3 01 . ... ... : ... .. . ... : ... .. . ...
ROW 35 : ... .. . ... ... : ... .. . ... ... : ... .. . ... : ... .. . ... ... : ... .. . ... : ... .. . ... ... : ... .. . ... : === .. . ...
ROW 36 : F-2 01 . ... ... : A-3 01 . ... ... : ... .. . ... : ... .. . ... ... : ... .. . ... : D-4 01 . ... ... : ... .. . ... : ... .. . ...
ROW 37 : ... .. . ... ... : ... .. . ... ... : ... .. . ... : ... .. . ... ... : ... .. . ... : ... .. . ... ... : ... .. . ... : ... .. . ...
ROW 38 : D-3 01 . ... ... : C-4 01 . ... ... : ... .. . ... : 0-# 04 . ... F96 : ... .. . ... : A-4 01 . ... ... : ... .. . ... : D-1 05 . ...
ROW 39 : ... .. . ... ... : ... .. . ... ... : ... .. . ... : ... .. . ... ... : ... .. . ... : ... .. . ... ... : ... .. . ... : ... .. . ...
ROW 3A : A-3 01 . ... ... : D-4 01 . ... ... : ... .. . ... : ... .. . ... ... : ... .. . ... : A#4 01 . ... ... : ... .. . ... : ... .. . ...
ROW 3B : ... .. . ... ... : ... .. . ... ... : ... .. . ... : ... .. . ... ... : ... .. . ... : ... .. . ... ... : ... .. . ... : ... .. . ...
ROW 3C : C-4 01 . ... ... : D-2 01 . ... ... : ... .. . ... : ... .. . ... ... : ... .. . ... : A-4 01 . ... ... : ... .. . ... : ... .. . ...
ROW 3D : ... .. . ... ... : ... .. . ... ... : ... .. . ... : 0-# 04 . ... ... : ... .. . ... : ... .. . ... ... : ... .. . ... : === .. . ...
ROW 3E : D-4 01 . ... ... : F-2 01 . ... ... : ... .. . ... : ... .. . ... ... : ... .. . ... : F-4 01 . ... ... : ... .. . ... : ... .. . ...
ROW 3F : ... .. . ... ... : ... .. . ... ... : ... .. . ... : ... .. . ... ... : ... .. . ... : ... .. . ... ... : ... .. . ... : ... .. . ...
ROW 40 : D-2 01 . ... ... : D-3 01 . ... ... : ... .. . ... : 0-# 04 . ... F96 : ... .. . ... : A#3 01 . ... ... : ... .. . ... : A#0 05 . ...
ROW 41 : ... .. . ... ... : ... .. . ... ... : ... .. . ... : ... .. . ... ... : ... .. . ... : ... .. . ... ... : ... .. . ... : ... .. . ...
ROW 42 : F-2 01 . ... ... : A-3 01 . ... ... : ... .. . ... : ... .. . ... ... : ... .. . ... : D-4 01 . ... ... : ... .. . ... : ... .. . ...
ROW 43 : ... .. . ... ... : ... .. . ... ... : ... .. . ... : ... .. . ... ... : ... .. . ... : ... .. . ... ... : ... .. . ... : ... .. . ...
ROW 44 : D-3 01 . ... ... : C-4 01 . ... ... : ... .. . ... : ... .. . ... ... : ... .. . ... : A-4 01 . ... ... : ... .. . ... : ... .. . ...
ROW 45 : ... .. . ... ... : ... .. . ... ... : ... .. . ... : ... .. . ... ... : ... .. . ... : ... .. . ... ... : ... .. . ... : === .. . ...
ROW 46 : A-3 01 . ... ... : D-4 01 . ... ... : ... .. . ... : ... .. . ... ... : ... .. . ... : A#4 01 . ... ... : ... .. . ... : ... .. . ...
ROW 47 : ... .. . ... ... : ... .. . ... ... : ... .. . ... : ... .. . ... ... : ... .. . ... : ... .. . ... ... : ... .. . ... : ... .. . ...
ROW 48 : C-4 01 . ... ... : D-2 01 . ... ... : ... .. . ... : 0-# 04 . ... F96 : ... .. . ... : A-4 01 . ... ... : ... .. . ... : A#1 05 . ...
ROW 49 : ... .. . ... ... : ... .. . ... ... : ... .. . ... : ... .. . ... ... : ... .. . ... : ... .. . ... ... : ... .. . ... : ... .. . ...
ROW 4A : D-4 01 . ... ... : F-2 01 . ... ... : ... .. . ... : ... .. . ... ... : ... .. . ... : F-4 01 . ... ... : ... .. . ... : ... .. . ...
ROW 4B : ... .. . ... ... : ... .. . ... ... : ... .. . ... : ... .. . ... ... : ... .. . ... : ... .. . ... ... : ... .. . ... : ... .. . ...
ROW 4C : D-2 01 . ... ... : D-3 01 . ... ... : ... .. . ... : ... .. . ... ... : ... .. . ... : A#3 01 . ... ... : ... .. . ... : ... .. . ...
ROW 4D : ... .. . ... ... : ... .. . ... ... : ... .. . ... : ... .. . ... ... : ... .. . ... : ... .. . ... ... : ... .. . ... : === .. . ...
ROW 4E : F-2 01 . ... ... : A-3 01 . ... ... : ... .. . ... : ... .. . ... ... : ... .. . ... : D-4 01 . ... ... : ... .. . ... : ... .. . ...
ROW 4F : ... .. . ... ... : ... .. . ... ... : ... .. . ... : ... .. . ... ... : ... .. . ... : ... .. . ... ... : ... .. . ... : ... .. . ...
ROW 50 : D-3 01 . ... ... : C-4 01 . ... ... : ... .. . ... : 0-# 04 . ... F96 : ... .. . ... : A-4 01 . ... ... : ... .. . ... : A-1 05 . ...
ROW 51 : ... .. . ... ... : ... .. . ... ... : ... .. . ... : ... .. . ... ... : ... .. . ... : ... .. . ... ... : ... .. . ... : ... .. . ...
ROW 52 : A-3 01 . ... ... : D-4 01 . ... ... : ... .. . ... : ... .. . ... ... : ... .. . ... : A#4 01 . ... ... : ... .. . ... : ... .. . ...
ROW 53 : ... .. . ... ... : ... .. . ... ... : ... .. . ... : ... .. . ... ... : ... .. . ... : ... .. . ... ... : ... .. . ... : ... .. . ...
ROW 54 : C-4 01 . ... ... : D-2 01 . ... ... : ... .. . ... : ... .. . ... ... : ... .. . ... : A-4 01 . ... ... : ... .. . ... : ... .. . ...
ROW 55 : ... .. . ... ... : ... .. . ... ... : ... .. . ... : ... .. . ... ... : ... .. . ... : ... .. . ... ... : ... .. . ... : ... .. . ...
ROW 56 : D-4 01 . ... ... : F-2 01 . ... ... : ... .. . ... : ... .. . ... ... : ... .. . ... : F-4 01 . ... ... : ... .. . ... : ... .. . ...
ROW 57 : ... .. . ... ... : ... .. . ... ... : ... .. . ... : ... .. . ... ... : ... .. . ... : ... .. . ... ... : ... .. . ... : ... .. . ...
ROW 58 : D-2 01 . ... ... : D-3 01 . ... ... : ... .. . ... : 0-# 04 . ... F96 : ... .. . ... : A#3 01 . ... ... : ... .. . ... : C#2 05 . ...
ROW 59 : ... .. . ... ... : ... .. . ... ... : ... .. . ... : ... .. . ... ... : ... .. . ... : ... .. . ... ... : ... .. . ... : ... .. . ...
ROW 5A : F-2 01 . ... ... : A-3 01 . ... ... : ... .. . ... : ... .. . ... ... : C#0 00 . ... : D-4 01 . ... ... : ... .. . ... : ... .. . ...
ROW 5B : ... .. . ... ... : ... .. . ... ... : ... .. . ... : ... .. . ... ... : ... .. . ... : ... .. . ... ... : ... .. . ... : ... .. . ...
ROW 5C : D-3 01 . ... ... : C-4 01 . ... ... : ... .. . ... : ... .. . ... ... : --- .. . ... : A-4 01 . ... ... : ... .. . ... : ... .. . ...
ROW 5D : ... .. . ... ... : ... .. . ... ... : ... .. . ... : ... .. . ... ... : ... .. . ... : ... .. . ... ... : ... .. . ... : ... .. . ...
ROW 5E : A-3 01 . ... ... : D-4 01 . ... ... : ... .. . ... : ... .. . ... ... : C#0 00 . ... : A#4 01 . ... ... : ... .. . ... : ... .. . ...
ROW 5F : ... .. . ... ... : ... .. . ... ... : ... .. . ... : ... .. . ... ... : ... .. . D00 : ... .. . ... ... : ... .. . ... : ... .. . ...
ROW 60 : ... .. . ... ... : ... .. . ... ... : ... .. . ... : 0-# 04 . ... F96 : ... .. . ... : ... .. . ... ... : ... .. . ... : ... .. . ...
ROW 61 : ... .. . ... ... : ... .. . ... ... : ... .. . ... : ... .. . ... ... : ... .. . ... : ... .. . ... ... : ... .. . ... : ... .. . ...
ROW 62 : ... .. . ... ... : ... .. . ... ... : ... .. . ... : ... .. . ... ... : ... .. . ... : ... .. . ... ... : ... .. . ... : ... .. . ...
ROW 63 : ... .. . ... ... : ... .. . ... ... : ... .. . ... : ... .. . ... ... : ... .. . ... : ... .. . ... ... : ... .. . ... : ... .. . ...
ROW 64 : ... .. . ... ... : ... .. . ... ... : ... .. . ... : ... .. . ... ... : ... .. . ... : ... .. . ... ... : ... .. . ... : ... .. . ...
ROW 65 : ... .. . ... ... : ... .. . ... ... : ... .. . ... : ... .. . ... ... : ... .. . ... : ... .. . ... ... : ... .. . ... : ... .. . ...
ROW 66 : ... .. . ... ... : ... .. . ... ... : ... .. . ... : ... .. . ... ... : ... .. . ... : ... .. . ... ... : ... .. . ... : ... .. . ...
ROW 67 : ... .. . ... ... : ... .. . ... ... : ... .. . ... : ... .. . ... ... : ... .. . ... : ... .. . ... ... : ... .. . ... : ... .. . ...
ROW 68 : ... .. . ... ... : ... .. . ... ... : ... .. . ... : 0-# 04 . ... F96 : ... .. . ... : ... .. . ... ... : ... .. . ... : ... .. . ...
ROW 69 : ... .. . ... ... : ... .. . ... ... : ... .. . ... : ... .. . ... ... : ... .. . ... : ... .. . ... ... : ... .. . ... : ... .. . ...
ROW 6A : ... .. . ... ... : ... .. . ... ... : ... .. . ... : ... .. . ... ... : ... .. . ... : ... .. . ... ... : ... .. . ... : ... .. . ...
ROW 6B : ... .. . ... ... : ... .. . ... ... : ... .. . ... : ... .. . ... ... : ... .. . ... : ... .. . ... ... : ... .. . ... : ... .. . ...
ROW 6C : ... .. . ... ... : ... .. . ... ... : ... .. . ... : ... .. . ... ... : ... .. . ... : ... .. . ... ... : ... .. . ... : ... .. . ...
ROW 6D : ... .. . ... ... : ... .. . ... ... : ... .. . ... : ... .. . ... ... : ... .. . ... : ... .. . ... ... : ... .. . ... : ... .. . ...
ROW 6E : ... .. . ... ... : ... .. . ... ... : ... .. . ... : ... .. . ... ... : ... .. . ... : ... .. . ... ... : ... .. . ... : ... .. . ...
ROW 6F : ... .. . ... ... : ... .. . ... ... : ... .. . ... : ... .. . ... ... : ... .. . ... : ... .. . ... ... : ... .. . ... : ... .. . ...
ROW 70 : ... .. . ... ... : ... .. . ... ... : ... .. . ... : 0-# 04 . ... F96 : ... .. . ... : ... .. . ... ... : ... .. . ... : ... .. . ...
ROW 71 : ... .. . ... ... : ... .. . ... ... : ... .. . ... : ... .. . ... ... : ... .. . ... : ... .. . ... ... : ... .. . ... : ... .. . ...
ROW 72 : ... .. . ... ... : ... .. . ... ... : ... .. . ... : ... .. . ... ... : ... .. . ... : ... .. . ... ... : ... .. . ... : ... .. . ...
ROW 73 : ... .. . ... ... : ... .. . ... ... : ... .. . ... : ... .. . ... ... : ... .. . ... : ... .. . ... ... : ... .. . ... : ... .. . ...
ROW 74 : ... .. . ... ... : ... .. . ... ... : ... .. . ... : ... .. . ... ... : ... .. . ... : ... .. . ... ... : ... .. . ... : ... .. . ...
ROW 75 : ... .. . ... ... : ... .. . ... ... : ... .. . ... : ... .. . ... ... : ... .. . ... : ... .. . ... ... : ... .. . ... : ... .. . ...
ROW 76 : ... .. . ... ... : ... .. . ... ... : ... .. . ... : ... .. . ... ... : ... .. . ... : ... .. . ... ... : ... .. . ... : ... .. . ...
ROW 77 : ... .. . ... ... : ... .. . ... ... : ... .. . ... : ... .. . ... ... : ... .. . ... : ... .. . ... ... : ... .. . ... : ... .. . ...
ROW 78 : ... .. . ... ... : ... .. . ... ... : ... .. . ... : 0-# 03 . ... F96 : ... .. . ... : ... .. . ... ... : ... .. . ... : ... .. . ...
ROW 79 : ... .. . ... ... : ... .. . ... ... : ... .. . ... : ... .. . ... ... : ... .. . ... : ... .. . ... ... : ... .. . ... : ... .. . ...
ROW 7A : ... .. . ... ... : ... .. . ... ... : ... .. . ... : ... .. . ... ... : ... .. . ... : ... .. . ... ... : ... .. . ... : ... .. . ...
ROW 7B : ... .. . ... ... : ... .. . ... ... : ... .. . ... : ... .. . ... ... : ... .. . ... : ... .. . ... ... : ... .. . ... : ... .. . ...
ROW 7C : ... .. . ... ... : ... .. . ... ... : ... .. . ... : ... .. . ... ... : ... .. . ... : ... .. . ... ... : ... .. . ... : ... .. . ...
ROW 7D : ... .. . ... ... : ... .. . ... ... : ... .. . ... : 0-# 03 . ... ... : ... .. . ... : ... .. . ... ... : ... .. . ... : ... .. . ...
ROW 7E : ... .. . ... ... : ... .. . ... ... : ... .. . ... : ... .. . ... ... : ... .. . ... : ... .. . ... ... : ... .. . ... : ... .. . ...
ROW 7F : ... .. . ... ... : ... .. . ... ... : ... .. . ... : ... .. . ... ... : ... .. . ... : ... .. . ... ... : ... .. . ... : ... .. . ...
PATTERN 0A
ROW 00 : C-4 01 4 V02 P7F : A#2 01 . ... ... : A-3 00 . 400 : 0-# 02 . ... F96 : C-0 00 . ... : A-4 01 4 V07 P7F : ... .. . ... : A#0 05 F ...
ROW 01 : ... .. . ... ... : ... .. . ... ... : A#3 00 . ... : ... .. . ... ... : ... .. . ... : ... .. . ... ... : ... .. . ... : ... .. . ...
ROW 02 : D-4 01 . ... ... : D-3 01 . ... ... : ... .. . ... : ... .. . ... ... : --- .. . ... : F-4 01 . ... ... : ... .. . ... : ... .. . ...
ROW 03 : ... .. . ... ... : ... .. . ... ... : ... .. . ... : ... .. . ... ... : ... .. . ... : ... .. . ... ... : ... .. . ... : ... .. . ...
ROW 04 : A#2 01 . ... ... : A-3 01 . ... ... : ... .. . ... : ... .. . ... ... : ... .. . ... : D-3 01 . ... ... : ... .. . ... : ... .. . ...
ROW 05 : ... .. . ... ... : ... .. . ... ... : ... .. . ... : ... .. . ... ... : ... .. . ... : ... .. . ... ... : ... .. . ... : === .. . ...
ROW 06 : D-3 01 . ... ... : A#3 01 . ... ... : ... .. . ... : ... .. . ... ... : ... .. . ... : F-3 01 . ... ... : ... .. . ... : ... .. . ...
ROW 07 : ... .. . ... ... : ... .. . ... ... : ... .. . ... : ... .. . ... ... : ... .. . ... : ... .. . ... ... : ... .. . ... : ... .. . ...
ROW 08 : A-3 01 . ... ... : A-3 01 . ... ... : ... .. . 483 : 0-# 04 . ... F96 : ... .. . ... : D-4 01 . ... ... : ... .. . ... : D-1 05 . ...
ROW 09 : ... .. . ... ... : ... .. . ... ... : ... .. . ... : ... .. . ... ... : ... .. . ... : ... .. . ... ... : ... .. . ... : ... .. . ...
ROW 0A : A#3 01 . ... ... : F-3 01 . ... ... : ... .. . ... : ... .. . ... ... : ... .. . ... : A-4 01 . ... ... : ... .. . ... : ... .. . ...
ROW 0B : ... .. . ... ... : ... .. . ... ... : ... .. . ... : ... .. . ... ... : ... .. . ... : ... .. . ... ... : ... .. . ... : ... .. . ...
ROW 0C : A-3 01 . ... ... : A#2 01 . ... ... : ... .. . ... : ... .. . ... ... : ... .. . ... : C-5 01 . ... ... : ... .. . ... : ... .. . ...
ROW 0D : ... .. . ... ... : ... .. . ... ... : ... .. . ... : ... .. . ... ... : ... .. . ... : ... .. . ... ... : ... .. . ... : === .. . ...
ROW 0E : F-3 01 . ... ... : D-3 01 . ... ... : ... .. . ... : ... .. . ... ... : ... .. . ... : D-5 01 . ... ... : ... .. . ... : ... .. . ...
ROW 0F : ... .. . ... ... : ... .. . ... ... : ... .. . ... : ... .. . ... ... : ... .. . ... : ... .. . ... ... : ... .. . ... : ... .. . ...
ROW 10 : A#2 01 . ... ... : A-3 01 . ... ... : ... .. . ... : 0-# 04 . ... F96 : ... .. . ... : D-3 01 . ... ... : ... .. . ... : F-1 05 . ...
ROW 11 : ... .. . ... ... : ... .. . ... ... : ... .. . ... : ... .. . ... ... : ... .. . ... : ... .. . ... ... : ... .. . ... : ... .. . ...
ROW 12 : D-3 01 . ... ... : A#3 01 . ... ... : ... .. . ... : ... .. . ... ... : ... .. . ... : F-3 01 . ... ... : ... .. . ... : ... .. . ...
ROW 13 : ... .. . ... ... : ... .. . ... ... : ... .. . ... : ... .. . ... ... : ... .. . ... : ... .. . ... ... : ... .. . ... : ... .. . ...
ROW 14 : A-3 01 . ... ... : A-3 01 . ... ... : ... .. . ... : ... .. . ... ... : ... .. . ... : D-4 01 . ... ... : ... .. . ... : ... .. . ...
ROW 15 : ... .. . ... ... : ... .. . ... ... : ... .. . ... : ... .. . ... ... : ... .. . ... : ... .. . ... ... : ... .. . ... : ... .. . ...
ROW 16 : A#3 01 . ... ... : F-3 01 . ... ... : ... .. . ... : ... .. . ... ... : ... .. . ... : A-4 01 . ... ... : ... .. . ... : ... .. . ...
ROW 17 : ... .. . ... ... : ... .. . ... ... : ... .. . ... : ... .. . ... ... : ... .. . ... : ... .. . ... ... : ... .. . ... : ... .. . ...
ROW 18 : A-3 01 . ... ... : A#2 01 . ... ... : ... .. . ... : 0-# 04 . ... F96 : ... .. . ... : C-5 01 . ... ... : ... .. . ... : A-1 05 . ...
ROW 19 : ... .. . ... ... : ... .. . ... ... : ... .. . ... : ... .. . ... ... : ... .. . ... : ... .. . ... ... : ... .. . ... : ... .. . ...
ROW 1A : F-3 01 . ... ... : D-3 01 . ... ... : ... .. . ... : ... .. . ... ... : ... .. . ... : D-5 01 . ... ... : ... .. . ... : ... .. . ...
ROW 1B : ... .. . ... ... : ... .. . ... ... : ... .. . ... : ... .. . ... ... : ... .. . ... : ... .. . ... ... : ... .. . ... : ... .. . ...
ROW 1C : A#2 01 . ... ... : A-3 01 . ... ... : ... .. . ... : ... .. . ... ... : ... .. . ... : D-3 01 . ... ... : ... .. . ... : ... .. . ...
ROW 1D : ... .. . ... ... : ... .. . ... ... : ... .. . ... : ... .. . ... ... : ... .. . ... : ... .. . ... ... : ... .. . ... : ... .. . ...
ROW 1E : D-3 01 . ... ... : A#3 01 . ... ... : ... .. . ... : ... .. . ... ... : ... .. . ... : F-3 01 . ... ... : ... .. . ... : ... .. . ...
ROW 1F : ... .. . ... ... : ... .. . ... ... : ... .. . ... : ... .. . ... ... : ... .. . ... : ... .. . ... ... : ... .. . ... : ... .. . ...
ROW 20 : A-3 01 . ... ... : A-3 01 . ... ... : ... .. . ... : 0-# 04 . ... F96 : ... .. . ... : D-4 01 . ... ... : ... .. . ... : A#1 05 . ...
ROW 21 : ... .. . ... ... : ... .. . ... ... : ... .. . ... : ... .. . ... ... : ... .. . ... : ... .. . ... ... : ... .. . ... : ... .. . ...
ROW 22 : A#3 01 . ... ... : F-3 01 . ... ... : ... .. . ... : ... .. . ... ... : ... .. . ... : A-4 01 . ... ... : ... .. . ... : ... .. . ...
ROW 23 : ... .. . ... ... : ... .. . ... ... : ... .. . ... : ... .. . ... ... : ... .. . ... : ... .. . ... ... : ... .. . ... : ... .. . ...
ROW 24 : A-3 01 . ... ... : A#2 01 . ... ... : ... .. . ... : ... .. . ... ... : ... .. . ... : C-5 01 . ... ... : ... .. . ... : ... .. . ...
ROW 25 : ... .. . ... ... : ... .. . ... ... : ... .. . ... : ... .. . ... ... : ... .. . ... : ... .. . ... ... : ... .. . ... : ... .. . ...
ROW 26 : F-3 01 . ... ... : D-3 01 . ... ... : ... .. . ... : ... .. . ... ... : ... .. . ... : D-5 01 . ... ... : ... .. . ... : ... .. . ...
ROW 27 : ... .. . ... ... : ... .. . ... ... : ... .. . ... : ... .. . ... ... : ... .. . ... : ... .. . ... ... : ... .. . ... : ... .. . ...
ROW 28 : A#2 01 . ... ... : A-3 01 . ... ... : ... .. . ... : 0-# 04 . ... F96 : ... .. . ... : D-3 01 . ... ... : ... .. . ... : A-1 05 . ...
ROW 29 : ... .. . ... ... : ... .. . ... ... : ... .. . ... : ... .. . ... ... : ... .. . ... : ... .. . ... ... : ... .. . ... : ... .. . ...
ROW 2A : D-3 01 . ... ... : A#3 01 . ... ... : ... .. . ... : ... .. . ... ... : ... .. . ... : F-3 01 . ... ... : ... .. . ... : ... .. . ...
ROW 2B : ... .. . ... ... : ... .. . ... ... : ... .. . ... : ... .. . ... ... : ... .. . ... : ... .. . ... ... : ... .. . ... : ... .. . ...
ROW 2C : A-3 01 . ... ... : A-3 01 . ... ... : ... .. . ... : ... .. . ... ... : ... .. . ... : D-4 01 . ... ... : ... .. . ... : ... .. . ...
ROW 2D : ... .. . ... ... : ... .. . ... ... : ... .. . ... : ... .. . ... ... : ... .. . ... : ... .. . ... ... : ... .. . ... : === .. . ...
ROW 2E : A#3 01 . ... ... : F-3 01 . ... ... : ... .. . ... : ... .. . ... ... : ... .. . ... : A-4 01 . ... ... : ... .. . ... : ... .. . ...
ROW 2F : ... .. . ... ... : ... .. . ... ... : ... .. . ... : ... .. . ... ... : ... .. . ... : ... .. . ... ... : ... .. . ... : ... .. . ...
ROW 30 : A-3 01 . ... ... : A#2 01 . ... ... : ... .. . ... : 0-# 04 . ... F96 : ... .. . ... : C-5 01 . ... ... : ... .. . ... : F-1 05 . ...
ROW 31 : ... .. . ... ... : ... .. . ... ... : ... .. . ... : ... .. . ... ... : ... .. . ... : ... .. . ... ... : ... .. . ... : ... .. . ...
ROW 32 : F-3 01 . ... ... : D-3 01 . ... ... : ... .. . ... : ... .. . ... ... : ... .. . ... : D-5 01 . ... ... : ... .. . ... : ... .. . ...
ROW 33 : ... .. . ... ... : ... .. . ... ... : ... .. . ... : ... .. . ... ... : ... .. . ... : ... .. . ... ... : ... .. . ... : ... .. . ...
ROW 34 : A#2 01 . ... ... : A-3 01 . ... ... : ... .. . ... : ... .. . ... ... : ... .. . ... : D-3 01 . ... ... : ... .. . ... : ... .. . ...
ROW 35 : ... .. . ... ... : ... .. . ... ... : ... .. . ... : ... .. . ... ... : ... .. . ... : ... .. . ... ... : ... .. . ... : === .. . ...
ROW 36 : D-3 01 . ... ... : A#3 01 . ... ... : ... .. . ... : ... .. . ... ... : ... .. . ... : F-3 01 . ... ... : ... .. . ... : ... .. . ...
ROW 37 : ... .. . ... ... : ... .. . ... ... : ... .. . ... : ... .. . ... ... : ... .. . ... : ... .. . ... ... : ... .. . ... : ... .. . ...
ROW 38 : A-3 01 . ... ... : A-3 01 . ... ... : ... .. . ... : 0-# 04 . ... F96 : ... .. . ... : D-4 01 . ... ... : ... .. . ... : D-1 05 . ...
ROW 39 : ... .. . ... ... : ... .. . ... ... : ... .. . ... : ... .. . ... ... : ... .. . ... : ... .. . ... ... : ... .. . ... : ... .. . ...
ROW 3A : A#3 01 . ... ... : F-3 01 . ... ... : ... .. . ... : ... .. . ... ... : ... .. . ... : A-4 01 . ... ... : ... .. . ... : ... .. . ...
ROW 3B : ... .. . ... ... : ... .. . ... ... : ... .. . ... : ... .. . ... ... : ... .. . ... : ... .. . ... ... : ... .. . ... : ... .. . ...
ROW 3C : A-3 01 . ... ... : A#2 01 . ... ... : ... .. . ... : ... .. . ... ... : ... .. . ... : C-5 01 . ... ... : ... .. . ... : ... .. . ...
ROW 3D : ... .. . ... ... : ... .. . ... ... : ... .. . ... : 0-# 04 . ... ... : ... .. . ... : ... .. . ... ... : ... .. . ... : === .. . ...
ROW 3E : F-3 01 . ... ... : D-3 01 . ... ... : ... .. . ... : ... .. . ... ... : ... .. . ... : D-5 01 . ... ... : ... .. . ... : ... .. . ...
ROW 3F : ... .. . ... ... : ... .. . ... ... : ... .. . ... : ... .. . ... ... : ... .. . ... : ... .. . ... ... : ... .. . ... : ... .. . ...
ROW 40 : A#2 01 . ... ... : A-3 01 . ... ... : ... .. . ... : 0-# 04 . ... F96 : ... .. . ... : D-3 01 . ... ... : ... .. . ... : A#0 05 . ...
ROW 41 : ... .. . ... ... : ... .. . ... ... : ... .. . ... : ... .. . ... ... : ... .. . ... : ... .. . ... ... : ... .. . ... : ... .. . ...
ROW 42 : D-3 01 . ... ... : A#3 01 . ... ... : ... .. . ... : ... .. . ... ... : ... .. . ... : F-3 01 . ... ... : ... .. . ... : ... .. . ...
ROW 43 : ... .. . ... ... : ... .. . ... ... : ... .. . ... : ... .. . ... ... : ... .. . ... : ... .. . ... ... : ... .. . ... : ... .. . ...
ROW 44 : A-3 01 . ... ... : A-3 01 . ... ... : ... .. . ... : ... .. . ... ... : ... .. . ... : D-4 01 . ... ... : ... .. . ... : ... .. . ...
ROW 45 : ... .. . ... ... : ... .. . ... ... : ... .. . ... : ... .. . ... ... : ... .. . ... : ... .. . ... ... : ... .. . ... : === .. . ...
ROW 46 : A#3 01 . ... ... : F-3 01 . ... ... : ... .. . ... : ... .. . ... ... : ... .. . ... : A-4 01 . ... ... : ... .. . ... : ... .. . ...
ROW 47 : ... .. . ... ... : ... .. . ... ... : ... .. . ... : ... .. . ... ... : ... .. . ... : ... .. . ... ... : ... .. . ... : ... .. . ...
ROW 48 : A-3 01 . ... ... : A#2 01 . ... ... : ... .. . ... : 0-# 04 . ... F96 : ... .. . ... : C-5 01 . ... ... : ... .. . ... : D-1 05 . ...
ROW 49 : ... .. . ... ... : ... .. . ... ... : ... .. . ... : ... .. . ... ... : ... .. . ... : ... .. . ... ... : ... .. . ... : ... .. . ...
ROW 4A : F-3 01 . ... ... : D-3 01 . ... ... : ... .. . ... : ... .. . ... ... : ... .. . ... : D-5 01 . ... ... : ... .. . ... : ... .. . ...
ROW 4B : ... .. . ... ... : ... .. . ... ... : ... .. . ... : ... .. . ... ... : ... .. . ... : ... .. . ... ... : ... .. . ... : ... .. . ...
ROW 4C : A#2 01 . ... ... : A-3 01 . ... ... : ... .. . ... : ... .. . ... ... : ... .. . ... : D-3 01 . ... ... : ... .. . ... : ... .. . ...
ROW 4D : ... .. . ... ... : ... .. . ... ... : ... .. . ... : ... .. . ... ... : ... .. . ... : ... .. . ... ... : ... .. . ... : === .. . ...
ROW 4E : D-3 01 . ... ... : A#3 01 . ... ... : ... .. . ... : ... .. . ... ... : ... .. . ... : F-3 01 . ... ... : ... .. . ... : ... .. . ...
ROW 4F : ... .. . ... ... : ... .. . ... ... : ... .. . ... : ... .. . ... ... : ... .. . ... : ... .. . ... ... : ... .. . ... : ... .. . ...
ROW 50 : A-3 01 . ... ... : A-3 01 . ... ... : ... .. . ... : 0-# 04 . ... F96 : ... .. . ... : D-4 01 . ... ... : ... .. . ... : F-1 05 . ...
ROW 51 : ... .. . ... ... : ... .. . ... ... : ... .. . ... : ... .. . ... ... : ... .. . ... : ... .. . ... ... : ... .. . ... : ... .. . ...
ROW 52 : A#3 01 . ... ... : F-3 01 . ... ... : ... .. . ... : ... .. . ... ... : ... .. . ... : A-4 01 . ... ... : ... .. . ... : ... .. . ...
ROW 53 : ... .. . ... ... : ... .. . ... ... : ... .. . ... : ... .. . ... ... : ... .. . ... : ... .. . ... ... : ... .. . ... : ... .. . ...
ROW 54 : A-3 01 . ... ... : A#2 01 . ... ... : ... .. . ... : ... .. . ... ... : ... .. . ... : C-5 01 . ... ... : ... .. . ... : ... .. . ...
ROW 55 : ... .. . ... ... : ... .. . ... ... : ... .. . ... : ... .. . ... ... : ... .. . ... : ... .. . ... ... : ... .. . ... : ... .. . ...
ROW 56 : F-3 01 . ... ... : D-3 01 . ... ... : ... .. . ... : ... .. . ... ... : ... .. . ... : D-5 01 . ... ... : ... .. . ... : ... .. . ...
ROW 57 : ... .. . ... ... : ... .. . ... ... : ... .. . ... : ... .. . ... ... : ... .. . ... : ... .. . ... ... : ... .. . ... : ... .. . ...
ROW 58 : A#2 01 . ... ... : A-3 01 . ... ... : ... .. . ... : 0-# 04 . ... F96 : C#0 00 . ... : D-3 01 . ... ... : ... .. . ... : A-1 05 . ...
ROW 59 : ... .. . ... ... : ... .. . ... ... : ... .. . ... : ... .. . ... ... : ... .. . ... : ... .. . ... ... : ... .. . ... : ... .. . ...
ROW 5A : D-3 01 . ... ... : A#3 01 . ... ... : ... .. . ... : ... .. . ... ... : C#0 00 . ... : F-3 01 . ... ... : ... .. . ... : ... .. . ...
ROW 5B : ... .. . ... ... : ... .. . ... ... : ... .. . ... : ... .. . ... ... : ... .. . ... : ... .. . ... ... : ... .. . ... : ... .. . ...
ROW 5C : A-3 01 . ... ... : A-3 01 . ... ... : ... .. . ... : ... .. . ... ... : C#0 00 . ... : D-4 01 . ... ... : ... .. . ... : ... .. . ...
ROW 5D : ... .. . ... ... : ... .. . ... ... : ... .. . ... : ... .. . ... ... : ... .. . ... : ... .. . ... ... : ... .. . ... : ... .. . ...
ROW 5E : A#3 01 . ... ... : F-3 01 . ... ... : ... .. . ... : ... .. . ... ... : C#0 00 . ... : A-4 01 . ... ... : ... .. . ... : ... .. . ...
ROW 5F : ... .. . ... ... : ... .. . ... ... : ... .. . ... : ... .. . ... ... : ... .. . D00 : ... .. . ... ... : ... .. . ... : ... .. . ...
ROW 60 : ... .. . ... ... : ... .. . ... ... : ... .. . ... : 0-# 04 . ... F96 : ... .. . ... : ... .. . ... ... : ... .. . ... : ... .. . ...
ROW 61 : ... .. . ... ... : ... .. . ... ... : ... .. . ... : ... .. . ... ... : ... .. . ... : ... .. . ... ... : ... .. . ... : ... .. . ...
ROW 62 : ... .. . ... ... : ... .. . ... ... : ... .. . ... : ... .. . ... ... : ... .. . ... : ... .. . ... ... : ... .. . ... : ... .. . ...
ROW 63 : ... .. . ... ... : ... .. . ... ... : ... .. . ... : ... .. . ... ... : ... .. . ... : ... .. . ... ... : ... .. . ... : ... .. . ...
ROW 64 : ... .. . ... ... : ... .. . ... ... : ... .. . ... : ... .. . ... ... : ... .. . ... : ... .. . ... ... : ... .. . ... : ... .. . ...
ROW 65 : ... .. . ... ... : ... .. . ... ... : ... .. . ... : ... .. . ... ... : ... .. . ... : ... .. . ... ... : ... .. . ... : ... .. . ...
ROW 66 : ... .. . ... ... : ... .. . ... ... : ... .. . ... : ... .. . ... ... : ... .. . ... : ... .. . ... ... : ... .. . ... : ... .. . ...
ROW 67 : ... .. . ... ... : ... .. . ... ... : ... .. . ... : ... .. . ... ... : ... .. . ... : ... .. . ... ... : ... .. . ... : ... .. . ...
ROW 68 : ... .. . ... ... : ... .. . ... ... : ... .. . ... : 0-# 04 . ... F96 : ... .. . ... : ... .. . ... ... : ... .. . ... : ... .. . ...
ROW 69 : ... .. . ... ... : ... .. . ... ... : ... .. . ... : ... .. . ... ... : ... .. . ... : ... .. . ... ... : ... .. . ... : ... .. . ...
ROW 6A : ... .. . ... ... : ... .. . ... ... : ... .. . ... : ... .. . ... ... : ... .. . ... : ... .. . ... ... : ... .. . ... : ... .. . ...
ROW 6B : ... .. . ... ... : ... .. . ... ... : ... .. . ... : ... .. . ... ... : ... .. . ... : ... .. . ... ... : ... .. . ... : ... .. . ...
ROW 6C : ... .. . ... ... : ... .. . ... ... : ... .. . ... : ... .. . ... ... : ... .. . ... : ... .. . ... ... : ... .. . ... : ... .. . ...
ROW 6D : ... .. . ... ... : ... .. . ... ... : ... .. . ... : ... .. . ... ... : ... .. . ... : ... .. . ... ... : ... .. . ... : ... .. . ...
ROW 6E : ... .. . ... ... : ... .. . ... ... : ... .. . ... : ... .. . ... ... : ... .. . ... : ... .. . ... ... : ... .. . ... : ... .. . ...
ROW 6F : ... .. . ... ... : ... .. . ... ... : ... .. . ... : ... .. . ... ... : ... .. . ... : ... .. . ... ... : ... .. . ... : ... .. . ...
ROW 70 : ... .. . ... ... : ... .. . ... ... : ... .. . ... : 0-# 04 . ... F96 : ... .. . ... : ... .. . ... ... : ... .. . ... : ... .. . ...
ROW 71 : ... .. . ... ... : ... .. . ... ... : ... .. . ... : ... .. . ... ... : ... .. . ... : ... .. . ... ... : ... .. . ... : ... .. . ...
ROW 72 : ... .. . ... ... : ... .. . ... ... : ... .. . ... : ... .. . ... ... : ... .. . ... : ... .. . ... ... : ... .. . ... : ... .. . ...
ROW 73 : ... .. . ... ... : ... .. . ... ... : ... .. . ... : ... .. . ... ... : ... .. . ... : ... .. . ... ... : ... .. . ... : ... .. . ...
ROW 74 : ... .. . ... ... : ... .. . ... ... : ... .. . ... : ... .. . ... ... : ... .. . ... : ... .. . ... ... : ... .. . ... : ... .. . ...
ROW 75 : ... .. . ... ... : ... .. . ... ... : ... .. . ... : ... .. . ... ... : ... .. . ... : ... .. . ... ... : ... .. . ... : ... .. . ...
ROW 76 : ... .. . ... ... : ... .. . ... ... : ... .. . ... : ... .. . ... ... : ... .. . ... : ... .. . ... ... : ... .. . ... : ... .. . ...
ROW 77 : ... .. . ... ... : ... .. . ... ... : ... .. . ... : ... .. . ... ... : ... .. . ... : ... .. . ... ... : ... .. . ... : ... .. . ...
ROW 78 : ... .. . ... ... : ... .. . ... ... : ... .. . ... : 0-# 03 . ... F96 : ... .. . ... : ... .. . ... ... : ... .. . ... : ... .. . ...
ROW 79 : ... .. . ... ... : ... .. . ... ... : ... .. . ... : ... .. . ... ... : ... .. . ... : ... .. . ... ... : ... .. . ... : ... .. . ...
ROW 7A : ... .. . ... ... : ... .. . ... ... : ... .. . ... : ... .. . ... ... : ... .. . ... : ... .. . ... ... : ... .. . ... : ... .. . ...
ROW 7B : ... .. . ... ... : ... .. . ... ... : ... .. . ... : ... .. . ... ... : ... .. . ... : ... .. . ... ... : ... .. . ... : ... .. . ...
ROW 7C : ... .. . ... ... : ... .. . ... ... : ... .. . ... : ... .. . ... ... : ... .. . ... : ... .. . ... ... : ... .. . ... : ... .. . ...
ROW 7D : ... .. . ... ... : ... .. . ... ... : ... .. . ... : 0-# 03 . ... ... : ... .. . ... : ... .. . ... ... : ... .. . ... : ... .. . ...
ROW 7E : ... .. . ... ... : ... .. . ... ... : ... .. . ... : ... .. . ... ... : ... .. . ... : ... .. . ... ... : ... .. . ... : ... .. . ...
ROW 7F : ... .. . ... ... : ... .. . ... ... : ... .. . ... : ... .. . ... ... : ... .. . ... : ... .. . ... ... : ... .. . ... : ... .. . ...
PATTERN 0B
ROW 00 : A-3 01 5 V02 P7F : G-4 01 6 ... ... : ... .. . ... : 0-# 02 . ... F96 : C-0 00 . ... : A-4 01 4 V07 P7F : ... .. . ... : D-1 05 F ...
ROW 01 : ... .. . ... ... : A-4 01 . ... ... : ... .. . ... : ... .. . ... ... : ... .. . ... : ... .. . ... ... : ... .. . ... : ... .. . ...
ROW 02 : F-3 01 . ... ... : ... .. . ... ... : ... .. . ... : ... .. . ... ... : --- .. . ... : F-4 01 . ... ... : ... .. . ... : ... .. . ...
ROW 03 : ... .. . ... ... : ... .. . ... ... : ... .. . ... : ... .. . ... ... : ... .. . ... : ... .. . ... ... : ... .. . ... : ... .. . ...
ROW 04 : ... .. . ... ... : ... .. . ... ... : ... .. . ... : 0-# 04 . ... ... : ... .. . ... : D-2 01 . ... ... : ... .. . ... : ... .. . ...
ROW 05 : D-2 01 . ... ... : ... .. 3 ... ... : ... .. . ... : ... .. . ... ... : ... .. . ... : ... .. . ... ... : ... .. . ... : === .. . ...
ROW 06 : ... .. . ... ... : A-4 01 8 ... ... : ... .. . ... : 0-# 04 . ... ... : ... .. . ... : F-2 01 . ... ... : ... .. . ... : ... .. . ...
ROW 07 : ... .. . ... ... : ... .. . ... ... : ... .. . ... : ... .. . ... ... : ... .. . ... : ... .. . ... ... : ... .. . ... : ... .. . ...
ROW 08 : F-2 01 . ... ... : C-5 01 . ... ... : ... .. . ... : 0-# 03 . ... F96 : ... .. . ... : D-3 01 . ... ... : ... .. . ... : ... .. . ...
ROW 09 : ... .. . ... ... : ... .. . ... ... : ... .. . ... : ... .. . ... ... : ... .. . ... : ... .. . ... ... : ... .. . ... : ... .. . ...
ROW 0A : D-3 01 . ... ... : D-5 01 . ... ... : ... .. . ... : ... .. . ... ... : ... .. . ... : A-3 01 . ... ... : ... .. . ... : ... .. . ...
ROW 0B : ... .. . ... ... : ... .. . ... ... : ... .. . ... : ... .. . ... ... : ... .. . ... : ... .. . ... ... : ... .. . ... : ... .. . ...
ROW 0C : ... .. . ... ... : E-4 01 6 ... ... : ... .. . ... : 0-# 04 . ... ... : ... .. . ... : C-4 01 . ... ... : ... .. . ... : ... .. . ...
ROW 0D : A-3 01 . ... ... : ... .. . ... ... : ... .. . ... : ... .. . ... ... : ... .. . ... : ... .. . ... ... : ... .. . ... : ... .. . ...
ROW 0E : ... .. . ... ... : ... .. . ... ... : ... .. . ... : 0-# 04 . ... ... : ... .. . ... : D-4 01 . ... ... : ... .. . ... : ... .. . ...
ROW 0F : ... .. . ... ... : ... .. . ... ... : ... .. . ... : ... .. . ... ... : ... .. . ... : ... .. . ... ... : ... .. . ... : ... .. . ...
ROW 10 : C-4 01 . ... ... : ... .. . ... ... : ... .. . ... : 0-# 02 . ... F96 : ... .. . ... : D-2 01 . ... ... : ... .. . ... : ... .. . ...
ROW 11 : ... .. . ... ... : ... .. 3 ... ... : ... .. . ... : ... .. . ... ... : ... .. . ... : ... .. . ... ... : ... .. . ... : ... .. . ...
ROW 12 : D-4 01 . ... ... : A-4 01 8 ... ... : ... .. . ... : ... .. . ... ... : ... .. . ... : F-2 01 . ... ... : ... .. . ... : ... .. . ...
ROW 13 : ... .. . ... ... : ... .. . ... ... : ... .. . ... : ... .. . ... ... : ... .. . ... : ... .. . ... ... : ... .. . ... : ... .. . ...
ROW 14 : ... .. . ... ... : F-4 01 6 ... ... : ... .. . ... : 0-# 04 . ... ... : ... .. . ... : D-3 01 . ... ... : ... .. . ... : ... .. . ...
ROW 15 : D-2 01 . ... ... : ... .. . ... ... : ... .. . ... : ... .. . ... ... : ... .. . ... : ... .. . ... ... : ... .. . ... : ... .. . ...
ROW 16 : ... .. . ... ... : ... .. . ... ... : ... .. . ... : 0-# 04 . ... ... : ... .. . ... : A-3 01 . ... ... : ... .. . ... : ... .. . ...
ROW 17 : ... .. . ... ... : ... .. . ... ... : ... .. . ... : ... .. . ... ... : ... .. . ... : ... .. . ... ... : ... .. . ... : ... .. . ...
ROW 18 : F-2 01 . ... ... : ... .. . ... ... : ... .. . ... : 0-# 03 . ... F96 : ... .. . ... : C-4 01 . ... ... : ... .. . ... : ... .. . ...
ROW 19 : ... .. . ... ... : ... .. 3 ... ... : ... .. . ... : ... .. . ... ... : ... .. . ... : ... .. . ... ... : ... .. . ... : ... .. . ...
ROW 1A : D-3 01 . ... ... : F-3 01 8 ... ... : ... .. . ... : ... .. . ... ... : ... .. . ... : D-4 01 . ... ... : ... .. . ... : ... .. . ...
ROW 1B : ... .. . ... ... : ... .. . ... ... : ... .. . ... : ... .. . ... ... : ... .. . ... : ... .. . ... ... : ... .. . ... : ... .. . ...
ROW 1C : ... .. . ... ... : C#5 01 6 ... ... : ... .. . ... : 0-# 04 . ... ... : ... .. . ... : D-2 01 . ... ... : ... .. . ... : ... .. . ...
ROW 1D : A-3 01 . ... ... : ... .. . ... ... : ... .. . ... : ... .. . ... ... : ... .. . ... : ... .. . ... ... : ... .. . ... : ... .. . ...
ROW 1E : ... .. . ... ... : ... .. . ... ... : ... .. . ... : 0-# 03 . ... ... : ... .. . ... : F-2 01 . ... ... : ... .. . ... : ... .. . ...
ROW 1F : ... .. . ... ... : ... .. . ... ... : ... .. . ... : ... .. . ... ... : ... .. . ... : ... .. . ... ... : ... .. . ... : ... .. . ...
ROW 20 : C-4 01 . ... ... : A-4 01 . ... ... : ... .. . ... : 0-# 02 . ... F96 : ... .. . ... : D-3 01 . ... ... : ... .. . ... : ... .. . ...
ROW 21 : ... .. . ... ... : ... .. . ... ... : ... .. . ... : ... .. . ... ... : ... .. . ... : ... .. . ... ... : ... .. . ... : ... .. . ...
ROW 22 : D-4 01 . ... ... : ... .. . ... ... : ... .. . ... : ... .. . ... ... : ... .. . ... : A-3 01 . ... ... : ... .. . ... : ... .. . ...
ROW 23 : ... .. . ... ... : ... .. . ... ... : ... .. . ... : ... .. . ... ... : ... .. . ... : ... .. . ... ... : ... .. . ... : ... .. . ...
ROW 24 : ... .. . ... ... : ... .. . ... ... : ... .. . ... : 0-# 04 . ... ... : ... .. . ... : C-4 01 . ... ... : ... .. . ... : ... .. . ...
ROW 25 : D-2 01 . ... ... : ... .. 3 ... ... : ... .. . ... : ... .. . ... ... : ... .. . ... : ... .. . ... ... : ... .. . ... : ... .. . ...
ROW 26 : ... .. . ... ... : F-3 01 8 ... ... : ... .. . ... : 0-# 04 . ... ... : ... .. . ... : D-4 01 . ... ... : ... .. . ... : ... .. . ...
ROW 27 : ... .. . ... ... : ... .. . ... ... : ... .. . ... : ... .. . ... ... : ... .. . ... : ... .. . ... ... : ... .. . ... : ... .. . ...
ROW 28 : F-2 01 . ... ... : D-4 01 . ... ... : ... .. . ... : 0-# 03 . ... F96 : ... .. . ... : D-2 01 . ... ... : ... .. . ... : ... .. . ...
ROW 29 : ... .. . ... ... : ... .. . ... ... : ... .. . ... : ... .. . ... ... : ... .. . ... : ... .. . ... ... : ... .. . ... : ... .. . ...
ROW 2A : D-3 01 . ... ... : A-4 01 . ... ... : ... .. . ... : ... .. . ... ... : ... .. . ... : F-2 01 . ... ... : ... .. . ... : ... .. . ...
ROW 2B : ... .. . ... ... : ... .. . ... ... : ... .. . ... : ... .. . ... ... : ... .. . ... : ... .. . ... ... : ... .. . ... : ... .. . ...
ROW 2C : ... .. . ... ... : E-4 01 6 ... ... : ... .. . ... : 0-# 04 . ... ... : ... .. . ... : D-3 01 . ... ... : ... .. . ... : ... .. . ...
ROW 2D : A-3 01 . ... ... : ... .. . ... ... : ... .. . ... : ... .. . ... ... : ... .. . ... : ... .. . ... ... : ... .. . ... : ... .. . ...
ROW 2E : ... .. . ... ... : ... .. . ... ... : ... .. . ... : 0-# 04 . ... ... : ... .. . ... : A-3 01 . ... ... : ... .. . ... : ... .. . ...
ROW 2F : ... .. . ... ... : ... .. . ... ... : ... .. . ... : ... .. . ... ... : ... .. . ... : ... .. . ... ... : ... .. . ... : ... .. . ...
ROW 30 : C-4 01 . ... ... : ... .. . ... ... : ... .. . ... : 0-# 02 . ... F96 : ... .. . ... : C-4 01 . ... ... : ... .. . ... : ... .. . ...
ROW 31 : ... .. . ... ... : ... .. 3 ... ... : ... .. . ... : ... .. . ... ... : ... .. . ... : ... .. . ... ... : ... .. . ... : ... .. . ...
ROW 32 : D-4 01 . ... ... : F-3 01 8 ... ... : ... .. . ... : ... .. . ... ... : ... .. . ... : D-4 01 . ... ... : ... .. . ... : ... .. . ...
ROW 33 : ... .. . ... ... : ... .. . ... ... : ... .. . ... : ... .. . ... ... : ... .. . ... : ... .. . ... ... : ... .. . ... : ... .. . ...
ROW 34 : ... .. . ... ... : F-4 01 . ... ... : ... .. . ... : 0-# 04 . ... ... : ... .. . ... : D-2 01 . ... ... : ... .. . ... : ... .. . ...
ROW 35 : D-2 01 . ... ... : ... .. . ... ... : ... .. . ... : ... .. . ... ... : ... .. . ... : ... .. . ... ... : ... .. . ... : ... .. . ...
ROW 36 : ... .. . ... ... : ... .. . ... ... : ... .. . ... : 0-# 04 . ... ... : ... .. . ... : F-2 01 . ... ... : ... .. . ... : ... .. . ...
ROW 37 : ... .. . ... ... : ... .. . ... ... : ... .. . ... : ... .. . ... ... : ... .. . ... : ... .. . ... ... : ... .. . ... : ... .. . ...
ROW 38 : F-2 01 . ... ... : ... .. . ... ... : ... .. . ... : 0-# 03 . ... F96 : ... .. . ... : D-3 01 . ... ... : ... .. . ... : ... .. . ...
ROW 39 : ... .. . ... ... : ... .. 4 ... ... : ... .. . ... : ... .. . ... ... : ... .. . ... : ... .. . ... ... : ... .. . ... : ... .. . ...
ROW 3A : D-3 01 . ... ... : D-5 01 8 ... ... : ... .. . ... : ... .. . ... ... : ... .. . ... : A-3 01 . ... ... : ... .. . ... : ... .. . ...
ROW 3B : ... .. . ... ... : ... .. . ... ... : ... .. . ... : ... .. . ... ... : ... .. . ... : ... .. . ... ... : ... .. . ... : ... .. . ...
ROW 3C : ... .. . ... ... : D-3 01 . ... ... : ... .. . ... : 0-# 04 . ... ... : ... .. . ... : C-4 01 . ... ... : ... .. . ... : ... .. . ...
ROW 3D : A-3 01 . ... ... : ... .. . ... ... : ... .. . ... : ... .. . ... ... : ... .. . ... : ... .. . ... ... : ... .. . ... : ... .. . ...
ROW 3E : ... .. . ... ... : F-3 01 . ... ... : ... .. . ... : 0-# 04 . ... ... : ... .. . ... : D-4 01 . ... ... : ... .. . ... : ... .. . ...
ROW 3F : ... .. . ... ... : ... .. . ... ... : ... .. . ... : ... .. . ... ... : ... .. . ... : ... .. . ... ... : ... .. . ... : ... .. . ...
ROW 40 : C-4 01 . ... ... : D-4 01 . ... ... : ... .. . ... : 0-# 02 . ... F96 : ... .. . ... : D-2 01 . ... ... : ... .. . ... : ... .. . ...
ROW 41 : ... .. . ... ... : ... .. . ... ... : ... .. . ... : ... .. . ... ... : ... .. . ... : ... .. . ... ... : ... .. . ... : ... .. . ...
ROW 42 : D-4 01 . ... ... : A-4 01 . ... ... : ... .. . ... : ... .. . ... ... : ... .. . ... : F-2 01 . ... ... : ... .. . ... : ... .. . ...
ROW 43 : ... .. . ... ... : ... .. . ... ... : ... .. . ... : ... .. . ... ... : ... .. . ... : ... .. . ... ... : ... .. . ... : ... .. . ...
ROW 44 : ... .. . ... ... : G-4 01 6 ... ... : ... .. . ... : 0-# 04 . ... ... : ... .. . ... : D-3 01 . ... ... : ... .. . ... : ... .. . ...
ROW 45 : D-2 01 . ... ... : A-4 01 . ... ... : ... .. . ... : ... .. . ... ... : ... .. . ... : ... .. . ... ... : ... .. . ... : ... .. . ...
ROW 46 : ... .. . ... ... : ... .. . ... ... : ... .. . ... : 0-# 04 . ... ... : ... .. . ... : A-3 01 . ... ... : ... .. . ... : ... .. . ...
ROW 47 : ... .. . ... ... : ... .. . ... ... : ... .. . ... : ... .. . ... ... : ... .. . ... : ... .. . ... ... : ... .. . ... : ... .. . ...
ROW 48 : F-2 01 . ... ... : ... .. . ... ... : ... .. . ... : 0-# 03 . ... F96 : ... .. . ... : C-4 01 . ... ... : ... .. . ... : ... .. . ...
ROW 49 : ... .. . ... ... : ... .. 3 ... ... : ... .. . ... : ... .. . ... ... : ... .. . ... : ... .. . ... ... : ... .. . ... : ... .. . ...
ROW 4A : D-3 01 . ... ... : F-3 01 8 ... ... : ... .. . ... : ... .. . ... ... : ... .. . ... : D-4 01 . ... ... : ... .. . ... : ... .. . ...
ROW 4B : ... .. . ... ... : ... .. . ... ... : ... .. . ... : ... .. . ... ... : ... .. . ... : ... .. . ... ... : ... .. . ... : ... .. . ...
ROW 4C : ... .. . ... ... : E-4 01 6 ... ... : ... .. . ... : 0-# 04 . ... ... : ... .. . ... : D-2 01 . ... ... : ... .. . ... : ... .. . ...
ROW 4D : A-3 01 . ... ... : ... .. . ... ... : ... .. . ... : ... .. . ... ... : ... .. . ... : ... .. . ... ... : ... .. . ... : ... .. . ...
ROW 4E : ... .. . ... ... : ... .. . ... ... : ... .. . ... : 0-# 04 . ... ... : ... .. . ... : F-2 01 . ... ... : ... .. . ... : ... .. . ...
ROW 4F : ... .. . ... ... : ... .. . ... ... : ... .. . ... : ... .. . ... ... : ... .. . ... : ... .. . ... ... : ... .. . ... : ... .. . ...
ROW 50 : C-4 01 . ... ... : ... .. . ... ... : ... .. . ... : 0-# 02 . ... F96 : ... .. . ... : D-3 01 . ... ... : ... .. . ... : ... .. . ...
ROW 51 : ... .. . ... ... : ... .. 3 ... ... : ... .. . ... : ... .. . ... ... : ... .. . ... : ... .. . ... ... : ... .. . ... : ... .. . ...
ROW 52 : D-4 01 . ... ... : D-5 01 8 ... ... : ... .. . ... : ... .. . ... ... : ... .. . ... : A-3 01 . ... ... : ... .. . ... : ... .. . ...
ROW 53 : ... .. . ... ... : ... .. . ... ... : ... .. . ... : ... .. . ... ... : ... .. . ... : ... .. . ... ... : ... .. . ... : ... .. . ...
ROW 54 : ... .. . ... ... : F-4 01 6 ... ... : ... .. . ... : 0-# 04 . ... ... : ... .. . ... : C-4 01 . ... ... : ... .. . ... : ... .. . ...
ROW 55 : D-2 01 . ... ... : ... .. . ... ... : ... .. . ... : ... .. . ... ... : ... .. . ... : ... .. . ... ... : ... .. . ... : ... .. . ...
ROW 56 : ... .. . ... ... : ... .. . ... ... : ... .. . ... : 0-# 04 . ... ... : ... .. . ... : D-4 01 . ... ... : ... .. . ... : ... .. . ...
ROW 57 : ... .. . ... ... : ... .. . ... ... : ... .. . ... : ... .. . ... ... : ... .. . ... : ... .. . ... ... : ... .. . ... : ... .. . ...
ROW 58 : F-2 01 . ... ... : ... .. . ... ... : ... .. . ... : 0-# 03 . ... F96 : C-0 00 . ... : D-2 01 . ... ... : ... .. . ... : ... .. . ...
ROW 59 : ... .. . ... ... : ... .. 3 ... ... : ... .. . ... : ... .. . ... ... : ... .. . ... : ... .. . ... ... : ... .. . ... : ... .. . ...
ROW 5A : D-3 01 . ... ... : A-4 01 8 ... ... : ... .. . ... : ... .. . ... ... : --- .. . ... : F-2 01 . ... ... : ... .. . ... : ... .. . ...
ROW 5B : ... .. . ... ... : ... .. . ... ... : ... .. . ... : ... .. . ... ... : ... .. . ... : ... .. . ... ... : ... .. . ... : ... .. . ...
ROW 5C : ... .. . ... ... : C#5 01 6 ... ... : ... .. . ... : 0-# 03 . ... ... : C#0 00 . ... : D-3 01 . ... ... : ... .. . ... : ... .. . ...
ROW 5D : A-3 01 . ... ... : ... .. . ... ... : ... .. . ... : ... .. . ... ... : ... .. . ... : ... .. . ... ... : ... .. . ... : ... .. . ...
ROW 5E : ... .. . ... ... : ... .. . ... ... : ... .. . ... : 0-# 03 . ... ... : C#0 00 . ... : A-3 01 . ... ... : ... .. . ... : ... .. . ...
ROW 5F : ... .. . ... ... : ... .. . ... ... : ... .. . ... : ... .. . ... ... : ... .. . D00 : ... .. . ... ... : ... .. . ... : ... .. . ...
ROW 60 : C-4 01 . ... ... : ... .. . ... ... : ... .. . ... : ... .. . ... ... : ... .. . ... : ... .. . ... ... : ... .. . ... : ... .. . ...
ROW 61 : ... .. . ... ... : ... .. . ... ... : ... .. . ... : ... .. . ... ... : ... .. . ... : ... .. . ... ... : ... .. . ... : ... .. . ...
ROW 62 : D-4 01 . ... ... : ... .. . ... ... : ... .. . ... : ... .. . ... ... : ... .. . ... : ... .. . ... ... : ... .. . ... : ... .. . ...
ROW 63 : ... .. . ... ... : ... .. . ... ... : ... .. . ... : ... .. . ... ... : ... .. . ... : ... .. . ... ... : ... .. . ... : ... .. . ...
ROW 64 : ... .. . ... ... : ... .. . ... ... : ... .. . ... : ... .. . ... ... : ... .. . ... : ... .. . ... ... : ... .. . ... : ... .. . ...
ROW 65 : D-2 01 . ... ... : ... .. . ... ... : ... .. . ... : ... .. . ... ... : ... .. . ... : ... .. . ... ... : ... .. . ... : ... .. . ...
ROW 66 : ... .. . ... ... : ... .. . ... ... : ... .. . ... : ... .. . ... ... : ... .. . ... : ... .. . ... ... : ... .. . ... : ... .. . ...
ROW 67 : ... .. . ... ... : ... .. . ... ... : ... .. . ... : ... .. . ... ... : ... .. . ... : ... .. . ... ... : ... .. . ... : ... .. . ...
ROW 68 : F-2 01 . ... ... : ... .. . ... ... : ... .. . ... : ... .. . ... ... : ... .. . ... : ... .. . ... ... : ... .. . ... : ... .. . ...
ROW 69 : ... .. . ... ... : ... .. . ... ... : ... .. . ... : ... .. . ... ... : ... .. . ... : ... .. . ... ... : ... .. . ... : ... .. . ...
ROW 6A : D-3 01 . ... ... : ... .. . ... ... : ... .. . ... : ... .. . ... ... : ... .. . ... : ... .. . ... ... : ... .. . ... : ... .. . ...
ROW 6B : ... .. . ... ... : ... .. . ... ... : ... .. . ... : ... .. . ... ... : ... .. . ... : ... .. . ... ... : ... .. . ... : ... .. . ...
ROW 6C : ... .. . ... ... : ... .. . ... ... : ... .. . ... : ... .. . ... ... : ... .. . ... : ... .. . ... ... : ... .. . ... : ... .. . ...
ROW 6D : A-3 01 . ... ... : ... .. . ... ... : ... .. . ... : ... .. . ... ... : ... .. . ... : ... .. . ... ... : ... .. . ... : ... .. . ...
ROW 6E : ... .. . ... ... : ... .. . ... ... : ... .. . ... : ... .. . ... ... : ... .. . ... : ... .. . ... ... : ... .. . ... : ... .. . ...
ROW 6F : ... .. . ... ... : ... .. . ... ... : ... .. . ... : ... .. . ... ... : ... .. . ... : ... .. . ... ... : ... .. . ... : ... .. . ...
ROW 70 : C-4 01 . ... ... : ... .. . ... ... : ... .. . ... : ... .. . ... ... : ... .. . ... : ... .. . ... ... : ... .. . ... : ... .. . ...
ROW 71 : ... .. . ... ... : ... .. . ... ... : ... .. . ... : ... .. . ... ... : ... .. . ... : ... .. . ... ... : ... .. . ... : ... .. . ...
ROW 72 : D-4 01 . ... ... : ... .. . ... ... : ... .. . ... : ... .. . ... ... : ... .. . ... : ... .. . ... ... : ... .. . ... : ... .. . ...
ROW 73 : ... .. . ... ... : ... .. . ... ... : ... .. . ... : ... .. . ... ... : ... .. . ... : ... .. . ... ... : ... .. . ... : ... .. . ...
ROW 74 : ... .. . ... ... : ... .. . ... ... : ... .. . ... : ... .. . ... ... : ... .. . ... : ... .. . ... ... : ... .. . ... : ... .. . ...
ROW 75 : D-2 01 . ... ... : ... .. . ... ... : ... .. . ... : ... .. . ... ... : ... .. . ... : ... .. . ... ... : ... .. . ... : ... .. . ...
ROW 76 : ... .. . ... ... : ... .. . ... ... : ... .. . ... : ... .. . ... ... : ... .. . ... : ... .. . ... ... : ... .. . ... : ... .. . ...
ROW 77 : ... .. . ... ... : ... .. . ... ... : ... .. . ... : ... .. . ... ... : ... .. . ... : ... .. . ... ... : ... .. . ... : ... .. . ...
ROW 78 : F-2 01 . ... ... : ... .. . ... ... : ... .. . ... : ... .. . ... ... : ... .. . ... : ... .. . ... ... : ... .. . ... : ... .. . ...
ROW 79 : ... .. . ... ... : ... .. . ... ... : ... .. . ... : ... .. . ... ... : ... .. . ... : ... .. . ... ... : ... .. . ... : ... .. . ...
ROW 7A : D-3 01 . ... ... : ... .. . ... ... : ... .. . ... : ... .. . ... ... : ... .. . ... : ... .. . ... ... : ... .. . ... : ... .. . ...
ROW 7B : ... .. . ... ... : ... .. . ... ... : ... .. . ... : ... .. . ... ... : ... .. . ... : ... .. . ... ... : ... .. . ... : ... .. . ...
ROW 7C : ... .. . ... ... : ... .. . ... ... : ... .. . ... : ... .. . ... ... : ... .. . ... : ... .. . ... ... : ... .. . ... : ... .. . ...
ROW 7D : A-3 01 . ... ... : ... .. . ... ... : ... .. . ... : ... .. . ... ... : ... .. . ... : ... .. . ... ... : ... .. . ... : ... .. . ...
ROW 7E : ... .. . ... ... : ... .. . ... ... : ... .. . ... : ... .. . ... ... : ... .. . ... : ... .. . ... ... : ... .. . ... : ... .. . ...
ROW 7F : ... .. . ... ... : ... .. . ... ... : ... .. . ... : ... .. . ... ... : ... .. . ... : ... .. . ... ... : ... .. . ... : ... .. . ...
PATTERN 0C
ROW 00 : D-1 01 4 V00 P78 : C-4 01 6 ... ... : ... .. . ... : 0-# 02 . ... F96 : ... .. . ... : A-3 01 4 V07 P7F : ... .. . ... : A#0 05 F ...
ROW 01 : ... .. . ... ... : D-4 01 . ... ... : ... .. . ... : ... .. . ... ... : ... .. . ... : ... .. . ... ... : ... .. . ... : ... .. . ...
ROW 02 : ... .. . ... ... : ... .. . ... ... : ... .. . ... : ... .. . ... ... : ... .. . ... : F-3 01 . ... ... : ... .. . ... : ... .. . ...
ROW 03 : ... .. . ... ... : ... .. . ... ... : ... .. . ... : ... .. . ... ... : ... .. . ... : ... .. . ... ... : ... .. . ... : ... .. . ...
ROW 04 : ... .. . ... ... : ... .. . ... ... : ... .. . ... : 0-# 04 . ... ... : ... .. . ... : ... .. . ... ... : ... .. . ... : ... .. . ...
ROW 05 : === .. . ... ... : ... .. 3 ... ... : ... .. . ... : ... .. . ... ... : ... .. . ... : D-3 01 . ... ... : ... .. . ... : === .. . ...
ROW 06 : ... .. . ... ... : A#4 01 8 ... ... : ... .. . ... : 0-# 04 . ... ... : ... .. . ... : ... .. . ... ... : ... .. . ... : ... .. . ...
ROW 07 : ... .. . ... ... : ... .. . ... ... : ... .. . ... : ... .. . ... ... : ... .. . ... : ... .. . ... ... : ... .. . ... : ... .. . ...
ROW 08 : D-1 01 . ... ... : A-4 01 . ... ... : ... .. . ... : 0-# 03 . ... F96 : ... .. . ... : F-3 01 . ... ... : ... .. . ... : ... .. . ...
ROW 09 : ... .. . ... ... : ... .. . ... ... : ... .. . ... : ... .. . ... ... : ... .. . ... : ... .. . ... ... : ... .. . ... : ... .. . ...
ROW 0A : ... .. . ... ... : F-4 01 . ... ... : ... .. . ... : ... .. . ... ... : ... .. . ... : D-4 01 . ... ... : ... .. . ... : ... .. . ...
ROW 0B : ... .. . ... ... : ... .. . ... ... : ... .. . ... : ... .. . ... ... : ... .. . ... : ... .. . ... ... : ... .. . ... : ... .. . ...
ROW 0C : ... .. . ... ... : E-4 01 6 ... ... : ... .. . ... : 0-# 04 . ... ... : ... .. . ... : ... .. . ... ... : ... .. . ... : ... .. . ...
ROW 0D : === .. . ... ... : ... .. . ... ... : ... .. . ... : ... .. . ... ... : ... .. . ... : A-4 01 . ... ... : ... .. . ... : ... .. . ...
ROW 0E : ... .. . ... ... : ... .. . ... ... : ... .. . ... : 0-# 04 . ... ... : ... .. . ... : ... .. . ... ... : ... .. . ... : ... .. . ...
ROW 0F : ... .. . ... ... : ... .. . ... ... : ... .. . ... : ... .. . ... ... : ... .. . ... : ... .. . ... ... : ... .. . ... : ... .. . ...
ROW 10 : F-1 01 . ... ... : ... .. . ... ... : ... .. . ... : 0-# 02 . ... F96 : ... .. . ... : C-5 01 . ... ... : ... .. . ... : ... .. . ...
ROW 11 : ... .. . ... ... : ... .. 3 ... ... : ... .. . ... : ... .. . ... ... : ... .. . ... : ... .. . ... ... : ... .. . ... : ... .. . ...
ROW 12 : ... .. . ... ... : A#4 01 8 ... ... : ... .. . ... : ... .. . ... ... : ... .. . ... : D-5 01 . ... ... : ... .. . ... : ... .. . ...
ROW 13 : ... .. . ... ... : ... .. . ... ... : ... .. . ... : ... .. . ... ... : ... .. . ... : ... .. . ... ... : ... .. . ... : ... .. . ...
ROW 14 : ... .. . ... ... : D-4 01 6 ... ... : ... .. . ... : 0-# 04 . ... ... : ... .. . ... : ... .. . ... ... : ... .. . ... : ... .. . ...
ROW 15 : ... .. . ... ... : ... .. . ... ... : ... .. . ... : ... .. . ... ... : ... .. . ... : D-3 01 . ... ... : ... .. . ... : ... .. . ...
ROW 16 : ... .. . ... ... : ... .. . ... ... : ... .. . ... : 0-# 04 . ... ... : ... .. . ... : ... .. . ... ... : ... .. . ... : ... .. . ...
ROW 17 : ... .. . ... ... : ... .. . ... ... : ... .. . ... : ... .. . ... ... : ... .. . ... : ... .. . ... ... : ... .. . ... : ... .. . ...
ROW 18 : G-1 01 . ... ... : ... .. . ... ... : ... .. . ... : 0-# 03 . ... F96 : ... .. . ... : F-3 01 . ... ... : ... .. . ... : ... .. . ...
ROW 19 : ... .. . ... ... : ... .. 3 ... ... : ... .. . ... : ... .. . ... ... : ... .. . ... : ... .. . ... ... : ... .. . ... : ... .. . ...
ROW 1A : ... .. . ... ... : D-4 01 8 ... ... : ... .. . ... : ... .. . ... ... : ... .. . ... : D-4 01 . ... ... : ... .. . ... : ... .. . ...
ROW 1B : ... .. . ... ... : ... .. . ... ... : ... .. . ... : ... .. . ... ... : ... .. . ... : ... .. . ... ... : ... .. . ... : ... .. . ...
ROW 1C : ... .. . ... ... : E-4 01 6 ... ... : ... .. . ... : 0-# 04 . ... ... : ... .. . ... : ... .. . ... ... : ... .. . ... : ... .. . ...
ROW 1D : ... .. . ... ... : ... .. . ... ... : ... .. . ... : ... .. . ... ... : ... .. . ... : A-4 01 . ... ... : ... .. . ... : ... .. . ...
ROW 1E : ... .. . ... ... : ... .. . ... ... : ... .. . ... : 0-# 03 . ... ... : ... .. . ... : ... .. . ... ... : ... .. . ... : ... .. . ...
ROW 1F : ... .. . ... ... : ... .. . ... ... : ... .. . ... : ... .. . ... ... : ... .. . ... : ... .. . ... ... : ... .. . ... : ... .. . ...
ROW 20 : A-1 01 . ... ... : F-4 01 . ... ... : ... .. . ... : 0-# 02 . ... F96 : ... .. . ... : C-5 01 . ... ... : ... .. . ... : ... .. . ...
ROW 21 : ... .. . ... ... : ... .. . ... ... : ... .. . ... : ... .. . ... ... : ... .. . ... : ... .. . ... ... : ... .. . ... : ... .. . ...
ROW 22 : ... .. . ... ... : ... .. . ... ... : ... .. . ... : ... .. . ... ... : ... .. . ... : D-5 01 . ... ... : ... .. . ... : ... .. . ...
ROW 23 : ... .. . ... ... : ... .. . ... ... : ... .. . ... : ... .. . ... ... : ... .. . ... : ... .. . ... ... : ... .. . ... : ... .. . ...
ROW 24 : ... .. . ... ... : ... .. . ... ... : ... .. . ... : 0-# 04 . ... ... : ... .. . ... : ... .. . ... ... : ... .. . ... : ... .. . ...
ROW 25 : ... .. . ... ... : ... .. 3 ... ... : ... .. . ... : ... .. . ... ... : ... .. . ... : D-3 01 . ... ... : ... .. . ... : ... .. . ...
ROW 26 : ... .. . ... ... : D-4 01 8 ... ... : ... .. . ... : 0-# 04 . ... ... : ... .. . ... : ... .. . ... ... : ... .. . ... : ... .. . ...
ROW 27 : ... .. . ... ... : ... .. . ... ... : ... .. . ... : ... .. . ... ... : ... .. . ... : ... .. . ... ... : ... .. . ... : ... .. . ...
ROW 28 : G-1 01 . ... ... : A-4 01 . ... ... : ... .. . ... : 0-# 03 . ... F96 : ... .. . ... : F-3 01 . ... ... : ... .. . ... : ... .. . ...
ROW 29 : ... .. . ... ... : ... .. . ... ... : ... .. . ... : ... .. . ... ... : ... .. . ... : ... .. . ... ... : ... .. . ... : ... .. . ...
ROW 2A : ... .. . ... ... : A#4 01 . ... ... : ... .. . ... : ... .. . ... ... : ... .. . ... : D-4 01 . ... ... : ... .. . ... : ... .. . ...
ROW 2B : ... .. . ... ... : ... .. . ... ... : ... .. . ... : ... .. . ... ... : ... .. . ... : ... .. . ... ... : ... .. . ... : ... .. . ...
ROW 2C : ... .. . ... ... : E-4 01 6 ... ... : ... .. . ... : 0-# 04 . ... ... : ... .. . ... : ... .. . ... ... : ... .. . ... : ... .. . ...
ROW 2D : === .. . ... ... : ... .. . ... ... : ... .. . ... : ... .. . ... ... : ... .. . ... : A-4 01 . ... ... : ... .. . ... : ... .. . ...
ROW 2E : ... .. . ... ... : ... .. . ... ... : ... .. . ... : 0-# 04 . ... ... : ... .. . ... : ... .. . ... ... : ... .. . ... : ... .. . ...
ROW 2F : ... .. . ... ... : ... .. . ... ... : ... .. . ... : ... .. . ... ... : ... .. . ... : ... .. . ... ... : ... .. . ... : ... .. . ...
ROW 30 : F-1 01 . ... ... : ... .. . ... ... : ... .. . ... : 0-# 02 . ... F96 : ... .. . ... : C-5 01 . ... ... : ... .. . ... : ... .. . ...
ROW 31 : ... .. . ... ... : ... .. 3 ... ... : ... .. . ... : ... .. . ... ... : ... .. . ... : ... .. . ... ... : ... .. . ... : ... .. . ...
ROW 32 : ... .. . ... ... : D-4 01 8 ... ... : ... .. . ... : ... .. . ... ... : ... .. . ... : D-5 01 . ... ... : ... .. . ... : ... .. . ...
ROW 33 : ... .. . ... ... : ... .. 4 ... ... : ... .. . ... : ... .. . ... ... : ... .. . ... : ... .. . ... ... : ... .. . ... : ... .. . ...
ROW 34 : ... .. . ... ... : D-4 01 6 ... ... : ... .. . ... : 0-# 04 . ... ... : ... .. . ... : ... .. . ... ... : ... .. . ... : ... .. . ...
ROW 35 : === .. . ... ... : ... .. . ... ... : ... .. . ... : ... .. . ... ... : ... .. . ... : D-3 01 . ... ... : ... .. . ... : ... .. . ...
ROW 36 : ... .. . ... ... : ... .. . ... ... : ... .. . ... : 0-# 04 . ... ... : ... .. . ... : ... .. . ... ... : ... .. . ... : ... .. . ...
ROW 37 : ... .. . ... ... : ... .. . ... ... : ... .. . ... : ... .. . ... ... : ... .. . ... : ... .. . ... ... : ... .. . ... : ... .. . ...
ROW 38 : E-1 01 . ... ... : ... .. . ... ... : ... .. . ... : 0-# 03 . ... F96 : ... .. . ... : F-3 01 . ... ... : ... .. . ... : ... .. . ...
ROW 39 : ... .. . ... ... : ... .. 3 ... ... : ... .. . ... : ... .. . ... ... : ... .. . ... : ... .. . ... ... : ... .. . ... : ... .. . ...
ROW 3A : ... .. . ... ... : F-4 01 8 ... ... : ... .. . ... : ... .. . ... ... : ... .. . ... : D-4 01 . ... ... : ... .. . ... : ... .. . ...
ROW 3B : ... .. . ... ... : ... .. . ... ... : ... .. . ... : ... .. . ... ... : ... .. . ... : ... .. . ... ... : ... .. . ... : ... .. . ...
ROW 3C : ... .. . ... ... : A#3 01 . ... ... : ... .. . ... : 0-# 04 . ... ... : ... .. . ... : ... .. . ... ... : ... .. . ... : ... .. . ...
ROW 3D : === .. . ... ... : ... .. . ... ... : ... .. . ... : ... .. . ... ... : ... .. . ... : A-4 01 . ... ... : ... .. . ... : ... .. . ...
ROW 3E : ... .. . ... ... : D-4 01 . ... ... : ... .. . ... : 0-# 04 . ... ... : ... .. . ... : ... .. . ... ... : ... .. . ... : ... .. . ...
ROW 3F : ... .. . ... ... : ... .. . ... ... : ... .. . ... : ... .. . ... ... : ... .. . ... : ... .. . ... ... : ... .. . ... : ... .. . ...
ROW 40 : D-1 01 . ... ... : E-4 01 6 ... ... : ... .. . ... : 0-# 02 . ... F96 : ... .. . ... : C-5 01 . ... ... : ... .. . ... : ... .. . ...
ROW 41 : ... .. . ... ... : F-4 01 . ... ... : ... .. . ... : ... .. . ... ... : ... .. . ... : ... .. . ... ... : ... .. . ... : ... .. . ...
ROW 42 : ... .. . ... ... : ... .. . ... ... : ... .. . ... : ... .. . ... ... : ... .. . ... : D-5 01 . ... ... : ... .. . ... : ... .. . ...
ROW 43 : ... .. . ... ... : ... .. . ... ... : ... .. . ... : ... .. . ... ... : ... .. . ... : ... .. . ... ... : ... .. . ... : ... .. . ...
ROW 44 : ... .. . ... ... : ... .. . ... ... : ... .. . ... : 0-# 04 . ... ... : ... .. . ... : ... .. . ... ... : ... .. . ... : ... .. . ...
ROW 45 : === .. . ... ... : ... .. 3 ... ... : ... .. . ... : ... .. . ... ... : ... .. . ... : D-3 01 . ... ... : ... .. . ... : ... .. . ...
ROW 46 : ... .. . ... ... : F-4 01 8 ... ... : ... .. . ... : 0-# 04 . ... ... : ... .. . ... : ... .. . ... ... : ... .. . ... : ... .. . ...
ROW 47 : ... .. . ... ... : ... .. . ... ... : ... .. . ... : ... .. . ... ... : ... .. . ... : ... .. . ... ... : ... .. . ... : ... .. . ...
ROW 48 : D-1 01 . ... ... : A#3 01 . ... ... : ... .. . ... : 0-# 03 . ... F96 : ... .. . ... : F-3 01 . ... ... : ... .. . ... : ... .. . ...
ROW 49 : ... .. . ... ... : ... .. . ... ... : ... .. . ... : ... .. . ... ... : ... .. . ... : ... .. . ... ... : ... .. . ... : ... .. . ...
ROW 4A : ... .. . ... ... : D-4 01 . ... ... : ... .. . ... : ... .. . ... ... : ... .. . ... : D-4 01 . ... ... : ... .. . ... : ... .. . ...
ROW 4B : ... .. . ... ... : ... .. . ... ... : ... .. . ... : ... .. . ... ... : ... .. . ... : ... .. . ... ... : ... .. . ... : ... .. . ...
ROW 4C : ... .. . ... ... : G-4 01 6 ... ... : ... .. . ... : 0-# 04 . ... ... : ... .. . ... : ... .. . ... ... : ... .. . ... : ... .. . ...
ROW 4D : === .. . ... ... : ... .. . ... ... : ... .. . ... : ... .. . ... ... : ... .. . ... : A-4 01 . ... ... : ... .. . ... : ... .. . ...
ROW 4E : ... .. . ... ... : ... .. . ... ... : ... .. . ... : 0-# 04 . ... ... : ... .. . ... : ... .. . ... ... : ... .. . ... : ... .. . ...
ROW 4F : ... .. . ... ... : ... .. . ... ... : ... .. . ... : ... .. . ... ... : ... .. . ... : ... .. . ... ... : ... .. . ... : ... .. . ...
ROW 50 : F-1 01 . ... ... : F-4 01 . ... ... : ... .. . ... : 0-# 02 . ... F96 : ... .. . ... : C-5 01 . ... ... : ... .. . ... : ... .. . ...
ROW 51 : ... .. . ... ... : ... .. . ... ... : ... .. . ... : ... .. . ... ... : ... .. . ... : ... .. . ... ... : ... .. . ... : ... .. . ...
ROW 52 : ... .. . ... ... : ... .. . ... ... : ... .. . ... : ... .. . ... ... : ... .. . ... : D-5 01 . ... ... : ... .. . ... : ... .. . ...
ROW 53 : ... .. . ... ... : ... .. . ... ... : ... .. . ... : ... .. . ... ... : ... .. . ... : ... .. . ... ... : ... .. . ... : ... .. . ...
ROW 54 : ... .. . ... ... : C-5 01 . ... ... : ... .. . ... : 0-# 04 . ... ... : ... .. . ... : ... .. . ... ... : ... .. . ... : ... .. . ...
ROW 55 : ... .. . ... ... : ... .. . ... ... : ... .. . ... : ... .. . ... ... : ... .. . ... : D-3 01 . ... ... : ... .. . ... : ... .. . ...
ROW 56 : ... .. . ... ... : ... .. . ... ... : ... .. . ... : 0-# 04 . ... ... : ... .. . ... : ... .. . ... ... : ... .. . ... : ... .. . ...
ROW 57 : ... .. . ... ... : ... .. . ... ... : ... .. . ... : ... .. . ... ... : ... .. . ... : ... .. . ... ... : ... .. . ... : ... .. . ...
ROW 58 : G-1 01 . ... ... : A-4 01 . ... ... : ... .. . ... : 0-# 03 . ... F96 : ... .. . ... : F-3 01 . ... ... : ... .. . ... : ... .. . ...
ROW 59 : ... .. . ... ... : ... .. . ... ... : ... .. . ... : ... .. . ... ... : ... .. . ... : ... .. . ... ... : ... .. . ... : ... .. . ...
ROW 5A : ... .. . ... ... : ... .. . ... ... : ... .. . ... : 0-# 03 . ... ... : ... .. . ... : D-4 01 . ... ... : ... .. . ... : ... .. . ...
ROW 5B : ... .. . ... ... : ... .. . ... ... : ... .. . ... : ... .. . ... ... : ... .. . ... : ... .. . ... ... : ... .. . ... : ... .. . ...
ROW 5C : ... .. . ... ... : ... .. . ... ... : ... .. . ... : 0-# 03 . ... ... : ... .. . ... : ... .. . ... ... : ... .. . ... : ... .. . ...
ROW 5D : ... .. . ... ... : ... .. 3 ... ... : ... .. . ... : ... .. . ... ... : ... .. . ... : A-4 01 . ... ... : ... .. . ... : ... .. . ...
ROW 5E : ... .. . ... ... : F-4 01 8 ... ... : ... .. . ... : 0-# 03 . ... ... : ... .. . ... : ... .. . ... ... : ... .. . ... : ... .. . ...
ROW 5F : ... .. . ... ... : ... .. . ... ... : ... .. . ... : ... .. . ... ... : ... .. . ... : ... .. . ... ... : ... .. . ... : ... .. . ...
ROW 60 : A-1 01 . ... ... : ... .. . ... ... : ... .. . ... : ... .. . ... ... : ... .. . ... : C-5 01 . ... ... : ... .. . ... : ... .. . ...
ROW 61 : ... .. . ... ... : ... .. . ... ... : ... .. . ... : ... .. . ... ... : ... .. . ... : ... .. . ... ... : ... .. . ... : ... .. . ...
ROW 62 : ... .. . ... ... : ... .. . ... ... : ... .. . ... : ... .. . ... ... : ... .. . ... : D-5 01 . ... ... : ... .. . ... : ... .. . ...
ROW 63 : ... .. . ... ... : ... .. . ... ... : ... .. . ... : ... .. . ... ... : ... .. . ... : ... .. . ... ... : ... .. . ... : ... .. . ...
ROW 64 : ... .. . ... ... : ... .. . ... ... : ... .. . ... : ... .. . ... ... : ... .. . ... : ... .. . ... ... : ... .. . ... : ... .. . ...
ROW 65 : ... .. . ... ... : ... .. . ... ... : ... .. . ... : ... .. . ... ... : ... .. . ... : D-3 01 . ... ... : ... .. . ... : ... .. . ...
ROW 66 : ... .. . ... ... : ... .. . ... ... : ... .. . ... : ... .. . ... ... : ... .. . ... : ... .. . ... ... : ... .. . ... : ... .. . ...
ROW 67 : ... .. . ... ... : ... .. . ... ... : ... .. . ... : ... .. . ... ... : ... .. . ... : ... .. . ... ... : ... .. . ... : ... .. . ...
ROW 68 : G-1 01 . ... ... : ... .. . ... ... : ... .. . ... : ... .. . ... ... : ... .. . ... : F-3 01 . ... ... : ... .. . ... : ... .. . ...
ROW 69 : ... .. . ... ... : ... .. . ... ... : ... .. . ... : ... .. . ... ... : ... .. . ... : ... .. . ... ... : ... .. . ... : ... .. . ...
ROW 6A : ... .. . ... ... : ... .. . ... ... : ... .. . ... : ... .. . ... ... : ... .. . ... : D-4 01 . ... ... : ... .. . ... : ... .. . ...
ROW 6B : ... .. . ... ... : ... .. . ... ... : ... .. . ... : ... .. . ... ... : ... .. . ... : ... .. . ... ... : ... .. . ... : ... .. . ...
ROW 6C : ... .. . ... ... : ... .. . ... ... : ... .. . ... : ... .. . ... ... : ... .. . ... : ... .. . ... ... : ... .. . ... : ... .. . ...
ROW 6D : === .. . ... ... : ... .. . ... ... : ... .. . ... : ... .. . ... ... : ... .. . ... : A-4 01 . ... ... : ... .. . ... : ... .. . ...
ROW 6E : ... .. . ... ... : ... .. . ... ... : ... .. . ... : ... .. . ... ... : ... .. . ... : ... .. . ... ... : ... .. . ... : ... .. . ...
ROW 6F : ... .. . ... ... : ... .. . ... ... : ... .. . ... : ... .. . ... ... : ... .. . ... : ... .. . ... ... : ... .. . ... : ... .. . ...
ROW 70 : F-1 01 . ... ... : ... .. . ... ... : ... .. . ... : ... .. . ... ... : ... .. . ... : C-5 01 . ... ... : ... .. . ... : ... .. . ...
ROW 71 : ... .. . ... ... : ... .. . ... ... : ... .. . ... : ... .. . ... ... : ... .. . ... : ... .. . ... ... : ... .. . ... : ... .. . ...
ROW 72 : ... .. . ... ... : ... .. . ... ... : ... .. . ... : ... .. . ... ... : ... .. . ... : D-5 01 . ... ... : ... .. . ... : ... .. . ...
ROW 73 : ... .. . ... ... : ... .. . ... ... : ... .. . ... : ... .. . ... ... : ... .. . ... : ... .. . ... ... : ... .. . ... : ... .. . ...
ROW 74 : ... .. . ... ... : ... .. . ... ... : ... .. . ... : ... .. . ... ... : ... .. . ... : ... .. . ... ... : ... .. . ... : ... .. . ...
ROW 75 : === .. . ... ... : ... .. . ... ... : ... .. . ... : ... .. . ... ... : ... .. . ... : D-3 01 . ... ... : ... .. . ... : ... .. . ...
ROW 76 : ... .. . ... ... : ... .. . ... ... : ... .. . ... : ... .. . ... ... : ... .. . ... : ... .. . ... ... : ... .. . ... : ... .. . ...
ROW 77 : ... .. . ... ... : ... .. . ... ... : ... .. . ... : ... .. . ... ... : ... .. . ... : ... .. . ... ... : ... .. . ... : ... .. . ...
ROW 78 : E-1 01 . ... ... : ... .. . ... ... : ... .. . ... : ... .. . ... ... : C#0 00 . ... : F-3 01 . ... ... : ... .. . ... : ... .. . ...
ROW 79 : ... .. . ... ... : ... .. . ... ... : ... .. . ... : ... .. . ... ... : ... .. . ... : ... .. . ... ... : ... .. . ... : ... .. . ...
ROW 7A : ... .. . ... ... : ... .. . ... ... : ... .. . ... : ... .. . ... ... : --- .. . ... : D-4 01 . ... ... : ... .. . ... : ... .. . ...
ROW 7B : ... .. . ... ... : ... .. . ... ... : ... .. . ... : ... .. . ... ... : ... .. . ... : ... .. . ... ... : ... .. . ... : ... .. . ...
ROW 7C : ... .. . ... ... : ... .. . ... ... : ... .. . ... : ... .. . ... ... : ... .. . ... : ... .. . ... ... : ... .. . ... : ... .. . ...
ROW 7D : === .. . ... ... : ... .. . ... ... : ... .. . ... : ... .. . ... ... : C#0 00 . ... : A-4 01 . ... ... : ... .. . ... : ... .. . ...
ROW 7E : ... .. . ... ... : ... .. . ... ... : ... .. . ... : ... .. . ... ... : ... .. . ... : ... .. . ... ... : ... .. . ... : ... .. . ...
ROW 7F : ... .. . ... ... : ... .. . ... ... : ... .. . ... : ... .. . ... ... : ... .. . ... : ... .. . ... ... : ... .. . ... : ... .. . ...
PATTERN 0D
ROW 00 : A#0 01 4 V00 P78 : ... .. . ... ... : ... .. . ... : 0-# 02 . ... F96 : ... .. . ... : ... .. . ... ... : ... .. . ... : ... .. . ...
ROW 01 : ... .. . ... ... : ... .. . ... ... : ... .. . ... : ... .. . ... ... : ... .. . ... : ... .. . ... ... : ... .. . ... : ... .. . ...
ROW 02 : ... .. . ... ... : ... .. . ... ... : ... .. . ... : ... .. . ... ... : ... .. . ... : ... .. . ... ... : ... .. . ... : ... .. . ...
ROW 03 : ... .. . ... ... : ... .. . ... ... : ... .. . ... : ... .. . ... ... : ... .. . ... : ... .. . ... ... : ... .. . ... : ... .. . ...
ROW 04 : ... .. . ... ... : ... .. . ... ... : ... .. . ... : ... .. . ... ... : ... .. . ... : ... .. . ... ... : ... .. . ... : ... .. . ...
ROW 05 : === .. . ... ... : ... .. . ... ... : ... .. . ... : 0-# 04 . ... ... : ... .. . ... : ... .. . ... ... : ... .. . ... : ... .. . ...
ROW 06 : ... .. . ... ... : ... .. . ... ... : ... .. . ... : ... .. . ... ... : ... .. . ... : ... .. . ... ... : ... .. . ... : ... .. . ...
ROW 07 : ... .. . ... ... : ... .. . ... ... : ... .. . ... : ... .. . ... ... : ... .. . ... : ... .. . ... ... : ... .. . ... : ... .. . ...
ROW 08 : D-1 01 . ... ... : ... .. . ... ... : ... .. . ... : 0-# 04 . ... F96 : ... .. . ... : ... .. . ... ... : ... .. . ... : ... .. . ...
ROW 09 : ... .. . ... ... : ... .. . ... ... : ... .. . ... : ... .. . ... ... : ... .. . ... : ... .. . ... ... : ... .. . ... : ... .. . ...
ROW 0A : ... .. . ... ... : ... .. . ... ... : ... .. . ... : 0-# 04 . ... ... : ... .. . ... : ... .. . ... ... : ... .. . ... : ... .. . ...
ROW 0B : ... .. . ... ... : ... .. . ... ... : ... .. . ... : ... .. . ... ... : ... .. . ... : ... .. . ... ... : ... .. . ... : ... .. . ...
ROW 0C : ... .. . ... ... : ... .. . ... ... : ... .. . ... : ... .. . ... ... : ... .. . ... : ... .. . ... ... : ... .. . ... : ... .. . ...
ROW 0D : === .. . ... ... : ... .. . ... ... : ... .. . ... : 0-# 04 . ... ... : ... .. . ... : ... .. . ... ... : ... .. . ... : ... .. . ...
ROW 0E : ... .. . ... ... : ... .. . ... ... : ... .. . ... : ... .. . ... ... : ... .. . ... : ... .. . ... ... : ... .. . ... : ... .. . ...
ROW 0F : ... .. . ... ... : ... .. . ... ... : ... .. . ... : ... .. . ... ... : ... .. . ... : ... .. . ... ... : ... .. . ... : ... .. . ...
ROW 10 : F-1 01 . ... ... : ... .. . ... ... : ... .. . ... : 0-# 03 . ... F96 : ... .. . ... : ... .. . ... ... : ... .. . ... : ... .. . ...
ROW 11 : ... .. . ... ... : ... .. . ... ... : ... .. . ... : ... .. . ... ... : ... .. . ... : ... .. . ... ... : ... .. . ... : ... .. . ...
ROW 12 : ... .. . ... ... : ... .. . ... ... : ... .. . ... : ... .. . ... ... : ... .. . ... : ... .. . ... ... : ... .. . ... : ... .. . ...
ROW 13 : ... .. . ... ... : ... .. . ... ... : ... .. . ... : ... .. . ... ... : ... .. . ... : ... .. . ... ... : ... .. . ... : ... .. . ...
ROW 14 : ... .. . ... ... : ... .. . ... ... : ... .. . ... : ... .. . ... ... : ... .. . ... : ... .. . ... ... : ... .. . ... : ... .. . ...
ROW 15 : ... .. . ... ... : ... .. . ... ... : ... .. . ... : 0-# 04 . ... ... : ... .. . ... : ... .. . ... ... : ... .. . ... : ... .. . ...
ROW 16 : ... .. . ... ... : ... .. . ... ... : ... .. . ... : ... .. . ... ... : ... .. . ... : ... .. . ... ... : ... .. . ... : ... .. . ...
ROW 17 : ... .. . ... ... : ... .. . ... ... : ... .. . ... : ... .. . ... ... : ... .. . ... : ... .. . ... ... : ... .. . ... : ... .. . ...
ROW 18 : A-1 01 . ... ... : ... .. . ... ... : ... .. . ... : 0-# 04 . ... F96 : ... .. . ... : ... .. . ... ... : ... .. . ... : ... .. . ...
ROW 19 : ... .. . ... ... : ... .. . ... ... : ... .. . ... : ... .. . ... ... : ... .. . ... : ... .. . ... ... : ... .. . ... : ... .. . ...
ROW 1A : ... .. . ... ... : ... .. . ... ... : ... .. . ... : 0-# 04 . ... ... : ... .. . ... : ... .. . ... ... : ... .. . ... : ... .. . ...
ROW 1B : ... .. . ... ... : ... .. . ... ... : ... .. . ... : ... .. . ... ... : ... .. . ... : ... .. . ... ... : ... .. . ... : ... .. . ...
ROW 1C : ... .. . ... ... : ... .. . ... ... : ... .. . ... : ... .. . ... ... : ... .. . ... : ... .. . ... ... : ... .. . ... : ... .. . ...
ROW 1D : ... .. . ... ... : ... .. . ... ... : ... .. . ... : 0-# 04 . ... ... : ... .. . ... : ... .. . ... ... : ... .. . ... : ... .. . ...
ROW 1E : ... .. . ... ... : ... .. . ... ... : ... .. . ... : ... .. . ... ... : ... .. . ... : ... .. . ... ... : ... .. . ... : ... .. . ...
ROW 1F : ... .. . ... ... : ... .. . ... ... : ... .. . ... : ... .. . ... ... : ... .. . ... : ... .. . ... ... : ... .. . ... : ... .. . ...
ROW 20 : A#1 01 . ... ... : ... .. . ... ... : ... .. . ... : 0-# 02 . ... F96 : ... .. . ... : ... .. . ... ... : ... .. . ... : ... .. . ...
ROW 21 : ... .. . ... ... : ... .. . ... ... : ... .. . ... : ... .. . ... ... : ... .. . ... : ... .. . ... ... : ... .. . ... : ... .. . ...
ROW 22 : ... .. . ... ... : ... .. . ... ... : ... .. . ... : ... .. . ... ... : ... .. . ... : ... .. . ... ... : ... .. . ... : ... .. . ...
ROW 23 : ... .. . ... ... : ... .. . ... ... : ... .. . ... : ... .. . ... ... : ... .. . ... : ... .. . ... ... : ... .. . ... : ... .. . ...
ROW 24 : ... .. . ... ... : ... .. . ... ... : ... .. . ... : ... .. . ... ... : ... .. . ... : ... .. . ... ... : ... .. . ... : ... .. . ...
ROW 25 : ... .. . ... ... : ... .. . ... ... : ... .. . ... : 0-# 04 . ... ... : ... .. . ... : ... .. . ... ... : ... .. . ... : ... .. . ...
ROW 26 : ... .. . ... ... : ... .. . ... ... : ... .. . ... : ... .. . ... ... : ... .. . ... : ... .. . ... ... : ... .. . ... : ... .. . ...
ROW 27 : ... .. . ... ... : ... .. . ... ... : ... .. . ... : ... .. . ... ... : ... .. . ... : ... .. . ... ... : ... .. . ... : ... .. . ...
ROW 28 : A-1 01 . ... ... : ... .. . ... ... : ... .. . ... : 0-# 04 . ... F96 : ... .. . ... : ... .. . ... ... : ... .. . ... : ... .. . ...
ROW 29 : ... .. . ... ... : ... .. . ... ... : ... .. . ... : ... .. . ... ... : ... .. . ... : ... .. . ... ... : ... .. . ... : ... .. . ...
ROW 2A : ... .. . ... ... : ... .. . ... ... : ... .. . ... : 0-# 04 . ... ... : ... .. . ... : ... .. . ... ... : ... .. . ... : ... .. . ...
ROW 2B : ... .. . ... ... : ... .. . ... ... : ... .. . ... : ... .. . ... ... : ... .. . ... : ... .. . ... ... : ... .. . ... : ... .. . ...
ROW 2C : ... .. . ... ... : ... .. . ... ... : ... .. . ... : ... .. . ... ... : ... .. . ... : ... .. . ... ... : ... .. . ... : ... .. . ...
ROW 2D : === .. . ... ... : ... .. . ... ... : ... .. . ... : 0-# 04 . ... ... : ... .. . ... : ... .. . ... ... : ... .. . ... : ... .. . ...
ROW 2E : ... .. . ... ... : ... .. . ... ... : ... .. . ... : ... .. . ... ... : ... .. . ... : ... .. . ... ... : ... .. . ... : ... .. . ...
ROW 2F : ... .. . ... ... : ... .. . ... ... : ... .. . ... : ... .. . ... ... : ... .. . ... : ... .. . ... ... : ... .. . ... : ... .. . ...
ROW 30 : F-1 01 . ... ... : ... .. . ... ... : ... .. . ... : 0-# 03 . ... F96 : ... .. . ... : ... .. . ... ... : ... .. . ... : ... .. . ...
ROW 31 : ... .. . ... ... : ... .. . ... ... : ... .. . ... : ... .. . ... ... : ... .. . ... : ... .. . ... ... : ... .. . ... : ... .. . ...
ROW 32 : ... .. . ... ... : ... .. . ... ... : ... .. . ... : ... .. . ... ... : ... .. . ... : ... .. . ... ... : ... .. . ... : ... .. . ...
ROW 33 : ... .. . ... ... : ... .. . ... ... : ... .. . ... : ... .. . ... ... : ... .. . ... : ... .. . ... ... : ... .. . ... : ... .. . ...
ROW 34 : ... .. . ... ... : ... .. . ... ... : ... .. . ... : ... .. . ... ... : ... .. . ... : ... .. . ... ... : ... .. . ... : ... .. . ...
ROW 35 : === .. . ... ... : ... .. . ... ... : ... .. . ... : 0-# 04 . ... ... : ... .. . ... : ... .. . ... ... : ... .. . ... : ... .. . ...
ROW 36 : ... .. . ... ... : ... .. . ... ... : ... .. . ... : ... .. . ... ... : ... .. . ... : ... .. . ... ... : ... .. . ... : ... .. . ...
ROW 37 : ... .. . ... ... : ... .. . ... ... : ... .. . ... : ... .. . ... ... : ... .. . ... : ... .. . ... ... : ... .. . ... : ... .. . ...
ROW 38 : D-1 01 . ... ... : ... .. . ... ... : ... .. . ... : 0-# 04 . ... F96 : ... .. . ... : ... .. . ... ... : ... .. . ... : ... .. . ...
ROW 39 : ... .. . ... ... : ... .. . ... ... : ... .. . ... : ... .. . ... ... : ... .. . ... : ... .. . ... ... : ... .. . ... : ... .. . ...
ROW 3A : ... .. . ... ... : ... .. . ... ... : ... .. . ... : 0-# 04 . ... ... : ... .. . ... : ... .. . ... ... : ... .. . ... : ... .. . ...
ROW 3B : ... .. . ... ... : ... .. . ... ... : ... .. . ... : ... .. . ... ... : ... .. . ... : ... .. . ... ... : ... .. . ... : ... .. . ...
ROW 3C : ... .. . ... ... : ... .. . ... ... : ... .. . ... : ... .. . ... ... : ... .. . ... : ... .. . ... ... : ... .. . ... : ... .. . ...
ROW 3D : === .. . ... ... : ... .. . ... ... : ... .. . ... : 0-# 03 . ... ... : ... .. . ... : ... .. . ... ... : ... .. . ... : ... .. . ...
ROW 3E : ... .. . ... ... : ... .. . ... ... : ... .. . ... : ... .. . ... ... : ... .. . ... : ... .. . ... ... : ... .. . ... : ... .. . ...
ROW 3F : ... .. . ... ... : ... .. . ... ... : ... .. . ... : ... .. . ... ... : ... .. . ... : ... .. . ... ... : ... .. . ... : ... .. . ...
ROW 40 : A#0 01 . ... ... : ... .. . ... ... : ... .. . ... : 0-# 02 . ... F96 : ... .. . ... : ... .. . ... ... : ... .. . ... : ... .. . ...
ROW 41 : ... .. . ... ... : ... .. . ... ... : ... .. . ... : ... .. . ... ... : ... .. . ... : ... .. . ... ... : ... .. . ... : ... .. . ...
ROW 42 : ... .. . ... ... : ... .. . ... ... : ... .. . ... : ... .. . ... ... : ... .. . ... : ... .. . ... ... : ... .. . ... : ... .. . ...
ROW 43 : ... .. . ... ... : ... .. . ... ... : ... .. . ... : ... .. . ... ... : ... .. . ... : ... .. . ... ... : ... .. . ... : ... .. . ...
ROW 44 : ... .. . ... ... : ... .. . ... ... : ... .. . ... : ... .. . ... ... : ... .. . ... : ... .. . ... ... : ... .. . ... : ... .. . ...
ROW 45 : === .. . ... ... : ... .. . ... ... : ... .. . ... : 0-# 04 . ... ... : ... .. . ... : ... .. . ... ... : ... .. . ... : ... .. . ...
ROW 46 : ... .. . ... ... : ... .. . ... ... : ... .. . ... : ... .. . ... ... : ... .. . ... : ... .. . ... ... : ... .. . ... : ... .. . ...
ROW 47 : ... .. . ... ... : ... .. . ... ... : ... .. . ... : ... .. . ... ... : ... .. . ... : ... .. . ... ... : ... .. . ... : ... .. . ...
ROW 48 : D-1 01 . ... ... : ... .. . ... ... : ... .. . ... : 0-# 04 . ... F96 : ... .. . ... : ... .. . ... ... : ... .. . ... : ... .. . ...
ROW 49 : ... .. . ... ... : ... .. . ... ... : ... .. . ... : ... .. . ... ... : ... .. . ... : ... .. . ... ... : ... .. . ... : ... .. . ...
ROW 4A : ... .. . ... ... : ... .. . ... ... : ... .. . ... : 0-# 04 . ... ... : ... .. . ... : ... .. . ... ... : ... .. . ... : ... .. . ...
ROW 4B : ... .. . ... ... : ... .. . ... ... : ... .. . ... : ... .. . ... ... : ... .. . ... : ... .. . ... ... : ... .. . ... : ... .. . ...
ROW 4C : ... .. . ... ... : ... .. . ... ... : ... .. . ... : ... .. . ... ... : ... .. . ... : ... .. . ... ... : ... .. . ... : ... .. . ...
ROW 4D : === .. . ... ... : ... .. . ... ... : ... .. . ... : 0-# 04 . ... ... : ... .. . ... : ... .. . ... ... : ... .. . ... : ... .. . ...
ROW 4E : ... .. . ... ... : ... .. . ... ... : ... .. . ... : ... .. . ... ... : ... .. . ... : ... .. . ... ... : ... .. . ... : ... .. . ...
ROW 4F : ... .. . ... ... : ... .. . ... ... : ... .. . ... : ... .. . ... ... : ... .. . ... : ... .. . ... ... : ... .. . ... : ... .. . ...
ROW 50 : F-1 01 . ... ... : ... .. . ... ... : ... .. . ... : 0-# 03 . ... F96 : ... .. . ... : ... .. . ... ... : ... .. . ... : ... .. . ...
ROW 51 : ... .. . ... ... : ... .. . ... ... : ... .. . ... : ... .. . ... ... : ... .. . ... : ... .. . ... ... : ... .. . ... : ... .. . ...
ROW 52 : ... .. . ... ... : ... .. . ... ... : ... .. . ... : ... .. . ... ... : ... .. . ... : ... .. . ... ... : ... .. . ... : ... .. . ...
ROW 53 : ... .. . ... ... : ... .. . ... ... : ... .. . ... : ... .. . ... ... : ... .. . ... : ... .. . ... ... : ... .. . ... : ... .. . ...
ROW 54 : ... .. . ... ... : ... .. . ... ... : ... .. . ... : ... .. . ... ... : ... .. . ... : ... .. . ... ... : ... .. . ... : ... .. . ...
ROW 55 : ... .. . ... ... : ... .. . ... ... : ... .. . ... : 0-# 04 . ... ... : ... .. . ... : ... .. . ... ... : ... .. . ... : ... .. . ...
ROW 56 : ... .. . ... ... : ... .. . ... ... : ... .. . ... : ... .. . ... ... : ... .. . ... : ... .. . ... ... : ... .. . ... : ... .. . ...
ROW 57 : ... .. . ... ... : ... .. . ... ... : ... .. . ... : ... .. . ... ... : ... .. . ... : ... .. . ... ... : ... .. . ... : ... .. . ...
ROW 58 : A-1 01 . ... ... : ... .. . ... ... : ... .. . ... : 0-# 04 . ... F96 : ... .. . ... : ... .. . ... ... : ... .. . ... : ... .. . ...
ROW 59 : ... .. . ... ... : ... .. . ... ... : ... .. . ... : ... .. . ... ... : ... .. . ... : ... .. . ... ... : ... .. . ... : ... .. . ...
ROW 5A : ... .. . ... ... : ... .. . ... ... : ... .. . ... : 0-# 04 . ... ... : ... .. . ... : ... .. . ... ... : ... .. . ... : ... .. . ...
ROW 5B : ... .. . ... ... : ... .. . ... ... : ... .. . ... : ... .. . ... ... : ... .. . ... : ... .. . ... ... : ... .. . ... : ... .. . ...
ROW 5C : ... .. . ... ... : ... .. . ... ... : ... .. . ... : ... .. . ... ... : ... .. . ... : ... .. . ... ... : ... .. . ... : ... .. . ...
ROW 5D : ... .. . ... ... : ... .. . ... ... : ... .. . ... : 0-# 02 . ... ... : ... .. . ... : ... .. . ... ... : ... .. . ... : ... .. . ...
ROW 5E : ... .. . ... ... : ... .. . ... ... : ... .. . ... : ... .. . ... ... : ... .. . ... : ... .. . ... ... : ... .. . ... : ... .. . ...
ROW 5F : ... .. . ... ... : ... .. . ... ... : ... .. . ... : ... .. . ... ... : ... .. . ... : ... .. . ... ... : ... .. . ... : ... .. . ...
ROW 60 : A#1 01 . ... ... : ... .. . ... ... : ... .. . ... : 0-# 02 . ... F96 : ... .. . ... : ... .. . ... ... : ... .. . ... : ... .. . ...
ROW 61 : ... .. . ... ... : ... .. . ... ... : ... .. . ... : ... .. . ... ... : ... .. . ... : ... .. . ... ... : ... .. . ... : ... .. . ...
ROW 62 : ... .. . ... ... : ... .. . ... ... : ... .. . ... : ... .. . ... ... : ... .. . ... : ... .. . ... ... : ... .. . ... : ... .. . ...
ROW 63 : ... .. . ... ... : ... .. . ... ... : ... .. . ... : ... .. . ... ... : ... .. . ... : ... .. . ... ... : ... .. . ... : ... .. . ...
ROW 64 : ... .. . ... ... : ... .. . ... ... : ... .. . ... : ... .. . ... ... : ... .. . ... : ... .. . ... ... : ... .. . ... : ... .. . ...
ROW 65 : ... .. . ... ... : ... .. . ... ... : ... .. . ... : 0-# 04 . ... ... : ... .. . ... : ... .. . ... ... : ... .. . ... : ... .. . ...
ROW 66 : ... .. . ... ... : ... .. . ... ... : ... .. . ... : ... .. . ... ... : ... .. . ... : ... .. . ... ... : ... .. . ... : ... .. . ...
ROW 67 : ... .. . ... ... : ... .. . ... ... : ... .. . ... : ... .. . ... ... : ... .. . ... : ... .. . ... ... : ... .. . ... : ... .. . ...
ROW 68 : C-2 01 . ... ... : ... .. . ... ... : ... .. . ... : 0-# 04 . ... F96 : ... .. . ... : ... .. . ... ... : ... .. . ... : ... .. . ...
ROW 69 : ... .. . ... ... : ... .. . ... ... : ... .. . ... : ... .. . ... ... : ... .. . ... : ... .. . ... ... : ... .. . ... : ... .. . ...
ROW 6A : ... .. . ... ... : ... .. . ... ... : ... .. . ... : 0-# 04 . ... ... : ... .. . ... : ... .. . ... ... : ... .. . ... : ... .. . ...
ROW 6B : ... .. . ... ... : ... .. . ... ... : ... .. . ... : ... .. . ... ... : ... .. . ... : ... .. . ... ... : ... .. . ... : ... .. . ...
ROW 6C : ... .. . ... ... : ... .. . ... ... : ... .. . ... : ... .. . ... ... : ... .. . ... : ... .. . ... ... : ... .. . ... : ... .. . ...
ROW 6D : === .. . ... ... : ... .. . ... ... : ... .. . ... : 0-# 04 . ... ... : ... .. . ... : ... .. . ... ... : ... .. . ... : ... .. . ...
ROW 6E : ... .. . ... ... : ... .. . ... ... : ... .. . ... : ... .. . ... ... : ... .. . ... : ... .. . ... ... : ... .. . ... : ... .. . ...
ROW 6F : ... .. . ... ... : ... .. . ... ... : ... .. . ... : ... .. . ... ... : ... .. . ... : ... .. . ... ... : ... .. . ... : ... .. . ...
ROW 70 : D-2 01 . ... ... : ... .. . ... ... : ... .. . ... : 0-# 03 . ... F96 : ... .. . ... : ... .. . ... ... : ... .. . ... : ... .. . ...
ROW 71 : ... .. . ... ... : ... .. . ... ... : ... .. . ... : ... .. . ... ... : ... .. . ... : ... .. . ... ... : ... .. . ... : ... .. . ...
ROW 72 : ... .. . ... ... : ... .. . ... ... : ... .. . ... : ... .. . ... ... : ... .. . ... : ... .. . ... ... : ... .. . ... : ... .. . ...
ROW 73 : ... .. . ... ... : ... .. . ... ... : ... .. . ... : ... .. . ... ... : ... .. . ... : ... .. . ... ... : ... .. . ... : ... .. . ...
ROW 74 : ... .. . ... ... : ... .. . ... ... : ... .. . ... : ... .. . ... ... : ... .. . ... : ... .. . ... ... : ... .. . ... : ... .. . ...
ROW 75 : === .. . ... ... : ... .. . ... ... : ... .. . ... : 0-# 04 . ... ... : ... .. . ... : ... .. . ... ... : ... .. . ... : ... .. . ...
ROW 76 : ... .. . ... ... : ... .. . ... ... : ... .. . ... : ... .. . ... ... : ... .. . ... : ... .. . ... ... : ... .. . ... : ... .. . ...
ROW 77 : ... .. . ... ... : ... .. . ... ... : ... .. . ... : ... .. . ... ... : ... .. . ... : ... .. . ... ... : ... .. . ... : ... .. . ...
ROW 78 : A-1 01 . ... ... : ... .. . ... ... : ... .. . ... : 0-# 03 . ... F96 : ... .. . ... : ... .. . ... ... : ... .. . ... : ... .. . ...
ROW 79 : ... .. . ... ... : ... .. . ... ... : ... .. . ... : ... .. . ... ... : ... .. . ... : ... .. . ... ... : ... .. . ... : ... .. . ...
ROW 7A : ... .. . ... ... : ... .. . ... ... : ... .. . ... : 0-# 04 . ... ... : ... .. . ... : ... .. . ... ... : ... .. . ... : ... .. . ...
ROW 7B : ... .. . ... ... : ... .. . ... ... : ... .. . ... : ... .. . ... ... : ... .. . ... : ... .. . ... ... : ... .. . ... : ... .. . ...
ROW 7C : ... .. . ... ... : ... .. . ... ... : ... .. . ... : ... .. . ... ... : ... .. . ... : ... .. . ... ... : ... .. . ... : ... .. . ...
ROW 7D : === .. . ... ... : ... .. . ... ... : ... .. . ... : 0-# 03 . ... ... : ... .. . ... : ... .. . ... ... : ... .. . ... : ... .. . ...
ROW 7E : ... .. . ... ... : ... .. . ... ... : ... .. . ... : ... .. . ... ... : ... .. . ... : ... .. . ... ... : ... .. . ... : ... .. . ...
ROW 7F : ... .. . ... ... : ... .. . ... ... : ... .. . ... : ... .. . ... ... : ... .. . ... : ... .. . ... ... : ... .. . ... : ... .. . ...
PATTERN 0E
ROW 00 : D-1 01 4 V00 P78 : ... .. . ... ... : ... .. . ... : 0-# 02 F F04 F96 : ... .. . ... : ... .. . ... ... : ... .. . ... : ... .. . ...
ROW 01 : ... .. . ... ... : ... .. . ... ... : ... .. . ... : ... .. . ... ... : ... .. . ... : ... .. . ... ... : ... .. . ... : ... .. . ...
ROW 02 : ... .. . ... ... : ... .. . ... ... : ... .. . ... : ... .. . ... ... : ... .. . ... : ... .. . ... ... : ... .. . ... : ... .. . ...
ROW 03 : ... .. . ... ... : ... .. . ... ... : ... .. . ... : ... .. . ... ... : ... .. . ... : ... .. . ... ... : ... .. . ... : ... .. . ...
ROW 04 : ... .. . ... ... : ... .. . ... ... : ... .. . ... : ... .. . ... ... : ... .. . ... : ... .. . ... ... : ... .. . ... : ... .. . ...
ROW 05 : === .. . ... ... : ... .. . ... ... : ... .. . ... : ... .. . ... ... : ... .. . ... : ... .. . ... ... : ... .. . ... : ... .. . ...
ROW 06 : ... .. . ... ... : ... .. . ... ... : ... .. . ... : ... .. . ... ... : ... .. . ... : ... .. . ... ... : ... .. . ... : ... .. . ...
ROW 07 : ... .. . ... ... : ... .. . ... ... : ... .. . ... : ... .. . ... ... : ... .. . ... : ... .. . ... ... : ... .. . ... : ... .. . ...
ROW 08 : D-1 01 . ... ... : ... .. . ... ... : ... .. . ... : 0-# 04 . ... F96 : ... .. . ... : ... .. . ... ... : ... .. . ... : ... .. . ...
ROW 09 : ... .. . ... ... : ... .. . ... ... : ... .. . ... : ... .. . ... ... : ... .. . ... : ... .. . ... ... : ... .. . ... : ... .. . ...
ROW 0A : ... .. . ... ... : ... .. . ... ... : ... .. . ... : ... .. . ... ... : ... .. . ... : ... .. . ... ... : ... .. . ... : ... .. . ...
ROW 0B : ... .. . ... ... : ... .. . ... ... : ... .. . ... : ... .. . ... ... : ... .. . ... : ... .. . ... ... : ... .. . ... : ... .. . ...
ROW 0C : ... .. . ... ... : ... .. . ... ... : ... .. . ... : ... .. . ... ... : ... .. . ... : ... .. . ... ... : ... .. . ... : ... .. . ...
ROW 0D : === .. . ... ... : ... .. . ... ... : ... .. . ... : ... .. . ... ... : ... .. . ... : ... .. . ... ... : ... .. . ... : ... .. . ...
ROW 0E : ... .. . ... ... : ... .. . ... ... : ... .. . ... : ... .. . ... ... : ... .. . ... : ... .. . ... ... : ... .. . ... : ... .. . ...
ROW 0F : ... .. . ... ... : ... .. . ... ... : ... .. . ... : ... .. . ... ... : ... .. . ... : ... .. . ... ... : ... .. . ... : ... .. . ...
ROW 10 : F-1 01 . ... ... : ... .. . ... ... : ... .. . ... : 0-# 04 . ... F96 : ... .. . ... : ... .. . ... ... : ... .. . ... : ... .. . ...
ROW 11 : ... .. . ... ... : ... .. . ... ... : ... .. . ... : ... .. . ... ... : ... .. . ... : ... .. . ... ... : ... .. . ... : ... .. . ...
ROW 12 : ... .. . ... ... : ... .. . ... ... : ... .. . ... : ... .. . ... ... : ... .. . ... : ... .. . ... ... : ... .. . ... : ... .. . ...
ROW 13 : ... .. . ... ... : ... .. . ... ... : ... .. . ... : ... .. . ... ... : ... .. . ... : ... .. . ... ... : ... .. . ... : ... .. . ...
ROW 14 : ... .. . ... ... : ... .. . ... ... : ... .. . ... : ... .. . ... ... : ... .. . ... : ... .. . ... ... : ... .. . ... : ... .. . ...
ROW 15 : ... .. . ... ... : ... .. . ... ... : ... .. . ... : ... .. . ... ... : ... .. . ... : ... .. . ... ... : ... .. . ... : ... .. . ...
ROW 16 : ... .. . ... ... : ... .. . ... ... : ... .. . ... : ... .. . ... ... : ... .. . ... : ... .. . ... ... : ... .. . ... : ... .. . ...
ROW 17 : ... .. . ... ... : ... .. . ... ... : ... .. . ... : ... .. . ... ... : ... .. . ... : ... .. . ... ... : ... .. . ... : ... .. . ...
ROW 18 : G-1 01 . ... ... : ... .. . ... ... : ... .. . ... : 0-# 04 . ... F96 : ... .. . ... : ... .. . ... ... : ... .. . ... : ... .. . ...
ROW 19 : ... .. . ... ... : ... .. . ... ... : ... .. . ... : ... .. . ... ... : ... .. . ... : ... .. . ... ... : ... .. . ... : ... .. . ...
ROW 1A : ... .. . ... ... : ... .. . ... ... : ... .. . ... : ... .. . ... ... : ... .. . ... : ... .. . ... ... : ... .. . ... : ... .. . ...
ROW 1B : ... .. . ... ... : ... .. . ... ... : ... .. . ... : ... .. . ... ... : ... .. . ... : ... .. . ... ... : ... .. . ... : ... .. . ...
ROW 1C : ... .. . ... ... : ... .. . ... ... : ... .. . ... : 0-# 04 . ... ... : ... .. . ... : ... .. . ... ... : ... .. . ... : ... .. . ...
ROW 1D : ... .. . ... ... : ... .. . ... ... : ... .. . ... : ... .. . ... ... : ... .. . ... : ... .. . ... ... : ... .. . ... : ... .. . ...
ROW 1E : ... .. . ... ... : ... .. . ... ... : ... .. . ... : 0-# 04 . ... ... : ... .. . ... : ... .. . ... ... : ... .. . ... : ... .. . ...
ROW 1F : ... .. . ... ... : ... .. . ... ... : ... .. . ... : ... .. . ... ... : ... .. . ... : ... .. . ... ... : ... .. . ... : ... .. . ...
ROW 20 : A-1 01 . ... ... : ... .. . ... ... : ... .. . ... : 0-# 04 . ... F96 : ... .. . ... : ... .. . ... ... : ... .. . ... : ... .. . ...
ROW 21 : ... .. . ... ... : ... .. . ... ... : ... .. . ... : ... .. . ... ... : ... .. . ... : ... .. . ... ... : ... .. . ... : ... .. . ...
ROW 22 : ... .. . ... ... : ... .. . ... ... : ... .. . ... : ... .. . ... ... : ... .. . ... : ... .. . ... ... : ... .. . ... : ... .. . ...
ROW 23 : ... .. . ... ... : ... .. . ... ... : ... .. . ... : ... .. . ... ... : ... .. . ... : ... .. . ... ... : ... .. . ... : ... .. . ...
ROW 24 : ... .. . ... ... : ... .. . ... ... : ... .. . ... : ... .. . ... ... : ... .. . ... : ... .. . ... ... : ... .. . ... : ... .. . ...
ROW 25 : ... .. . ... ... : ... .. . ... ... : ... .. . ... : ... .. . ... ... : ... .. . ... : ... .. . ... ... : ... .. . ... : ... .. . ...
ROW 26 : ... .. . ... ... : ... .. . ... ... : ... .. . ... : ... .. . ... ... : ... .. . ... : ... .. . ... ... : ... .. . ... : ... .. . ...
ROW 27 : ... .. . ... ... : ... .. . ... ... : ... .. . ... : ... .. . ... ... : ... .. . ... : ... .. . ... ... : ... .. . ... : ... .. . ...
ROW 28 : G-1 01 . ... ... : ... .. . ... ... : ... .. . ... : 0-# 04 . ... F96 : ... .. . ... : ... .. . ... ... : ... .. . ... : ... .. . ...
ROW 29 : ... .. . ... ... : ... .. . ... ... : ... .. . ... : ... .. . ... ... : ... .. . ... : ... .. . ... ... : ... .. . ... : ... .. . ...
ROW 2A : ... .. . ... ... : ... .. . ... ... : ... .. . ... : ... .. . ... ... : ... .. . ... : ... .. . ... ... : ... .. . ... : ... .. . ...
ROW 2B : ... .. . ... ... : ... .. . ... ... : ... .. . ... : ... .. . ... ... : ... .. . ... : ... .. . ... ... : ... .. . ... : ... .. . ...
ROW 2C : ... .. . ... ... : ... .. . ... ... : ... .. . ... : ... .. . ... ... : ... .. . ... : ... .. . ... ... : ... .. . ... : ... .. . ...
ROW 2D : === .. . ... ... : ... .. . ... ... : ... .. . ... : ... .. . ... ... : ... .. . ... : ... .. . ... ... : ... .. . ... : ... .. . ...
ROW 2E : ... .. . ... ... : ... .. . ... ... : ... .. . ... : ... .. . ... ... : ... .. . ... : ... .. . ... ... : ... .. . ... : ... .. . ...
ROW 2F : ... .. . ... ... : ... .. . ... ... : ... .. . ... : ... .. . ... ... : ... .. . ... : ... .. . ... ... : ... .. . ... : ... .. . ...
ROW 30 : F-1 01 . ... ... : ... .. . ... ... : ... .. . ... : 0-# 04 . ... F96 : ... .. . ... : ... .. . ... ... : ... .. . ... : ... .. . ...
ROW 31 : ... .. . ... ... : ... .. . ... ... : ... .. . ... : ... .. . ... ... : ... .. . ... : ... .. . ... ... : ... .. . ... : ... .. . ...
ROW 32 : ... .. . ... ... : ... .. . ... ... : ... .. . ... : ... .. . ... ... : ... .. . ... : ... .. . ... ... : ... .. . ... : ... .. . ...
ROW 33 : ... .. . ... ... : ... .. . ... ... : ... .. . ... : ... .. . ... ... : ... .. . ... : ... .. . ... ... : ... .. . ... : ... .. . ...
ROW 34 : ... .. . ... ... : ... .. . ... ... : ... .. . ... : ... .. . ... ... : ... .. . ... : ... .. . ... ... : ... .. . ... : ... .. . ...
ROW 35 : === .. . ... ... : ... .. . ... ... : ... .. . ... : ... .. . ... ... : ... .. . ... : ... .. . ... ... : ... .. . ... : ... .. . ...
ROW 36 : ... .. . ... ... : ... .. . ... ... : ... .. . ... : ... .. . ... ... : ... .. . ... : ... .. . ... ... : ... .. . ... : ... .. . ...
ROW 37 : ... .. . ... ... : ... .. . ... ... : ... .. . ... : ... .. . ... ... : ... .. . ... : ... .. . ... ... : ... .. . ... : ... .. . ...
ROW 38 : E-1 01 . ... ... : ... .. . ... ... : ... .. . ... : 0-# 04 . ... F96 : ... .. . ... : ... .. . ... ... : ... .. . ... : ... .. . ...
ROW 39 : ... .. . ... ... : ... .. . ... ... : ... .. . ... : ... .. . ... ... : ... .. . ... : ... .. . ... ... : ... .. . ... : ... .. . ...
ROW 3A : ... .. . ... ... : ... .. . ... ... : ... .. . ... : ... .. . ... ... : ... .. . ... : ... .. . ... ... : ... .. . ... : ... .. . ...
ROW 3B : ... .. . ... ... : ... .. . ... ... : ... .. . ... : ... .. . ... ... : ... .. . ... : ... .. . ... ... : ... .. . ... : ... .. . ...
ROW 3C : ... .. . ... ... : ... .. . ... ... : ... .. . ... : 0-# 04 . ... ... : ... .. . ... : ... .. . ... ... : ... .. . ... : ... .. . ...
ROW 3D : === .. . ... ... : ... .. . ... ... : ... .. . ... : ... .. . ... ... : ... .. . ... : ... .. . ... ... : ... .. . ... : ... .. . ...
ROW 3E : ... .. . ... ... : ... .. . ... ... : ... .. . ... : 0-# 04 . ... ... : ... .. . ... : ... .. . ... ... : ... .. . ... : ... .. . ...
ROW 3F : ... .. . ... ... : ... .. . ... ... : ... .. . ... : ... .. . ... ... : ... .. . ... : ... .. . ... ... : ... .. . ... : ... .. . ...
ROW 40 : D-2 01 . ... ... : ... .. . ... ... : ... .. . ... : 0-# 04 . ... F96 : ... .. . ... : ... .. . ... ... : ... .. . ... : ... .. . ...
ROW 41 : ... .. . ... ... : ... .. . ... ... : ... .. . ... : ... .. . ... ... : ... .. . ... : ... .. . ... ... : ... .. . ... : ... .. . ...
ROW 42 : ... .. . ... ... : ... .. . ... ... : ... .. . ... : ... .. . ... ... : ... .. . ... : ... .. . ... ... : ... .. . ... : ... .. . ...
ROW 43 : ... .. . ... ... : ... .. . ... ... : ... .. . ... : ... .. . ... ... : ... .. . ... : ... .. . ... ... : ... .. . ... : ... .. . ...
ROW 44 : ... .. . ... ... : ... .. . ... ... : ... .. . ... : ... .. . ... ... : ... .. . ... : ... .. . ... ... : ... .. . ... : ... .. . ...
ROW 45 : === .. . ... ... : ... .. . ... ... : ... .. . ... : ... .. . ... ... : ... .. . ... : ... .. . ... ... : ... .. . ... : ... .. . ...
ROW 46 : ... .. . ... ... : ... .. . ... ... : ... .. . ... : ... .. . ... ... : ... .. . ... : ... .. . ... ... : ... .. . ... : ... .. . ...
ROW 47 : ... .. . ... ... : ... .. . ... ... : ... .. . ... : ... .. . ... ... : ... .. . ... : ... .. . ... ... : ... .. . ... : ... .. . ...
ROW 48 : G#1 01 . ... ... : ... .. . ... ... : ... .. . ... : 0-# 04 . ... F96 : ... .. . ... : ... .. . ... ... : ... .. . ... : ... .. . ...
ROW 49 : ... .. . ... ... : ... .. . ... ... : ... .. . ... : ... .. . ... ... : ... .. . ... : ... .. . ... ... : ... .. . ... : ... .. . ...
ROW 4A : ... .. . ... ... : ... .. . ... ... : ... .. . ... : ... .. . ... ... : ... .. . ... : ... .. . ... ... : ... .. . ... : ... .. . ...
ROW 4B : ... .. . ... ... : ... .. . ... ... : ... .. . ... : ... .. . ... ... : ... .. . ... : ... .. . ... ... : ... .. . ... : ... .. . ...
ROW 4C : ... .. . ... ... : ... .. . ... ... : ... .. . ... : ... .. . ... ... : ... .. . ... : ... .. . ... ... : ... .. . ... : ... .. . ...
ROW 4D : === .. . ... ... : ... .. . ... ... : ... .. . ... : ... .. . ... ... : ... .. . ... : ... .. . ... ... : ... .. . ... : ... .. . ...
ROW 4E : ... .. . ... ... : ... .. . ... ... : ... .. . ... : ... .. . ... ... : ... .. . ... : ... .. . ... ... : ... .. . ... : ... .. . ...
ROW 4F : ... .. . ... ... : ... .. . ... ... : ... .. . ... : ... .. . ... ... : ... .. . ... : ... .. . ... ... : ... .. . ... : ... .. . ...
ROW 50 : A-1 01 . ... ... : ... .. . ... ... : ... .. . ... : 0-# 04 . ... F96 : ... .. . ... : ... .. . ... ... : ... .. . ... : ... .. . ...
ROW 51 : ... .. . ... ... : ... .. . ... ... : ... .. . ... : ... .. . ... ... : ... .. . ... : ... .. . ... ... : ... .. . ... : ... .. . ...
ROW 52 : ... .. . ... ... : ... .. . ... ... : ... .. . ... : ... .. . ... ... : ... .. . ... : ... .. . ... ... : ... .. . ... : ... .. . ...
ROW 53 : ... .. . ... ... : ... .. . ... ... : ... .. . ... : ... .. . ... ... : ... .. . ... : ... .. . ... ... : ... .. . ... : ... .. . ...
ROW 54 : ... .. . ... ... : ... .. . ... ... : ... .. . ... : ... .. . ... ... : ... .. . ... : ... .. . ... ... : ... .. . ... : ... .. . ...
ROW 55 : ... .. . ... ... : ... .. . ... ... : ... .. . ... : ... .. . ... ... : ... .. . ... : ... .. . ... ... : ... .. . ... : ... .. . ...
ROW 56 : ... .. . ... ... : ... .. . ... ... : ... .. . ... : ... .. . ... ... : ... .. . ... : ... .. . ... ... : ... .. . ... : ... .. . ...
ROW 57 : ... .. . ... ... : ... .. . ... ... : ... .. . ... : ... .. . ... ... : ... .. . ... : ... .. . ... ... : ... .. . ... : ... .. . ...
ROW 58 : F-2 01 . ... ... : ... .. . ... ... : ... .. . ... : 0-# 03 . ... F96 : ... .. . ... : ... .. . ... ... : ... .. . ... : ... .. . ...
ROW 59 : ... .. . ... ... : ... .. . ... ... : ... .. . ... : ... .. . ... ... : ... .. . ... : ... .. . ... ... : ... .. . ... : ... .. . ...
ROW 5A : ... .. . ... ... : ... .. . ... ... : ... .. . ... : 0-# 03 . ... ... : ... .. . ... : ... .. . ... ... : ... .. . ... : ... .. . ...
ROW 5B : ... .. . ... ... : ... .. . ... ... : ... .. . ... : ... .. . ... ... : ... .. . ... : ... .. . ... ... : ... .. . ... : ... .. . ...
ROW 5C : ... .. . ... ... : ... .. . ... ... : ... .. . ... : 0-# 03 . ... ... : ... .. . ... : ... .. . ... ... : ... .. . ... : ... .. . ...
ROW 5D : ... .. . ... ... : ... .. . ... ... : ... .. . ... : ... .. . ... ... : ... .. . ... : ... .. . ... ... : ... .. . ... : ... .. . ...
ROW 5E : ... .. . ... ... : ... .. . ... ... : ... .. . ... : 0-# 03 . ... ... : ... .. . ... : ... .. . ... ... : ... .. . ... : ... .. . ...
ROW 5F : ... .. . ... ... : ... .. . ... ... : ... .. . ... : ... .. . ... ... : ... .. . ... : ... .. . ... ... : ... .. . ... : ... .. . ...
ROW 60 : ... .. . ... ... : ... .. . ... ... : ... .. . ... : ... .. . ... ... : ... .. . ... : ... .. . ... ... : ... .. . ... : ... .. . ...
ROW 61 : ... .. . ... ... : ... .. . ... ... : ... .. . ... : ... .. . ... ... : ... .. . ... : ... .. . ... ... : ... .. . ... : ... .. . ...
ROW 62 : ... .. . ... ... : ... .. . ... ... : ... .. . ... : ... .. . ... ... : ... .. . ... : ... .. . ... ... : ... .. . ... : ... .. . ...
ROW 63 : ... .. . ... ... : ... .. . ... ... : ... .. . ... : ... .. . ... ... : ... .. . ... : ... .. . ... ... : ... .. . ... : ... .. . ...
ROW 64 : ... .. . ... ... : ... .. . ... ... : ... .. . ... : ... .. . ... ... : ... .. . ... : ... .. . ... ... : ... .. . ... : ... .. . ...
ROW 65 : ... .. . ... ... : ... .. . ... ... : ... .. . ... : ... .. . ... ... : ... .. . ... : ... .. . ... ... : ... .. . ... : ... .. . ...
ROW 66 : ... .. . ... ... : ... .. . ... ... : ... .. . ... : ... .. . ... ... : ... .. . ... : ... .. . ... ... : ... .. . ... : ... .. . ...
ROW 67 : ... .. . ... ... : ... .. . ... ... : ... .. . ... : ... .. . ... ... : ... .. . ... : ... .. . ... ... : ... .. . ... : ... .. . ...
ROW 68 : ... .. . ... ... : ... .. . ... ... : ... .. . ... : ... .. . ... ... : ... .. . ... : ... .. . ... ... : ... .. . ... : ... .. . ...
ROW 69 : ... .. . ... ... : ... .. . ... ... : ... .. . ... : ... .. . ... ... : ... .. . ... : ... .. . ... ... : ... .. . ... : ... .. . ...
ROW 6A : ... .. . ... ... : ... .. . ... ... : ... .. . ... : ... .. . ... ... : ... .. . ... : ... .. . ... ... : ... .. . ... : ... .. . ...
ROW 6B : ... .. . ... ... : ... .. . ... ... : ... .. . ... : ... .. . ... ... : ... .. . ... : ... .. . ... ... : ... .. . ... : ... .. . ...
ROW 6C : ... .. . ... ... : ... .. . ... ... : ... .. . ... : ... .. . ... ... : ... .. . ... : ... .. . ... ... : ... .. . ... : ... .. . ...
ROW 6D : ... .. . ... ... : ... .. . ... ... : ... .. . ... : ... .. . ... ... : ... .. . ... : ... .. . ... ... : ... .. . ... : ... .. . ...
ROW 6E : ... .. . ... ... : ... .. . ... ... : ... .. . ... : ... .. . ... ... : ... .. . ... : ... .. . ... ... : ... .. . ... : ... .. . ...
ROW 6F : ... .. . ... ... : ... .. . ... ... : ... .. . ... : ... .. . ... ... : ... .. . ... : ... .. . ... ... : ... .. . ... : ... .. . ...
ROW 70 : ... .. . ... ... : ... .. . ... ... : ... .. . ... : ... .. . ... ... : ... .. . ... : ... .. . ... ... : ... .. . ... : ... .. . ...
ROW 71 : ... .. . ... ... : ... .. . ... ... : ... .. . ... : ... .. . ... ... : ... .. . ... : ... .. . ... ... : ... .. . ... : ... .. . ...
ROW 72 : ... .. . ... ... : ... .. . ... ... : ... .. . ... : ... .. . ... ... : ... .. . ... : ... .. . ... ... : ... .. . ... : ... .. . ...
ROW 73 : ... .. . ... ... : ... .. . ... ... : ... .. . ... : ... .. . ... ... : ... .. . ... : ... .. . ... ... : ... .. . ... : ... .. . ...
ROW 74 : ... .. . ... ... : ... .. . ... ... : ... .. . ... : ... .. . ... ... : ... .. . ... : ... .. . ... ... : ... .. . ... : ... .. . ...
ROW 75 : ... .. . ... ... : ... .. . ... ... : ... .. . ... : ... .. . ... ... : ... .. . ... : ... .. . ... ... : ... .. . ... : ... .. . ...
ROW 76 : ... .. . ... ... : ... .. . ... ... : ... .. . ... : ... .. . ... ... : ... .. . ... : ... .. . ... ... : ... .. . ... : ... .. . ...
ROW 77 : ... .. . ... ... : ... .. . ... ... : ... .. . ... : ... .. . ... ... : ... .. . ... : ... .. . ... ... : ... .. . ... : ... .. . ...
ROW 78 : ... .. . ... ... : ... .. . ... ... : ... .. . ... : ... .. . ... ... : ... .. . ... : ... .. . ... ... : ... .. . ... : ... .. . ...
ROW 79 : ... .. . ... ... : ... .. . ... ... : ... .. . ... : ... .. . ... ... : ... .. . ... : ... .. . ... ... : ... .. . ... : ... .. . ...
ROW 7A : ... .. . ... ... : ... .. . ... ... : ... .. . ... : ... .. . ... ... : ... .. . ... : ... .. . ... ... : ... .. . ... : ... .. . ...
ROW 7B : ... .. . ... ... : ... .. . ... ... : ... .. . ... : ... .. . ... ... : ... .. . ... : ... .. . ... ... : ... .. . ... : ... .. . ...
ROW 7C : ... .. . ... ... : ... .. . ... ... : ... .. . ... : ... .. . ... ... : ... .. . ... : ... .. . ... ... : ... .. . ... : ... .. . ...
ROW 7D : ... .. . ... ... : ... .. . ... ... : ... .. . ... : ... .. . ... ... : ... .. . ... : ... .. . ... ... : ... .. . ... : ... .. . ...
ROW 7E : ... .. . ... ... : ... .. . ... ... : ... .. . ... : ... .. . ... ... : ... .. . ... : ... .. . ... ... : ... .. . ... : ... .. . ...
ROW 7F : ... .. . ... ... : ... .. . ... ... : ... .. . ... : ... .. . ... ... : ... .. . ... : ... .. . ... ... : ... .. . ... : ... .. . ...
PATTERN 0F
ROW 00 : A#0 01 4 V00 P78 : ... .. . ... ... : ... .. . ... : 0-# 04 F O00 F96 : ... .. . ... : ... .. . ... ... : ... .. . ... : ... .. . ...
ROW 01 : ... .. . ... ... : ... .. . ... ... : ... .. . ... : ... .. . ... ... : ... .. . ... : ... .. . ... ... : ... .. . ... : ... .. . ...
ROW 02 : ... .. . ... ... : ... .. . ... ... : ... .. . ... : ... .. . ... ... : ... .. . ... : ... .. . ... ... : ... .. . ... : ... .. . ...
ROW 03 : ... .. . ... ... : ... .. . ... ... : ... .. . ... : ... .. . ... ... : ... .. . ... : ... .. . ... ... : ... .. . ... : ... .. . ...
ROW 04 : ... .. . ... ... : ... .. . ... ... : ... .. . ... : ... .. . ... ... : ... .. . ... : ... .. . ... ... : ... .. . ... : ... .. . ...
ROW 05 : === .. . ... ... : ... .. . ... ... : ... .. . ... : ... .. . ... ... : ... .. . ... : ... .. . ... ... : ... .. . ... : ... .. . ...
ROW 06 : ... .. . ... ... : ... .. . ... ... : ... .. . ... : ... .. . ... ... : ... .. . ... : ... .. . ... ... : ... .. . ... : ... .. . ...
ROW 07 : ... .. . ... ... : ... .. . ... ... : ... .. . ... : ... .. . ... ... : ... .. . ... : ... .. . ... ... : ... .. . ... : ... .. . ...
ROW 08 : D-1 01 . ... ... : ... .. . ... ... : ... .. . ... : 0-# 04 . ... F96 : ... .. . ... : ... .. . ... ... : ... .. . ... : ... .. . ...
ROW 09 : ... .. . ... ... : ... .. . ... ... : ... .. . ... : ... .. . ... ... : ... .. . ... : ... .. . ... ... : ... .. . ... : ... .. . ...
ROW 0A : ... .. . ... ... : ... .. . ... ... : ... .. . ... : ... .. . ... ... : ... .. . ... : ... .. . ... ... : ... .. . ... : ... .. . ...
ROW 0B : ... .. . ... ... : ... .. . ... ... : ... .. . ... : ... .. . ... ... : ... .. . ... : ... .. . ... ... : ... .. . ... : ... .. . ...
ROW 0C : ... .. . ... ... : ... .. . ... ... : ... .. . ... : ... .. . ... ... : ... .. . ... : ... .. . ... ... : ... .. . ... : ... .. . ...
ROW 0D : === .. . ... ... : ... .. . ... ... : ... .. . ... : ... .. . ... ... : ... .. . ... : ... .. . ... ... : ... .. . ... : ... .. . ...
ROW 0E : ... .. . ... ... : ... .. . ... ... : ... .. . ... : ... .. . ... ... : ... .. . ... : ... .. . ... ... : ... .. . ... : ... .. . ...
ROW 0F : ... .. . ... ... : ... .. . ... ... : ... .. . ... : ... .. . ... ... : ... .. . ... : ... .. . ... ... : ... .. . ... : ... .. . ...
ROW 10 : F-1 01 . ... ... : ... .. . ... ... : ... .. . ... : 0-# 04 . ... F96 : ... .. . ... : ... .. . ... ... : ... .. . ... : ... .. . ...
ROW 11 : ... .. . ... ... : ... .. . ... ... : ... .. . ... : ... .. . ... ... : ... .. . ... : ... .. . ... ... : ... .. . ... : ... .. . ...
ROW 12 : ... .. . ... ... : ... .. . ... ... : ... .. . ... : ... .. . ... ... : ... .. . ... : ... .. . ... ... : ... .. . ... : ... .. . ...
ROW 13 : ... .. . ... ... : ... .. . ... ... : ... .. . ... : ... .. . ... ... : ... .. . ... : ... .. . ... ... : ... .. . ... : ... .. . ...
ROW 14 : ... .. . ... ... : ... .. . ... ... : ... .. . ... : ... .. . ... ... : ... .. . ... : ... .. . ... ... : ... .. . ... : ... .. . ...
ROW 15 : ... .. . ... ... : ... .. . ... ... : ... .. . ... : ... .. . ... ... : ... .. . ... : ... .. . ... ... : ... .. . ... : ... .. . ...
ROW 16 : ... .. . ... ... : ... .. . ... ... : ... .. . ... : ... .. . ... ... : ... .. . ... : ... .. . ... ... : ... .. . ... : ... .. . ...
ROW 17 : ... .. . ... ... : ... .. . ... ... : ... .. . ... : ... .. . ... ... : ... .. . ... : ... .. . ... ... : ... .. . ... : ... .. . ...
ROW 18 : A-1 01 . ... ... : ... .. . ... ... : ... .. . ... : 0-# 04 . ... F96 : ... .. . ... : ... .. . ... ... : ... .. . ... : ... .. . ...
ROW 19 : ... .. . ... ... : ... .. . ... ... : ... .. . ... : ... .. . ... ... : ... .. . ... : ... .. . ... ... : ... .. . ... : ... .. . ...
ROW 1A : ... .. . ... ... : ... .. . ... ... : ... .. . ... : ... .. . ... ... : ... .. . ... : ... .. . ... ... : ... .. . ... : ... .. . ...
ROW 1B : ... .. . ... ... : ... .. . ... ... : ... .. . ... : ... .. . ... ... : ... .. . ... : ... .. . ... ... : ... .. . ... : ... .. . ...
ROW 1C : ... .. . ... ... : ... .. . ... ... : ... .. . ... : ... .. . ... ... : ... .. . ... : ... .. . ... ... : ... .. . ... : ... .. . ...
ROW 1D : ... .. . ... ... : ... .. . ... ... : ... .. . ... : ... .. . ... ... : ... .. . ... : ... .. . ... ... : ... .. . ... : ... .. . ...
ROW 1E : ... .. . ... ... : ... .. . ... ... : ... .. . ... : ... .. . ... ... : ... .. . ... : ... .. . ... ... : ... .. . ... : ... .. . ...
ROW 1F : ... .. . ... ... : ... .. . ... ... : ... .. . ... : ... .. . ... ... : ... .. . ... : ... .. . ... ... : ... .. . ... : ... .. . ...
ROW 20 : A#1 01 . ... ... : ... .. . ... ... : ... .. . ... : 0-# 04 . ... F96 : ... .. . ... : ... .. . ... ... : ... .. . ... : ... .. . ...
ROW 21 : ... .. . ... ... : ... .. . ... ... : ... .. . ... : ... .. . ... ... : ... .. . ... : ... .. . ... ... : ... .. . ... : ... .. . ...
ROW 22 : ... .. . ... ... : ... .. . ... ... : ... .. . ... : ... .. . ... ... : ... .. . ... : ... .. . ... ... : ... .. . ... : ... .. . ...
ROW 23 : ... .. . ... ... : ... .. . ... ... : ... .. . ... : ... .. . ... ... : ... .. . ... : ... .. . ... ... : ... .. . ... : ... .. . ...
ROW 24 : ... .. . ... ... : ... .. . ... ... : ... .. . ... : ... .. . ... ... : ... .. . ... : ... .. . ... ... : ... .. . ... : ... .. . ...
ROW 25 : ... .. . ... ... : ... .. . ... ... : ... .. . ... : ... .. . ... ... : ... .. . ... : ... .. . ... ... : ... .. . ... : ... .. . ...
ROW 26 : ... .. . ... ... : ... .. . ... ... : ... .. . ... : ... .. . ... ... : ... .. . ... : ... .. . ... ... : ... .. . ... : ... .. . ...
ROW 27 : ... .. . ... ... : ... .. . ... ... : ... .. . ... : ... .. . ... ... : ... .. . ... : ... .. . ... ... : ... .. . ... : ... .. . ...
ROW 28 : A-1 01 . ... ... : ... .. . ... ... : ... .. . ... : 0-# 04 . ... F96 : ... .. . ... : ... .. . ... ... : ... .. . ... : ... .. . ...
ROW 29 : ... .. . ... ... : ... .. . ... ... : ... .. . ... : ... .. . ... ... : ... .. . ... : ... .. . ... ... : ... .. . ... : ... .. . ...
ROW 2A : ... .. . ... ... : ... .. . ... ... : ... .. . ... : ... .. . ... ... : ... .. . ... : ... .. . ... ... : ... .. . ... : ... .. . ...
ROW 2B : ... .. . ... ... : ... .. . ... ... : ... .. . ... : ... .. . ... ... : ... .. . ... : ... .. . ... ... : ... .. . ... : ... .. . ...
ROW 2C : ... .. . ... ... : ... .. . ... ... : ... .. . ... : ... .. . ... ... : ... .. . ... : ... .. . ... ... : ... .. . ... : ... .. . ...
ROW 2D : === .. . ... ... : ... .. . ... ... : ... .. . ... : ... .. . ... ... : ... .. . ... : ... .. . ... ... : ... .. . ... : ... .. . ...
ROW 2E : ... .. . ... ... : ... .. . ... ... : ... .. . ... : ... .. . ... ... : ... .. . ... : ... .. . ... ... : ... .. . ... : ... .. . ...
ROW 2F : ... .. . ... ... : ... .. . ... ... : ... .. . ... : ... .. . ... ... : ... .. . ... : ... .. . ... ... : ... .. . ... : ... .. . ...
ROW 30 : F-1 01 . ... ... : ... .. . ... ... : ... .. . ... : 0-# 04 . ... F96 : ... .. . ... : ... .. . ... ... : ... .. . ... : ... .. . ...
ROW 31 : ... .. . ... ... : ... .. . ... ... : ... .. . ... : ... .. . ... ... : ... .. . ... : ... .. . ... ... : ... .. . ... : ... .. . ...
ROW 32 : ... .. . ... ... : ... .. . ... ... : ... .. . ... : ... .. . ... ... : ... .. . ... : ... .. . ... ... : ... .. . ... : ... .. . ...
ROW 33 : ... .. . ... ... : ... .. . ... ... : ... .. . ... : ... .. . ... ... : ... .. . ... : ... .. . ... ... : ... .. . ... : ... .. . ...
ROW 34 : ... .. . ... ... : ... .. . ... ... : ... .. . ... : ... .. . ... ... : ... .. . ... : ... .. . ... ... : ... .. . ... : ... .. . ...
ROW 35 : === .. . ... ... : ... .. . ... ... : ... .. . ... : ... .. . ... ... : ... .. . ... : ... .. . ... ... : ... .. . ... : ... .. . ...
ROW 36 : ... .. . ... ... : ... .. . ... ... : ... .. . ... : ... .. . ... ... : ... .. . ... : ... .. . ... ... : ... .. . ... : ... .. . ...
ROW 37 : ... .. . ... ... : ... .. . ... ... : ... .. . ... : ... .. . ... ... : ... .. . ... : ... .. . ... ... : ... .. . ... : ... .. . ...
ROW 38 : D-1 01 . ... ... : ... .. . ... ... : ... .. . ... : 0-# 04 . ... F96 : ... .. . ... : ... .. . ... ... : ... .. . ... : ... .. . ...
ROW 39 : ... .. . ... ... : ... .. . ... ... : ... .. . ... : ... .. . ... ... : ... .. . ... : ... .. . ... ... : ... .. . ... : ... .. . ...
ROW 3A : ... .. . ... ... : ... .. . ... ... : ... .. . ... : ... .. . ... ... : ... .. . ... : ... .. . ... ... : ... .. . ... : ... .. . ...
ROW 3B : ... .. . ... ... : ... .. . ... ... : ... .. . ... : ... .. . ... ... : ... .. . ... : ... .. . ... ... : ... .. . ... : ... .. . ...
ROW 3C : ... .. . ... ... : ... .. . ... ... : ... .. . ... : ... .. . ... ... : ... .. . ... : ... .. . ... ... : ... .. . ... : ... .. . ...
ROW 3D : === .. . ... ... : ... .. . ... ... : ... .. . ... : 0-# 04 . ... ... : ... .. . ... : ... .. . ... ... : ... .. . ... : ... .. . ...
ROW 3E : ... .. . ... ... : ... .. . ... ... : ... .. . ... : ... .. . ... ... : ... .. . ... : ... .. . ... ... : ... .. . ... : ... .. . ...
ROW 3F : ... .. . ... ... : ... .. . ... ... : ... .. . ... : ... .. . ... ... : ... .. . ... : ... .. . ... ... : ... .. . ... : ... .. . ...
ROW 40 : A#0 01 . ... ... : ... .. . ... ... : ... .. . ... : 4-# 04 . ... F96 : ... .. . ... : ... .. . ... ... : ... .. . ... : ... .. . ...
ROW 41 : ... .. . ... ... : ... .. . ... ... : ... .. . ... : ... .. . ... ... : ... .. . ... : ... .. . ... ... : ... .. . ... : ... .. . ...
ROW 42 : ... .. . ... ... : ... .. . ... ... : ... .. . ... : ... .. . ... ... : ... .. . ... : ... .. . ... ... : ... .. . ... : ... .. . ...
ROW 43 : ... .. . ... ... : ... .. . ... ... : ... .. . ... : ... .. . ... ... : ... .. . ... : ... .. . ... ... : ... .. . ... : ... .. . ...
ROW 44 : ... .. . ... ... : ... .. . ... ... : ... .. . ... : ... .. . ... ... : ... .. . ... : ... .. . ... ... : ... .. . ... : ... .. . ...
ROW 45 : === .. . ... ... : ... .. . ... ... : ... .. . ... : ... .. . ... ... : ... .. . ... : ... .. . ... ... : ... .. . ... : ... .. . ...
ROW 46 : ... .. . ... ... : ... .. . ... ... : ... .. . ... : ... .. . ... ... : ... .. . ... : ... .. . ... ... : ... .. . ... : ... .. . ...
ROW 47 : ... .. . ... ... : ... .. . ... ... : ... .. . ... : ... .. . ... ... : ... .. . ... : ... .. . ... ... : ... .. . ... : ... .. . ...
ROW 48 : A#1 01 . ... ... : ... .. . ... ... : ... .. . ... : 0-# 04 . ... F96 : ... .. . ... : ... .. . ... ... : ... .. . ... : ... .. . ...
ROW 49 : ... .. . ... ... : ... .. . ... ... : ... .. . ... : ... .. . ... ... : ... .. . ... : ... .. . ... ... : ... .. . ... : ... .. . ...
ROW 4A : ... .. . ... ... : ... .. . ... ... : ... .. . ... : ... .. . ... ... : ... .. . ... : ... .. . ... ... : ... .. . ... : ... .. . ...
ROW 4B : ... .. . ... ... : ... .. . ... ... : ... .. . ... : ... .. . ... ... : ... .. . ... : ... .. . ... ... : ... .. . ... : ... .. . ...
ROW 4C : ... .. . ... ... : ... .. . ... ... : ... .. . ... : ... .. . ... ... : ... .. . ... : ... .. . ... ... : ... .. . ... : ... .. . ...
ROW 4D : === .. . ... ... : ... .. . ... ... : ... .. . ... : ... .. . ... ... : ... .. . ... : ... .. . ... ... : ... .. . ... : ... .. . ...
ROW 4E : ... .. . ... ... : ... .. . ... ... : ... .. . ... : ... .. . ... ... : ... .. . ... : ... .. . ... ... : ... .. . ... : ... .. . ...
ROW 4F : ... .. . ... ... : ... .. . ... ... : ... .. . ... : ... .. . ... ... : ... .. . ... : ... .. . ... ... : ... .. . ... : ... .. . ...
ROW 50 : A-1 01 . ... ... : ... .. . ... ... : ... .. . ... : 0-# 04 . ... F96 : ... .. . ... : ... .. . ... ... : ... .. . ... : ... .. . ...
ROW 51 : ... .. . ... ... : ... .. . ... ... : ... .. . ... : ... .. . ... ... : ... .. . ... : ... .. . ... ... : ... .. . ... : ... .. . ...
ROW 52 : ... .. . ... ... : ... .. . ... ... : ... .. . ... : ... .. . ... ... : ... .. . ... : ... .. . ... ... : ... .. . ... : ... .. . ...
ROW 53 : ... .. . ... ... : ... .. . ... ... : ... .. . ... : ... .. . ... ... : ... .. . ... : ... .. . ... ... : ... .. . ... : ... .. . ...
ROW 54 : ... .. . ... ... : ... .. . ... ... : ... .. . ... : ... .. . ... ... : ... .. . ... : ... .. . ... ... : ... .. . ... : ... .. . ...
ROW 55 : ... .. . ... ... : ... .. . ... ... : ... .. . ... : ... .. . ... ... : ... .. . ... : ... .. . ... ... : ... .. . ... : ... .. . ...
ROW 56 : ... .. . ... ... : ... .. . ... ... : ... .. . ... : ... .. . ... ... : ... .. . ... : ... .. . ... ... : ... .. . ... : ... .. . ...
ROW 57 : ... .. . ... ... : ... .. . ... ... : ... .. . ... : ... .. . ... ... : ... .. . ... : ... .. . ... ... : ... .. . ... : ... .. . ...
ROW 58 : C#2 01 . ... ... : ... .. . ... ... : ... .. . ... : 0-# 04 . ... F96 : ... .. . ... : ... .. . ... ... : ... .. . ... : ... .. . ...
ROW 59 : ... .. . ... ... : ... .. . ... ... : ... .. . ... : ... .. . ... ... : ... .. . ... : ... .. . ... ... : ... .. . ... : ... .. . ...
ROW 5A : ... .. . ... ... : ... .. . ... ... : ... .. . ... : ... .. . ... ... : ... .. . ... : ... .. . ... ... : ... .. . ... : ... .. . ...
ROW 5B : ... .. . ... ... : ... .. . ... ... : ... .. . ... : ... .. . ... ... : ... .. . ... : ... .. . ... ... : ... .. . ... : ... .. . ...
ROW 5C : ... .. . ... ... : ... .. . ... ... : ... .. . ... : ... .. . ... ... : ... .. . ... : ... .. . ... ... : ... .. . ... : ... .. . ...
ROW 5D : ... .. . ... ... : ... .. . ... ... : ... .. . ... : ... .. . ... ... : ... .. . ... : ... .. . ... ... : ... .. . ... : ... .. . ...
ROW 5E : ... .. . ... ... : ... .. . ... ... : ... .. . ... : ... .. . ... ... : ... .. . ... : ... .. . ... ... : ... .. . ... : ... .. . ...
ROW 5F : ... .. . ... ... : ... .. . ... ... : ... .. . ... : ... .. . ... ... : ... .. . ... : ... .. . ... ... : ... .. . ... : ... .. . ...
ROW 60 : ... .. . ... ... : ... .. . ... ... : ... .. . ... : 0-# 04 . ... F96 : ... .. . ... : ... .. . ... ... : ... .. . ... : ... .. . ...
ROW 61 : ... .. . ... ... : ... .. . ... ... : ... .. . ... : ... .. . ... ... : ... .. . ... : ... .. . ... ... : ... .. . ... : ... .. . ...
ROW 62 : ... .. . ... ... : ... .. . ... ... : ... .. . ... : ... .. . ... ... : ... .. . ... : ... .. . ... ... : ... .. . ... : ... .. . ...
ROW 63 : ... .. . ... ... : ... .. . ... ... : ... .. . ... : ... .. . ... ... : ... .. . ... : ... .. . ... ... : ... .. . ... : ... .. . ...
ROW 64 : ... .. . ... ... : ... .. . ... ... : ... .. . ... : ... .. . ... ... : ... .. . ... : ... .. . ... ... : ... .. . ... : ... .. . ...
ROW 65 : ... .. . ... ... : ... .. . ... ... : ... .. . ... : ... .. . ... ... : ... .. . ... : ... .. . ... ... : ... .. . ... : ... .. . ...
ROW 66 : ... .. . ... ... : ... .. . ... ... : ... .. . ... : ... .. . ... ... : ... .. . ... : ... .. . ... ... : ... .. . ... : ... .. . ...
ROW 67 : ... .. . ... ... : ... .. . ... ... : ... .. . ... : ... .. . ... ... : ... .. . ... : ... .. . ... ... : ... .. . ... : ... .. . ...
ROW 68 : ... .. . ... ... : ... .. . ... ... : ... .. . ... : 0-# 04 . ... F96 : ... .. . ... : ... .. . ... ... : ... .. . ... : ... .. . ...
ROW 69 : ... .. . ... ... : ... .. . ... ... : ... .. . ... : ... .. . ... ... : ... .. . ... : ... .. . ... ... : ... .. . ... : ... .. . ...
ROW 6A : ... .. . ... ... : ... .. . ... ... : ... .. . ... : ... .. . ... ... : ... .. . ... : ... .. . ... ... : ... .. . ... : ... .. . ...
ROW 6B : ... .. . ... ... : ... .. . ... ... : ... .. . ... : ... .. . ... ... : ... .. . ... : ... .. . ... ... : ... .. . ... : ... .. . ...
ROW 6C : ... .. . ... ... : ... .. . ... ... : ... .. . ... : ... .. . ... ... : ... .. . ... : ... .. . ... ... : ... .. . ... : ... .. . ...
ROW 6D : ... .. . ... ... : ... .. . ... ... : ... .. . ... : ... .. . ... ... : ... .. . ... : ... .. . ... ... : ... .. . ... : ... .. . ...
ROW 6E : ... .. . ... ... : ... .. . ... ... : ... .. . ... : ... .. . ... ... : ... .. . ... : ... .. . ... ... : ... .. . ... : ... .. . ...
ROW 6F : ... .. . ... ... : ... .. . ... ... : ... .. . ... : ... .. . ... ... : ... .. . ... : ... .. . ... ... : ... .. . ... : ... .. . ...
ROW 70 : ... .. . ... ... : ... .. . ... ... : ... .. . ... : 0-# 04 . ... F96 : ... .. . ... : ... .. . ... ... : ... .. . ... : ... .. . ...
ROW 71 : ... .. . ... ... : ... .. . ... ... : ... .. . ... : ... .. . ... ... : ... .. . ... : ... .. . ... ... : ... .. . ... : ... .. . ...
ROW 72 : ... .. . ... ... : ... .. . ... ... : ... .. . ... : ... .. . ... ... : ... .. . ... : ... .. . ... ... : ... .. . ... : ... .. . ...
ROW 73 : ... .. . ... ... : ... .. . ... ... : ... .. . ... : ... .. . ... ... : ... .. . ... : ... .. . ... ... : ... .. . ... : ... .. . ...
ROW 74 : ... .. . ... ... : ... .. . ... ... : ... .. . ... : ... .. . ... ... : ... .. . ... : ... .. . ... ... : ... .. . ... : ... .. . ...
ROW 75 : ... .. . ... ... : ... .. . ... ... : ... .. . ... : ... .. . ... ... : ... .. . ... : ... .. . ... ... : ... .. . ... : ... .. . ...
ROW 76 : ... .. . ... ... : ... .. . ... ... : ... .. . ... : ... .. . ... ... : ... .. . ... : ... .. . ... ... : ... .. . ... : ... .. . ...
ROW 77 : ... .. . ... ... : ... .. . ... ... : ... .. . ... : ... .. . ... ... : ... .. . ... : ... .. . ... ... : ... .. . ... : ... .. . ...
ROW 78 : ... .. . ... ... : ... .. . ... ... : ... .. . ... : 0-# 03 . ... F96 : ... .. . ... : ... .. . ... ... : ... .. . ... : ... .. . ...
ROW 79 : ... .. . ... ... : ... .. . ... ... : ... .. . ... : ... .. . ... ... : ... .. . ... : ... .. . ... ... : ... .. . ... : ... .. . ...
ROW 7A : ... .. . ... ... : ... .. . ... ... : ... .. . ... : ... .. . ... ... : ... .. . ... : ... .. . ... ... : ... .. . ... : ... .. . ...
ROW 7B : ... .. . ... ... : ... .. . ... ... : ... .. . ... : ... .. . ... ... : ... .. . ... : ... .. . ... ... : ... .. . ... : ... .. . ...
ROW 7C : ... .. . ... ... : ... .. . ... ... : ... .. . ... : ... .. . ... ... : ... .. . ... : ... .. . ... ... : ... .. . ... : ... .. . ...
ROW 7D : ... .. . ... ... : ... .. . ... ... : ... .. . ... : 0-# 03 . ... ... : ... .. . ... : ... .. . ... ... : ... .. . ... : ... .. . ...
ROW 7E : ... .. . ... ... : ... .. . ... ... : ... .. . ... : ... .. . ... ... : ... .. . ... : ... .. . ... ... : ... .. . ... : ... .. . ...
ROW 7F : ... .. . ... ... : ... .. . ... ... : ... .. . ... : ... .. . ... ... : ... .. . ... : ... .. . ... ... : ... .. . ... : ... .. . ...
PATTERN 10
ROW 00 : G-4 01 6 V02 P81 : ... .. . ... ... : ... .. . ... : ... .. . ... ... : ... .. . ... : ... .. . ... ... : ... .. . ... : ... .. . ...
ROW 01 : A-4 01 . ... ... : ... .. . ... ... : ... .. . ... : ... .. . ... ... : ... .. . ... : ... .. . ... ... : ... .. . ... : ... .. . ...
ROW 02 : ... .. . ... ... : ... .. . ... ... : ... .. . ... : ... .. . ... ... : ... .. . ... : ... .. . ... ... : ... .. . ... : ... .. . ...
ROW 03 : ... .. . ... ... : ... .. . ... ... : ... .. . ... : ... .. . ... ... : ... .. . ... : ... .. . ... ... : ... .. . ... : ... .. . ...
ROW 04 : ... .. . ... ... : ... .. . ... ... : ... .. . ... : ... .. . ... ... : ... .. . ... : ... .. . ... ... : ... .. . ... : ... .. . ...
ROW 05 : ... .. . ... ... : ... .. . ... ... : ... .. . ... : ... .. . ... ... : ... .. . ... : ... .. . ... ... : ... .. . ... : ... .. . ...
ROW 06 : ... .. . ... ... : ... .. . ... ... : ... .. . ... : ... .. . ... ... : ... .. . ... : ... .. . ... ... : ... .. . ... : ... .. . ...
ROW 07 : ... .. . ... ... : ... .. . ... ... : ... .. . ... : ... .. . ... ... : ... .. . ... : ... .. . ... ... : ... .. . ... : ... .. . ...
ROW 08 : ... .. . ... ... : ... .. . ... ... : ... .. . ... : ... .. . ... ... : ... .. . ... : ... .. . ... ... : ... .. . ... : ... .. . ...
ROW 09 : ... .. . ... ... : ... .. . ... ... : ... .. . ... : ... .. . ... ... : ... .. . ... : ... .. . ... ... : ... .. . ... : ... .. . ...
ROW 0A : ... .. . ... ... : ... .. . ... ... : ... .. . ... : ... .. . ... ... : ... .. . ... : ... .. . ... ... : ... .. . ... : ... .. . ...
ROW 0B : ... .. . ... ... : ... .. . ... ... : ... .. . ... : ... .. . ... ... : ... .. . ... : ... .. . ... ... : ... .. . ... : ... .. . ...
ROW 0C : E-4 01 . ... ... : ... .. . ... ... : ... .. . ... : ... .. . ... ... : ... .. . ... : ... .. . ... ... : ... .. . ... : ... .. . ...
ROW 0D : ... .. . ... ... : ... .. . ... ... : ... .. . ... : ... .. . ... ... : ... .. . ... : ... .. . ... ... : ... .. . ... : ... .. . ...
ROW 0E : ... .. . ... ... : ... .. . ... ... : ... .. . ... : ... .. . ... ... : ... .. . ... : ... .. . ... ... : ... .. . ... : ... .. . ...
ROW 0F : ... .. . ... ... : ... .. . ... ... : ... .. . ... : ... .. . ... ... : ... .. . ... : ... .. . ... ... : ... .. . ... : ... .. . ...
ROW 10 : ... .. . ... ... : ... .. . ... ... : ... .. . ... : ... .. . ... ... : ... .. . ... : ... .. . ... ... : ... .. . ... : ... .. . ...
ROW 11 : ... .. . ... ... : ... .. . ... ... : ... .. . ... : ... .. . ... ... : ... .. . ... : ... .. . ... ... : ... .. . ... : ... .. . ...
ROW 12 : ... .. . ... ... : ... .. . ... ... : ... .. . ... : ... .. . ... ... : ... .. . ... : ... .. . ... ... : ... .. . ... : ... .. . ...
ROW 13 : ... .. . ... ... : ... .. . ... ... : ... .. . ... : ... .. . ... ... : ... .. . ... : ... .. . ... ... : ... .. . ... : ... .. . ...
ROW 14 : F-4 01 . ... ... : ... .. . ... ... : ... .. . ... : ... .. . ... ... : ... .. . ... : ... .. . ... ... : ... .. . ... : ... .. . ...
ROW 15 : ... .. . ... ... : ... .. . ... ... : ... .. . ... : ... .. . ... ... : ... .. . ... : ... .. . ... ... : ... .. . ... : ... .. . ...
ROW 16 : ... .. . ... ... : ... .. . ... ... : ... .. . ... : ... .. . ... ... : ... .. . ... : ... .. . ... ... : ... .. . ... : ... .. . ...
ROW 17 : ... .. . ... ... : ... .. . ... ... : ... .. . ... : ... .. . ... ... : ... .. . ... : ... .. . ... ... : ... .. . ... : ... .. . ...
ROW 18 : ... .. . ... ... : ... .. . ... ... : ... .. . ... : ... .. . ... ... : ... .. . ... : ... .. . ... ... : ... .. . ... : ... .. . ...
ROW 19 : ... .. . ... ... : ... .. . ... ... : ... .. . ... : ... .. . ... ... : ... .. . ... : ... .. . ... ... : ... .. . ... : ... .. . ...
ROW 1A : ... .. . ... ... : ... .. . ... ... : ... .. . ... : ... .. . ... ... : ... .. . ... : ... .. . ... ... : ... .. . ... : ... .. . ...
ROW 1B : ... .. . ... ... : ... .. . ... ... : ... .. . ... : ... .. . ... ... : ... .. . ... : ... .. . ... ... : ... .. . ... : ... .. . ...
ROW 1C : C#5 01 . ... ... : ... .. . ... ... : ... .. . ... : ... .. . ... ... : ... .. . ... : ... .. . ... ... : ... .. . ... : ... .. . ...
ROW 1D : ... .. . ... ... : ... .. . ... ... : ... .. . ... : ... .. . ... ... : ... .. . ... : ... .. . ... ... : ... .. . ... : ... .. . ...
ROW 1E : ... .. . ... ... : ... .. . ... ... : ... .. . ... : ... .. . ... ... : ... .. . ... : ... .. . ... ... : ... .. . ... : ... .. . ...
ROW 1F : ... .. . ... ... : ... .. . ... ... : ... .. . ... : ... .. . ... ... : ... .. . ... : ... .. . ... ... : ... .. . ... : ... .. . ...
ROW 20 : A-4 01 . ... ... : ... .. . ... ... : ... .. . ... : ... .. . ... ... : ... .. . ... : ... .. . ... ... : ... .. . ... : ... .. . ...
ROW 21 : ... .. . ... ... : ... .. . ... ... : ... .. . ... : ... .. . ... ... : ... .. . ... : ... .. . ... ... : ... .. . ... : ... .. . ...
ROW 22 : ... .. . ... ... : ... .. . ... ... : ... .. . ... : ... .. . ... ... : ... .. . ... : ... .. . ... ... : ... .. . ... : ... .. . ...
ROW 23 : ... .. . ... ... : ... .. . ... ... : ... .. . ... : ... .. . ... ... : ... .. . ... : ... .. . ... ... : ... .. . ... : ... .. . ...
ROW 24 : ... .. . ... ... : ... .. . ... ... : ... .. . ... : ... .. . ... ... : ... .. . ... : ... .. . ... ... : ... .. . ... : ... .. . ...
ROW 25 : ... .. . ... ... : ... .. . ... ... : ... .. . ... : ... .. . ... ... : ... .. . ... : ... .. . ... ... : ... .. . ... : ... .. . ...
ROW 26 : ... .. . ... ... : ... .. . ... ... : ... .. . ... : ... .. . ... ... : ... .. . ... : ... .. . ... ... : ... .. . ... : ... .. . ...
ROW 27 : ... .. . ... ... : ... .. . ... ... : ... .. . ... : ... .. . ... ... : ... .. . ... : ... .. . ... ... : ... .. . ... : ... .. . ...
ROW 28 : ... .. . ... ... : ... .. . ... ... : ... .. . ... : ... .. . ... ... : ... .. . ... : ... .. . ... ... : ... .. . ... : ... .. . ...
ROW 29 : ... .. . ... ... : ... .. . ... ... : ... .. . ... : ... .. . ... ... : ... .. . ... : ... .. . ... ... : ... .. . ... : ... .. . ...
ROW 2A : ... .. . ... ... : ... .. . ... ... : ... .. . ... : ... .. . ... ... : ... .. . ... : ... .. . ... ... : ... .. . ... : ... .. . ...
ROW 2B : ... .. . ... ... : ... .. . ... ... : ... .. . ... : ... .. . ... ... : ... .. . ... : ... .. . ... ... : ... .. . ... : ... .. . ...
ROW 2C : E-4 01 . ... ... : ... .. . ... ... : ... .. . ... : ... .. . ... ... : ... .. . ... : ... .. . ... ... : ... .. . ... : ... .. . ...
ROW 2D : ... .. . ... ... : ... .. . ... ... : ... .. . ... : ... .. . ... ... : ... .. . ... : ... .. . ... ... : ... .. . ... : ... .. . ...
ROW 2E : ... .. . ... ... : ... .. . ... ... : ... .. . ... : ... .. . ... ... : ... .. . ... : ... .. . ... ... : ... .. . ... : ... .. . ...
ROW 2F : ... .. . ... ... : ... .. . ... ... : ... .. . ... : ... .. . ... ... : ... .. . ... : ... .. . ... ... : ... .. . ... : ... .. . ...
ROW 30 : ... .. . ... ... : ... .. . ... ... : ... .. . ... : ... .. . ... ... : ... .. . ... : ... .. . ... ... : ... .. . ... : ... .. . ...
ROW 31 : ... .. . ... ... : ... .. . ... ... : ... .. . ... : ... .. . ... ... : ... .. . ... : ... .. . ... ... : ... .. . ... : ... .. . ...
ROW 32 : ... .. . ... ... : ... .. . ... ... : ... .. . ... : ... .. . ... ... : ... .. . ... : ... .. . ... ... : ... .. . ... : ... .. . ...
ROW 33 : ... .. . ... ... : ... .. . ... ... : ... .. . ... : ... .. . ... ... : ... .. . ... : ... .. . ... ... : ... .. . ... : ... .. . ...
ROW 34 : F-4 01 . ... ... : ... .. . ... ... : ... .. . ... : ... .. . ... ... : ... .. . ... : ... .. . ... ... : ... .. . ... : ... .. . ...
ROW 35 : ... .. . ... ... : ... .. . ... ... : ... .. . ... : ... .. . ... ... : ... .. . ... : ... .. . ... ... : ... .. . ... : ... .. . ...
ROW 36 : ... .. . ... ... : ... .. . ... ... : ... .. . ... : ... .. . ... ... : ... .. . ... : ... .. . ... ... : ... .. . ... : ... .. . ...
ROW 37 : ... .. . ... ... : ... .. . ... ... : ... .. . ... : ... .. . ... ... : ... .. . ... : ... .. . ... ... : ... .. . ... : ... .. . ...
ROW 38 : ... .. . ... ... : ... .. . ... ... : ... .. . ... : ... .. . ... ... : ... .. . ... : ... .. . ... ... : ... .. . ... : ... .. . ...
ROW 39 : ... .. . ... ... : ... .. . ... ... : ... .. . ... : ... .. . ... ... : ... .. . ... : ... .. . ... ... : ... .. . ... : ... .. . ...
ROW 3A : ... .. . ... ... : ... .. . ... ... : ... .. . ... : ... .. . ... ... : ... .. . ... : ... .. . ... ... : ... .. . ... : ... .. . ...
ROW 3B : ... .. . ... ... : ... .. . ... ... : ... .. . ... : ... .. . ... ... : ... .. . ... : ... .. . ... ... : ... .. . ... : ... .. . ...
ROW 3C : E-1 01 4 V00 P78 : ... .. . ... ... : ... .. . ... : ... .. . ... ... : ... .. . ... : ... .. . ... ... : ... .. . ... : ... .. . ...
ROW 3D : === .. . ... ... : ... .. . ... ... : ... .. . ... : ... .. . ... ... : ... .. . ... : ... .. . ... ... : ... .. . ... : ... .. . ...
ROW 3E : ... .. . ... ... : ... .. . ... ... : ... .. . ... : ... .. . ... ... : ... .. . ... : ... .. . ... ... : ... .. . ... : ... .. . ...
ROW 3F : ... .. . ... ... : ... .. . ... ... : ... .. . ... : ... .. . ... ... : ... .. . ... : ... .. . ... ... : ... .. . ... : ... .. . ...
ROW 40 : D-2 01 . ... ... : ... .. . ... ... : ... .. . ... : ... .. . ... ... : ... .. . ... : ... .. . ... ... : ... .. . ... : ... .. . ...
ROW 41 : ... .. . ... ... : ... .. . ... ... : ... .. . ... : ... .. . ... ... : ... .. . ... : ... .. . ... ... : ... .. . ... : ... .. . ...
ROW 42 : ... .. . ... ... : ... .. . ... ... : ... .. . ... : ... .. . ... ... : ... .. . ... : ... .. . ... ... : ... .. . ... : ... .. . ...
ROW 43 : ... .. . ... ... : ... .. . ... ... : ... .. . ... : ... .. . ... ... : ... .. . ... : ... .. . ... ... : ... .. . ... : ... .. . ...
ROW 44 : G-4 01 6 V02 P81 : ... .. . ... ... : ... .. . ... : ... .. . ... ... : ... .. . ... : ... .. . ... ... : ... .. . ... : ... .. . ...
ROW 45 : A-4 01 . ... ... : ... .. . ... ... : ... .. . ... : ... .. . ... ... : ... .. . ... : ... .. . ... ... : ... .. . ... : ... .. . ...
ROW 46 : ... .. . ... ... : ... .. . ... ... : ... .. . ... : ... .. . ... ... : ... .. . ... : ... .. . ... ... : ... .. . ... : ... .. . ...
ROW 47 : ... .. . ... ... : ... .. . ... ... : ... .. . ... : ... .. . ... ... : ... .. . ... : ... .. . ... ... : ... .. . ... : ... .. . ...
ROW 48 : ... .. . ... ... : ... .. . ... ... : ... .. . ... : ... .. . ... ... : ... .. . ... : ... .. . ... ... : ... .. . ... : ... .. . ...
ROW 49 : ... .. . ... ... : ... .. . ... ... : ... .. . ... : ... .. . ... ... : ... .. . ... : ... .. . ... ... : ... .. . ... : ... .. . ...
ROW 4A : ... .. . ... ... : ... .. . ... ... : ... .. . ... : ... .. . ... ... : ... .. . ... : ... .. . ... ... : ... .. . ... : ... .. . ...
ROW 4B : ... .. . ... ... : ... .. . ... ... : ... .. . ... : ... .. . ... ... : ... .. . ... : ... .. . ... ... : ... .. . ... : ... .. . ...
ROW 4C : E-4 01 . ... ... : ... .. . ... ... : ... .. . ... : ... .. . ... ... : ... .. . ... : ... .. . ... ... : ... .. . ... : ... .. . ...
ROW 4D : ... .. . ... ... : ... .. . ... ... : ... .. . ... : ... .. . ... ... : ... .. . ... : ... .. . ... ... : ... .. . ... : ... .. . ...
ROW 4E : ... .. . ... ... : ... .. . ... ... : ... .. . ... : ... .. . ... ... : ... .. . ... : ... .. . ... ... : ... .. . ... : ... .. . ...
ROW 4F : ... .. . ... ... : ... .. . ... ... : ... .. . ... : ... .. . ... ... : ... .. . ... : ... .. . ... ... : ... .. . ... : ... .. . ...
ROW 50 : ... .. . ... ... : ... .. . ... ... : ... .. . ... : ... .. . ... ... : ... .. . ... : ... .. . ... ... : ... .. . ... : ... .. . ...
ROW 51 : ... .. . ... ... : ... .. . ... ... : ... .. . ... : ... .. . ... ... : ... .. . ... : ... .. . ... ... : ... .. . ... : ... .. . ...
ROW 52 : ... .. . ... ... : ... .. . ... ... : ... .. . ... : ... .. . ... ... : ... .. . ... : ... .. . ... ... : ... .. . ... : ... .. . ...
ROW 53 : ... .. . ... ... : ... .. . ... ... : ... .. . ... : ... .. . ... ... : ... .. . ... : ... .. . ... ... : ... .. . ... : ... .. . ...
ROW 54 : F-4 01 . ... ... : ... .. . ... ... : ... .. . ... : ... .. . ... ... : ... .. . ... : ... .. . ... ... : ... .. . ... : ... .. . ...
ROW 55 : ... .. . ... ... : ... .. . ... ... : ... .. . ... : ... .. . ... ... : ... .. . ... : ... .. . ... ... : ... .. . ... : ... .. . ...
ROW 56 : ... .. . ... ... : ... .. . ... ... : ... .. . ... : ... .. . ... ... : ... .. . ... : ... .. . ... ... : ... .. . ... : ... .. . ...
ROW 57 : ... .. . ... ... : ... .. . ... ... : ... .. . ... : ... .. . ... ... : ... .. . ... : ... .. . ... ... : ... .. . ... : ... .. . ...
ROW 58 : ... .. . ... ... : ... .. . ... ... : ... .. . ... : ... .. . ... ... : ... .. . ... : ... .. . ... ... : ... .. . ... : ... .. . ...
ROW 59 : ... .. . ... ... : ... .. . ... ... : ... .. . ... : ... .. . ... ... : ... .. . ... : ... .. . ... ... : ... .. . ... : ... .. . ...
ROW 5A : ... .. . ... ... : ... .. . ... ... : ... .. . ... : ... .. . ... ... : ... .. . ... : ... .. . ... ... : ... .. . ... : ... .. . ...
ROW 5B : ... .. . ... ... : ... .. . ... ... : ... .. . ... : ... .. . ... ... : ... .. . ... : ... .. . ... ... : ... .. . ... : ... .. . ...
ROW 5C : C#5 01 . ... ... : ... .. . ... ... : ... .. . ... : ... .. . ... ... : ... .. . ... : ... .. . ... ... : ... .. . ... : ... .. . ...
ROW 5D : ... .. . ... ... : ... .. . ... ... : ... .. . ... : ... .. . ... ... : ... .. . ... : ... .. . ... ... : ... .. . ... : ... .. . ...
ROW 5E : ... .. . ... ... : ... .. . ... ... : ... .. . ... : ... .. . ... ... : ... .. . ... : ... .. . ... ... : ... .. . ... : ... .. . ...
ROW 5F : ... .. . ... ... : ... .. . ... ... : ... .. . ... : ... .. . ... ... : ... .. . ... : ... .. . ... ... : ... .. . ... : ... .. . ...
ROW 60 : ... .. . ... ... : ... .. . ... ... : ... .. . ... : ... .. . ... ... : ... .. . ... : ... .. . ... ... : ... .. . ... : ... .. . ...
ROW 61 : ... .. . ... ... : ... .. . ... ... : ... .. . ... : ... .. . ... ... : ... .. . ... : ... .. . ... ... : ... .. . ... : ... .. . ...
ROW 62 : ... .. . ... ... : ... .. . ... ... : ... .. . ... : ... .. . ... ... : ... .. . ... : ... .. . ... ... : ... .. . ... : ... .. . ...
ROW 63 : ... .. . ... ... : ... .. . ... ... : ... .. . ... : ... .. . ... ... : ... .. . ... : ... .. . ... ... : ... .. . ... : ... .. . ...
ROW 64 : ... .. . ... ... : ... .. . ... ... : ... .. . ... : ... .. . ... ... : ... .. . ... : ... .. . ... ... : ... .. . ... : ... .. . ...
ROW 65 : ... .. . ... ... : ... .. . ... ... : ... .. . ... : ... .. . ... ... : ... .. . ... : ... .. . ... ... : ... .. . ... : ... .. . ...
ROW 66 : ... .. . ... ... : ... .. . ... ... : ... .. . ... : ... .. . ... ... : ... .. . ... : ... .. . ... ... : ... .. . ... : ... .. . ...
ROW 67 : ... .. . ... ... : ... .. . ... ... : ... .. . ... : ... .. . ... ... : ... .. . ... : ... .. . ... ... : ... .. . ... : ... .. . ...
ROW 68 : ... .. . ... ... : ... .. . ... ... : ... .. . ... : ... .. . ... ... : ... .. . ... : ... .. . ... ... : ... .. . ... : ... .. . ...
ROW 69 : ... .. . ... ... : ... .. . ... ... : ... .. . ... : ... .. . ... ... : ... .. . ... : ... .. . ... ... : ... .. . ... : ... .. . ...
ROW 6A : ... .. . ... ... : ... .. . ... ... : ... .. . ... : ... .. . ... ... : ... .. . ... : ... .. . ... ... : ... .. . ... : ... .. . ...
ROW 6B : ... .. . ... ... : ... .. . ... ... : ... .. . ... : ... .. . ... ... : ... .. . ... : ... .. . ... ... : ... .. . ... : ... .. . ...
ROW 6C : ... .. . ... ... : ... .. . ... ... : ... .. . ... : ... .. . ... ... : ... .. . ... : ... .. . ... ... : ... .. . ... : ... .. . ...
ROW 6D : ... .. . ... ... : ... .. . ... ... : ... .. . ... : ... .. . ... ... : ... .. . ... : ... .. . ... ... : ... .. . ... : ... .. . ...
ROW 6E : ... .. . ... ... : ... .. . ... ... : ... .. . ... : ... .. . ... ... : ... .. . ... : ... .. . ... ... : ... .. . ... : ... .. . ...
ROW 6F : ... .. . ... ... : ... .. . ... ... : ... .. . ... : ... .. . ... ... : ... .. . ... : ... .. . ... ... : ... .. . ... : ... .. . ...
ROW 70 : ... .. . ... ... : ... .. . ... ... : ... .. . ... : ... .. . ... ... : ... .. . ... : ... .. . ... ... : ... .. . ... : ... .. . ...
ROW 71 : ... .. . ... ... : ... .. . ... ... : ... .. . ... : ... .. . ... ... : ... .. . ... : ... .. . ... ... : ... .. . ... : ... .. . ...
ROW 72 : ... .. . ... ... : ... .. . ... ... : ... .. . ... : ... .. . ... ... : ... .. . ... : ... .. . ... ... : ... .. . ... : ... .. . ...
ROW 73 : ... .. . ... ... : ... .. . ... ... : ... .. . ... : ... .. . ... ... : ... .. . ... : ... .. . ... ... : ... .. . ... : ... .. . ...
ROW 74 : ... .. . ... ... : ... .. . ... ... : ... .. . ... : ... .. . ... ... : ... .. . ... : ... .. . ... ... : ... .. . ... : ... .. . ...
ROW 75 : ... .. . ... ... : ... .. . ... ... : ... .. . ... : ... .. . ... ... : ... .. . ... : ... .. . ... ... : ... .. . ... : ... .. . ...
ROW 76 : ... .. . ... ... : ... .. . ... ... : ... .. . ... : ... .. . ... ... : ... .. . ... : ... .. . ... ... : ... .. . ... : ... .. . ...
ROW 77 : ... .. . ... ... : ... .. . ... ... : ... .. . ... : ... .. . ... ... : ... .. . ... : ... .. . ... ... : ... .. . ... : ... .. . ...
ROW 78 : ... .. . ... ... : ... .. . ... ... : ... .. . ... : ... .. . ... ... : ... .. . ... : ... .. . ... ... : ... .. . ... : ... .. . ...
ROW 79 : ... .. . ... ... : ... .. . ... ... : ... .. . ... : ... .. . ... ... : ... .. . ... : ... .. . ... ... : ... .. . ... : ... .. . ...
ROW 7A : ... .. . ... ... : ... .. . ... ... : ... .. . ... : ... .. . ... ... : ... .. . ... : ... .. . ... ... : ... .. . ... : ... .. . ...
ROW 7B : ... .. . ... ... : ... .. . ... ... : ... .. . ... : ... .. . ... ... : ... .. . ... : ... .. . ... ... : ... .. . ... : ... .. . ...
ROW 7C : ... .. . ... ... : ... .. . ... ... : ... .. . ... : ... .. . ... ... : ... .. . ... : ... .. . ... ... : ... .. . ... : ... .. . ...
ROW 7D : ... .. . ... ... : ... .. . ... ... : ... .. . ... : ... .. . ... ... : ... .. . ... : ... .. . ... ... : ... .. . ... : ... .. . ...
ROW 7E : ... .. . ... ... : ... .. . ... ... : ... .. . ... : ... .. . ... ... : ... .. . ... : ... .. . ... ... : ... .. . ... : ... .. . ...
ROW 7F : ... .. . ... ... : ... .. . ... ... : ... .. . ... : ... .. . ... ... : ... .. . ... : ... .. . ... ... : ... .. . ... : ... .. . ...
PATTERN 11
ROW 00 : C-4 01 . ... ... : ... .. . ... ... : ... .. . ... : ... .. . ... ... : ... .. . ... : ... .. . ... ... : ... .. . ... : ... .. . ...
ROW 01 : D-4 01 . ... ... : ... .. . ... ... : ... .. . ... : ... .. . ... ... : ... .. . ... : ... .. . ... ... : ... .. . ... : ... .. . ...
ROW 02 : ... .. . ... ... : ... .. . ... ... : ... .. . ... : ... .. . ... ... : ... .. . ... : ... .. . ... ... : ... .. . ... : ... .. . ...
ROW 03 : ... .. . ... ... : ... .. . ... ... : ... .. . ... : ... .. . ... ... : ... .. . ... : ... .. . ... ... : ... .. . ... : ... .. . ...
ROW 04 : ... .. . ... ... : ... .. . ... ... : ... .. . ... : ... .. . ... ... : ... .. . ... : ... .. . ... ... : ... .. . ... : ... .. . ...
ROW 05 : ... .. . ... ... : ... .. . ... ... : ... .. . ... : ... .. . ... ... : ... .. . ... : ... .. . ... ... : ... .. . ... : ... .. . ...
ROW 06 : ... .. . ... ... : ... .. . ... ... : ... .. . ... : ... .. . ... ... : ... .. . ... : ... .. . ... ... : ... .. . ... : ... .. . ...
ROW 07 : ... .. . ... ... : ... .. . ... ... : ... .. . ... : ... .. . ... ... : ... .. . ... : ... .. . ... ... : ... .. . ... : ... .. . ...
ROW 08 : ... .. . ... ... : ... .. . ... ... : ... .. . ... : ... .. . ... ... : ... .. . ... : ... .. . ... ... : ... .. . ... : ... .. . ...
ROW 09 : ... .. . ... ... : ... .. . ... ... : ... .. . ... : ... .. . ... ... : ... .. . ... : ... .. . ... ... : ... .. . ... : ... .. . ...
ROW 0A : ... .. . ... ... : ... .. . ... ... : ... .. . ... : ... .. . ... ... : ... .. . ... : ... .. . ... ... : ... .. . ... : ... .. . ...
ROW 0B : ... .. . ... ... : ... .. . ... ... : ... .. . ... : ... .. . ... ... : ... .. . ... : ... .. . ... ... : ... .. . ... : ... .. . ...
ROW 0C : E-4 01 . ... ... : ... .. . ... ... : ... .. . ... : ... .. . ... ... : ... .. . ... : ... .. . ... ... : ... .. . ... : ... .. . ...
ROW 0D : ... .. . ... ... : ... .. . ... ... : ... .. . ... : ... .. . ... ... : ... .. . ... : ... .. . ... ... : ... .. . ... : ... .. . ...
ROW 0E : ... .. . ... ... : ... .. . ... ... : ... .. . ... : ... .. . ... ... : ... .. . ... : ... .. . ... ... : ... .. . ... : ... .. . ...
ROW 0F : ... .. . ... ... : ... .. . ... ... : ... .. . ... : ... .. . ... ... : ... .. . ... : ... .. . ... ... : ... .. . ... : ... .. . ...
ROW 10 : ... .. . ... ... : ... .. . ... ... : ... .. . ... : ... .. . ... ... : ... .. . ... : ... .. . ... ... : ... .. . ... : ... .. . ...
ROW 11 : ... .. . ... ... : ... .. . ... ... : ... .. . ... : ... .. . ... ... : ... .. . ... : ... .. . ... ... : ... .. . ... : ... .. . ...
ROW 12 : ... .. . ... ... : ... .. . ... ... : ... .. . ... : ... .. . ... ... : ... .. . ... : ... .. . ... ... : ... .. . ... : ... .. . ...
ROW 13 : ... .. . ... ... : ... .. . ... ... : ... .. . ... : ... .. . ... ... : ... .. . ... : ... .. . ... ... : ... .. . ... : ... .. . ...
ROW 14 : D-4 01 . ... ... : ... .. . ... ... : ... .. . ... : ... .. . ... ... : ... .. . ... : ... .. . ... ... : ... .. . ... : ... .. . ...
ROW 15 : ... .. . ... ... : ... .. . ... ... : ... .. . ... : ... .. . ... ... : ... .. . ... : ... .. . ... ... : ... .. . ... : ... .. . ...
ROW 16 : ... .. . ... ... : ... .. . ... ... : ... .. . ... : ... .. . ... ... : ... .. . ... : ... .. . ... ... : ... .. . ... : ... .. . ...
ROW 17 : ... .. . ... ... : ... .. . ... ... : ... .. . ... : ... .. . ... ... : ... .. . ... : ... .. . ... ... : ... .. . ... : ... .. . ...
ROW 18 : ... .. . ... ... : ... .. . ... ... : ... .. . ... : ... .. . ... ... : ... .. . ... : ... .. . ... ... : ... .. . ... : ... .. . ...
ROW 19 : ... .. . ... ... : ... .. . ... ... : ... .. . ... : ... .. . ... ... : ... .. . ... : ... .. . ... ... : ... .. . ... : ... .. . ...
ROW 1A : ... .. . ... ... : ... .. . ... ... : ... .. . ... : ... .. . ... ... : ... .. . ... : ... .. . ... ... : ... .. . ... : ... .. . ...
ROW 1B : ... .. . ... ... : ... .. . ... ... : ... .. . ... : ... .. . ... ... : ... .. . ... : ... .. . ... ... : ... .. . ... : ... .. . ...
ROW 1C : E-4 01 . ... ... : ... .. . ... ... : ... .. . ... : ... .. . ... ... : ... .. . ... : ... .. . ... ... : ... .. . ... : ... .. . ...
ROW 1D : ... .. . ... ... : ... .. . ... ... : ... .. . ... : ... .. . ... ... : ... .. . ... : ... .. . ... ... : ... .. . ... : ... .. . ...
ROW 1E : ... .. . ... ... : ... .. . ... ... : ... .. . ... : ... .. . ... ... : ... .. . ... : ... .. . ... ... : ... .. . ... : ... .. . ...
ROW 1F : ... .. . ... ... : ... .. . ... ... : ... .. . ... : ... .. . ... ... : ... .. . ... : ... .. . ... ... : ... .. . ... : ... .. . ...
ROW 20 : F-4 01 . ... ... : ... .. . ... ... : ... .. . ... : ... .. . ... ... : ... .. . ... : ... .. . ... ... : ... .. . ... : ... .. . ...
ROW 21 : ... .. . ... ... : ... .. . ... ... : ... .. . ... : ... .. . ... ... : ... .. . ... : ... .. . ... ... : ... .. . ... : ... .. . ...
ROW 22 : ... .. . ... ... : ... .. . ... ... : ... .. . ... : ... .. . ... ... : ... .. . ... : ... .. . ... ... : ... .. . ... : ... .. . ...
ROW 23 : ... .. . ... ... : ... .. . ... ... : ... .. . ... : ... .. . ... ... : ... .. . ... : ... .. . ... ... : ... .. . ... : ... .. . ...
ROW 24 : ... .. . ... ... : ... .. . ... ... : ... .. . ... : ... .. . ... ... : ... .. . ... : ... .. . ... ... : ... .. . ... : ... .. . ...
ROW 25 : ... .. . ... ... : ... .. . ... ... : ... .. . ... : ... .. . ... ... : ... .. . ... : ... .. . ... ... : ... .. . ... : ... .. . ...
ROW 26 : ... .. . ... ... : ... .. . ... ... : ... .. . ... : ... .. . ... ... : ... .. . ... : ... .. . ... ... : ... .. . ... : ... .. . ...
ROW 27 : ... .. . ... ... : ... .. . ... ... : ... .. . ... : ... .. . ... ... : ... .. . ... : ... .. . ... ... : ... .. . ... : ... .. . ...
ROW 28 : ... .. . ... ... : ... .. . ... ... : ... .. . ... : ... .. . ... ... : ... .. . ... : ... .. . ... ... : ... .. . ... : ... .. . ...
ROW 29 : ... .. . ... ... : ... .. . ... ... : ... .. . ... : ... .. . ... ... : ... .. . ... : ... .. . ... ... : ... .. . ... : ... .. . ...
ROW 2A : ... .. . ... ... : ... .. . ... ... : ... .. . ... : ... .. . ... ... : ... .. . ... : ... .. . ... ... : ... .. . ... : ... .. . ...
ROW 2B : ... .. . ... ... : ... .. . ... ... : ... .. . ... : ... .. . ... ... : ... .. . ... : ... .. . ... ... : ... .. . ... : ... .. . ...
ROW 2C : E-4 01 . ... ... : ... .. . ... ... : ... .. . ... : ... .. . ... ... : ... .. . ... : ... .. . ... ... : ... .. . ... : ... .. . ...
ROW 2D : ... .. . ... ... : ... .. . ... ... : ... .. . ... : ... .. . ... ... : ... .. . ... : ... .. . ... ... : ... .. . ... : ... .. . ...
ROW 2E : ... .. . ... ... : ... .. . ... ... : ... .. . ... : ... .. . ... ... : ... .. . ... : ... .. . ... ... : ... .. . ... : ... .. . ...
ROW 2F : ... .. . ... ... : ... .. . ... ... : ... .. . ... : ... .. . ... ... : ... .. . ... : ... .. . ... ... : ... .. . ... : ... .. . ...
ROW 30 : ... .. . ... ... : ... .. . ... ... : ... .. . ... : ... .. . ... ... : ... .. . ... : ... .. . ... ... : ... .. . ... : ... .. . ...
ROW 31 : ... .. . ... ... : ... .. . ... ... : ... .. . ... : ... .. . ... ... : ... .. . ... : ... .. . ... ... : ... .. . ... : ... .. . ...
ROW 32 : ... .. . ... ... : ... .. . ... ... : ... .. . ... : ... .. . ... ... : ... .. . ... : ... .. . ... ... : ... .. . ... : ... .. . ...
ROW 33 : ... .. . ... ... : ... .. . ... ... : ... .. . ... : ... .. . ... ... : ... .. . ... : ... .. . ... ... : ... .. . ... : ... .. . ...
ROW 34 : D-4 01 . ... ... : ... .. . ... ... : ... .. . ... : ... .. . ... ... : ... .. . ... : ... .. . ... ... : ... .. . ... : ... .. . ...
ROW 35 : ... .. . ... ... : ... .. . ... ... : ... .. . ... : ... .. . ... ... : ... .. . ... : ... .. . ... ... : ... .. . ... : ... .. . ...
ROW 36 : ... .. . ... ... : ... .. . ... ... : ... .. . ... : ... .. . ... ... : ... .. . ... : ... .. . ... ... : ... .. . ... : ... .. . ...
ROW 37 : ... .. . ... ... : ... .. . ... ... : ... .. . ... : ... .. . ... ... : ... .. . ... : ... .. . ... ... : ... .. . ... : ... .. . ...
ROW 38 : ... .. . ... ... : ... .. . ... ... : ... .. . ... : ... .. . ... ... : ... .. . ... : ... .. . ... ... : ... .. . ... : ... .. . ...
ROW 39 : ... .. . ... ... : ... .. . ... ... : ... .. . ... : ... .. . ... ... : ... .. . ... : ... .. . ... ... : ... .. . ... : ... .. . ...
ROW 3A : ... .. . ... ... : ... .. . ... ... : ... .. . ... : ... .. . ... ... : ... .. . ... : ... .. . ... ... : ... .. . ... : ... .. . ...
ROW 3B : ... .. . ... ... : ... .. . ... ... : ... .. . ... : ... .. . ... ... : ... .. . ... : ... .. . ... ... : ... .. . ... : ... .. . ...
ROW 3C : D-1 01 4 V00 P78 : ... .. . ... ... : ... .. . ... : ... .. . ... ... : ... .. . ... : ... .. . ... ... : ... .. . ... : ... .. . ...
ROW 3D : === .. . ... ... : ... .. . ... ... : ... .. . ... : ... .. . ... ... : ... .. . ... : ... .. . ... ... : ... .. . ... : ... .. . ...
ROW 3E : ... .. . ... ... : ... .. . ... ... : ... .. . ... : ... .. . ... ... : ... .. . ... : ... .. . ... ... : ... .. . ... : ... .. . ...
ROW 3F : ... .. . ... ... : ... .. . ... ... : ... .. . ... : ... .. . ... ... : ... .. . ... : ... .. . ... ... : ... .. . ... : ... .. . ...
ROW 40 : E-4 00 6 V02 P81 : ... .. . ... ... : ... .. . ... : ... .. . ... ... : ... .. . ... : ... .. . ... ... : ... .. . ... : ... .. . ...
ROW 41 : F-4 00 . ... ... : ... .. . ... ... : ... .. . ... : ... .. . ... ... : ... .. . ... : ... .. . ... ... : ... .. . ... : ... .. . ...
ROW 42 : ... .. . ... ... : ... .. . ... ... : ... .. . ... : ... .. . ... ... : ... .. . ... : ... .. . ... ... : ... .. . ... : ... .. . ...
ROW 43 : ... .. . ... ... : ... .. . ... ... : ... .. . ... : ... .. . ... ... : ... .. . ... : ... .. . ... ... : ... .. . ... : ... .. . ...
ROW 44 : ... .. . ... ... : ... .. . ... ... : ... .. . ... : ... .. . ... ... : ... .. . ... : ... .. . ... ... : ... .. . ... : ... .. . ...
ROW 45 : ... .. . ... ... : ... .. . ... ... : ... .. . ... : ... .. . ... ... : ... .. . ... : ... .. . ... ... : ... .. . ... : ... .. . ...
ROW 46 : ... .. . ... ... : ... .. . ... ... : ... .. . ... : ... .. . ... ... : ... .. . ... : ... .. . ... ... : ... .. . ... : ... .. . ...
ROW 47 : ... .. . ... ... : ... .. . ... ... : ... .. . ... : ... .. . ... ... : ... .. . ... : ... .. . ... ... : ... .. . ... : ... .. . ...
ROW 48 : ... .. . ... ... : ... .. . ... ... : ... .. . ... : ... .. . ... ... : ... .. . ... : ... .. . ... ... : ... .. . ... : ... .. . ...
ROW 49 : ... .. . ... ... : ... .. . ... ... : ... .. . ... : ... .. . ... ... : ... .. . ... : ... .. . ... ... : ... .. . ... : ... .. . ...
ROW 4A : ... .. . ... ... : ... .. . ... ... : ... .. . ... : ... .. . ... ... : ... .. . ... : ... .. . ... ... : ... .. . ... : ... .. . ...
ROW 4B : ... .. . ... ... : ... .. . ... ... : ... .. . ... : ... .. . ... ... : ... .. . ... : ... .. . ... ... : ... .. . ... : ... .. . ...
ROW 4C : G-4 00 . ... ... : ... .. . ... ... : ... .. . ... : ... .. . ... ... : ... .. . ... : ... .. . ... ... : ... .. . ... : ... .. . ...
ROW 4D : ... .. . ... ... : ... .. . ... ... : ... .. . ... : ... .. . ... ... : ... .. . ... : ... .. . ... ... : ... .. . ... : ... .. . ...
ROW 4E : ... .. . ... ... : ... .. . ... ... : ... .. . ... : ... .. . ... ... : ... .. . ... : ... .. . ... ... : ... .. . ... : ... .. . ...
ROW 4F : ... .. . ... ... : ... .. . ... ... : ... .. . ... : ... .. . ... ... : ... .. . ... : ... .. . ... ... : ... .. . ... : ... .. . ...
ROW 50 : F-4 00 . ... ... : ... .. . ... ... : ... .. . ... : ... .. . ... ... : ... .. . ... : ... .. . ... ... : ... .. . ... : ... .. . ...
ROW 51 : ... .. . ... ... : ... .. . ... ... : ... .. . ... : ... .. . ... ... : ... .. . ... : ... .. . ... ... : ... .. . ... : ... .. . ...
ROW 52 : ... .. . ... ... : ... .. . ... ... : ... .. . ... : ... .. . ... ... : ... .. . ... : ... .. . ... ... : ... .. . ... : ... .. . ...
ROW 53 : ... .. . ... ... : ... .. . ... ... : ... .. . ... : ... .. . ... ... : ... .. . ... : ... .. . ... ... : ... .. . ... : ... .. . ...
ROW 54 : C-5 00 . ... ... : ... .. . ... ... : ... .. . ... : ... .. . ... ... : ... .. . ... : ... .. . ... ... : ... .. . ... : ... .. . ...
ROW 55 : ... .. . ... ... : ... .. . ... ... : ... .. . ... : ... .. . ... ... : ... .. . ... : ... .. . ... ... : ... .. . ... : ... .. . ...
ROW 56 : ... .. . ... ... : ... .. . ... ... : ... .. . ... : ... .. . ... ... : ... .. . ... : ... .. . ... ... : ... .. . ... : ... .. . ...
ROW 57 : ... .. . ... ... : ... .. . ... ... : ... .. . ... : ... .. . ... ... : ... .. . ... : ... .. . ... ... : ... .. . ... : ... .. . ...
ROW 58 : A-4 00 . ... ... : ... .. . ... ... : ... .. . ... : ... .. . ... ... : ... .. . ... : ... .. . ... ... : ... .. . ... : ... .. . ...
ROW 59 : ... .. . ... ... : ... .. . ... ... : ... .. . ... : ... .. . ... ... : ... .. . ... : ... .. . ... ... : ... .. . ... : ... .. . ...
ROW 5A : ... .. . ... ... : ... .. . ... ... : ... .. . ... : ... .. . ... ... : ... .. . ... : ... .. . ... ... : ... .. . ... : ... .. . ...
ROW 5B : ... .. . ... ... : ... .. . ... ... : ... .. . ... : ... .. . ... ... : ... .. . ... : ... .. . ... ... : ... .. . ... : ... .. . ...
ROW 5C : ... .. . ... ... : ... .. . ... ... : ... .. . ... : ... .. . ... ... : ... .. . ... : ... .. . ... ... : ... .. . ... : ... .. . ...
ROW 5D : ... .. . ... ... : ... .. . ... ... : ... .. . ... : ... .. . ... ... : ... .. . ... : ... .. . ... ... : ... .. . ... : ... .. . ...
ROW 5E : ... .. . ... ... : ... .. . ... ... : ... .. . ... : ... .. . ... ... : ... .. . ... : ... .. . ... ... : ... .. . ... : ... .. . ...
ROW 5F : ... .. . ... ... : ... .. . ... ... : ... .. . ... : ... .. . ... ... : ... .. . ... : ... .. . ... ... : ... .. . ... : ... .. . ...
ROW 60 : ... .. . ... ... : ... .. . ... ... : ... .. . ... : ... .. . ... ... : ... .. . ... : ... .. . ... ... : ... .. . ... : ... .. . ...
ROW 61 : ... .. . ... ... : ... .. . ... ... : ... .. . ... : ... .. . ... ... : ... .. . ... : ... .. . ... ... : ... .. . ... : ... .. . ...
ROW 62 : ... .. . ... ... : ... .. . ... ... : ... .. . ... : ... .. . ... ... : ... .. . ... : ... .. . ... ... : ... .. . ... : ... .. . ...
ROW 63 : ... .. . ... ... : ... .. . ... ... : ... .. . ... : ... .. . ... ... : ... .. . ... : ... .. . ... ... : ... .. . ... : ... .. . ...
ROW 64 : ... .. . ... ... : ... .. . ... ... : ... .. . ... : ... .. . ... ... : ... .. . ... : ... .. . ... ... : ... .. . ... : ... .. . ...
ROW 65 : ... .. . ... ... : ... .. . ... ... : ... .. . ... : ... .. . ... ... : ... .. . ... : ... .. . ... ... : ... .. . ... : ... .. . ...
ROW 66 : ... .. . ... ... : ... .. . ... ... : ... .. . ... : ... .. . ... ... : ... .. . ... : ... .. . ... ... : ... .. . ... : ... .. . ...
ROW 67 : ... .. . ... ... : ... .. . ... ... : ... .. . ... : ... .. . ... ... : ... .. . ... : ... .. . ... ... : ... .. . ... : ... .. . ...
ROW 68 : ... .. . ... ... : ... .. . ... ... : ... .. . ... : ... .. . ... ... : ... .. . ... : ... .. . ... ... : ... .. . ... : ... .. . ...
ROW 69 : ... .. . ... ... : ... .. . ... ... : ... .. . ... : ... .. . ... ... : ... .. . ... : ... .. . ... ... : ... .. . ... : ... .. . ...
ROW 6A : ... .. . ... ... : ... .. . ... ... : ... .. . ... : ... .. . ... ... : ... .. . ... : ... .. . ... ... : ... .. . ... : ... .. . ...
ROW 6B : ... .. . ... ... : ... .. . ... ... : ... .. . ... : ... .. . ... ... : ... .. . ... : ... .. . ... ... : ... .. . ... : ... .. . ...
ROW 6C : ... .. . ... ... : ... .. . ... ... : ... .. . ... : ... .. . ... ... : ... .. . ... : ... .. . ... ... : ... .. . ... : ... .. . ...
ROW 6D : ... .. . ... ... : ... .. . ... ... : ... .. . ... : ... .. . ... ... : ... .. . ... : ... .. . ... ... : ... .. . ... : ... .. . ...
ROW 6E : ... .. . ... ... : ... .. . ... ... : ... .. . ... : ... .. . ... ... : ... .. . ... : ... .. . ... ... : ... .. . ... : ... .. . ...
ROW 6F : ... .. . ... ... : ... .. . ... ... : ... .. . ... : ... .. . ... ... : ... .. . ... : ... .. . ... ... : ... .. . ... : ... .. . ...
ROW 70 : ... .. . ... ... : ... .. . ... ... : ... .. . ... : ... .. . ... ... : ... .. . ... : ... .. . ... ... : ... .. . ... : ... .. . ...
ROW 71 : ... .. . ... ... : ... .. . ... ... : ... .. . ... : ... .. . ... ... : ... .. . ... : ... .. . ... ... : ... .. . ... : ... .. . ...
ROW 72 : ... .. . ... ... : ... .. . ... ... : ... .. . ... : ... .. . ... ... : ... .. . ... : ... .. . ... ... : ... .. . ... : ... .. . ...
ROW 73 : ... .. . ... ... : ... .. . ... ... : ... .. . ... : ... .. . ... ... : ... .. . ... : ... .. . ... ... : ... .. . ... : ... .. . ...
ROW 74 : ... .. . ... ... : ... .. . ... ... : ... .. . ... : ... .. . ... ... : ... .. . ... : ... .. . ... ... : ... .. . ... : ... .. . ...
ROW 75 : ... .. . ... ... : ... .. . ... ... : ... .. . ... : ... .. . ... ... : ... .. . ... : ... .. . ... ... : ... .. . ... : ... .. . ...
ROW 76 : ... .. . ... ... : ... .. . ... ... : ... .. . ... : ... .. . ... ... : ... .. . ... : ... .. . ... ... : ... .. . ... : ... .. . ...
ROW 77 : ... .. . ... ... : ... .. . ... ... : ... .. . ... : ... .. . ... ... : ... .. . ... : ... .. . ... ... : ... .. . ... : ... .. . ...
ROW 78 : ... .. . ... ... : ... .. . ... ... : ... .. . ... : ... .. . ... ... : ... .. . ... : ... .. . ... ... : ... .. . ... : ... .. . ...
ROW 79 : ... .. . ... ... : ... .. . ... ... : ... .. . ... : ... .. . ... ... : ... .. . ... : ... .. . ... ... : ... .. . ... : ... .. . ...
ROW 7A : ... .. . ... ... : ... .. . ... ... : ... .. . ... : ... .. . ... ... : ... .. . ... : ... .. . ... ... : ... .. . ... : ... .. . ...
ROW 7B : ... .. . ... ... : ... .. . ... ... : ... .. . ... : ... .. . ... ... : ... .. . ... : ... .. . ... ... : ... .. . ... : ... .. . ...
ROW 7C : ... .. . ... ... : ... .. . ... ... : ... .. . ... : ... .. . ... ... : ... .. . ... : ... .. . ... ... : ... .. . ... : ... .. . ...
ROW 7D : ... .. . ... ... : ... .. . ... ... : ... .. . ... : ... .. . ... ... : ... .. . ... : ... .. . ... ... : ... .. . ... : ... .. . ...
ROW 7E : ... .. . ... ... : ... .. . ... ... : ... .. . ... : ... .. . ... ... : ... .. . ... : ... .. . ... ... : ... .. . ... : ... .. . ...
ROW 7F : ... .. . ... ... : ... .. . ... ... : ... .. . ... : ... .. . ... ... : ... .. . ... : ... .. . ... ... : ... .. . ... : ... .. . ...

# track BOOKMARKS block
BOOKMARK 17 00   8  32   1 "6/8"

# track HEADER block
TRACK  32   0 150 "in anothe world short"
COLUMNS : 1 1 1 1 1 1 1 1

# track FRAMES block
ORDER 00 : 00 00 00 00 00 00 00 00
ORDER 01 : 01 01 01 01 01 01 01 01
ORDER 02 : 02 02 02 02 02 02 02 02
ORDER 03 : 03 03 03 03 03 03 03 03
ORDER 04 : 00 04 00 00 00 04 00 00
ORDER 05 : 01 05 01 01 01 05 01 01
ORDER 06 : 02 06 02 02 02 06 02 02
ORDER 07 : 03 07 03 03 03 07 03 03
ORDER 08 : 04 00 04 00 00 08 00 04
ORDER 09 : 05 01 05 01 01 09 01 05
ORDER 0A : 06 02 06 02 02 0A 02 06
ORDER 0B : 07 03 07 03 03 0B 03 07
ORDER 0C : 08 04 08 3C 30 04 04 08
ORDER 0D : 09 05 09 3D 31 05 05 09
ORDER 0E : 0A 06 0A 3E 32 06 06 0A
ORDER 0F : 0B 07 0B 3F 33 07 07 0B
ORDER 10 : 30 00 04 34 04 08 08 0C
ORDER 11 : 31 01 05 35 05 09 09 0D
ORDER 12 : 32 02 06 36 06 0A 0A 0E
ORDER 13 : 33 03 07 37 07 0B 0B 0F
ORDER 14 : 34 04 08 34 04 04 0C 10
ORDER 15 : 35 05 09 35 05 05 0D 11
ORDER 16 : 36 06 0A 36 06 06 0E 12
ORDER 17 : 37 07 0B 37 07 07 0F 13
ORDER 18 : 30 0C 0C 04 04 0C 08 0C
ORDER 19 : 31 0D 0D 05 05 0D 09 0D
ORDER 1A : 32 0E 0E 06 06 0E 0A 0E
ORDER 1B : 33 0F 0F 07 07 0F 0B 0F
ORDER 1C : 34 10 10 04 04 10 0C 10
ORDER 1D : 35 11 11 05 05 11 0D 11
ORDER 1E : 36 12 12 06 06 12 0E 12
ORDER 1F : 37 13 13 07 07 13 0F 13
ORDER 20 : 30 0C 0C 04 04 14 08 0C
ORDER 21 : 31 0D 0D 05 05 15 09 0D
ORDER 22 : 32 0E 0E 06 06 16 0A 0E
ORDER 23 : 33 0F 0F 07 07 17 0B 0F
ORDER 24 : 34 10 10 04 04 10 0C 10
ORDER 25 : 35 11 11 05 05 11 0D 11
ORDER 26 : 36 12 12 06 06 12 0E 12
ORDER 27 : 37 13 13 07 07 13 0F 13
ORDER 28 : 00 0C 00 08 08 14 10 14
ORDER 29 : 01 0D 01 09 09 15 11 15
ORDER 2A : 02 0E 02 0A 0A 16 12 16
ORDER 2B : 03 0F 03 0B 0B 17 13 17
ORDER 2C : 00 18 00 0C 0C 18 00 18
ORDER 2D : 01 19 01 0D 0D 19 01 19
ORDER 2E : 02 1A 02 0E 0E 1A 02 1A
ORDER 2F : 03 1B 03 0F 0F 1B 03 1B
ORDER 30 : 0C 14 24 10 0C 1C 00 1C
ORDER 31 : 0D 15 25 11 0D 1D 01 1D
ORDER 32 : 0E 16 26 12 0E 1E 02 1E
ORDER 33 : 0F 17 27 13 0F 1F 03 1F
ORDER 34 : 10 18 28 38 28 18 00 28
ORDER 35 : 11 19 29 39 29 19 01 29
ORDER 36 : 12 1A 2A 3A 2A 1A 02 2A
ORDER 37 : 13 1B 2B 3B 2B 1B 03 2B
ORDER 38 : 38 1C 14 14 10 20 14 20
ORDER 39 : 39 1D 15 15 11 21 15 21
ORDER 3A : 3A 1E 16 16 12 22 16 22
ORDER 3B : 3B 1F 17 17 13 23 17 23
ORDER 3C : 3C 20 18 18 14 24 18 24
ORDER 3D : 3D 21 19 19 15 25 19 25
ORDER 3E : 3E 22 1A 1A 16 26 1A 26
ORDER 3F : 3F 23 1B 1B 17 27 1B 27
ORDER 40 : 40 1C 14 14 10 28 14 20
ORDER 41 : 41 1D 15 15 11 29 15 21
ORDER 42 : 42 1E 16 16 12 2A 16 22
ORDER 43 : 43 1F 17 17 13 2B 17 23
ORDER 44 : 44 20 18 18 14 24 18 24
ORDER 45 : 45 21 19 19 15 25 19 25
ORDER 46 : 46 22 1A 1A 16 26 1A 26
ORDER 47 : 47 23 1B 1B 17 27 1B 27
ORDER 48 : 38 24 1C 2C 10 2C 14 20
ORDER 49 : 39 25 1D 2D 11 2D 15 21
ORDER 4A : 3A 26 1E 2E 12 2E 16 22
ORDER 4B : 3B 27 1F 2F 13 2F 17 23
ORDER 4C : 3C 28 20 30 14 18 18 24
ORDER 4D : 3D 29 21 31 15 19 19 25
ORDER 4E : 3E 2A 22 32 16 1A 1A 26
ORDER 4F : 3F 2B 23 33 17 1B 1B 27
ORDER 50 : 38 24 1C 2C 10 1C 14 20
ORDER 51 : 39 25 1D 2D 11 1D 15 21
ORDER 52 : 3A 26 1E 2E 12 1E 16 22
ORDER 53 : 3B 27 1F 2F 13 1F 17 23
ORDER 54 : 3C 28 20 30 14 18 18 24
ORDER 55 : 3D 29 21 31 15 19 19 25
ORDER 56 : 3E 2A 22 32 16 1A 1A 26
ORDER 57 : 3F 2B 23 33 17 1B 1B 27
ORDER 58 : 00 24 00 1C 2C 1C 1C 2C
ORDER 59 : 01 25 01 1D 2D 1D 1D 2D
ORDER 5A : 02 26 02 1E 2E 1E 1E 2E
ORDER 5B : 03 27 03 1F 2F 1F 1F 2F
ORDER 5C : 00 10 00 20 08 10 00 30
ORDER 5D : 01 11 01 21 09 11 01 31
ORDER 5E : 02 12 02 22 0A 12 02 32
ORDER 5F : 03 13 03 23 0B 13 03 33
ORDER 60 : 14 0C 24 24 08 14 00 04
ORDER 61 : 15 0D 25 25 09 15 01 05
ORDER 62 : 16 0E 26 26 0A 16 02 06
ORDER 63 : 17 0F 27 27 0B 17 03 07
ORDER 64 : 18 10 28 28 18 10 00 08
ORDER 65 : 19 11 29 29 19 11 01 09
ORDER 66 : 1A 12 2A 2A 1A 12 02 0A
ORDER 67 : 1B 13 2B 2B 1B 13 03 0B
ORDER 68 : 30 00 04 34 04 30 08 0C
ORDER 69 : 31 01 05 35 05 31 09 0D
ORDER 6A : 32 02 06 36 06 32 0A 0E
ORDER 6B : 33 03 07 37 07 33 0B 0F
ORDER 6C : 34 04 08 34 1C 04 0C 10
ORDER 6D : 35 05 09 35 1D 05 0D 11
ORDER 6E : 36 06 0A 36 1E 06 0E 12
ORDER 6F : 37 07 0B 37 1F 07 0F 13

# track PATTERNS block

# track BOOKMARKS block

# JSON block
JSON "{"
JSON "    ""vrc6-offset"": 12"
JSON "}"

# PARAMS_EMU block
USEEXTERNALOPLL 0

# End of export
